<?xml version="1.0" encoding="utf-8"?>
<!-- Generator: Adobe Illustrator 16.0.0, SVG Export Plug-In . SVG Version: 6.00 Build 0)  -->
<!DOCTYPE svg PUBLIC "-//W3C//DTD SVG 1.1//EN" "http://www.w3.org/Graphics/SVG/1.1/DTD/svg11.dtd">
<svg version="1.1" id="Layer_1" xmlns="http://www.w3.org/2000/svg" xmlns:xlink="http://www.w3.org/1999/xlink" x="0px" y="0px"
	 width="50px" height="50px" viewBox="0 0 50 50" enable-background="new 0 0 50 50" xml:space="preserve">
<g>
	<g>
		<path fill="#58595B" d="M12.902,17.277c-1.007-6.909,3.796-13.351,10.706-14.358c3.352-0.484,6.685,0.358,9.396,2.38
			c2.711,2.022,4.473,4.98,4.96,8.327l-1.484,0.217c-0.43-2.951-1.982-5.559-4.373-7.341c-2.39-1.782-5.333-2.526-8.282-2.099
			c-6.092,0.889-10.326,6.567-9.438,12.657L12.902,17.277z"/>
	</g>
	<g>
		<path fill="#58595B" d="M36.375,37.966l-0.217-1.484c6.092-0.888,10.325-6.565,9.438-12.656c-0.43-2.951-1.982-5.559-4.373-7.341
			c-2.391-1.784-5.333-2.529-8.282-2.097l-0.217-1.484c3.349-0.49,6.685,0.356,9.396,2.378c2.712,2.022,4.474,4.98,4.961,8.327
			C48.087,30.518,43.284,36.958,36.375,37.966z"/>
	</g>
	<g>
		<path fill="#58595B" d="M24.559,47.215c-6.183,0-11.607-4.546-12.525-10.84l1.484-0.217c0.888,6.093,6.58,10.322,12.659,9.438
			c2.95-0.43,5.557-1.983,7.339-4.373c1.783-2.392,2.527-5.333,2.098-8.284l1.484-0.217c0.488,3.348-0.357,6.686-2.379,9.397
			c-2.022,2.712-4.979,4.474-8.325,4.961C25.777,47.171,25.164,47.215,24.559,47.215z"/>
	</g>
	<g>
		<path fill="#58595B" d="M15.443,37.232c-6.183,0-11.607-4.546-12.524-10.84c-1.006-6.91,3.797-13.351,10.707-14.357l0.217,1.484
			c-6.092,0.887-10.326,6.564-9.439,12.656c0.887,6.091,6.562,10.329,12.655,9.439l0.215,1.484
			C16.659,37.189,16.048,37.232,15.443,37.232z"/>
	</g>
	<g>
		<g>
			<g>
				<rect x="24.547" y="14.321" fill="#58595B" width="1.5" height="6.208"/>
			</g>
			<g>
				<rect x="24.547" y="28.731" fill="#58595B" width="1.5" height="6.207"/>
			</g>
		</g>
		<g>
			<g>
				
					<rect x="30.579" y="17.884" transform="matrix(0.5141 0.8577 -0.8577 0.5141 33.2241 -16.674)" fill="#58595B" width="1.501" height="6.207"/>
			</g>
			<g>
				
					<rect x="16.458" y="20.239" transform="matrix(0.9056 0.4242 -0.4242 0.9056 10.7514 -6.3165)" fill="#58595B" width="6.208" height="1.499"/>
			</g>
			<g>
				
					<rect x="18.663" y="25.087" transform="matrix(0.5147 0.8574 -0.8574 0.5147 33.5923 -2.962)" fill="#58595B" width="1.499" height="6.209"/>
			</g>
			<g>
				
					<rect x="28.075" y="27.44" transform="matrix(0.9056 0.4242 -0.4242 0.9056 14.9037 -10.5647)" fill="#58595B" width="6.208" height="1.499"/>
			</g>
		</g>
	</g>
</g>
</svg>
