<?xml version="1.0" encoding="utf-8"?>
<!-- Generator: Adobe Illustrator 16.0.0, SVG Export Plug-In . SVG Version: 6.00 Build 0)  -->
<!DOCTYPE svg PUBLIC "-//W3C//DTD SVG 1.1//EN" "http://www.w3.org/Graphics/SVG/1.1/DTD/svg11.dtd">
<svg version="1.1" id="Layer_1" xmlns="http://www.w3.org/2000/svg" xmlns:xlink="http://www.w3.org/1999/xlink" x="0px" y="0px"
	 width="50px" height="50px" viewBox="0 0 50 50" enable-background="new 0 0 50 50" xml:space="preserve">
<g>
	<g>
		<rect x="10.979" y="37.979" fill="#58595B" width="1.5" height="8.651"/>
	</g>
	<g>
		<path fill="#58595B" d="M13.156,6.819c-0.789,0.792-2.067,0.79-2.856-0.002c-0.79-0.786-0.791-2.064,0-2.854
			c0.789-0.792,2.067-0.792,2.856,0C13.948,4.751,13.948,6.031,13.156,6.819z"/>
	</g>
	<g>
		<polygon fill="#58595B" points="11.796,14.575 5.846,8.625 6.906,7.564 11.796,12.454 16.552,7.701 17.612,8.762 		"/>
	</g>
	<g>
		<path fill="#58595B" d="M10.3,20.255c0.789-0.791,2.067-0.791,2.856,0.002c0.792,0.788,0.792,2.066,0,2.855
			c-0.789,0.791-2.067,0.791-2.856,0C9.509,22.325,9.509,21.045,10.3,20.255z"/>
	</g>
	<g>
		<polygon fill="#58595B" points="16.552,19.512 11.659,14.618 6.906,19.375 5.846,18.314 11.659,12.497 17.612,18.451 		"/>
	</g>
	<g>
		<polygon fill="#58595B" points="11.796,30.87 5.846,24.918 6.906,23.857 11.796,28.749 16.552,23.996 17.612,25.057 		"/>
	</g>
	<g>
		<polygon fill="#58595B" points="16.552,35.806 11.659,30.915 6.906,35.67 5.846,34.609 11.659,28.794 17.612,34.745 		"/>
	</g>
	<g>
		<rect x="24.249" y="37.979" fill="#58595B" width="1.5" height="8.651"/>
	</g>
	<g>
		<path fill="#58595B" d="M26.43,6.819c-0.791,0.792-2.07,0.79-2.861-0.002c-0.787-0.786-0.79-2.064,0-2.854
			c0.791-0.792,2.07-0.792,2.861,0C27.219,4.751,27.219,6.031,26.43,6.819z"/>
	</g>
	<g>
		<polygon fill="#58595B" points="25.069,14.575 19.116,8.625 20.177,7.564 25.069,12.454 29.822,7.701 30.883,8.762 		"/>
	</g>
	<g>
		<path fill="#58595B" d="M23.57,20.255c0.789-0.791,2.069-0.791,2.859,0.002c0.787,0.788,0.789,2.066,0,2.855
			c-0.79,0.791-2.07,0.791-2.859,0C22.778,22.325,22.778,21.045,23.57,20.255z"/>
	</g>
	<g>
		<polygon fill="#58595B" points="29.822,19.512 24.931,14.618 20.177,19.375 19.116,18.314 24.931,12.497 30.883,18.451 		"/>
	</g>
	<g>
		<polygon fill="#58595B" points="25.069,30.87 19.116,24.918 20.177,23.857 25.069,28.749 29.822,23.996 30.883,25.057 		"/>
	</g>
	<g>
		<polygon fill="#58595B" points="29.822,35.806 24.931,30.915 20.177,35.67 19.116,34.609 24.931,28.794 30.883,34.745 		"/>
	</g>
	<g>
		<rect x="37.521" y="37.979" fill="#58595B" width="1.5" height="8.651"/>
	</g>
	<g>
		<path fill="#58595B" d="M39.7,6.819c-0.79,0.792-2.068,0.79-2.858-0.002c-0.789-0.786-0.789-2.064,0-2.854
			c0.79-0.792,2.068-0.792,2.858,0C40.49,4.751,40.49,6.031,39.7,6.819z"/>
	</g>
	<g>
		<polygon fill="#58595B" points="38.338,14.575 32.387,8.625 33.447,7.564 38.338,12.454 43.094,7.701 44.154,8.762 		"/>
	</g>
	<g>
		<path fill="#58595B" d="M36.842,20.255c0.789-0.791,2.068-0.791,2.858,0.002c0.79,0.788,0.79,2.066,0,2.855
			c-0.79,0.791-2.069,0.791-2.858,0C36.052,22.325,36.052,21.045,36.842,20.255z"/>
	</g>
	<g>
		<polygon fill="#58595B" points="43.094,19.512 38.202,14.618 33.447,19.375 32.387,18.314 38.202,12.497 44.154,18.451 		"/>
	</g>
	<g>
		<polygon fill="#58595B" points="38.338,30.87 32.387,24.918 33.447,23.857 38.338,28.749 43.094,23.996 44.154,25.057 		"/>
	</g>
	<g>
		<polygon fill="#58595B" points="43.094,35.806 38.202,30.915 33.447,35.67 32.387,34.609 38.202,28.794 44.154,34.745 		"/>
	</g>
</g>
</svg>
