<?xml version="1.0" encoding="utf-8"?>
<!-- Generator: Adobe Illustrator 16.0.0, SVG Export Plug-In . SVG Version: 6.00 Build 0)  -->
<!DOCTYPE svg PUBLIC "-//W3C//DTD SVG 1.1//EN" "http://www.w3.org/Graphics/SVG/1.1/DTD/svg11.dtd">
<svg version="1.1" id="Layer_1" xmlns="http://www.w3.org/2000/svg" xmlns:xlink="http://www.w3.org/1999/xlink" x="0px" y="0px"
	 width="50px" height="50px" viewBox="0 0 50 50" enable-background="new 0 0 50 50" xml:space="preserve">
<g>
	<g>
		<path fill="#58595B" d="M25,47.178L5.794,36.09V13.912L25,2.822l19.206,11.09V36.09L25,47.178z M7.294,35.225L25,45.445
			l17.706-10.221V14.777L25,4.555L7.294,14.777V35.225z"/>
	</g>
	<g>
		<path fill="#58595B" d="M32.186,37.446H17.815l-7.186-12.443l7.186-12.446h14.371l7.186,12.446L32.186,37.446z M18.68,35.946
			h12.64l6.318-10.943L31.32,14.057H18.68l-6.318,10.946L18.68,35.946z"/>
	</g>
	<g>
		<path fill="#58595B" d="M25,31.381l-5.522-3.187v-6.382L25,18.623l5.524,3.189v6.382L25,31.381z M20.977,27.327L25,29.648
			l4.024-2.321v-4.649L25,20.355l-4.022,2.322V27.327z"/>
	</g>
</g>
</svg>
