<?xml version="1.0" encoding="utf-8"?>
<!-- Generator: Adobe Illustrator 16.0.0, SVG Export Plug-In . SVG Version: 6.00 Build 0)  -->
<!DOCTYPE svg PUBLIC "-//W3C//DTD SVG 1.1//EN" "http://www.w3.org/Graphics/SVG/1.1/DTD/svg11.dtd">
<svg version="1.1" id="Layer_1" xmlns="http://www.w3.org/2000/svg" xmlns:xlink="http://www.w3.org/1999/xlink" x="0px" y="0px"
	 width="50px" height="50px" viewBox="0 0 50 50" enable-background="new 0 0 50 50" xml:space="preserve">
<g>
	<g>
		<path fill="#58595B" d="M7.211,41.925l2.625-9.799l8.55-8.549l7.172,7.172l-8.55,8.549L7.211,41.925z M11.182,32.903l-1.85,6.9
			l6.898-1.85l7.206-7.205l-5.051-5.051L11.182,32.903z"/>
	</g>
	<g>
		<path fill="#58595B" d="M30.961,25.346l-7.171-7.173l8.549-8.55l9.797-2.624l-2.622,9.798L30.961,25.346z M25.911,18.173
			l5.05,5.052l7.207-7.205l1.847-6.899l-6.898,1.849L25.911,18.173z"/>
	</g>
	<g>
		<g>
			<path fill="#58595B" d="M18.379,25.337l-8.553-8.55L7.201,6.99L17,9.613l8.55,8.553L18.379,25.337z M11.172,16.012l7.207,7.204
				l5.05-5.05l-7.204-7.207l-6.9-1.848L11.172,16.012z"/>
		</g>
		<g>
			<path fill="#58595B" d="M42.146,41.936l-9.798-2.629l-8.552-8.55l7.173-7.174l8.552,8.552L42.146,41.936z M33.125,37.961
				l6.899,1.852l-1.85-6.902l-7.206-7.206l-5.052,5.053L33.125,37.961z"/>
		</g>
	</g>
	<g>
		<rect x="39.857" y="23.712" fill="#58595B" width="7.483" height="1.5"/>
	</g>
	<g>
		<rect x="2.659" y="23.704" fill="#58595B" width="7.483" height="1.5"/>
	</g>
	<g>
		<rect x="24.268" y="39.907" fill="#58595B" width="1.5" height="7.482"/>
	</g>
	<g>
		<rect x="24.269" y="2.61" fill="#58595B" width="1.5" height="7.482"/>
	</g>
</g>
</svg>
