<?xml version="1.0" encoding="utf-8"?>
<!-- Generator: Adobe Illustrator 16.0.0, SVG Export Plug-In . SVG Version: 6.00 Build 0)  -->
<!DOCTYPE svg PUBLIC "-//W3C//DTD SVG 1.1//EN" "http://www.w3.org/Graphics/SVG/1.1/DTD/svg11.dtd">
<svg version="1.1" id="Layer_1" xmlns="http://www.w3.org/2000/svg" xmlns:xlink="http://www.w3.org/1999/xlink" x="0px" y="0px"
	 width="50px" height="50px" viewBox="0 0 50 50" enable-background="new 0 0 50 50" xml:space="preserve">
<g>
	<g>
		<path fill="#58595B" d="M25.001,29.807c-1.284,0-2.491-0.5-3.398-1.408c-0.909-0.908-1.41-2.115-1.41-3.4
			c0-1.283,0.501-2.49,1.411-3.396c0.906-0.908,2.114-1.409,3.399-1.409c1.283,0,2.49,0.501,3.396,1.407
			c1.873,1.875,1.873,4.924-0.001,6.799C27.491,29.307,26.285,29.807,25.001,29.807z M25.003,21.693
			c-0.884,0-1.715,0.344-2.34,0.969c-0.626,0.625-0.971,1.455-0.971,2.338s0.345,1.713,0.971,2.336
			c1.248,1.25,3.427,1.25,4.675,0.002c0.625-0.625,0.969-1.455,0.969-2.338c0-0.885-0.344-1.715-0.969-2.34
			C26.715,22.037,25.886,21.693,25.003,21.693z"/>
	</g>
	<g>
		<path fill="#58595B" d="M25,47.594L2.406,25L25,2.406L47.594,25L25,47.594z M4.527,25L25,45.473L45.473,25L25,4.527L4.527,25z"/>
	</g>
	<g>
		<path fill="#58595B" d="M35.658,35.656H14.343V14.342h21.315V35.656z M15.843,34.156h18.315V15.842H15.843V34.156z"/>
	</g>
	<g>
		<rect x="24.02" y="3.35" fill="#58595B" width="1.5" height="11.454"/>
	</g>
	<g>
		<rect x="34.938" y="24.133" fill="#58595B" width="11.363" height="1.5"/>
	</g>
	<g>
		<rect x="24.452" y="34.619" fill="#58595B" width="1.5" height="11.797"/>
	</g>
	<g>
		<rect x="3.235" y="24.133" fill="#58595B" width="11.889" height="1.5"/>
	</g>
</g>
</svg>
