<?xml version="1.0" encoding="utf-8"?>
<!-- Generator: Adobe Illustrator 16.0.0, SVG Export Plug-In . SVG Version: 6.00 Build 0)  -->
<!DOCTYPE svg PUBLIC "-//W3C//DTD SVG 1.1//EN" "http://www.w3.org/Graphics/SVG/1.1/DTD/svg11.dtd">
<svg version="1.1" id="Layer_1" xmlns="http://www.w3.org/2000/svg" xmlns:xlink="http://www.w3.org/1999/xlink" x="0px" y="0px"
	 width="50px" height="50px" viewBox="0 0 50 50" enable-background="new 0 0 50 50" xml:space="preserve">
<g>
	<g>
		<path fill="#58595B" d="M5.738,46.486l-1.426-0.469c0.031-0.094,3.092-9.549,3.092-21.019c0-11.485-3.061-20.925-3.092-21.019
			l1.426-0.469c0.031,0.097,3.166,9.765,3.166,21.487C8.904,36.721,5.769,46.391,5.738,46.486z"/>
	</g>
	<g>
		<path fill="#58595B" d="M11.38,46.486l-1.426-0.469c0.031-0.094,3.09-9.547,3.09-21.019c0-11.485-3.059-20.925-3.09-21.019
			l1.426-0.469c0.031,0.097,3.164,9.765,3.164,21.487C14.544,36.721,11.412,46.391,11.38,46.486z"/>
	</g>
	<g>
		<path fill="#58595B" d="M16.694,46.486l-1.426-0.469c0.031-0.094,3.089-9.547,3.089-21.019c0-11.473-3.058-20.925-3.089-21.019
			l1.426-0.469c0.031,0.097,3.163,9.765,3.163,21.487C19.857,36.721,16.725,46.391,16.694,46.486z"/>
	</g>
	<g>
		<path fill="#58595B" d="M22.439,46.486l-1.426-0.469c0.031-0.094,3.089-9.547,3.089-21.019c0-11.473-3.058-20.925-3.089-21.019
			l1.426-0.469c0.031,0.097,3.163,9.765,3.163,21.487C25.602,36.721,22.47,46.391,22.439,46.486z"/>
	</g>
	<g>
		<path fill="#58595B" d="M44.262,46.488C44.23,46.393,41.1,36.723,41.1,25c0-11.723,3.131-21.393,3.162-21.489l1.426,0.468
			C45.656,4.074,42.6,13.528,42.6,25c0,11.484,3.057,20.925,3.088,21.019L44.262,46.488z"/>
	</g>
	<g>
		<path fill="#58595B" d="M38.947,46.488c-0.031-0.096-3.164-9.766-3.164-21.488c0-11.723,3.133-21.393,3.164-21.489l1.426,0.469
			c-0.031,0.094-3.09,9.548-3.09,21.021c0,11.472,3.059,20.925,3.09,21.019L38.947,46.488z"/>
	</g>
	<g>
		<path fill="#58595B" d="M33.631,46.488C33.6,46.393,30.469,36.723,30.469,25c0-11.723,3.131-21.393,3.162-21.489l1.426,0.469
			C35.025,4.074,31.969,13.528,31.969,25c0,11.472,3.057,20.925,3.088,21.019L33.631,46.488z"/>
	</g>
	<g>
		<path fill="#58595B" d="M27.893,46.488c-0.031-0.096-3.167-9.766-3.167-21.488c0-11.723,3.136-21.393,3.167-21.489l1.426,0.469
			C29.287,4.074,26.225,13.529,26.225,25c0,11.484,3.062,20.925,3.094,21.019L27.893,46.488z"/>
	</g>
</g>
</svg>
