<?xml version="1.0" encoding="utf-8"?>
<!-- Generator: Adobe Illustrator 16.0.0, SVG Export Plug-In . SVG Version: 6.00 Build 0)  -->
<!DOCTYPE svg PUBLIC "-//W3C//DTD SVG 1.1//EN" "http://www.w3.org/Graphics/SVG/1.1/DTD/svg11.dtd">
<svg version="1.1" id="Layer_1" xmlns="http://www.w3.org/2000/svg" xmlns:xlink="http://www.w3.org/1999/xlink" x="0px" y="0px"
	 width="50px" height="50px" viewBox="0 0 50 50" enable-background="new 0 0 50 50" xml:space="preserve">
<g>
	<g>
		<polygon fill="#58595B" points="36.401,37.623 25.05,26.271 13.698,37.623 12.638,36.562 25.05,24.15 37.462,36.562 		"/>
	</g>
	<g>
		<polygon fill="#58595B" points="36.401,47.234 25.05,35.879 13.698,47.234 12.638,46.174 25.05,33.758 37.462,46.174 		"/>
	</g>
	<g>
		<polygon fill="#58595B" points="25.05,25.963 12.638,13.553 13.698,12.493 25.05,23.841 36.401,12.493 37.462,13.553 		"/>
	</g>
	<g>
		<polygon fill="#58595B" points="25.05,16.24 12.638,3.827 13.698,2.766 25.05,14.119 36.401,2.766 37.462,3.827 		"/>
	</g>
	<g>
		<polygon fill="#58595B" points="45.351,37.688 32.94,25.279 45.351,12.868 46.411,13.928 35.062,25.279 46.411,36.627 		"/>
	</g>
	<g>
		<polygon fill="#58595B" points="4.649,37.688 3.589,36.627 14.937,25.278 3.589,13.928 4.649,12.868 17.058,25.278 		"/>
	</g>
	<g>
		<circle fill="#FFFFFF" cx="25.051" cy="25.278" r="4.268"/>
		<path fill="#58595B" d="M25.05,30.297c-2.767,0-5.017-2.252-5.017-5.019c0-2.767,2.25-5.018,5.017-5.018
			c2.768,0,5.019,2.251,5.019,5.018C30.068,28.045,27.817,30.297,25.05,30.297z M25.05,21.76c-1.939,0-3.517,1.578-3.517,3.518
			c0,1.941,1.577,3.519,3.517,3.519c1.94,0,3.519-1.578,3.519-3.519C28.568,23.338,26.99,21.76,25.05,21.76z"/>
	</g>
</g>
</svg>
