<?xml version="1.0" encoding="utf-8"?>
<!-- Generator: Adobe Illustrator 16.0.0, SVG Export Plug-In . SVG Version: 6.00 Build 0)  -->
<!DOCTYPE svg PUBLIC "-//W3C//DTD SVG 1.1//EN" "http://www.w3.org/Graphics/SVG/1.1/DTD/svg11.dtd">
<svg version="1.1" id="Layer_1" xmlns="http://www.w3.org/2000/svg" xmlns:xlink="http://www.w3.org/1999/xlink" x="0px" y="0px"
	 width="50px" height="50px" viewBox="0 0 50 50" enable-background="new 0 0 50 50" xml:space="preserve">
<g>
	<g>
		<rect x="24.035" y="3.837" fill="#58595B" width="1.5" height="6.405"/>
	</g>
	<g>
		<rect x="24.035" y="19.618" fill="#58595B" width="1.5" height="6.406"/>
	</g>
	<g>
		
			<rect x="14.947" y="10.51" transform="matrix(0.9054 0.4245 -0.4245 0.9054 6.496 -6.6395)" fill="#58595B" width="6.405" height="1.499"/>
	</g>
	<g>
		
			<rect x="17.398" y="14.97" transform="matrix(0.34 0.9404 -0.9404 0.34 29.0697 -5.0717)" fill="#58595B" width="1.499" height="6.408"/>
	</g>
	<g>
		
			<rect x="27.923" y="17.154" transform="matrix(0.9053 0.4249 -0.4249 0.9053 10.5559 -11.5284)" fill="#58595B" width="6.406" height="1.499"/>
	</g>
	<g>
		
			<rect x="30.376" y="7.787" transform="matrix(0.3411 0.94 -0.94 0.3411 30.8399 -22.0175)" fill="#58595B" width="1.5" height="6.408"/>
	</g>
	<g>
		<path fill="#58595B" d="M26.586,14.583c0,0.995-0.807,1.801-1.801,1.801c-0.995,0-1.805-0.806-1.805-1.801
			c0-0.998,0.81-1.805,1.805-1.805C25.779,12.779,26.586,13.585,26.586,14.583z"/>
	</g>
	<g>
		<rect x="13.583" y="23.977" fill="#58595B" width="1.5" height="6.406"/>
	</g>
	<g>
		<rect x="13.583" y="39.756" fill="#58595B" width="1.5" height="6.406"/>
	</g>
	<g>
		
			<rect x="4.495" y="30.648" transform="matrix(0.9055 0.4243 -0.4243 0.9055 14.0483 -0.3004)" fill="#58595B" width="6.408" height="1.499"/>
	</g>
	<g>
		
			<rect x="6.948" y="35.109" transform="matrix(0.34 0.9404 -0.9404 0.34 41.1101 18.0482)" fill="#58595B" width="1.499" height="6.404"/>
	</g>
	<g>
		
			<rect x="17.473" y="37.293" transform="matrix(0.9056 0.4242 -0.4242 0.9056 18.0901 -5.1782)" fill="#58595B" width="6.405" height="1.499"/>
	</g>
	<g>
		
			<rect x="19.925" y="27.924" transform="matrix(0.34 0.9404 -0.9404 0.34 42.92 1.1022)" fill="#58595B" width="1.499" height="6.408"/>
	</g>
	<g>
		<circle fill="#58595B" cx="14.333" cy="34.723" r="1.804"/>
	</g>
	<g>
		<rect x="35.209" y="23.977" fill="#58595B" width="1.5" height="6.406"/>
	</g>
	<g>
		<rect x="35.209" y="39.756" fill="#58595B" width="1.5" height="6.406"/>
	</g>
	<g>
		
			<rect x="26.119" y="30.648" transform="matrix(0.9055 0.4244 -0.4244 0.9055 16.0962 -9.4763)" fill="#58595B" width="6.406" height="1.499"/>
	</g>
	<g>
		
			<rect x="28.574" y="35.109" transform="matrix(0.34 0.9404 -0.9404 0.34 55.384 -2.2897)" fill="#58595B" width="1.499" height="6.405"/>
	</g>
	<g>
		
			<rect x="39.098" y="37.293" transform="matrix(0.9055 0.4243 -0.4243 0.9055 20.1354 -14.3524)" fill="#58595B" width="6.404" height="1.499"/>
	</g>
	<g>
		
			<rect x="41.551" y="27.924" transform="matrix(0.34 0.9404 -0.9404 0.34 57.1939 -19.2357)" fill="#58595B" width="1.499" height="6.407"/>
	</g>
	<g>
		<circle fill="#58595B" cx="35.958" cy="34.723" r="1.804"/>
	</g>
</g>
</svg>
