<?xml version="1.0" encoding="utf-8"?>
<!-- Generator: Adobe Illustrator 16.0.0, SVG Export Plug-In . SVG Version: 6.00 Build 0)  -->
<!DOCTYPE svg PUBLIC "-//W3C//DTD SVG 1.1//EN" "http://www.w3.org/Graphics/SVG/1.1/DTD/svg11.dtd">
<svg version="1.1" id="Layer_1" xmlns="http://www.w3.org/2000/svg" xmlns:xlink="http://www.w3.org/1999/xlink" x="0px" y="0px"
	 width="50px" height="50px" viewBox="0 0 50 50" enable-background="new 0 0 50 50" xml:space="preserve">
<g>
	<g>
		
			<rect x="14.492" y="31.585" transform="matrix(0.737 0.6758 -0.6758 0.737 28.4136 -0.8057)" fill="#58595B" width="1.5" height="9.052"/>
	</g>
	<g>
		
			<rect x="35.2" y="8.979" transform="matrix(0.737 0.6758 -0.6758 0.737 18.5804 -20.7455)" fill="#58595B" width="1.5" height="9.052"/>
	</g>
	<g>
		
			<rect x="6.374" y="21.237" transform="matrix(0.0443 0.999 -0.999 0.0443 32.546 17.5048)" fill="#58595B" width="1.5" height="9.052"/>
	</g>
	<g>
		
			<rect x="42.126" y="19.671" transform="matrix(0.0443 0.999 -0.999 0.0443 65.1507 -19.7082)" fill="#58595B" width="1.5" height="9.052"/>
	</g>
	<g>
		
			<rect x="19.206" y="6.374" transform="matrix(0.0439 0.999 -0.999 0.0439 29.8066 -16.8983)" fill="#58595B" width="9.053" height="1.5"/>
	</g>
	<g>
		
			<rect x="20.772" y="42.127" transform="matrix(0.0439 0.999 -0.999 0.0439 67.0231 15.7203)" fill="#58595B" width="9.052" height="1.5"/>
	</g>
	<g>
		
			<rect x="29.461" y="9.57" transform="matrix(0.737 0.6758 -0.6758 0.737 26.8322 -13.0693)" fill="#58595B" width="1.5" height="36.754"/>
	</g>
	<g>
		
			<rect x="19.649" y="1.702" transform="matrix(0.737 0.6758 -0.6758 0.737 19.1661 -8.4168)" fill="#58595B" width="1.5" height="37.439"/>
	</g>
	<g>
		
			<rect x="8.682" y="14.815" transform="matrix(0.7375 0.6754 -0.6754 0.7375 14.1883 -5.3717)" fill="#58595B" width="10.644" height="1.5"/>
	</g>
	<g>
		
			<rect x="30.598" y="34.891" transform="matrix(0.7376 0.6752 -0.6752 0.7376 33.4905 -14.9024)" fill="#58595B" width="10.645" height="1.5"/>
	</g>
	<g>
		
			<rect x="3.205" y="29.248" transform="matrix(0.7374 0.6755 -0.6755 0.7374 25.9301 -6.6988)" fill="#58595B" width="36.751" height="1.5"/>
	</g>
	<g>
		
			<rect x="10.387" y="19.435" transform="matrix(0.7374 0.6754 -0.6754 0.7374 21.2762 -14.3583)" fill="#58595B" width="37.437" height="1.5"/>
	</g>
</g>
</svg>
