<?xml version="1.0" encoding="utf-8"?>
<!-- Generator: Adobe Illustrator 16.0.0, SVG Export Plug-In . SVG Version: 6.00 Build 0)  -->
<!DOCTYPE svg PUBLIC "-//W3C//DTD SVG 1.1//EN" "http://www.w3.org/Graphics/SVG/1.1/DTD/svg11.dtd">
<svg version="1.1" id="Layer_1" xmlns="http://www.w3.org/2000/svg" xmlns:xlink="http://www.w3.org/1999/xlink" x="0px" y="0px"
	 width="50px" height="50px" viewBox="0 0 50 50" enable-background="new 0 0 50 50" xml:space="preserve">
<g>
	<g>
		<rect x="14.77" y="4.024" fill="#58595B" width="1.5" height="41.951"/>
	</g>
	<g>
		<path fill="#58595B" d="M16.27,16.403h-1.5c0.003-4.486-3.92-8.53-9.327-9.616l0.295-1.471
			C11.844,6.543,16.273,11.206,16.27,16.403z"/>
	</g>
	<g>
		<path fill="#58595B" d="M16.27,29.147h-1.5c0.003-5.205-3.734-10.128-9.521-12.542l0.578-1.385
			C12.173,17.868,16.273,23.335,16.27,29.147z"/>
	</g>
	<g>
		<path fill="#58595B" d="M35.842,29.218h-1.5c0-4.494-2.889-8.926-7.537-11.568l-0.141-0.08c-0.881-0.502-1.458-0.788-2.044-0.495
			c-5.15,2.578-8.35,7.177-8.35,12.003h-1.5c0-5.396,3.518-10.51,9.179-13.345c1.343-0.672,2.565,0.023,3.458,0.533l0.139,0.079
			C32.662,19.254,35.842,24.187,35.842,29.218z"/>
	</g>
	<g>
		<path fill="#58595B" d="M16.27,39.71h-1.5c0.003-5.207-3.734-10.129-9.521-12.541l0.576-1.385
			C12.173,28.431,16.273,33.897,16.27,39.71z"/>
	</g>
	<g>
		<path fill="#58595B" d="M35.842,39.78h-1.5c0-0.916-0.176-2.033-0.506-3.236c-0.494-1.803-1.537-3.596-3.016-5.186
			c-0.711-0.768-1.535-1.48-2.453-2.119c-0.34-0.238-0.695-0.465-1.057-0.682l-0.574-0.348c-0.443-0.27-0.889-0.543-1.34-0.779
			c-0.249-0.127-0.642,0.084-1.164,0.4c-0.127,0.078-0.25,0.152-0.368,0.219c-0.693,0.389-1.427,0.879-2.236,1.494
			c-1.619,1.236-2.984,2.834-3.947,4.621c-0.465,0.861-0.809,1.754-1.021,2.654c-0.258,1.088-0.389,2.037-0.389,2.822h-1.5
			c0-0.914,0.141-1.951,0.43-3.168c0.242-1.029,0.633-2.045,1.161-3.02c1.062-1.973,2.569-3.738,4.357-5.104
			c0.866-0.658,1.656-1.186,2.414-1.611c0.105-0.059,0.211-0.123,0.319-0.189c0.643-0.391,1.613-0.98,2.638-0.449
			c0.482,0.254,0.959,0.543,1.43,0.83l0.559,0.34c0.393,0.234,0.777,0.48,1.148,0.738c1.004,0.701,1.91,1.484,2.693,2.328
			c1.641,1.766,2.805,3.775,3.363,5.811C35.654,37.495,35.842,38.718,35.842,39.78z"/>
	</g>
	<g>
		<rect x="34.342" y="4.024" fill="#58595B" width="1.5" height="41.951"/>
	</g>
	<g>
		<path fill="#58595B" d="M35.842,16.44h-1.5c0-3.758-2.742-7.263-6.984-8.928l-0.359-0.148c-0.535-0.226-0.996-0.421-1.787-0.421
			c-0.694,0-1.167,0.185-1.883,0.463c-4.317,1.691-7.059,5.197-7.059,8.96h-1.5c0-4.385,3.115-8.438,7.937-10.327
			c0.856-0.334,1.528-0.596,2.505-0.596c1.093,0,1.771,0.286,2.369,0.539l0.326,0.135C32.727,8.009,35.842,12.062,35.842,16.44z"/>
	</g>
	<g>
		<path fill="#58595B" d="M34.342,16.403c-0.002-5,4.041-9.495,9.834-10.931l0.361,1.455c-5.121,1.271-8.697,5.167-8.695,9.476
			H34.342z"/>
	</g>
	<g>
		<path fill="#58595B" d="M35.842,29.147h-1.5c0-5.557,3.84-10.909,9.785-13.639l0.625,1.363
			C39.34,19.357,35.842,24.175,35.842,29.147z"/>
	</g>
	<g>
		<path fill="#58595B" d="M35.842,39.71h-1.5c0-5.555,3.84-10.908,9.785-13.637l0.625,1.363
			C39.34,29.921,35.842,34.739,35.842,39.71z"/>
	</g>
</g>
</svg>
