<?xml version="1.0" encoding="utf-8"?>
<!-- Generator: Adobe Illustrator 16.0.0, SVG Export Plug-In . SVG Version: 6.00 Build 0)  -->
<!DOCTYPE svg PUBLIC "-//W3C//DTD SVG 1.1//EN" "http://www.w3.org/Graphics/SVG/1.1/DTD/svg11.dtd">
<svg version="1.1" id="Layer_1" xmlns="http://www.w3.org/2000/svg" xmlns:xlink="http://www.w3.org/1999/xlink" x="0px" y="0px"
	 width="50px" height="50px" viewBox="0 0 50 50" enable-background="new 0 0 50 50" xml:space="preserve">
<g>
	<g>
		<path fill="#58595B" d="M36.071,30.202c-5.161,0-10.891-4.232-11.132-4.414l-0.778-0.58l0.758-0.605
			c0.242-0.193,5.978-4.731,11.152-4.731c5.222,0,9.61,3.399,10.831,4.442l0.669,0.57l-0.67,0.57
			C46.673,25.647,41.26,30.202,36.071,30.202z M26.68,25.167c1.729,1.133,5.813,3.535,9.392,3.535c3.619,0,7.555-2.641,9.139-3.826
			c-1.662-1.27-5.156-3.504-9.139-3.504C32.485,21.372,28.394,23.958,26.68,25.167z"/>
	</g>
	<g>
		<path fill="#58595B" d="M14.337,30.202c-5.161,0-10.889-4.232-11.131-4.414l-0.777-0.58l0.758-0.605
			c0.242-0.193,5.976-4.731,11.15-4.731c5.229,0,9.611,3.399,10.83,4.442l0.669,0.572l-0.67,0.568
			C24.938,25.649,19.523,30.202,14.337,30.202z M4.947,25.167c1.729,1.133,5.812,3.535,9.39,3.535c3.611,0,7.552-2.643,9.138-3.828
			c-1.66-1.268-5.15-3.502-9.138-3.502C10.757,21.372,6.663,23.958,4.947,25.167z"/>
	</g>
	<g>
		<path fill="#58595B" d="M25.182,47.571l-0.569-0.668c-0.193-0.229-4.746-5.641-4.746-10.83c0-5.16,4.234-10.889,4.415-11.131
			l0.58-0.777l0.606,0.758c0.193,0.242,4.731,5.979,4.731,11.152c0,5.238-3.403,9.613-4.446,10.83L25.182,47.571z M24.903,26.683
			c-1.135,1.729-3.537,5.812-3.537,9.391c0,3.615,2.643,7.555,3.827,9.139c1.27-1.656,3.506-5.143,3.506-9.137
			C28.699,32.495,26.111,28.399,24.903,26.683z"/>
	</g>
	<g>
		<path fill="#58595B" d="M25.182,25.837l-0.569-0.668c-0.194-0.229-4.746-5.643-4.746-10.831c0-5.161,4.234-10.89,4.415-11.132
			l0.58-0.777l0.606,0.758c0.193,0.242,4.731,5.979,4.731,11.152c0,5.239-3.403,9.615-4.446,10.832L25.182,25.837z M24.903,4.947
			c-1.135,1.729-3.537,5.813-3.537,9.391c0,3.613,2.643,7.556,3.827,9.14c1.27-1.656,3.506-5.144,3.506-9.139
			C28.699,10.76,26.111,6.664,24.903,4.947z"/>
	</g>
	<g>
		<path fill="#FFFFFF" d="M40.471,9.953c-1.565,0.119-6.813,0.783-10.327,4.297c-3.516,3.517-4.326,10.788-4.326,10.788
			s7.055-1.027,10.571-4.543C39.904,16.981,40.471,9.953,40.471,9.953z"/>
		<path fill="#58595B" d="M24.965,25.919l0.107-0.965c0.034-0.307,0.882-7.574,4.541-11.234c3.708-3.708,9.204-4.393,10.801-4.515
			l0.875-0.066l-0.07,0.875c-0.024,0.298-0.631,7.346-4.3,11.013c-3.65,3.648-10.695,4.711-10.993,4.754L24.965,25.919z
			 M39.613,10.797c-2.067,0.272-6.111,1.155-8.939,3.983c-2.531,2.532-3.598,7.26-3.958,9.328c2.025-0.422,6.612-1.613,9.143-4.144
			C38.413,17.411,39.33,12.755,39.613,10.797z"/>
	</g>
	<g>
		<path fill="#FFFFFF" d="M40.471,40.22c-0.12-1.562-0.783-6.811-4.298-10.326c-3.514-3.518-10.785-4.326-10.785-4.326
			s1.024,7.055,4.538,10.57C33.443,39.653,40.471,40.22,40.471,40.22z"/>
		<path fill="#58595B" d="M41.286,41.038l-0.876-0.07c-0.298-0.025-7.344-0.631-11.015-4.301c-3.647-3.648-4.707-10.693-4.75-10.992
			l-0.14-0.961l0.965,0.107c0.308,0.035,7.575,0.881,11.232,4.541c3.704,3.705,4.393,9.203,4.516,10.799L41.286,41.038z
			 M26.316,26.464c0.421,2.025,1.611,6.613,4.14,9.143c2.562,2.561,7.213,3.475,9.17,3.756c-0.273-2.068-1.158-6.113-3.983-8.939
			C33.107,27.886,28.383,26.823,26.316,26.464z"/>
	</g>
	<g>
		<path fill="#FFFFFF" d="M9.597,40.651c1.564-0.121,6.812-0.783,10.329-4.299c3.516-3.516,4.323-10.785,4.323-10.785
			s-7.054,1.025-10.569,4.541C10.165,33.622,9.597,40.651,9.597,40.651z"/>
		<path fill="#58595B" d="M8.778,41.466l0.071-0.875c0.023-0.299,0.632-7.348,4.3-11.014c3.649-3.648,10.693-4.709,10.992-4.752
			l0.96-0.141l-0.107,0.965c-0.034,0.309-0.879,7.574-4.538,11.232c-3.703,3.701-9.204,4.393-10.802,4.518L8.778,41.466z
			 M23.352,26.495c-2.024,0.422-6.611,1.613-9.142,4.143c-2.559,2.559-3.475,7.211-3.756,9.168c2.069-0.275,6.117-1.16,8.941-3.984
			C21.932,33.286,22.994,28.563,23.352,26.495z"/>
	</g>
	<g>
		<path fill="#FFFFFF" d="M9.597,10.383c0.12,1.564,0.783,6.812,4.297,10.329c3.518,3.516,10.786,4.326,10.786,4.326
			s-1.024-7.056-4.539-10.573C16.622,10.951,9.597,10.383,9.597,10.383z"/>
		<path fill="#58595B" d="M25.562,25.89l-0.965-0.107c-0.308-0.033-7.572-0.881-11.233-4.539c-3.704-3.708-4.392-9.206-4.515-10.803
			L8.781,9.564l0.876,0.07c0.298,0.024,7.342,0.633,11.014,4.3c3.648,3.651,4.708,10.697,4.751,10.996L25.562,25.89z M10.441,11.241
			c0.273,2.068,1.158,6.113,3.982,8.94c2.533,2.53,7.259,3.597,9.327,3.958c-0.421-2.025-1.611-6.613-4.141-9.145
			C17.054,12.442,12.399,11.524,10.441,11.241z"/>
	</g>
</g>
</svg>
