<?xml version="1.0" encoding="utf-8"?>
<!-- Generator: Adobe Illustrator 16.0.0, SVG Export Plug-In . SVG Version: 6.00 Build 0)  -->
<!DOCTYPE svg PUBLIC "-//W3C//DTD SVG 1.1//EN" "http://www.w3.org/Graphics/SVG/1.1/DTD/svg11.dtd">
<svg version="1.1" id="Layer_1" xmlns="http://www.w3.org/2000/svg" xmlns:xlink="http://www.w3.org/1999/xlink" x="0px" y="0px"
	 width="50px" height="50px" viewBox="0 0 50 50" enable-background="new 0 0 50 50" xml:space="preserve">
<g>
	<g>
		<g>
			<g>
				<path fill="#58595B" d="M42.139,31.011c-0.394,0-6.085-1.633-16.914-4.854l-2.417-0.719l2.417-0.719
					c10.831-3.221,16.521-4.854,16.914-4.854c3.073,0,5.573,2.5,5.573,5.572S45.212,31.011,42.139,31.011z M28.075,25.438
					c5.972,1.769,13.312,3.915,14.113,4.072c2.223-0.027,4.023-1.844,4.023-4.072c0-2.245-1.827-4.072-4.073-4.072
					C41.591,21.462,34.133,23.645,28.075,25.438z"/>
			</g>
			<g>
				<path fill="#58595B" d="M7.86,31.011c-3.072,0-5.572-2.5-5.572-5.572s2.5-5.572,5.572-5.572c0.394,0,6.084,1.633,16.915,4.854
					l2.418,0.719l-2.418,0.719C13.944,29.378,8.254,31.011,7.86,31.011z M7.78,21.361c-2.165,0.005-3.992,1.832-3.992,4.077
					c0,2.229,1.8,4.045,4.022,4.072c0.801-0.157,8.142-2.304,14.114-4.072C15.866,23.645,8.399,21.461,7.78,21.361z"/>
			</g>
		</g>
		<g>
			<g>
				<path fill="#58595B" d="M24.562,47.712c-3.072,0-5.572-2.5-5.572-5.572c0-0.395,1.633-6.086,4.854-16.915l0.719-2.418
					l0.719,2.418c3.219,10.83,4.852,16.52,4.854,16.912C30.132,45.213,27.632,47.712,24.562,47.712z M24.562,28.075
					c-1.794,6.059-3.978,13.524-4.077,14.145c0.005,2.165,1.832,3.992,4.077,3.992c2.244,0,4.07-1.827,4.072-4.073
					C28.538,41.595,26.355,34.136,24.562,28.075z"/>
			</g>
			<g>
				<path fill="#58595B" d="M24.562,27.193l-0.719-2.418c-3.221-10.83-4.854-16.52-4.855-16.911
					c0.002-3.076,2.503-5.576,5.574-5.576s5.57,2.5,5.57,5.573c0,0.394-1.632,6.084-4.852,16.914L24.562,27.193z M24.562,3.788
					c-2.245,0-4.072,1.827-4.074,4.074c0.096,0.543,2.279,8.003,4.074,14.062c1.793-6.059,3.976-13.524,4.075-14.144
					C28.632,5.615,26.806,3.788,24.562,3.788z"/>
			</g>
		</g>
		<g>
			<g>
				<path fill="#58595B" d="M37.247,43.696L37.247,43.696c-1.488-0.001-2.888-0.58-3.939-1.632
					c-0.278-0.277-3.148-5.456-8.528-15.392l-1.201-2.218l2.218,1.201c9.935,5.381,15.113,8.251,15.392,8.529
					c2.172,2.172,2.172,5.707,0,7.879C40.135,43.116,38.735,43.696,37.247,43.696z M27.303,28.18
					c3.016,5.552,6.75,12.375,7.118,12.884c0.716,0.709,1.738,1.133,2.826,1.133l0,0c1.088,0,2.11-0.424,2.88-1.192
					c1.587-1.588,1.587-4.17,0-5.758C39.671,34.926,32.854,31.195,27.303,28.18z"/>
			</g>
			<g>
				<path fill="#58595B" d="M25.544,26.423l-2.218-1.202c-9.934-5.381-15.111-8.249-15.391-8.525
					c-2.173-2.177-2.173-5.712-0.003-7.884c1.053-1.052,2.453-1.631,3.941-1.631s2.888,0.579,3.94,1.631
					c0.278,0.278,3.148,5.458,8.528,15.393L25.544,26.423z M11.874,8.681c-1.089,0-2.111,0.423-2.881,1.191
					c-1.586,1.588-1.586,4.172,0,5.76c0.453,0.316,7.272,4.048,12.826,7.065c-3.016-5.553-6.751-12.376-7.118-12.886
					C13.985,9.104,12.962,8.681,11.874,8.681z"/>
			</g>
		</g>
		<g>
			<g>
				<path fill="#58595B" d="M11.875,43.696L11.875,43.696c-1.488,0-2.888-0.579-3.94-1.632c-1.053-1.052-1.632-2.45-1.632-3.939
					c0-1.488,0.579-2.888,1.632-3.939c0.278-0.279,5.457-3.149,15.392-8.529l2.218-1.201l-1.201,2.218
					c-5.38,9.935-8.249,15.113-8.527,15.393C14.762,43.118,13.362,43.696,11.875,43.696z M21.819,28.18
					c-5.552,3.016-12.374,6.751-12.884,7.119c-0.709,0.716-1.133,1.739-1.133,2.826c0,1.088,0.424,2.11,1.192,2.879
					c0.77,0.77,1.792,1.192,2.88,1.192s2.11-0.423,2.879-1.19C15.074,40.55,18.805,33.732,21.819,28.18z"/>
			</g>
			<g>
				<path fill="#58595B" d="M23.578,26.422l1.201-2.218c5.38-9.935,8.25-15.114,8.528-15.393c1.052-1.053,2.451-1.632,3.939-1.632
					s2.888,0.579,3.94,1.632c2.173,2.173,2.173,5.707,0,7.88c-0.278,0.278-5.457,3.148-15.392,8.529L23.578,26.422z M37.247,8.68
					c-1.088,0-2.11,0.424-2.879,1.192c-0.32,0.456-4.051,7.273-7.065,12.825c5.552-3.016,12.375-6.752,12.885-7.119
					c1.527-1.535,1.527-4.118-0.061-5.706C39.357,9.104,38.335,8.68,37.247,8.68z"/>
			</g>
		</g>
	</g>
	<g>
		<circle fill="#FFFFFF" cx="24.998" cy="25" r="5.92"/>
		<path fill="#58595B" d="M25,31.67c-3.679,0-6.672-2.992-6.672-6.67c0-3.679,2.993-6.672,6.672-6.672
			c3.677,0,6.668,2.993,6.668,6.672C31.668,28.678,28.677,31.67,25,31.67z M25,19.828c-2.852,0-5.172,2.32-5.172,5.172
			c0,2.851,2.32,5.17,5.172,5.17c2.85,0,5.168-2.319,5.168-5.17C30.168,22.148,27.85,19.828,25,19.828z"/>
	</g>
</g>
</svg>
