<?xml version="1.0" encoding="utf-8"?>
<!-- Generator: Adobe Illustrator 16.0.0, SVG Export Plug-In . SVG Version: 6.00 Build 0)  -->
<!DOCTYPE svg PUBLIC "-//W3C//DTD SVG 1.1//EN" "http://www.w3.org/Graphics/SVG/1.1/DTD/svg11.dtd">
<svg version="1.1" id="Layer_1" xmlns="http://www.w3.org/2000/svg" xmlns:xlink="http://www.w3.org/1999/xlink" x="0px" y="0px"
	 width="50px" height="50px" viewBox="0 0 50 50" enable-background="new 0 0 50 50" xml:space="preserve">
<g>
	<g>
		<path fill="#58595B" d="M25.018,49.346l-0.565-0.619c0,0-4.858-5.32-5.082-5.562c-1.007-1.021-1.888-2.598-2.357-4.219
			c-0.421-1.453-0.47-2.961-0.145-4.477c0.12-0.557,0.287-1.09,0.449-1.605c0.02-0.064,0.04-0.129,0.06-0.191
			c-0.498,0.186-1.016,0.318-1.545,0.393c-0.364,0.053-0.743,0.08-1.123,0.08c-4.085,0-7.649-3.023-8.116-3.436L0.09,25.444
			l6.971-6.409c2.963-2.472,6.065-3.297,9.228-2.502l0.648,0.152c-0.088-0.74-0.189-1.603-0.194-1.651
			c-0.288-4.521,3.308-8.533,3.461-8.701l4.492-5.678l6.121,6.175c2.466,3.145,3.179,6.138,2.302,9.486l-0.07,0.199l0.91-0.166
			c0.43-0.075,0.87-0.112,1.313-0.112c4.315,0,8.062,3.498,8.22,3.646l6.419,5.505l-7.008,5.174
			c-3.219,2.693-6.454,3.451-9.896,2.281c2.39,5.365-2.814,10.629-3.039,10.852L25.018,49.346z M20.4,42.162
			c0.495,0.451,1.608,1.664,4.594,4.934l3.882-4.426c0.082-0.086,4.786-4.859,2.7-9.352l-1.163-3.025l2.927,1.078
			c2.977,1.066,5.724,0.443,8.637-1.988l5.527-4.083l-5.017-4.303c-0.061-0.057-3.505-3.261-7.216-3.261
			c-0.357,0-0.71,0.029-1.049,0.089l-3.45,0.629l0.913-2.579c0.73-2.798,0.104-5.377-1.992-8.056l-4.872-4.908l-3.476,4.391
			c-0.065,0.074-3.354,3.757-3.108,7.615c0.013,0.115,0.315,2.652,0.315,2.652l0.126,1.062l-2.745-0.642
			c-2.745-0.693-5.332,0.043-7.885,2.172l-5.527,5.082l5.033,3.312c0.034,0.031,3.451,3.088,7.154,3.088
			c0.309,0,0.615-0.021,0.91-0.064c0.51-0.072,1.005-0.211,1.474-0.41c0.388-0.166,1.118-0.465,1.118-0.465l1.291-0.527
			l-0.271,1.367c-0.121,0.615-0.305,1.199-0.481,1.766c-0.159,0.506-0.309,0.984-0.414,1.473c-0.272,1.271-0.232,2.531,0.119,3.744
			c0.398,1.377,1.161,2.752,1.991,3.59L20.4,42.162z"/>
	</g>
	<g>
		<g>
			<g>
				<path fill="#58595B" d="M19.467,27.979c-1.406,0-2.562-1.053-2.693-1.178l-2.027-1.669l2.15-2.219
					c1.286-1.124,2.835-1.242,4.292-0.368l-0.771,1.287c-0.915-0.549-1.729-0.493-2.489,0.168l-0.974,1.008l0.812,0.67
					c0.282,0.262,1.06,0.84,1.79,0.799c0.348-0.025,0.651-0.205,0.93-0.551l1.168,0.941c-0.54,0.67-1.232,1.053-2.001,1.105
					C19.591,27.977,19.528,27.979,19.467,27.979z"/>
			</g>
			<g>
				<path fill="#58595B" d="M30.448,27.973c-0.645,0-1.304-0.193-1.944-0.58l0.771-1.285c0.915,0.549,1.729,0.496,2.483-0.166
					l0.979-1.01l-0.813-0.672c-0.282-0.262-1.093-0.847-1.789-0.797c-0.347,0.025-0.65,0.205-0.929,0.55l-1.168-0.939
					c0.54-0.672,1.231-1.055,2-1.107c1.488-0.08,2.742,1.04,2.88,1.171l2.025,1.674l-2.153,2.219
					C32.072,27.658,31.271,27.973,30.448,27.973z"/>
			</g>
			<g>
				<path fill="#58595B" d="M25.007,35.332l-2.179-2.291c-1.069-1.336-1.179-2.875-0.35-4.383l1.314,0.723
					c-0.533,0.971-0.478,1.871,0.165,2.676l0.919,0.965l0.604-0.799c0.185-0.217,1.498-1.818,0.239-2.92l0.987-1.129
					c1.927,1.686,0.801,4.004-0.063,4.996L25.007,35.332z"/>
			</g>
			<g>
				<path fill="#58595B" d="M22.984,20.932c-1.927-1.687-0.803-4.006,0.062-4.998l1.643-2.161l2.175,2.293
					c1.074,1.328,1.185,2.868,0.348,4.383l-1.312-0.725c0.537-0.973,0.482-1.871-0.163-2.671l-0.921-0.969l-0.606,0.797
					c-0.184,0.216-1.496,1.819-0.235,2.922L22.984,20.932z"/>
			</g>
			<g>
				<g>
					<rect x="1.306" y="24.649" fill="#58595B" width="5.498" height="1.5"/>
				</g>
				<g>
					<rect x="43.208" y="24.649" fill="#58595B" width="5.499" height="1.5"/>
				</g>
				<g>
					<rect x="24.096" y="1.784" fill="#58595B" width="1.5" height="5.174"/>
				</g>
				<g>
					<rect x="24.256" y="43.043" fill="#58595B" width="1.5" height="5.178"/>
				</g>
			</g>
		</g>
	</g>
</g>
</svg>
