<?xml version="1.0" encoding="utf-8"?>
<!-- Generator: Adobe Illustrator 16.0.0, SVG Export Plug-In . SVG Version: 6.00 Build 0)  -->
<!DOCTYPE svg PUBLIC "-//W3C//DTD SVG 1.1//EN" "http://www.w3.org/Graphics/SVG/1.1/DTD/svg11.dtd">
<svg version="1.1" id="Layer_1" xmlns="http://www.w3.org/2000/svg" xmlns:xlink="http://www.w3.org/1999/xlink" x="0px" y="0px"
	 width="50px" height="50px" viewBox="0 0 50 50" enable-background="new 0 0 50 50" xml:space="preserve">
<g>
	<g>
		
			<rect x="33.882" y="8.525" transform="matrix(0.7071 0.7071 -0.7071 0.7071 20.9548 -20.0102)" fill="#58595B" width="1.5" height="13.53"/>
	</g>
	<g>
		
			<rect x="8.524" y="14.578" transform="matrix(0.7069 0.7073 -0.7073 0.7069 15.3219 -6.3208)" fill="#58595B" width="13.528" height="1.5"/>
	</g>
	<g>
		
			<rect x="14.502" y="27.906" transform="matrix(0.7071 0.7071 -0.7071 0.7071 28.9832 -0.6299)" fill="#58595B" width="1.5" height="13.53"/>
	</g>
	<g>
		
			<rect x="27.906" y="33.958" transform="matrix(0.7071 0.7071 -0.7071 0.7071 34.6964 -14.3494)" fill="#58595B" width="13.528" height="1.5"/>
	</g>
	<g>
		<path fill="#58595B" d="M24.941,29.13c-1.799,0-3.369-1.152-3.909-2.868c-0.328-1.043-0.23-2.153,0.275-3.124
			s1.36-1.686,2.405-2.015c0.399-0.126,0.815-0.19,1.233-0.19c1.796,0,3.367,1.152,3.908,2.868c0.677,2.156-0.525,4.462-2.679,5.14
			C25.773,29.066,25.358,29.13,24.941,29.13z M24.946,22.433c-0.265,0-0.527,0.041-0.782,0.121
			c-0.664,0.209-1.205,0.662-1.526,1.277s-0.383,1.319-0.174,1.98c0.421,1.34,1.902,2.13,3.26,1.697
			c1.366-0.43,2.128-1.891,1.699-3.258C27.08,23.164,26.085,22.433,24.946,22.433z"/>
	</g>
	<g>
		<g>
			<path fill="#58595B" d="M29.94,11.295c-1.797,0-3.367-1.153-3.908-2.869c-0.677-2.156,0.525-4.461,2.679-5.139
				c0.401-0.126,0.816-0.189,1.232-0.189c1.799,0,3.369,1.152,3.907,2.868c0.329,1.044,0.231,2.154-0.275,3.126
				c-0.506,0.971-1.359,1.686-2.402,2.013C30.773,11.23,30.358,11.295,29.94,11.295z M29.943,4.598
				c-0.264,0-0.527,0.041-0.782,0.121c-1.365,0.43-2.127,1.891-1.698,3.257c0.422,1.34,1.908,2.123,3.259,1.698
				c0.663-0.208,1.203-0.661,1.524-1.275c0.32-0.616,0.383-1.32,0.174-1.982C32.078,5.328,31.083,4.598,29.943,4.598z"/>
		</g>
		<g>
			<path fill="#58595B" d="M19.94,11.295c-1.796,0-3.366-1.152-3.906-2.867c-0.328-1.046-0.23-2.155,0.275-3.126
				c0.506-0.972,1.36-1.688,2.404-2.015c0.4-0.126,0.816-0.19,1.234-0.19c1.797,0,3.365,1.153,3.903,2.869
				c0.678,2.155-0.523,4.46-2.678,5.139C20.773,11.23,20.357,11.295,19.94,11.295z M19.948,4.597c-0.265,0-0.528,0.041-0.784,0.121
				c-0.663,0.208-1.204,0.661-1.524,1.276c-0.321,0.616-0.383,1.32-0.175,1.983c0.422,1.339,1.899,2.121,3.257,1.696
				c1.367-0.431,2.129-1.892,1.698-3.258C22.079,5.327,21.085,4.597,19.948,4.597z"/>
		</g>
	</g>
	<g>
		<g>
			<path fill="#58595B" d="M29.941,46.903c-1.798,0-3.368-1.153-3.909-2.87c-0.677-2.153,0.525-4.459,2.678-5.14
				c0.402-0.126,0.815-0.189,1.231-0.189c1.8,0,3.37,1.153,3.909,2.869c0.329,1.044,0.231,2.154-0.274,3.125
				c-0.505,0.97-1.358,1.686-2.402,2.014C30.773,46.839,30.358,46.903,29.941,46.903z M29.941,40.204c-0.264,0-0.526,0.04-0.78,0.12
				c-1.364,0.432-2.127,1.894-1.698,3.259c0.422,1.34,1.903,2.126,3.26,1.699c0.662-0.209,1.203-0.663,1.523-1.277
				c0.32-0.615,0.382-1.319,0.174-1.981C32.078,40.935,31.082,40.204,29.941,40.204z"/>
		</g>
		<g>
			<path fill="#58595B" d="M19.94,46.903c-1.796,0-3.366-1.152-3.906-2.867c-0.678-2.156,0.524-4.464,2.679-5.143
				c0.401-0.127,0.816-0.19,1.233-0.19c1.798,0,3.367,1.153,3.905,2.87c0.678,2.154-0.523,4.46-2.678,5.139
				C20.772,46.839,20.358,46.903,19.94,46.903z M19.946,40.203c-0.265,0-0.527,0.04-0.782,0.121
				c-1.366,0.431-2.129,1.894-1.699,3.262c0.421,1.34,1.905,2.118,3.258,1.696c1.366-0.431,2.128-1.893,1.697-3.259
				C22.079,40.934,21.084,40.203,19.946,40.203z"/>
		</g>
	</g>
	<g>
		<g>
			<path fill="#58595B" d="M42.801,34.129c-1.796,0-3.365-1.151-3.905-2.865c-0.33-1.044-0.233-2.154,0.273-3.126
				s1.36-1.688,2.405-2.017c0.399-0.126,0.813-0.19,1.229-0.19c1.798,0,3.369,1.152,3.909,2.868
				c0.329,1.045,0.231,2.155-0.274,3.125c-0.506,0.972-1.359,1.687-2.404,2.015C43.634,34.064,43.218,34.129,42.801,34.129z
				 M42.804,27.431c-0.263,0-0.525,0.041-0.778,0.121c-0.663,0.209-1.205,0.663-1.526,1.279c-0.321,0.615-0.383,1.319-0.174,1.981
				c0.422,1.339,1.899,2.122,3.259,1.695c0.663-0.208,1.204-0.661,1.524-1.276s0.383-1.319,0.174-1.982
				C44.939,28.162,43.943,27.431,42.804,27.431z"/>
		</g>
		<g>
			<path fill="#58595B" d="M42.802,24.13c-1.796,0-3.366-1.153-3.906-2.868c-0.33-1.042-0.233-2.151,0.272-3.122
				c0.505-0.972,1.359-1.688,2.403-2.017c0.4-0.126,0.816-0.19,1.234-0.19c1.798,0,3.368,1.152,3.908,2.867
				c0.329,1.047,0.231,2.158-0.276,3.13c-0.506,0.97-1.36,1.683-2.404,2.01C43.634,24.065,43.22,24.13,42.802,24.13z M42.806,17.433
				c-0.265,0-0.528,0.041-0.784,0.121c-0.662,0.209-1.203,0.662-1.523,1.278c-0.32,0.615-0.382,1.317-0.173,1.978
				c0.424,1.342,1.906,2.121,3.259,1.699c0.663-0.208,1.203-0.66,1.524-1.273c0.321-0.616,0.384-1.321,0.174-1.985
				C44.94,18.163,43.945,17.433,42.806,17.433z"/>
		</g>
	</g>
	<g>
		<g>
			<path fill="#58595B" d="M7.191,34.129c-1.796,0-3.365-1.151-3.905-2.865c-0.678-2.156,0.524-4.463,2.68-5.143
				c0.4-0.126,0.814-0.19,1.23-0.19c1.797,0,3.368,1.152,3.909,2.868c0.328,1.046,0.23,2.155-0.275,3.125
				c-0.506,0.972-1.359,1.687-2.404,2.015C8.025,34.064,7.609,34.129,7.191,34.129z M7.196,27.431c-0.263,0-0.525,0.041-0.78,0.121
				c-1.366,0.431-2.128,1.894-1.698,3.262c0.421,1.338,1.901,2.117,3.258,1.694C8.638,32.3,9.179,31.847,9.5,31.231
				c0.321-0.616,0.383-1.319,0.175-1.982C9.332,28.162,8.335,27.431,7.196,27.431z"/>
		</g>
		<g>
			<path fill="#58595B" d="M7.193,24.13c-1.796,0-3.366-1.153-3.906-2.868c-0.329-1.044-0.231-2.153,0.274-3.124
				s1.359-1.687,2.403-2.015c0.4-0.126,0.816-0.19,1.234-0.19c1.798,0,3.367,1.152,3.907,2.867c0.329,1.046,0.231,2.158-0.276,3.129
				c-0.507,0.97-1.36,1.684-2.405,2.011C8.025,24.065,7.611,24.13,7.193,24.13z M7.199,17.433c-0.265,0-0.528,0.041-0.784,0.121
				c-0.662,0.208-1.202,0.661-1.523,1.277c-0.32,0.615-0.383,1.318-0.174,1.979c0.422,1.341,1.907,2.12,3.258,1.698
				c0.663-0.208,1.204-0.66,1.524-1.274c0.322-0.616,0.384-1.32,0.175-1.984C9.333,18.163,8.337,17.433,7.199,17.433z"/>
		</g>
	</g>
</g>
</svg>
