<?xml version="1.0" encoding="utf-8"?>
<!-- Generator: Adobe Illustrator 16.0.0, SVG Export Plug-In . SVG Version: 6.00 Build 0)  -->
<!DOCTYPE svg PUBLIC "-//W3C//DTD SVG 1.1//EN" "http://www.w3.org/Graphics/SVG/1.1/DTD/svg11.dtd">
<svg version="1.1" id="Layer_1" xmlns="http://www.w3.org/2000/svg" xmlns:xlink="http://www.w3.org/1999/xlink" x="0px" y="0px"
	 width="100px" height="100px" viewBox="0 0 100 100" enable-background="new 0 0 100 100" xml:space="preserve">
<g>
	<defs>
		<rect id="SVGID_1_" x="-0.166" y="0.028" width="100.331" height="99.943"/>
	</defs>
	<clipPath id="SVGID_2_">
		<use xlink:href="#SVGID_1_"  overflow="visible"/>
	</clipPath>
	<g clip-path="url(#SVGID_2_)">
		<g>
			<rect x="-149.077" y="-151.501" fill="#FBC9C4" width="452.673" height="366.794"/>
		</g>
		<g>
			<g>
				<g>
					<g>
						<polygon fill="#FFFFFF" points="-112.274,-112.42 -126.04,-126.184 -139.8,-112.42 -141.265,-113.882 -126.04,-129.114 
							-110.805,-113.882 						"/>
					</g>
					<g>
						<polygon fill="#FFFFFF" points="-126.04,-126.562 -141.265,-141.79 -139.8,-143.258 -126.04,-129.493 -112.274,-143.258 
							-110.805,-141.79 						"/>
					</g>
				</g>
				<g>
					<g>
						<polygon fill="#FFFFFF" points="-61.785,-112.42 -75.548,-126.184 -89.312,-112.42 -90.777,-113.882 -75.548,-129.114 
							-60.321,-113.882 						"/>
					</g>
					<g>
						<polygon fill="#FFFFFF" points="-75.548,-126.562 -90.777,-141.79 -89.312,-143.258 -75.548,-129.493 -61.785,-143.258 
							-60.321,-141.79 						"/>
					</g>
				</g>
				<g>
					<g>
						<polygon fill="#FFFFFF" points="-11.668,-112.42 -25.436,-126.184 -39.2,-112.42 -40.665,-113.882 -25.436,-129.114 
							-10.204,-113.882 						"/>
					</g>
					<g>
						<polygon fill="#FFFFFF" points="-25.436,-126.562 -40.665,-141.79 -39.2,-143.258 -25.436,-129.493 -11.668,-143.258 
							-10.204,-141.79 						"/>
					</g>
				</g>
				<g>
					<g>
						<polygon fill="#FFFFFF" points="38.444,-112.42 24.676,-126.184 10.916,-112.42 9.449,-113.882 24.676,-129.114 
							39.908,-113.882 						"/>
					</g>
					<g>
						<polygon fill="#FFFFFF" points="24.676,-126.562 9.449,-141.79 10.916,-143.258 24.676,-129.493 38.444,-143.258 
							39.908,-141.79 						"/>
					</g>
				</g>
				<g>
					<g>
						<polygon fill="#FFFFFF" points="88.556,-112.42 74.793,-126.184 61.028,-112.42 59.562,-113.882 74.793,-129.114 
							90.021,-113.882 						"/>
					</g>
					<g>
						<polygon fill="#FFFFFF" points="74.793,-126.562 59.562,-141.79 61.028,-143.258 74.793,-129.493 88.556,-143.258 
							90.021,-141.79 						"/>
					</g>
				</g>
				<g>
					<g>
						<polygon fill="#FFFFFF" points="138.666,-112.42 124.905,-126.184 111.143,-112.42 109.674,-113.882 124.905,-129.114 
							140.137,-113.882 						"/>
					</g>
					<g>
						<polygon fill="#FFFFFF" points="124.905,-126.562 109.674,-141.79 111.143,-143.258 124.905,-129.493 138.666,-143.258 
							140.137,-141.79 						"/>
					</g>
				</g>
				<g>
					<g>
						<polygon fill="#FFFFFF" points="188.78,-112.42 175.018,-126.184 161.255,-112.42 159.786,-113.882 175.018,-129.114 
							190.249,-113.882 						"/>
					</g>
					<g>
						<polygon fill="#FFFFFF" points="175.018,-126.562 159.786,-141.79 161.255,-143.258 175.018,-129.493 188.78,-143.258 
							190.249,-141.79 						"/>
					</g>
				</g>
				<g>
					<g>
						<polygon fill="#FFFFFF" points="238.895,-112.42 225.13,-126.184 211.367,-112.42 209.902,-113.882 225.13,-129.114 
							240.361,-113.882 						"/>
					</g>
					<g>
						<polygon fill="#FFFFFF" points="225.13,-126.562 209.902,-141.79 211.367,-143.258 225.13,-129.493 238.895,-143.258 
							240.361,-141.79 						"/>
					</g>
				</g>
				<g>
					<g>
						<polygon fill="#FFFFFF" points="289.01,-112.42 275.246,-126.184 261.479,-112.42 260.015,-113.882 275.246,-129.114 
							290.474,-113.882 						"/>
					</g>
					<g>
						<polygon fill="#FFFFFF" points="275.246,-126.562 260.015,-141.79 261.479,-143.258 275.246,-129.493 289.01,-143.258 
							290.474,-141.79 						"/>
					</g>
				</g>
			</g>
			<g>
				<g>
					<g>
						<polygon fill="#16BECF" points="-111.904,-101.06 -126.04,-115.192 -140.166,-101.06 -140.899,-101.795 -126.04,-116.661 
							-111.173,-101.795 						"/>
					</g>
					<g>
						<polygon fill="#16BECF" points="-126.04,-139.156 -140.899,-154.021 -140.166,-154.753 -126.04,-140.622 -111.904,-154.753 
							-111.173,-154.021 						"/>
					</g>
				</g>
				<g>
					<g>
						<polygon fill="#16BECF" points="-61.417,-101.06 -75.548,-115.192 -89.678,-101.06 -90.412,-101.795 -75.548,-116.661 
							-60.686,-101.795 						"/>
					</g>
					<g>
						<polygon fill="#16BECF" points="-75.548,-139.156 -90.412,-154.021 -89.678,-154.753 -75.548,-140.622 -61.417,-154.753 
							-60.686,-154.021 						"/>
					</g>
				</g>
				<g>
					<g>
						<polygon fill="#16BECF" points="-11.303,-101.06 -25.436,-115.192 -39.564,-101.06 -40.299,-101.795 -25.436,-116.661 
							-10.569,-101.795 						"/>
					</g>
					<g>
						<polygon fill="#16BECF" points="-25.436,-139.156 -40.299,-154.021 -39.564,-154.753 -25.436,-140.622 -11.303,-154.753 
							-10.569,-154.021 						"/>
					</g>
				</g>
				<g>
					<g>
						<polygon fill="#16BECF" points="38.809,-101.06 24.676,-115.192 10.548,-101.06 9.814,-101.795 24.676,-116.661 
							39.54,-101.795 						"/>
					</g>
					<g>
						<polygon fill="#16BECF" points="24.676,-139.156 9.814,-154.021 10.548,-154.753 24.676,-140.622 38.809,-154.753 
							39.54,-154.021 						"/>
					</g>
				</g>
				<g>
					<g>
						<polygon fill="#16BECF" points="88.922,-101.06 74.793,-115.192 60.66,-101.06 59.927,-101.795 74.793,-116.661 
							89.655,-101.795 						"/>
					</g>
					<g>
						<polygon fill="#16BECF" points="74.793,-139.156 59.927,-154.021 60.66,-154.753 74.793,-140.622 88.922,-154.753 
							89.655,-154.021 						"/>
					</g>
				</g>
				<g>
					<g>
						<polygon fill="#16BECF" points="139.038,-101.06 124.905,-115.192 110.772,-101.06 110.042,-101.795 124.905,-116.661 
							139.769,-101.795 						"/>
					</g>
					<g>
						<polygon fill="#16BECF" points="124.905,-139.156 110.042,-154.021 110.772,-154.753 124.905,-140.622 139.038,-154.753 
							139.769,-154.021 						"/>
					</g>
				</g>
				<g>
					<g>
						<polygon fill="#16BECF" points="189.146,-101.06 175.018,-115.192 160.885,-101.06 160.151,-101.795 175.018,-116.661 
							189.884,-101.795 						"/>
					</g>
					<g>
						<polygon fill="#16BECF" points="175.018,-139.156 160.151,-154.021 160.885,-154.753 175.018,-140.622 189.146,-154.753 
							189.884,-154.021 						"/>
					</g>
				</g>
				<g>
					<g>
						<polygon fill="#16BECF" points="239.263,-101.06 225.13,-115.192 211.002,-101.06 210.264,-101.795 225.13,-116.661 
							239.996,-101.795 						"/>
					</g>
					<g>
						<polygon fill="#16BECF" points="225.13,-139.156 210.264,-154.021 211.002,-154.753 225.13,-140.622 239.263,-154.753 
							239.996,-154.021 						"/>
					</g>
				</g>
				<g>
					<g>
						<polygon fill="#16BECF" points="289.375,-101.06 275.246,-115.192 261.114,-101.06 260.38,-101.795 275.246,-116.661 
							290.108,-101.795 						"/>
					</g>
					<g>
						<polygon fill="#16BECF" points="275.246,-139.156 260.38,-154.021 261.114,-154.753 275.246,-140.622 289.375,-154.753 
							290.108,-154.021 						"/>
					</g>
				</g>
			</g>
			<g>
				<g>
					<g>
						<polygon fill="#F47A5C" points="-100.988,-112.705 -115.847,-127.566 -100.988,-142.432 -100.254,-141.699 -114.383,-127.566 
							-100.254,-113.439 						"/>
					</g>
					<g>
						<polygon fill="#F47A5C" points="-151.21,-112.705 -151.944,-113.439 -137.818,-127.566 -151.944,-141.699 -151.21,-142.432 
							-136.347,-127.566 						"/>
					</g>
				</g>
				<g>
					<g>
						<polygon fill="#F47A5C" points="-50.496,-112.705 -65.358,-127.566 -50.496,-142.432 -49.765,-141.699 -63.894,-127.566 
							-49.765,-113.439 						"/>
					</g>
					<g>
						<polygon fill="#F47A5C" points="-100.722,-112.705 -101.457,-113.439 -87.327,-127.566 -101.457,-141.699 -100.722,-142.432 
							-85.859,-127.566 						"/>
					</g>
				</g>
				<g>
					<g>
						<polygon fill="#F47A5C" points="-0.384,-112.705 -15.246,-127.566 -0.384,-142.432 0.347,-141.699 -13.779,-127.566 
							0.347,-113.439 						"/>
					</g>
					<g>
						<polygon fill="#F47A5C" points="-50.609,-112.705 -51.343,-113.439 -37.214,-127.566 -51.343,-141.699 -50.609,-142.432 
							-35.747,-127.566 						"/>
					</g>
				</g>
				<g>
					<g>
						<polygon fill="#F47A5C" points="49.726,-112.705 34.866,-127.566 49.726,-142.432 50.459,-141.699 36.335,-127.566 
							50.459,-113.439 						"/>
					</g>
					<g>
						<polygon fill="#F47A5C" points="-0.497,-112.705 -1.228,-113.439 12.898,-127.566 -1.228,-141.699 -0.497,-142.432 
							14.362,-127.566 						"/>
					</g>
				</g>
				<g>
					<g>
						<polygon fill="#F47A5C" points="99.842,-112.705 84.982,-127.566 99.842,-142.432 100.576,-141.699 86.447,-127.566 
							100.576,-113.439 						"/>
					</g>
					<g>
						<polygon fill="#F47A5C" points="49.62,-112.705 48.882,-113.439 63.011,-127.566 48.882,-141.699 49.62,-142.432 
							64.479,-127.566 						"/>
					</g>
				</g>
				<g>
					<g>
						<polygon fill="#F47A5C" points="149.955,-112.705 135.091,-127.566 149.955,-142.432 150.692,-141.699 136.56,-127.566 
							150.692,-113.439 						"/>
					</g>
					<g>
						<polygon fill="#F47A5C" points="99.728,-112.705 98.998,-113.439 113.123,-127.566 98.998,-141.699 99.728,-142.432 
							114.587,-127.566 						"/>
					</g>
				</g>
				<g>
					<g>
						<polygon fill="#F47A5C" points="200.071,-112.705 185.208,-127.566 200.071,-142.432 200.805,-141.699 186.672,-127.566 
							200.805,-113.439 						"/>
					</g>
					<g>
						<polygon fill="#F47A5C" points="149.845,-112.705 149.106,-113.439 163.235,-127.566 149.106,-141.699 149.845,-142.432 
							164.704,-127.566 						"/>
					</g>
				</g>
				<g>
					<g>
						<polygon fill="#F47A5C" points="250.184,-112.705 235.32,-127.566 250.184,-142.432 250.917,-141.699 236.789,-127.566 
							250.917,-113.439 						"/>
					</g>
					<g>
						<polygon fill="#F47A5C" points="199.957,-112.705 199.223,-113.439 213.349,-127.566 199.223,-141.699 199.957,-142.432 
							214.82,-127.566 						"/>
					</g>
				</g>
				<g>
					<g>
						<polygon fill="#F47A5C" points="300.296,-112.705 285.434,-127.566 300.296,-142.432 301.029,-141.699 286.901,-127.566 
							301.029,-113.439 						"/>
					</g>
					<g>
						<polygon fill="#F47A5C" points="250.069,-112.705 249.335,-113.439 263.465,-127.566 249.335,-141.699 250.069,-142.432 
							264.93,-127.566 						"/>
					</g>
				</g>
			</g>
			<g>
				<g>
					<path fill="#F47A5C" d="M-120.83-127.566c0,2.876-2.329,5.205-5.21,5.205c-2.878,0-5.205-2.328-5.205-5.205
						c0-2.874,2.326-5.208,5.205-5.208C-123.159-132.774-120.83-130.44-120.83-127.566z"/>
				</g>
				<g>
					<circle fill="#F47A5C" cx="-75.547" cy="-127.566" r="5.209"/>
				</g>
				<g>
					<path fill="#F47A5C" d="M-20.226-127.566c0,2.876-2.33,5.205-5.21,5.205c-2.874,0-5.207-2.328-5.207-5.205
						c0-2.874,2.333-5.208,5.207-5.208C-22.555-132.774-20.226-130.44-20.226-127.566z"/>
				</g>
				<g>
					<path fill="#F47A5C" d="M29.887-127.566c0,2.876-2.33,5.205-5.21,5.205c-2.874,0-5.207-2.328-5.207-5.205
						c0-2.874,2.333-5.208,5.207-5.208C27.557-132.774,29.887-130.44,29.887-127.566z"/>
				</g>
				<g>
					<circle fill="#F47A5C" cx="74.793" cy="-127.566" r="5.207"/>
				</g>
				<g>
					<circle fill="#F47A5C" cx="124.907" cy="-127.566" r="5.208"/>
				</g>
				<g>
					<path fill="#F47A5C" d="M180.228-127.566c0,2.876-2.329,5.205-5.21,5.205c-2.874,0-5.207-2.328-5.207-5.205
						c0-2.874,2.333-5.208,5.207-5.208C177.898-132.774,180.228-130.44,180.228-127.566z"/>
				</g>
				<g>
					<path fill="#F47A5C" d="M230.34-127.566c0,2.876-2.329,5.205-5.21,5.205c-2.877,0-5.203-2.328-5.203-5.205
						c0-2.874,2.326-5.208,5.203-5.208C228.011-132.774,230.34-130.44,230.34-127.566z"/>
				</g>
				<g>
					<circle fill="#F47A5C" cx="275.245" cy="-127.566" r="5.209"/>
				</g>
			</g>
			<g>
				<g>
					<g>
						<polygon fill="#FFFFFF" points="-112.274,-60.164 -126.04,-73.928 -139.8,-60.164 -141.265,-61.629 -126.04,-76.865 
							-110.805,-61.629 						"/>
					</g>
					<g>
						<polygon fill="#FFFFFF" points="-126.04,-74.305 -141.265,-89.536 -139.8,-91.002 -126.04,-77.238 -112.274,-91.002 
							-110.805,-89.536 						"/>
					</g>
				</g>
				<g>
					<g>
						<polygon fill="#FFFFFF" points="-61.785,-60.164 -75.548,-73.928 -89.312,-60.164 -90.777,-61.629 -75.548,-76.865 
							-60.321,-61.629 						"/>
					</g>
					<g>
						<polygon fill="#FFFFFF" points="-75.548,-74.305 -90.777,-89.536 -89.312,-91.002 -75.548,-77.238 -61.785,-91.002 
							-60.321,-89.536 						"/>
					</g>
				</g>
				<g>
					<g>
						<polygon fill="#FFFFFF" points="-11.668,-60.164 -25.436,-73.928 -39.2,-60.164 -40.665,-61.629 -25.436,-76.865 
							-10.204,-61.629 						"/>
					</g>
					<g>
						<polygon fill="#FFFFFF" points="-25.436,-74.305 -40.665,-89.536 -39.2,-91.002 -25.436,-77.238 -11.668,-91.002 
							-10.204,-89.536 						"/>
					</g>
				</g>
				<g>
					<g>
						<polygon fill="#FFFFFF" points="38.444,-60.164 24.676,-73.928 10.916,-60.164 9.449,-61.629 24.676,-76.865 39.908,-61.629 
													"/>
					</g>
					<g>
						<polygon fill="#FFFFFF" points="24.676,-74.305 9.449,-89.536 10.916,-91.002 24.676,-77.238 38.444,-91.002 39.908,-89.536 
													"/>
					</g>
				</g>
				<g>
					<g>
						<polygon fill="#FFFFFF" points="88.556,-60.164 74.793,-73.928 61.028,-60.164 59.562,-61.629 74.793,-76.865 90.021,-61.629 
													"/>
					</g>
					<g>
						<polygon fill="#FFFFFF" points="74.793,-74.305 59.562,-89.536 61.028,-91.002 74.793,-77.238 88.556,-91.002 90.021,-89.536 
													"/>
					</g>
				</g>
				<g>
					<g>
						<polygon fill="#FFFFFF" points="138.666,-60.164 124.905,-73.928 111.143,-60.164 109.674,-61.629 124.905,-76.865 
							140.137,-61.629 						"/>
					</g>
					<g>
						<polygon fill="#FFFFFF" points="124.905,-74.305 109.674,-89.536 111.143,-91.002 124.905,-77.238 138.666,-91.002 
							140.137,-89.536 						"/>
					</g>
				</g>
				<g>
					<g>
						<polygon fill="#FFFFFF" points="188.78,-60.164 175.018,-73.928 161.255,-60.164 159.786,-61.629 175.018,-76.865 
							190.249,-61.629 						"/>
					</g>
					<g>
						<polygon fill="#FFFFFF" points="175.018,-74.305 159.786,-89.536 161.255,-91.002 175.018,-77.238 188.78,-91.002 
							190.249,-89.536 						"/>
					</g>
				</g>
				<g>
					<g>
						<polygon fill="#FFFFFF" points="238.895,-60.164 225.13,-73.928 211.367,-60.164 209.902,-61.629 225.13,-76.865 
							240.361,-61.629 						"/>
					</g>
					<g>
						<polygon fill="#FFFFFF" points="225.13,-74.305 209.902,-89.536 211.367,-91.002 225.13,-77.238 238.895,-91.002 
							240.361,-89.536 						"/>
					</g>
				</g>
				<g>
					<g>
						<polygon fill="#FFFFFF" points="289.01,-60.164 275.246,-73.928 261.479,-60.164 260.015,-61.629 275.246,-76.865 
							290.474,-61.629 						"/>
					</g>
					<g>
						<polygon fill="#FFFFFF" points="275.246,-74.305 260.015,-89.536 261.479,-91.002 275.246,-77.238 289.01,-91.002 
							290.474,-89.536 						"/>
					</g>
				</g>
			</g>
			<g>
				<g>
					<g>
						<polygon fill="#16BECF" points="-111.904,-48.804 -126.04,-62.939 -140.166,-48.804 -140.899,-49.538 -126.04,-64.408 
							-111.173,-49.538 						"/>
					</g>
					<g>
						<polygon fill="#16BECF" points="-126.04,-86.899 -140.899,-101.764 -140.166,-102.501 -126.04,-88.368 -111.904,-102.501 
							-111.173,-101.764 						"/>
					</g>
				</g>
				<g>
					<g>
						<polygon fill="#16BECF" points="-61.417,-48.804 -75.548,-62.939 -89.678,-48.804 -90.412,-49.538 -75.548,-64.408 
							-60.686,-49.538 						"/>
					</g>
					<g>
						<polygon fill="#16BECF" points="-75.548,-86.899 -90.412,-101.764 -89.678,-102.501 -75.548,-88.368 -61.417,-102.501 
							-60.686,-101.764 						"/>
					</g>
				</g>
				<g>
					<g>
						<polygon fill="#16BECF" points="-11.303,-48.804 -25.436,-62.939 -39.564,-48.804 -40.299,-49.538 -25.436,-64.408 
							-10.569,-49.538 						"/>
					</g>
					<g>
						<polygon fill="#16BECF" points="-25.436,-86.899 -40.299,-101.764 -39.564,-102.501 -25.436,-88.368 -11.303,-102.501 
							-10.569,-101.764 						"/>
					</g>
				</g>
				<g>
					<g>
						<polygon fill="#16BECF" points="38.809,-48.804 24.676,-62.939 10.548,-48.804 9.814,-49.538 24.676,-64.408 39.54,-49.538 
													"/>
					</g>
					<g>
						<polygon fill="#16BECF" points="24.676,-86.899 9.814,-101.764 10.548,-102.501 24.676,-88.368 38.809,-102.501 
							39.54,-101.764 						"/>
					</g>
				</g>
				<g>
					<g>
						<polygon fill="#16BECF" points="88.922,-48.804 74.793,-62.939 60.66,-48.804 59.927,-49.538 74.793,-64.408 89.655,-49.538 
													"/>
					</g>
					<g>
						<polygon fill="#16BECF" points="74.793,-86.899 59.927,-101.764 60.66,-102.501 74.793,-88.368 88.922,-102.501 
							89.655,-101.764 						"/>
					</g>
				</g>
				<g>
					<g>
						<polygon fill="#16BECF" points="139.038,-48.804 124.905,-62.939 110.772,-48.804 110.042,-49.538 124.905,-64.408 
							139.769,-49.538 						"/>
					</g>
					<g>
						<polygon fill="#16BECF" points="124.905,-86.899 110.042,-101.764 110.772,-102.501 124.905,-88.368 139.038,-102.501 
							139.769,-101.764 						"/>
					</g>
				</g>
				<g>
					<g>
						<polygon fill="#16BECF" points="189.146,-48.804 175.018,-62.939 160.885,-48.804 160.151,-49.538 175.018,-64.408 
							189.884,-49.538 						"/>
					</g>
					<g>
						<polygon fill="#16BECF" points="175.018,-86.899 160.151,-101.764 160.885,-102.501 175.018,-88.368 189.146,-102.501 
							189.884,-101.764 						"/>
					</g>
				</g>
				<g>
					<g>
						<polygon fill="#16BECF" points="239.263,-48.804 225.13,-62.939 211.002,-48.804 210.264,-49.538 225.13,-64.408 
							239.996,-49.538 						"/>
					</g>
					<g>
						<polygon fill="#16BECF" points="225.13,-86.899 210.264,-101.764 211.002,-102.501 225.13,-88.368 239.263,-102.501 
							239.996,-101.764 						"/>
					</g>
				</g>
				<g>
					<g>
						<polygon fill="#16BECF" points="289.375,-48.804 275.246,-62.939 261.114,-48.804 260.38,-49.538 275.246,-64.408 
							290.108,-49.538 						"/>
					</g>
					<g>
						<polygon fill="#16BECF" points="275.246,-86.899 260.38,-101.764 261.114,-102.501 275.246,-88.368 289.375,-102.501 
							290.108,-101.764 						"/>
					</g>
				</g>
			</g>
			<g>
				<g>
					<g>
						<polygon fill="#F47A5C" points="-100.988,-60.452 -115.847,-75.314 -100.988,-90.179 -100.254,-89.444 -114.383,-75.314 
							-100.254,-61.184 						"/>
					</g>
					<g>
						<polygon fill="#F47A5C" points="-151.21,-60.452 -151.944,-61.184 -137.818,-75.314 -151.944,-89.444 -151.21,-90.179 
							-136.347,-75.314 						"/>
					</g>
				</g>
				<g>
					<g>
						<polygon fill="#F47A5C" points="-50.496,-60.452 -65.358,-75.314 -50.496,-90.179 -49.765,-89.444 -63.894,-75.314 
							-49.765,-61.184 						"/>
					</g>
					<g>
						<polygon fill="#F47A5C" points="-100.722,-60.452 -101.457,-61.184 -87.327,-75.314 -101.457,-89.444 -100.722,-90.179 
							-85.859,-75.314 						"/>
					</g>
				</g>
				<g>
					<g>
						<polygon fill="#F47A5C" points="-0.384,-60.452 -15.246,-75.314 -0.384,-90.179 0.347,-89.444 -13.779,-75.314 0.347,-61.184 
													"/>
					</g>
					<g>
						<polygon fill="#F47A5C" points="-50.609,-60.452 -51.343,-61.184 -37.214,-75.314 -51.343,-89.444 -50.609,-90.179 
							-35.747,-75.314 						"/>
					</g>
				</g>
				<g>
					<g>
						<polygon fill="#F47A5C" points="49.726,-60.452 34.866,-75.314 49.726,-90.179 50.459,-89.444 36.335,-75.314 50.459,-61.184 
													"/>
					</g>
					<g>
						<polygon fill="#F47A5C" points="-0.497,-60.452 -1.228,-61.184 12.898,-75.314 -1.228,-89.444 -0.497,-90.179 14.362,-75.314 
													"/>
					</g>
				</g>
				<g>
					<g>
						<polygon fill="#F47A5C" points="99.842,-60.452 84.982,-75.314 99.842,-90.179 100.576,-89.444 86.447,-75.314 
							100.576,-61.184 						"/>
					</g>
					<g>
						<polygon fill="#F47A5C" points="49.62,-60.452 48.882,-61.184 63.011,-75.314 48.882,-89.444 49.62,-90.179 64.479,-75.314 
													"/>
					</g>
				</g>
				<g>
					<g>
						<polygon fill="#F47A5C" points="149.955,-60.452 135.091,-75.314 149.955,-90.179 150.692,-89.444 136.56,-75.314 
							150.692,-61.184 						"/>
					</g>
					<g>
						<polygon fill="#F47A5C" points="99.728,-60.452 98.998,-61.184 113.123,-75.314 98.998,-89.444 99.728,-90.179 
							114.587,-75.314 						"/>
					</g>
				</g>
				<g>
					<g>
						<polygon fill="#F47A5C" points="200.071,-60.452 185.208,-75.314 200.071,-90.179 200.805,-89.444 186.672,-75.314 
							200.805,-61.184 						"/>
					</g>
					<g>
						<polygon fill="#F47A5C" points="149.845,-60.452 149.106,-61.184 163.235,-75.314 149.106,-89.444 149.845,-90.179 
							164.704,-75.314 						"/>
					</g>
				</g>
				<g>
					<g>
						<polygon fill="#F47A5C" points="250.184,-60.452 235.32,-75.314 250.184,-90.179 250.917,-89.444 236.789,-75.314 
							250.917,-61.184 						"/>
					</g>
					<g>
						<polygon fill="#F47A5C" points="199.957,-60.452 199.223,-61.184 213.349,-75.314 199.223,-89.444 199.957,-90.179 
							214.82,-75.314 						"/>
					</g>
				</g>
				<g>
					<g>
						<polygon fill="#F47A5C" points="300.296,-60.452 285.434,-75.314 300.296,-90.179 301.029,-89.444 286.901,-75.314 
							301.029,-61.184 						"/>
					</g>
					<g>
						<polygon fill="#F47A5C" points="250.069,-60.452 249.335,-61.184 263.465,-75.314 249.335,-89.444 250.069,-90.179 
							264.93,-75.314 						"/>
					</g>
				</g>
			</g>
			<g>
				<g>
					<path fill="#F47A5C" d="M-120.83-75.314c0,2.877-2.329,5.21-5.21,5.21c-2.878,0-5.205-2.333-5.205-5.21
						c0-2.874,2.326-5.205,5.205-5.205C-123.159-80.519-120.83-78.188-120.83-75.314z"/>
				</g>
				<g>
					<path fill="#F47A5C" d="M-70.338-75.314c0,2.877-2.333,5.21-5.21,5.21c-2.878,0-5.207-2.333-5.207-5.21
						c0-2.874,2.329-5.205,5.207-5.205C-72.671-80.519-70.338-78.188-70.338-75.314z"/>
				</g>
				<g>
					<path fill="#F47A5C" d="M-20.226-75.314c0,2.877-2.33,5.21-5.21,5.21c-2.874,0-5.207-2.333-5.207-5.21
						c0-2.874,2.333-5.205,5.207-5.205C-22.555-80.519-20.226-78.188-20.226-75.314z"/>
				</g>
				<g>
					<path fill="#F47A5C" d="M29.887-75.314c0,2.877-2.33,5.21-5.21,5.21c-2.874,0-5.207-2.333-5.207-5.21
						c0-2.874,2.333-5.205,5.207-5.205C27.557-80.519,29.887-78.188,29.887-75.314z"/>
				</g>
				<g>
					<path fill="#F47A5C" d="M80-75.314c0,2.877-2.33,5.21-5.207,5.21c-2.878,0-5.207-2.333-5.207-5.21
						c0-2.874,2.329-5.205,5.207-5.205C77.67-80.519,80-78.188,80-75.314z"/>
				</g>
				<g>
					<path fill="#F47A5C" d="M130.115-75.314c0,2.877-2.333,5.21-5.21,5.21c-2.878,0-5.207-2.333-5.207-5.21
						c0-2.874,2.329-5.205,5.207-5.205C127.782-80.519,130.115-78.188,130.115-75.314z"/>
				</g>
				<g>
					<path fill="#F47A5C" d="M180.228-75.314c0,2.877-2.329,5.21-5.21,5.21c-2.874,0-5.207-2.333-5.207-5.21
						c0-2.874,2.333-5.205,5.207-5.205C177.898-80.519,180.228-78.188,180.228-75.314z"/>
				</g>
				<g>
					<path fill="#F47A5C" d="M230.34-75.314c0,2.877-2.329,5.21-5.21,5.21c-2.877,0-5.203-2.333-5.203-5.21
						c0-2.874,2.326-5.205,5.203-5.205C228.011-80.519,230.34-78.188,230.34-75.314z"/>
				</g>
				<g>
					<path fill="#F47A5C" d="M280.454-75.314c0,2.877-2.329,5.21-5.208,5.21c-2.878,0-5.21-2.333-5.21-5.21
						c0-2.874,2.332-5.205,5.21-5.205C278.125-80.519,280.454-78.188,280.454-75.314z"/>
				</g>
			</g>
			<g>
				<g>
					<g>
						<polygon fill="#FFFFFF" points="-112.274,-7.908 -126.04,-21.672 -139.8,-7.908 -141.265,-9.373 -126.04,-24.608 
							-110.805,-9.373 						"/>
					</g>
					<g>
						<polygon fill="#FFFFFF" points="-126.04,-22.049 -141.265,-37.281 -139.8,-38.748 -126.04,-24.985 -112.274,-38.748 
							-110.805,-37.281 						"/>
					</g>
				</g>
				<g>
					<g>
						<polygon fill="#FFFFFF" points="-61.785,-7.908 -75.548,-21.672 -89.312,-7.908 -90.777,-9.373 -75.548,-24.608 
							-60.321,-9.373 						"/>
					</g>
					<g>
						<polygon fill="#FFFFFF" points="-75.548,-22.049 -90.777,-37.281 -89.312,-38.748 -75.548,-24.985 -61.785,-38.748 
							-60.321,-37.281 						"/>
					</g>
				</g>
				<g>
					<g>
						<polygon fill="#FFFFFF" points="-11.668,-7.908 -25.436,-21.672 -39.2,-7.908 -40.665,-9.373 -25.436,-24.608 -10.204,-9.373 
													"/>
					</g>
					<g>
						<polygon fill="#FFFFFF" points="-25.436,-22.049 -40.665,-37.281 -39.2,-38.748 -25.436,-24.985 -11.668,-38.748 
							-10.204,-37.281 						"/>
					</g>
				</g>
				<g>
					<g>
						<polygon fill="#FFFFFF" points="38.444,-7.908 24.676,-21.672 10.916,-7.908 9.449,-9.373 24.676,-24.608 39.908,-9.373 
													"/>
					</g>
					<g>
						<polygon fill="#FFFFFF" points="24.676,-22.049 9.449,-37.281 10.916,-38.748 24.676,-24.985 38.444,-38.748 39.908,-37.281 
													"/>
					</g>
				</g>
				<g>
					<g>
						<polygon fill="#FFFFFF" points="88.556,-7.908 74.793,-21.672 61.028,-7.908 59.562,-9.373 74.793,-24.608 90.021,-9.373 
													"/>
					</g>
					<g>
						<polygon fill="#FFFFFF" points="74.793,-22.049 59.562,-37.281 61.028,-38.748 74.793,-24.985 88.556,-38.748 90.021,-37.281 
													"/>
					</g>
				</g>
				<g>
					<g>
						<polygon fill="#FFFFFF" points="138.666,-7.908 124.905,-21.672 111.143,-7.908 109.674,-9.373 124.905,-24.608 
							140.137,-9.373 						"/>
					</g>
					<g>
						<polygon fill="#FFFFFF" points="124.905,-22.049 109.674,-37.281 111.143,-38.748 124.905,-24.985 138.666,-38.748 
							140.137,-37.281 						"/>
					</g>
				</g>
				<g>
					<g>
						<polygon fill="#FFFFFF" points="188.78,-7.908 175.018,-21.672 161.255,-7.908 159.786,-9.373 175.018,-24.608 
							190.249,-9.373 						"/>
					</g>
					<g>
						<polygon fill="#FFFFFF" points="175.018,-22.049 159.786,-37.281 161.255,-38.748 175.018,-24.985 188.78,-38.748 
							190.249,-37.281 						"/>
					</g>
				</g>
				<g>
					<g>
						<polygon fill="#FFFFFF" points="238.895,-7.908 225.13,-21.672 211.367,-7.908 209.902,-9.373 225.13,-24.608 240.361,-9.373 
													"/>
					</g>
					<g>
						<polygon fill="#FFFFFF" points="225.13,-22.049 209.902,-37.281 211.367,-38.748 225.13,-24.985 238.895,-38.748 
							240.361,-37.281 						"/>
					</g>
				</g>
				<g>
					<g>
						<polygon fill="#FFFFFF" points="289.01,-7.908 275.246,-21.672 261.479,-7.908 260.015,-9.373 275.246,-24.608 
							290.474,-9.373 						"/>
					</g>
					<g>
						<polygon fill="#FFFFFF" points="275.246,-22.049 260.015,-37.281 261.479,-38.748 275.246,-24.985 289.01,-38.748 
							290.474,-37.281 						"/>
					</g>
				</g>
			</g>
			<g>
				<g>
					<g>
						<polygon fill="#16BECF" points="-111.904,3.448 -126.04,-10.684 -140.166,3.448 -140.899,2.717 -126.04,-12.151 
							-111.173,2.717 						"/>
					</g>
					<g>
						<polygon fill="#16BECF" points="-126.04,-34.647 -140.899,-49.51 -140.166,-50.244 -126.04,-36.113 -111.904,-50.244 
							-111.173,-49.51 						"/>
					</g>
				</g>
				<g>
					<g>
						<polygon fill="#16BECF" points="-61.417,3.448 -75.548,-10.684 -89.678,3.448 -90.412,2.717 -75.548,-12.151 -60.686,2.717 
													"/>
					</g>
					<g>
						<polygon fill="#16BECF" points="-75.548,-34.647 -90.412,-49.51 -89.678,-50.244 -75.548,-36.113 -61.417,-50.244 
							-60.686,-49.51 						"/>
					</g>
				</g>
				<g>
					<g>
						<polygon fill="#16BECF" points="-11.303,3.448 -25.436,-10.684 -39.564,3.448 -40.299,2.717 -25.436,-12.151 -10.569,2.717 
													"/>
					</g>
					<g>
						<polygon fill="#16BECF" points="-25.436,-34.647 -40.299,-49.51 -39.564,-50.244 -25.436,-36.113 -11.303,-50.244 
							-10.569,-49.51 						"/>
					</g>
				</g>
				<g>
					<g>
						<polygon fill="#16BECF" points="38.809,3.448 24.676,-10.684 10.548,3.448 9.814,2.717 24.676,-12.151 39.54,2.717 						"/>
					</g>
					<g>
						<polygon fill="#16BECF" points="24.676,-34.647 9.814,-49.51 10.548,-50.244 24.676,-36.113 38.809,-50.244 39.54,-49.51 
													"/>
					</g>
				</g>
				<g>
					<g>
						<polygon fill="#16BECF" points="88.922,3.448 74.793,-10.684 60.66,3.448 59.927,2.717 74.793,-12.151 89.655,2.717 						"/>
					</g>
					<g>
						<polygon fill="#16BECF" points="74.793,-34.647 59.927,-49.51 60.66,-50.244 74.793,-36.113 88.922,-50.244 89.655,-49.51 
													"/>
					</g>
				</g>
				<g>
					<g>
						<polygon fill="#16BECF" points="139.038,3.448 124.905,-10.684 110.772,3.448 110.042,2.717 124.905,-12.151 139.769,2.717 
													"/>
					</g>
					<g>
						<polygon fill="#16BECF" points="124.905,-34.647 110.042,-49.51 110.772,-50.244 124.905,-36.113 139.038,-50.244 
							139.769,-49.51 						"/>
					</g>
				</g>
				<g>
					<g>
						<polygon fill="#16BECF" points="189.146,3.448 175.018,-10.684 160.885,3.448 160.151,2.717 175.018,-12.151 189.884,2.717 
													"/>
					</g>
					<g>
						<polygon fill="#16BECF" points="175.018,-34.647 160.151,-49.51 160.885,-50.244 175.018,-36.113 189.146,-50.244 
							189.884,-49.51 						"/>
					</g>
				</g>
				<g>
					<g>
						<polygon fill="#16BECF" points="239.263,3.448 225.13,-10.684 211.002,3.448 210.264,2.717 225.13,-12.151 239.996,2.717 
													"/>
					</g>
					<g>
						<polygon fill="#16BECF" points="225.13,-34.647 210.264,-49.51 211.002,-50.244 225.13,-36.113 239.263,-50.244 
							239.996,-49.51 						"/>
					</g>
				</g>
				<g>
					<g>
						<polygon fill="#16BECF" points="289.375,3.448 275.246,-10.684 261.114,3.448 260.38,2.717 275.246,-12.151 290.108,2.717 
													"/>
					</g>
					<g>
						<polygon fill="#16BECF" points="275.246,-34.647 260.38,-49.51 261.114,-50.244 275.246,-36.113 289.375,-50.244 
							290.108,-49.51 						"/>
					</g>
				</g>
			</g>
			<g>
				<g>
					<g>
						<polygon fill="#F47A5C" points="-100.988,-8.195 -115.847,-23.059 -100.988,-37.921 -100.254,-37.188 -114.383,-23.059 
							-100.254,-8.93 						"/>
					</g>
					<g>
						<polygon fill="#F47A5C" points="-151.21,-8.195 -151.944,-8.93 -137.818,-23.059 -151.944,-37.188 -151.21,-37.921 
							-136.347,-23.059 						"/>
					</g>
				</g>
				<g>
					<g>
						<polygon fill="#F47A5C" points="-50.496,-8.195 -65.358,-23.059 -50.496,-37.921 -49.765,-37.188 -63.894,-23.059 
							-49.765,-8.93 						"/>
					</g>
					<g>
						<polygon fill="#F47A5C" points="-100.722,-8.195 -101.457,-8.93 -87.327,-23.059 -101.457,-37.188 -100.722,-37.921 
							-85.859,-23.059 						"/>
					</g>
				</g>
				<g>
					<g>
						<polygon fill="#F47A5C" points="-0.384,-8.195 -15.246,-23.059 -0.384,-37.921 0.347,-37.188 -13.779,-23.059 0.347,-8.93 
													"/>
					</g>
					<g>
						<polygon fill="#F47A5C" points="-50.609,-8.195 -51.343,-8.93 -37.214,-23.059 -51.343,-37.188 -50.609,-37.921 
							-35.747,-23.059 						"/>
					</g>
				</g>
				<g>
					<g>
						<polygon fill="#F47A5C" points="49.726,-8.195 34.866,-23.059 49.726,-37.921 50.459,-37.188 36.335,-23.059 50.459,-8.93 
													"/>
					</g>
					<g>
						<polygon fill="#F47A5C" points="-0.497,-8.195 -1.228,-8.93 12.898,-23.059 -1.228,-37.188 -0.497,-37.921 14.362,-23.059 
													"/>
					</g>
				</g>
				<g>
					<g>
						<polygon fill="#F47A5C" points="99.842,-8.195 84.982,-23.059 99.842,-37.921 100.576,-37.188 86.447,-23.059 100.576,-8.93 
													"/>
					</g>
					<g>
						<polygon fill="#F47A5C" points="49.62,-8.195 48.882,-8.93 63.011,-23.059 48.882,-37.188 49.62,-37.921 64.479,-23.059 
													"/>
					</g>
				</g>
				<g>
					<g>
						<polygon fill="#F47A5C" points="149.955,-8.195 135.091,-23.059 149.955,-37.921 150.692,-37.188 136.56,-23.059 
							150.692,-8.93 						"/>
					</g>
					<g>
						<polygon fill="#F47A5C" points="99.728,-8.195 98.998,-8.93 113.123,-23.059 98.998,-37.188 99.728,-37.921 114.587,-23.059 
													"/>
					</g>
				</g>
				<g>
					<g>
						<polygon fill="#F47A5C" points="200.071,-8.195 185.208,-23.059 200.071,-37.921 200.805,-37.188 186.672,-23.059 
							200.805,-8.93 						"/>
					</g>
					<g>
						<polygon fill="#F47A5C" points="149.845,-8.195 149.106,-8.93 163.235,-23.059 149.106,-37.188 149.845,-37.921 
							164.704,-23.059 						"/>
					</g>
				</g>
				<g>
					<g>
						<polygon fill="#F47A5C" points="250.184,-8.195 235.32,-23.059 250.184,-37.921 250.917,-37.188 236.789,-23.059 
							250.917,-8.93 						"/>
					</g>
					<g>
						<polygon fill="#F47A5C" points="199.957,-8.195 199.223,-8.93 213.349,-23.059 199.223,-37.188 199.957,-37.921 
							214.82,-23.059 						"/>
					</g>
				</g>
				<g>
					<g>
						<polygon fill="#F47A5C" points="300.296,-8.195 285.434,-23.059 300.296,-37.921 301.029,-37.188 286.901,-23.059 
							301.029,-8.93 						"/>
					</g>
					<g>
						<polygon fill="#F47A5C" points="250.069,-8.195 249.335,-8.93 263.465,-23.059 249.335,-37.188 250.069,-37.921 
							264.93,-23.059 						"/>
					</g>
				</g>
			</g>
			<g>
				<g>
					<path fill="#F47A5C" d="M-120.83-23.059c0,2.878-2.329,5.208-5.21,5.208c-2.878,0-5.205-2.33-5.205-5.208
						c0-2.874,2.326-5.208,5.205-5.208C-123.159-28.266-120.83-25.933-120.83-23.059z"/>
				</g>
				<g>
					<circle fill="#F47A5C" cx="-75.547" cy="-23.059" r="5.209"/>
				</g>
				<g>
					<path fill="#F47A5C" d="M-20.226-23.059c0,2.878-2.33,5.208-5.21,5.208c-2.874,0-5.207-2.33-5.207-5.208
						c0-2.874,2.333-5.208,5.207-5.208C-22.555-28.266-20.226-25.933-20.226-23.059z"/>
				</g>
				<g>
					<path fill="#F47A5C" d="M29.887-23.059c0,2.878-2.33,5.208-5.21,5.208c-2.874,0-5.207-2.33-5.207-5.208
						c0-2.874,2.333-5.208,5.207-5.208C27.557-28.266,29.887-25.933,29.887-23.059z"/>
				</g>
				<g>
					<circle fill="#F47A5C" cx="74.793" cy="-23.059" r="5.207"/>
				</g>
				<g>
					<circle fill="#F47A5C" cx="124.907" cy="-23.059" r="5.208"/>
				</g>
				<g>
					<path fill="#F47A5C" d="M180.228-23.059c0,2.878-2.329,5.208-5.21,5.208c-2.874,0-5.207-2.33-5.207-5.208
						c0-2.874,2.333-5.208,5.207-5.208C177.898-28.266,180.228-25.933,180.228-23.059z"/>
				</g>
				<g>
					<path fill="#F47A5C" d="M230.34-23.059c0,2.878-2.329,5.208-5.21,5.208c-2.877,0-5.203-2.33-5.203-5.208
						c0-2.874,2.326-5.208,5.203-5.208C228.011-28.266,230.34-25.933,230.34-23.059z"/>
				</g>
				<g>
					<circle fill="#F47A5C" cx="275.245" cy="-23.059" r="5.209"/>
				</g>
			</g>
			<g>
				<g>
					<g>
						<polygon fill="#FFFFFF" points="-112.274,44.347 -126.04,30.584 -139.8,44.347 -141.265,42.88 -126.04,27.647 -110.805,42.88 
													"/>
					</g>
					<g>
						<polygon fill="#FFFFFF" points="-126.04,30.204 -141.265,14.972 -139.8,13.507 -126.04,27.271 -112.274,13.507 
							-110.805,14.972 						"/>
					</g>
				</g>
				<g>
					<g>
						<polygon fill="#FFFFFF" points="-61.785,44.347 -75.548,30.584 -89.312,44.347 -90.777,42.88 -75.548,27.647 -60.321,42.88 
													"/>
					</g>
					<g>
						<polygon fill="#FFFFFF" points="-75.548,30.204 -90.777,14.972 -89.312,13.507 -75.548,27.271 -61.785,13.507 -60.321,14.972 
													"/>
					</g>
				</g>
				<g>
					<g>
						<polygon fill="#FFFFFF" points="-11.668,44.347 -25.436,30.584 -39.2,44.347 -40.665,42.88 -25.436,27.647 -10.204,42.88 
													"/>
					</g>
					<g>
						<polygon fill="#FFFFFF" points="-25.436,30.204 -40.665,14.972 -39.2,13.507 -25.436,27.271 -11.668,13.507 -10.204,14.972 
													"/>
					</g>
				</g>
				<g>
					<g>
						<polygon fill="#FFFFFF" points="38.444,44.347 24.676,30.584 10.916,44.347 9.449,42.88 24.676,27.647 39.908,42.88 						"/>
					</g>
					<g>
						<polygon fill="#FFFFFF" points="24.676,30.204 9.449,14.972 10.916,13.507 24.676,27.271 38.444,13.507 39.908,14.972 						
							"/>
					</g>
				</g>
				<g>
					<g>
						<polygon fill="#FFFFFF" points="88.556,44.347 74.793,30.584 61.028,44.347 59.562,42.88 74.793,27.647 90.021,42.88 						
							"/>
					</g>
					<g>
						<polygon fill="#FFFFFF" points="74.793,30.204 59.562,14.972 61.028,13.507 74.793,27.271 88.556,13.507 90.021,14.972 						
							"/>
					</g>
				</g>
				<g>
					<g>
						<polygon fill="#FFFFFF" points="138.666,44.347 124.905,30.584 111.143,44.347 109.674,42.88 124.905,27.647 140.137,42.88 
													"/>
					</g>
					<g>
						<polygon fill="#FFFFFF" points="124.905,30.204 109.674,14.972 111.143,13.507 124.905,27.271 138.666,13.507 140.137,14.972 
													"/>
					</g>
				</g>
				<g>
					<g>
						<polygon fill="#FFFFFF" points="188.78,44.347 175.018,30.584 161.255,44.347 159.786,42.88 175.018,27.647 190.249,42.88 
													"/>
					</g>
					<g>
						<polygon fill="#FFFFFF" points="175.018,30.204 159.786,14.972 161.255,13.507 175.018,27.271 188.78,13.507 190.249,14.972 
													"/>
					</g>
				</g>
				<g>
					<g>
						<polygon fill="#FFFFFF" points="238.895,44.347 225.13,30.584 211.367,44.347 209.902,42.88 225.13,27.647 240.361,42.88 
													"/>
					</g>
					<g>
						<polygon fill="#FFFFFF" points="225.13,30.204 209.902,14.972 211.367,13.507 225.13,27.271 238.895,13.507 240.361,14.972 
													"/>
					</g>
				</g>
				<g>
					<g>
						<polygon fill="#FFFFFF" points="289.01,44.347 275.246,30.584 261.479,44.347 260.015,42.88 275.246,27.647 290.474,42.88 
													"/>
					</g>
					<g>
						<polygon fill="#FFFFFF" points="275.246,30.204 260.015,14.972 261.479,13.507 275.246,27.271 289.01,13.507 290.474,14.972 
													"/>
					</g>
				</g>
			</g>
			<g>
				<g>
					<g>
						<polygon fill="#16BECF" points="-111.904,55.705 -126.04,41.57 -140.166,55.705 -140.899,54.972 -126.04,40.105 
							-111.173,54.972 						"/>
					</g>
					<g>
						<polygon fill="#16BECF" points="-126.04,17.607 -140.899,2.742 -140.166,2.01 -126.04,16.14 -111.904,2.01 -111.173,2.742 
													"/>
					</g>
				</g>
				<g>
					<g>
						<polygon fill="#16BECF" points="-61.417,55.705 -75.548,41.57 -89.678,55.705 -90.412,54.972 -75.548,40.105 -60.686,54.972 
													"/>
					</g>
					<g>
						<polygon fill="#16BECF" points="-75.548,17.607 -90.412,2.742 -89.678,2.01 -75.548,16.14 -61.417,2.01 -60.686,2.742 						
							"/>
					</g>
				</g>
				<g>
					<g>
						<polygon fill="#16BECF" points="-11.303,55.705 -25.436,41.57 -39.564,55.705 -40.299,54.972 -25.436,40.105 -10.569,54.972 
													"/>
					</g>
					<g>
						<polygon fill="#16BECF" points="-25.436,17.607 -40.299,2.742 -39.564,2.01 -25.436,16.14 -11.303,2.01 -10.569,2.742 						
							"/>
					</g>
				</g>
				<g>
					<g>
						<polygon fill="#16BECF" points="38.809,55.705 24.676,41.57 10.548,55.705 9.814,54.972 24.676,40.105 39.54,54.972 						"/>
					</g>
					<g>
						<polygon fill="#16BECF" points="24.676,17.607 9.814,2.742 10.548,2.01 24.676,16.14 38.809,2.01 39.54,2.742 						"/>
					</g>
				</g>
				<g>
					<g>
						<polygon fill="#16BECF" points="88.922,55.705 74.793,41.57 60.66,55.705 59.927,54.972 74.793,40.105 89.655,54.972 						
							"/>
					</g>
					<g>
						<polygon fill="#16BECF" points="74.793,17.607 59.927,2.742 60.66,2.01 74.793,16.14 88.922,2.01 89.655,2.742 						"/>
					</g>
				</g>
				<g>
					<g>
						<polygon fill="#16BECF" points="139.038,55.705 124.905,41.57 110.772,55.705 110.042,54.972 124.905,40.105 139.769,54.972 
													"/>
					</g>
					<g>
						<polygon fill="#16BECF" points="124.905,17.607 110.042,2.742 110.772,2.01 124.905,16.14 139.038,2.01 139.769,2.742 						
							"/>
					</g>
				</g>
				<g>
					<g>
						<polygon fill="#16BECF" points="189.146,55.705 175.018,41.57 160.885,55.705 160.151,54.972 175.018,40.105 189.884,54.972 
													"/>
					</g>
					<g>
						<polygon fill="#16BECF" points="175.018,17.607 160.151,2.742 160.885,2.01 175.018,16.14 189.146,2.01 189.884,2.742 						
							"/>
					</g>
				</g>
				<g>
					<g>
						<polygon fill="#16BECF" points="239.263,55.705 225.13,41.57 211.002,55.705 210.264,54.972 225.13,40.105 239.996,54.972 
													"/>
					</g>
					<g>
						<polygon fill="#16BECF" points="225.13,17.607 210.264,2.742 211.002,2.01 225.13,16.14 239.263,2.01 239.996,2.742 						"/>
					</g>
				</g>
				<g>
					<g>
						<polygon fill="#16BECF" points="289.375,55.705 275.246,41.57 261.114,55.705 260.38,54.972 275.246,40.105 290.108,54.972 
													"/>
					</g>
					<g>
						<polygon fill="#16BECF" points="275.246,17.607 260.38,2.742 261.114,2.01 275.246,16.14 289.375,2.01 290.108,2.742 						
							"/>
					</g>
				</g>
			</g>
			<g>
				<g>
					<g>
						<polygon fill="#F47A5C" points="-100.988,44.061 -115.847,29.197 -100.988,14.332 -100.254,15.067 -114.383,29.197 
							-100.254,43.327 						"/>
					</g>
					<g>
						<polygon fill="#F47A5C" points="-151.21,44.061 -151.944,43.327 -137.818,29.197 -151.944,15.067 -151.21,14.332 
							-136.347,29.197 						"/>
					</g>
				</g>
				<g>
					<g>
						<polygon fill="#F47A5C" points="-50.496,44.061 -65.358,29.197 -50.496,14.332 -49.765,15.067 -63.894,29.197 -49.765,43.327 
													"/>
					</g>
					<g>
						<polygon fill="#F47A5C" points="-100.722,44.061 -101.457,43.327 -87.327,29.197 -101.457,15.067 -100.722,14.332 
							-85.859,29.197 						"/>
					</g>
				</g>
				<g>
					<g>
						<polygon fill="#F47A5C" points="-0.384,44.061 -15.246,29.197 -0.384,14.332 0.347,15.067 -13.779,29.197 0.347,43.327 						
							"/>
					</g>
					<g>
						<polygon fill="#F47A5C" points="-50.609,44.061 -51.343,43.327 -37.214,29.197 -51.343,15.067 -50.609,14.332 -35.747,29.197 
													"/>
					</g>
				</g>
				<g>
					<g>
						<polygon fill="#F47A5C" points="49.726,44.061 34.866,29.197 49.726,14.332 50.459,15.067 36.335,29.197 50.459,43.327 						
							"/>
					</g>
					<g>
						<polygon fill="#F47A5C" points="-0.497,44.061 -1.228,43.327 12.898,29.197 -1.228,15.067 -0.497,14.332 14.362,29.197 						
							"/>
					</g>
				</g>
				<g>
					<g>
						<polygon fill="#F47A5C" points="99.842,44.061 84.982,29.197 99.842,14.332 100.576,15.067 86.447,29.197 100.576,43.327 
													"/>
					</g>
					<g>
						<polygon fill="#F47A5C" points="49.62,44.061 48.882,43.327 63.011,29.197 48.882,15.067 49.62,14.332 64.479,29.197 						
							"/>
					</g>
				</g>
				<g>
					<g>
						<polygon fill="#F47A5C" points="149.955,44.061 135.091,29.197 149.955,14.332 150.692,15.067 136.56,29.197 150.692,43.327 
													"/>
					</g>
					<g>
						<polygon fill="#F47A5C" points="99.728,44.061 98.998,43.327 113.123,29.197 98.998,15.067 99.728,14.332 114.587,29.197 
													"/>
					</g>
				</g>
				<g>
					<g>
						<polygon fill="#F47A5C" points="200.071,44.061 185.208,29.197 200.071,14.332 200.805,15.067 186.672,29.197 200.805,43.327 
													"/>
					</g>
					<g>
						<polygon fill="#F47A5C" points="149.845,44.061 149.106,43.327 163.235,29.197 149.106,15.067 149.845,14.332 164.704,29.197 
													"/>
					</g>
				</g>
				<g>
					<g>
						<polygon fill="#F47A5C" points="250.184,44.061 235.32,29.197 250.184,14.332 250.917,15.067 236.789,29.197 250.917,43.327 
													"/>
					</g>
					<g>
						<polygon fill="#F47A5C" points="199.957,44.061 199.223,43.327 213.349,29.197 199.223,15.067 199.957,14.332 214.82,29.197 
													"/>
					</g>
				</g>
				<g>
					<g>
						<polygon fill="#F47A5C" points="300.296,44.061 285.434,29.197 300.296,14.332 301.029,15.067 286.901,29.197 301.029,43.327 
													"/>
					</g>
					<g>
						<polygon fill="#F47A5C" points="250.069,44.061 249.335,43.327 263.465,29.197 249.335,15.067 250.069,14.332 264.93,29.197 
													"/>
					</g>
				</g>
			</g>
			<g>
				<g>
					<path fill="#F47A5C" d="M-120.83,29.197c0,2.875-2.329,5.205-5.21,5.205c-2.878,0-5.205-2.329-5.205-5.205
						c0-2.876,2.326-5.206,5.205-5.206C-123.159,23.991-120.83,26.32-120.83,29.197z"/>
				</g>
				<g>
					<circle fill="#F47A5C" cx="-75.547" cy="29.197" r="5.209"/>
				</g>
				<g>
					<path fill="#F47A5C" d="M-20.226,29.197c0,2.875-2.33,5.205-5.21,5.205c-2.874,0-5.207-2.329-5.207-5.205
						c0-2.876,2.333-5.206,5.207-5.206C-22.555,23.991-20.226,26.32-20.226,29.197z"/>
				</g>
				<g>
					<path fill="#F47A5C" d="M29.887,29.197c0,2.875-2.33,5.205-5.21,5.205c-2.874,0-5.207-2.329-5.207-5.205
						c0-2.876,2.333-5.206,5.207-5.206C27.557,23.991,29.887,26.32,29.887,29.197z"/>
				</g>
				<g>
					<circle fill="#F47A5C" cx="74.793" cy="29.197" r="5.207"/>
				</g>
				<g>
					<circle fill="#F47A5C" cx="124.907" cy="29.197" r="5.208"/>
				</g>
				<g>
					<path fill="#F47A5C" d="M180.228,29.197c0,2.875-2.329,5.205-5.21,5.205c-2.874,0-5.207-2.329-5.207-5.205
						c0-2.876,2.333-5.206,5.207-5.206C177.898,23.991,180.228,26.32,180.228,29.197z"/>
				</g>
				<g>
					<path fill="#F47A5C" d="M230.34,29.197c0,2.875-2.329,5.205-5.21,5.205c-2.877,0-5.203-2.329-5.203-5.205
						c0-2.876,2.326-5.206,5.203-5.206C228.011,23.991,230.34,26.32,230.34,29.197z"/>
				</g>
				<g>
					<circle fill="#F47A5C" cx="275.245" cy="29.197" r="5.209"/>
				</g>
			</g>
			<g>
				<g>
					<g>
						<polygon fill="#FFFFFF" points="-112.274,96.603 -126.04,82.837 -139.8,96.603 -141.265,95.136 -126.04,79.899 
							-110.805,95.136 						"/>
					</g>
					<g>
						<polygon fill="#FFFFFF" points="-126.04,82.46 -141.265,67.228 -139.8,65.762 -126.04,79.524 -112.274,65.762 
							-110.805,67.228 						"/>
					</g>
				</g>
				<g>
					<g>
						<polygon fill="#FFFFFF" points="-61.785,96.603 -75.548,82.837 -89.312,96.603 -90.777,95.136 -75.548,79.899 -60.321,95.136 
													"/>
					</g>
					<g>
						<polygon fill="#FFFFFF" points="-75.548,82.46 -90.777,67.228 -89.312,65.762 -75.548,79.524 -61.785,65.762 -60.321,67.228 
													"/>
					</g>
				</g>
				<g>
					<g>
						<polygon fill="#FFFFFF" points="-11.668,96.603 -25.436,82.837 -39.2,96.603 -40.665,95.136 -25.436,79.899 -10.204,95.136 
													"/>
					</g>
					<g>
						<polygon fill="#FFFFFF" points="-25.436,82.46 -40.665,67.228 -39.2,65.762 -25.436,79.524 -11.668,65.762 -10.204,67.228 
													"/>
					</g>
				</g>
				<g>
					<g>
						<polygon fill="#FFFFFF" points="38.444,96.603 24.676,82.837 10.916,96.603 9.449,95.136 24.676,79.899 39.908,95.136 						
							"/>
					</g>
					<g>
						<polygon fill="#FFFFFF" points="24.676,82.46 9.449,67.228 10.916,65.762 24.676,79.524 38.444,65.762 39.908,67.228 						
							"/>
					</g>
				</g>
				<g>
					<g>
						<polygon fill="#FFFFFF" points="88.556,96.603 74.793,82.837 61.028,96.603 59.562,95.136 74.793,79.899 90.021,95.136 						
							"/>
					</g>
					<g>
						<polygon fill="#FFFFFF" points="74.793,82.46 59.562,67.228 61.028,65.762 74.793,79.524 88.556,65.762 90.021,67.228 						
							"/>
					</g>
				</g>
				<g>
					<g>
						<polygon fill="#FFFFFF" points="138.666,96.603 124.905,82.837 111.143,96.603 109.674,95.136 124.905,79.899 140.137,95.136 
													"/>
					</g>
					<g>
						<polygon fill="#FFFFFF" points="124.905,82.46 109.674,67.228 111.143,65.762 124.905,79.524 138.666,65.762 140.137,67.228 
													"/>
					</g>
				</g>
				<g>
					<g>
						<polygon fill="#FFFFFF" points="188.78,96.603 175.018,82.837 161.255,96.603 159.786,95.136 175.018,79.899 190.249,95.136 
													"/>
					</g>
					<g>
						<polygon fill="#FFFFFF" points="175.018,82.46 159.786,67.228 161.255,65.762 175.018,79.524 188.78,65.762 190.249,67.228 
													"/>
					</g>
				</g>
				<g>
					<g>
						<polygon fill="#FFFFFF" points="238.895,96.603 225.13,82.837 211.367,96.603 209.902,95.136 225.13,79.899 240.361,95.136 
													"/>
					</g>
					<g>
						<polygon fill="#FFFFFF" points="225.13,82.46 209.902,67.228 211.367,65.762 225.13,79.524 238.895,65.762 240.361,67.228 
													"/>
					</g>
				</g>
				<g>
					<g>
						<polygon fill="#FFFFFF" points="289.01,96.603 275.246,82.837 261.479,96.603 260.015,95.136 275.246,79.899 290.474,95.136 
													"/>
					</g>
					<g>
						<polygon fill="#FFFFFF" points="275.246,82.46 260.015,67.228 261.479,65.762 275.246,79.524 289.01,65.762 290.474,67.228 
													"/>
					</g>
				</g>
			</g>
			<g>
				<g>
					<g>
						<polygon fill="#16BECF" points="-111.904,107.958 -126.04,93.825 -140.166,107.958 -140.899,107.225 -126.04,92.357 
							-111.173,107.225 						"/>
					</g>
					<g>
						<polygon fill="#16BECF" points="-126.04,69.862 -140.899,54.999 -140.166,54.263 -126.04,68.396 -111.904,54.263 
							-111.173,54.999 						"/>
					</g>
				</g>
				<g>
					<g>
						<polygon fill="#16BECF" points="-61.417,107.958 -75.548,93.825 -89.678,107.958 -90.412,107.225 -75.548,92.357 
							-60.686,107.225 						"/>
					</g>
					<g>
						<polygon fill="#16BECF" points="-75.548,69.862 -90.412,54.999 -89.678,54.263 -75.548,68.396 -61.417,54.263 -60.686,54.999 
													"/>
					</g>
				</g>
				<g>
					<g>
						<polygon fill="#16BECF" points="-11.303,107.958 -25.436,93.825 -39.564,107.958 -40.299,107.225 -25.436,92.357 
							-10.569,107.225 						"/>
					</g>
					<g>
						<polygon fill="#16BECF" points="-25.436,69.862 -40.299,54.999 -39.564,54.263 -25.436,68.396 -11.303,54.263 -10.569,54.999 
													"/>
					</g>
				</g>
				<g>
					<g>
						<polygon fill="#16BECF" points="38.809,107.958 24.676,93.825 10.548,107.958 9.814,107.225 24.676,92.357 39.54,107.225 
													"/>
					</g>
					<g>
						<polygon fill="#16BECF" points="24.676,69.862 9.814,54.999 10.548,54.263 24.676,68.396 38.809,54.263 39.54,54.999 						
							"/>
					</g>
				</g>
				<g>
					<g>
						<polygon fill="#16BECF" points="88.922,107.958 74.793,93.825 60.66,107.958 59.927,107.225 74.793,92.357 89.655,107.225 
													"/>
					</g>
					<g>
						<polygon fill="#16BECF" points="74.793,69.862 59.927,54.999 60.66,54.263 74.793,68.396 88.922,54.263 89.655,54.999 						
							"/>
					</g>
				</g>
				<g>
					<g>
						<polygon fill="#16BECF" points="139.038,107.958 124.905,93.825 110.772,107.958 110.042,107.225 124.905,92.357 
							139.769,107.225 						"/>
					</g>
					<g>
						<polygon fill="#16BECF" points="124.905,69.862 110.042,54.999 110.772,54.263 124.905,68.396 139.038,54.263 139.769,54.999 
													"/>
					</g>
				</g>
				<g>
					<g>
						<polygon fill="#16BECF" points="189.146,107.958 175.018,93.825 160.885,107.958 160.151,107.225 175.018,92.357 
							189.884,107.225 						"/>
					</g>
					<g>
						<polygon fill="#16BECF" points="175.018,69.862 160.151,54.999 160.885,54.263 175.018,68.396 189.146,54.263 189.884,54.999 
													"/>
					</g>
				</g>
				<g>
					<g>
						<polygon fill="#16BECF" points="239.263,107.958 225.13,93.825 211.002,107.958 210.264,107.225 225.13,92.357 
							239.996,107.225 						"/>
					</g>
					<g>
						<polygon fill="#16BECF" points="225.13,69.862 210.264,54.999 211.002,54.263 225.13,68.396 239.263,54.263 239.996,54.999 
													"/>
					</g>
				</g>
				<g>
					<g>
						<polygon fill="#16BECF" points="289.375,107.958 275.246,93.825 261.114,107.958 260.38,107.225 275.246,92.357 
							290.108,107.225 						"/>
					</g>
					<g>
						<polygon fill="#16BECF" points="275.246,69.862 260.38,54.999 261.114,54.263 275.246,68.396 289.375,54.263 290.108,54.999 
													"/>
					</g>
				</g>
			</g>
			<g>
				<g>
					<g>
						<polygon fill="#F47A5C" points="-100.988,96.313 -115.847,81.452 -100.988,66.589 -100.254,67.322 -114.383,81.452 
							-100.254,95.579 						"/>
					</g>
					<g>
						<polygon fill="#F47A5C" points="-151.21,96.313 -151.944,95.579 -137.818,81.452 -151.944,67.322 -151.21,66.589 
							-136.347,81.452 						"/>
					</g>
				</g>
				<g>
					<g>
						<polygon fill="#F47A5C" points="-50.496,96.313 -65.358,81.452 -50.496,66.589 -49.765,67.322 -63.894,81.452 -49.765,95.579 
													"/>
					</g>
					<g>
						<polygon fill="#F47A5C" points="-100.722,96.313 -101.457,95.579 -87.327,81.452 -101.457,67.322 -100.722,66.589 
							-85.859,81.452 						"/>
					</g>
				</g>
				<g>
					<g>
						<polygon fill="#F47A5C" points="-0.384,96.313 -15.246,81.452 -0.384,66.589 0.347,67.322 -13.779,81.452 0.347,95.579 						
							"/>
					</g>
					<g>
						<polygon fill="#F47A5C" points="-50.609,96.313 -51.343,95.579 -37.214,81.452 -51.343,67.322 -50.609,66.589 -35.747,81.452 
													"/>
					</g>
				</g>
				<g>
					<g>
						<polygon fill="#F47A5C" points="49.726,96.313 34.866,81.452 49.726,66.589 50.459,67.322 36.335,81.452 50.459,95.579 						
							"/>
					</g>
					<g>
						<polygon fill="#F47A5C" points="-0.497,96.313 -1.228,95.579 12.898,81.452 -1.228,67.322 -0.497,66.589 14.362,81.452 						
							"/>
					</g>
				</g>
				<g>
					<g>
						<polygon fill="#F47A5C" points="99.842,96.313 84.982,81.452 99.842,66.589 100.576,67.322 86.447,81.452 100.576,95.579 
													"/>
					</g>
					<g>
						<polygon fill="#F47A5C" points="49.62,96.313 48.882,95.579 63.011,81.452 48.882,67.322 49.62,66.589 64.479,81.452 						
							"/>
					</g>
				</g>
				<g>
					<g>
						<polygon fill="#F47A5C" points="149.955,96.313 135.091,81.452 149.955,66.589 150.692,67.322 136.56,81.452 150.692,95.579 
													"/>
					</g>
					<g>
						<polygon fill="#F47A5C" points="99.728,96.313 98.998,95.579 113.123,81.452 98.998,67.322 99.728,66.589 114.587,81.452 
													"/>
					</g>
				</g>
				<g>
					<g>
						<polygon fill="#F47A5C" points="200.071,96.313 185.208,81.452 200.071,66.589 200.805,67.322 186.672,81.452 200.805,95.579 
													"/>
					</g>
					<g>
						<polygon fill="#F47A5C" points="149.845,96.313 149.106,95.579 163.235,81.452 149.106,67.322 149.845,66.589 164.704,81.452 
													"/>
					</g>
				</g>
				<g>
					<g>
						<polygon fill="#F47A5C" points="250.184,96.313 235.32,81.452 250.184,66.589 250.917,67.322 236.789,81.452 250.917,95.579 
													"/>
					</g>
					<g>
						<polygon fill="#F47A5C" points="199.957,96.313 199.223,95.579 213.349,81.452 199.223,67.322 199.957,66.589 214.82,81.452 
													"/>
					</g>
				</g>
				<g>
					<g>
						<polygon fill="#F47A5C" points="300.296,96.313 285.434,81.452 300.296,66.589 301.029,67.322 286.901,81.452 301.029,95.579 
													"/>
					</g>
					<g>
						<polygon fill="#F47A5C" points="250.069,96.313 249.335,95.579 263.465,81.452 249.335,67.322 250.069,66.589 264.93,81.452 
													"/>
					</g>
				</g>
			</g>
			<g>
				<g>
					<path fill="#F47A5C" d="M-120.83,81.452c0,2.877-2.329,5.207-5.21,5.207c-2.878,0-5.205-2.33-5.205-5.207
						c0-2.875,2.326-5.209,5.205-5.209C-123.159,76.243-120.83,78.577-120.83,81.452z"/>
				</g>
				<g>
					<circle fill="#F47A5C" cx="-75.547" cy="81.452" r="5.209"/>
				</g>
				<g>
					<path fill="#F47A5C" d="M-20.226,81.452c0,2.877-2.33,5.207-5.21,5.207c-2.874,0-5.207-2.33-5.207-5.207
						c0-2.875,2.333-5.209,5.207-5.209C-22.555,76.243-20.226,78.577-20.226,81.452z"/>
				</g>
				<g>
					<path fill="#F47A5C" d="M29.887,81.452c0,2.877-2.33,5.207-5.21,5.207c-2.874,0-5.207-2.33-5.207-5.207
						c0-2.875,2.333-5.209,5.207-5.209C27.557,76.243,29.887,78.577,29.887,81.452z"/>
				</g>
				<g>
					<circle fill="#F47A5C" cx="74.793" cy="81.452" r="5.207"/>
				</g>
				<g>
					<circle fill="#F47A5C" cx="124.907" cy="81.452" r="5.208"/>
				</g>
				<g>
					<path fill="#F47A5C" d="M180.228,81.452c0,2.877-2.329,5.207-5.21,5.207c-2.874,0-5.207-2.33-5.207-5.207
						c0-2.875,2.333-5.209,5.207-5.209C177.898,76.243,180.228,78.577,180.228,81.452z"/>
				</g>
				<g>
					<path fill="#F47A5C" d="M230.34,81.452c0,2.877-2.329,5.207-5.21,5.207c-2.877,0-5.203-2.33-5.203-5.207
						c0-2.875,2.326-5.209,5.203-5.209C228.011,76.243,230.34,78.577,230.34,81.452z"/>
				</g>
				<g>
					<circle fill="#F47A5C" cx="275.245" cy="81.452" r="5.209"/>
				</g>
			</g>
			<g>
				<g>
					<g>
						<polygon fill="#FFFFFF" points="-112.274,148.855 -126.04,135.09 -139.8,148.855 -141.265,147.391 -126.04,132.156 
							-110.805,147.391 						"/>
					</g>
					<g>
						<polygon fill="#FFFFFF" points="-126.04,134.717 -141.265,119.484 -139.8,118.017 -126.04,131.777 -112.274,118.017 
							-110.805,119.484 						"/>
					</g>
				</g>
				<g>
					<g>
						<polygon fill="#FFFFFF" points="-61.785,148.855 -75.548,135.09 -89.312,148.855 -90.777,147.391 -75.548,132.156 
							-60.321,147.391 						"/>
					</g>
					<g>
						<polygon fill="#FFFFFF" points="-75.548,134.717 -90.777,119.484 -89.312,118.017 -75.548,131.777 -61.785,118.017 
							-60.321,119.484 						"/>
					</g>
				</g>
				<g>
					<g>
						<polygon fill="#FFFFFF" points="-11.668,148.855 -25.436,135.09 -39.2,148.855 -40.665,147.391 -25.436,132.156 
							-10.204,147.391 						"/>
					</g>
					<g>
						<polygon fill="#FFFFFF" points="-25.436,134.717 -40.665,119.484 -39.2,118.017 -25.436,131.777 -11.668,118.017 
							-10.204,119.484 						"/>
					</g>
				</g>
				<g>
					<g>
						<polygon fill="#FFFFFF" points="38.444,148.855 24.676,135.09 10.916,148.855 9.449,147.391 24.676,132.156 39.908,147.391 
													"/>
					</g>
					<g>
						<polygon fill="#FFFFFF" points="24.676,134.717 9.449,119.484 10.916,118.017 24.676,131.777 38.444,118.017 39.908,119.484 
													"/>
					</g>
				</g>
				<g>
					<g>
						<polygon fill="#FFFFFF" points="88.556,148.855 74.793,135.09 61.028,148.855 59.562,147.391 74.793,132.156 90.021,147.391 
													"/>
					</g>
					<g>
						<polygon fill="#FFFFFF" points="74.793,134.717 59.562,119.484 61.028,118.017 74.793,131.777 88.556,118.017 90.021,119.484 
													"/>
					</g>
				</g>
				<g>
					<g>
						<polygon fill="#FFFFFF" points="138.666,148.855 124.905,135.09 111.143,148.855 109.674,147.391 124.905,132.156 
							140.137,147.391 						"/>
					</g>
					<g>
						<polygon fill="#FFFFFF" points="124.905,134.717 109.674,119.484 111.143,118.017 124.905,131.777 138.666,118.017 
							140.137,119.484 						"/>
					</g>
				</g>
				<g>
					<g>
						<polygon fill="#FFFFFF" points="188.78,148.855 175.018,135.09 161.255,148.855 159.786,147.391 175.018,132.156 
							190.249,147.391 						"/>
					</g>
					<g>
						<polygon fill="#FFFFFF" points="175.018,134.717 159.786,119.484 161.255,118.017 175.018,131.777 188.78,118.017 
							190.249,119.484 						"/>
					</g>
				</g>
				<g>
					<g>
						<polygon fill="#FFFFFF" points="238.895,148.855 225.13,135.09 211.367,148.855 209.902,147.391 225.13,132.156 
							240.361,147.391 						"/>
					</g>
					<g>
						<polygon fill="#FFFFFF" points="225.13,134.717 209.902,119.484 211.367,118.017 225.13,131.777 238.895,118.017 
							240.361,119.484 						"/>
					</g>
				</g>
				<g>
					<g>
						<polygon fill="#FFFFFF" points="289.01,148.855 275.246,135.09 261.479,148.855 260.015,147.391 275.246,132.156 
							290.474,147.391 						"/>
					</g>
					<g>
						<polygon fill="#FFFFFF" points="275.246,134.717 260.015,119.484 261.479,118.017 275.246,131.777 289.01,118.017 
							290.474,119.484 						"/>
					</g>
				</g>
			</g>
			<g>
				<g>
					<g>
						<polygon fill="#16BECF" points="-111.904,160.213 -126.04,146.078 -140.166,160.213 -140.899,159.479 -126.04,144.613 
							-111.173,159.479 						"/>
					</g>
					<g>
						<polygon fill="#16BECF" points="-126.04,122.118 -140.899,107.253 -140.166,106.521 -126.04,120.648 -111.904,106.521 
							-111.173,107.253 						"/>
					</g>
				</g>
				<g>
					<g>
						<polygon fill="#16BECF" points="-61.417,160.213 -75.548,146.078 -89.678,160.213 -90.412,159.479 -75.548,144.613 
							-60.686,159.479 						"/>
					</g>
					<g>
						<polygon fill="#16BECF" points="-75.548,122.118 -90.412,107.253 -89.678,106.521 -75.548,120.648 -61.417,106.521 
							-60.686,107.253 						"/>
					</g>
				</g>
				<g>
					<g>
						<polygon fill="#16BECF" points="-11.303,160.213 -25.436,146.078 -39.564,160.213 -40.299,159.479 -25.436,144.613 
							-10.569,159.479 						"/>
					</g>
					<g>
						<polygon fill="#16BECF" points="-25.436,122.118 -40.299,107.253 -39.564,106.521 -25.436,120.648 -11.303,106.521 
							-10.569,107.253 						"/>
					</g>
				</g>
				<g>
					<g>
						<polygon fill="#16BECF" points="38.809,160.213 24.676,146.078 10.548,160.213 9.814,159.479 24.676,144.613 39.54,159.479 
													"/>
					</g>
					<g>
						<polygon fill="#16BECF" points="24.676,122.118 9.814,107.253 10.548,106.521 24.676,120.648 38.809,106.521 39.54,107.253 
													"/>
					</g>
				</g>
				<g>
					<g>
						<polygon fill="#16BECF" points="88.922,160.213 74.793,146.078 60.66,160.213 59.927,159.479 74.793,144.613 89.655,159.479 
													"/>
					</g>
					<g>
						<polygon fill="#16BECF" points="74.793,122.118 59.927,107.253 60.66,106.521 74.793,120.648 88.922,106.521 89.655,107.253 
													"/>
					</g>
				</g>
				<g>
					<g>
						<polygon fill="#16BECF" points="139.038,160.213 124.905,146.078 110.772,160.213 110.042,159.479 124.905,144.613 
							139.769,159.479 						"/>
					</g>
					<g>
						<polygon fill="#16BECF" points="124.905,122.118 110.042,107.253 110.772,106.521 124.905,120.648 139.038,106.521 
							139.769,107.253 						"/>
					</g>
				</g>
				<g>
					<g>
						<polygon fill="#16BECF" points="189.146,160.213 175.018,146.078 160.885,160.213 160.151,159.479 175.018,144.613 
							189.884,159.479 						"/>
					</g>
					<g>
						<polygon fill="#16BECF" points="175.018,122.118 160.151,107.253 160.885,106.521 175.018,120.648 189.146,106.521 
							189.884,107.253 						"/>
					</g>
				</g>
				<g>
					<g>
						<polygon fill="#16BECF" points="239.263,160.213 225.13,146.078 211.002,160.213 210.264,159.479 225.13,144.613 
							239.996,159.479 						"/>
					</g>
					<g>
						<polygon fill="#16BECF" points="225.13,122.118 210.264,107.253 211.002,106.521 225.13,120.648 239.263,106.521 
							239.996,107.253 						"/>
					</g>
				</g>
				<g>
					<g>
						<polygon fill="#16BECF" points="289.375,160.213 275.246,146.078 261.114,160.213 260.38,159.479 275.246,144.613 
							290.108,159.479 						"/>
					</g>
					<g>
						<polygon fill="#16BECF" points="275.246,122.118 260.38,107.253 261.114,106.521 275.246,120.648 289.375,106.521 
							290.108,107.253 						"/>
					</g>
				</g>
			</g>
			<g>
				<g>
					<g>
						<polygon fill="#F47A5C" points="-100.988,148.565 -115.847,133.708 -100.988,118.842 -100.254,119.575 -114.383,133.708 
							-100.254,147.835 						"/>
					</g>
					<g>
						<polygon fill="#F47A5C" points="-151.21,148.565 -151.944,147.835 -137.818,133.708 -151.944,119.575 -151.21,118.842 
							-136.347,133.708 						"/>
					</g>
				</g>
				<g>
					<g>
						<polygon fill="#F47A5C" points="-50.496,148.565 -65.358,133.708 -50.496,118.842 -49.765,119.575 -63.894,133.708 
							-49.765,147.835 						"/>
					</g>
					<g>
						<polygon fill="#F47A5C" points="-100.722,148.565 -101.457,147.835 -87.327,133.708 -101.457,119.575 -100.722,118.842 
							-85.859,133.708 						"/>
					</g>
				</g>
				<g>
					<g>
						<polygon fill="#F47A5C" points="-0.384,148.565 -15.246,133.708 -0.384,118.842 0.347,119.575 -13.779,133.708 0.347,147.835 
													"/>
					</g>
					<g>
						<polygon fill="#F47A5C" points="-50.609,148.565 -51.343,147.835 -37.214,133.708 -51.343,119.575 -50.609,118.842 
							-35.747,133.708 						"/>
					</g>
				</g>
				<g>
					<g>
						<polygon fill="#F47A5C" points="49.726,148.565 34.866,133.708 49.726,118.842 50.459,119.575 36.335,133.708 50.459,147.835 
													"/>
					</g>
					<g>
						<polygon fill="#F47A5C" points="-0.497,148.565 -1.228,147.835 12.898,133.708 -1.228,119.575 -0.497,118.842 14.362,133.708 
													"/>
					</g>
				</g>
				<g>
					<g>
						<polygon fill="#F47A5C" points="99.842,148.565 84.982,133.708 99.842,118.842 100.576,119.575 86.447,133.708 
							100.576,147.835 						"/>
					</g>
					<g>
						<polygon fill="#F47A5C" points="49.62,148.565 48.882,147.835 63.011,133.708 48.882,119.575 49.62,118.842 64.479,133.708 
													"/>
					</g>
				</g>
				<g>
					<g>
						<polygon fill="#F47A5C" points="149.955,148.565 135.091,133.708 149.955,118.842 150.692,119.575 136.56,133.708 
							150.692,147.835 						"/>
					</g>
					<g>
						<polygon fill="#F47A5C" points="99.728,148.565 98.998,147.835 113.123,133.708 98.998,119.575 99.728,118.842 
							114.587,133.708 						"/>
					</g>
				</g>
				<g>
					<g>
						<polygon fill="#F47A5C" points="200.071,148.565 185.208,133.708 200.071,118.842 200.805,119.575 186.672,133.708 
							200.805,147.835 						"/>
					</g>
					<g>
						<polygon fill="#F47A5C" points="149.845,148.565 149.106,147.835 163.235,133.708 149.106,119.575 149.845,118.842 
							164.704,133.708 						"/>
					</g>
				</g>
				<g>
					<g>
						<polygon fill="#F47A5C" points="250.184,148.565 235.32,133.708 250.184,118.842 250.917,119.575 236.789,133.708 
							250.917,147.835 						"/>
					</g>
					<g>
						<polygon fill="#F47A5C" points="199.957,148.565 199.223,147.835 213.349,133.708 199.223,119.575 199.957,118.842 
							214.82,133.708 						"/>
					</g>
				</g>
				<g>
					<g>
						<polygon fill="#F47A5C" points="300.296,148.565 285.434,133.708 300.296,118.842 301.029,119.575 286.901,133.708 
							301.029,147.835 						"/>
					</g>
					<g>
						<polygon fill="#F47A5C" points="250.069,148.565 249.335,147.835 263.465,133.708 249.335,119.575 250.069,118.842 
							264.93,133.708 						"/>
					</g>
				</g>
			</g>
			<g>
				<g>
					<path fill="#F47A5C" d="M-120.83,133.708c0,2.874-2.329,5.204-5.21,5.204c-2.878,0-5.205-2.33-5.205-5.204
						c0-2.879,2.326-5.208,5.205-5.208C-123.159,128.5-120.83,130.829-120.83,133.708z"/>
				</g>
				<g>
					<path fill="#F47A5C" d="M-70.338,133.708c0,2.874-2.333,5.204-5.21,5.204c-2.878,0-5.207-2.33-5.207-5.204
						c0-2.879,2.329-5.208,5.207-5.208C-72.671,128.5-70.338,130.829-70.338,133.708z"/>
				</g>
				<g>
					<path fill="#F47A5C" d="M-20.226,133.708c0,2.874-2.33,5.204-5.21,5.204c-2.874,0-5.207-2.33-5.207-5.204
						c0-2.879,2.333-5.208,5.207-5.208C-22.555,128.5-20.226,130.829-20.226,133.708z"/>
				</g>
				<g>
					<path fill="#F47A5C" d="M29.887,133.708c0,2.874-2.33,5.204-5.21,5.204c-2.874,0-5.207-2.33-5.207-5.204
						c0-2.879,2.333-5.208,5.207-5.208C27.557,128.5,29.887,130.829,29.887,133.708z"/>
				</g>
				<g>
					<path fill="#F47A5C" d="M80,133.708c0,2.874-2.33,5.204-5.207,5.204c-2.878,0-5.207-2.33-5.207-5.204
						c0-2.879,2.329-5.208,5.207-5.208C77.67,128.5,80,130.829,80,133.708z"/>
				</g>
				<g>
					<path fill="#F47A5C" d="M130.115,133.708c0,2.874-2.333,5.204-5.21,5.204c-2.878,0-5.207-2.33-5.207-5.204
						c0-2.879,2.329-5.208,5.207-5.208C127.782,128.5,130.115,130.829,130.115,133.708z"/>
				</g>
				<g>
					<path fill="#F47A5C" d="M180.228,133.708c0,2.874-2.329,5.204-5.21,5.204c-2.874,0-5.207-2.33-5.207-5.204
						c0-2.879,2.333-5.208,5.207-5.208C177.898,128.5,180.228,130.829,180.228,133.708z"/>
				</g>
				<g>
					<path fill="#F47A5C" d="M230.34,133.708c0,2.874-2.329,5.204-5.21,5.204c-2.877,0-5.203-2.33-5.203-5.204
						c0-2.879,2.326-5.208,5.203-5.208C228.011,128.5,230.34,130.829,230.34,133.708z"/>
				</g>
				<g>
					<path fill="#F47A5C" d="M280.454,133.708c0,2.874-2.329,5.204-5.208,5.204c-2.878,0-5.21-2.33-5.21-5.204
						c0-2.879,2.332-5.208,5.21-5.208C278.125,128.5,280.454,130.829,280.454,133.708z"/>
				</g>
			</g>
			<g>
				<g>
					<g>
						<polygon fill="#FFFFFF" points="-112.274,201.113 -126.04,187.348 -139.8,201.113 -141.265,199.644 -126.04,184.413 
							-110.805,199.644 						"/>
					</g>
					<g>
						<polygon fill="#FFFFFF" points="-126.04,186.97 -141.265,171.736 -139.8,170.274 -126.04,184.035 -112.274,170.274 
							-110.805,171.736 						"/>
					</g>
				</g>
				<g>
					<g>
						<polygon fill="#FFFFFF" points="-61.785,201.113 -75.548,187.348 -89.312,201.113 -90.777,199.644 -75.548,184.413 
							-60.321,199.644 						"/>
					</g>
					<g>
						<polygon fill="#FFFFFF" points="-75.548,186.97 -90.777,171.736 -89.312,170.274 -75.548,184.035 -61.785,170.274 
							-60.321,171.736 						"/>
					</g>
				</g>
				<g>
					<g>
						<polygon fill="#FFFFFF" points="-11.668,201.113 -25.436,187.348 -39.2,201.113 -40.665,199.644 -25.436,184.413 
							-10.204,199.644 						"/>
					</g>
					<g>
						<polygon fill="#FFFFFF" points="-25.436,186.97 -40.665,171.736 -39.2,170.274 -25.436,184.035 -11.668,170.274 
							-10.204,171.736 						"/>
					</g>
				</g>
				<g>
					<g>
						<polygon fill="#FFFFFF" points="38.444,201.113 24.676,187.348 10.916,201.113 9.449,199.644 24.676,184.413 39.908,199.644 
													"/>
					</g>
					<g>
						<polygon fill="#FFFFFF" points="24.676,186.97 9.449,171.736 10.916,170.274 24.676,184.035 38.444,170.274 39.908,171.736 
													"/>
					</g>
				</g>
				<g>
					<g>
						<polygon fill="#FFFFFF" points="88.556,201.113 74.793,187.348 61.028,201.113 59.562,199.644 74.793,184.413 90.021,199.644 
													"/>
					</g>
					<g>
						<polygon fill="#FFFFFF" points="74.793,186.97 59.562,171.736 61.028,170.274 74.793,184.035 88.556,170.274 90.021,171.736 
													"/>
					</g>
				</g>
				<g>
					<g>
						<polygon fill="#FFFFFF" points="138.666,201.113 124.905,187.348 111.143,201.113 109.674,199.644 124.905,184.413 
							140.137,199.644 						"/>
					</g>
					<g>
						<polygon fill="#FFFFFF" points="124.905,186.97 109.674,171.736 111.143,170.274 124.905,184.035 138.666,170.274 
							140.137,171.736 						"/>
					</g>
				</g>
				<g>
					<g>
						<polygon fill="#FFFFFF" points="188.78,201.113 175.018,187.348 161.255,201.113 159.786,199.644 175.018,184.413 
							190.249,199.644 						"/>
					</g>
					<g>
						<polygon fill="#FFFFFF" points="175.018,186.97 159.786,171.736 161.255,170.274 175.018,184.035 188.78,170.274 
							190.249,171.736 						"/>
					</g>
				</g>
				<g>
					<g>
						<polygon fill="#FFFFFF" points="238.895,201.113 225.13,187.348 211.367,201.113 209.902,199.644 225.13,184.413 
							240.361,199.644 						"/>
					</g>
					<g>
						<polygon fill="#FFFFFF" points="225.13,186.97 209.902,171.736 211.367,170.274 225.13,184.035 238.895,170.274 
							240.361,171.736 						"/>
					</g>
				</g>
				<g>
					<g>
						<polygon fill="#FFFFFF" points="289.01,201.113 275.246,187.348 261.479,201.113 260.015,199.644 275.246,184.413 
							290.474,199.644 						"/>
					</g>
					<g>
						<polygon fill="#FFFFFF" points="275.246,186.97 260.015,171.736 261.479,170.274 275.246,184.035 289.01,170.274 
							290.474,171.736 						"/>
					</g>
				</g>
			</g>
			<g>
				<g>
					<g>
						<polygon fill="#16BECF" points="-111.904,212.47 -126.04,198.333 -140.166,212.47 -140.899,211.736 -126.04,196.866 
							-111.173,211.736 						"/>
					</g>
					<g>
						<polygon fill="#16BECF" points="-126.04,174.371 -140.899,159.506 -140.166,158.773 -126.04,172.903 -111.904,158.773 
							-111.173,159.506 						"/>
					</g>
				</g>
				<g>
					<g>
						<polygon fill="#16BECF" points="-61.417,212.47 -75.548,198.333 -89.678,212.47 -90.412,211.736 -75.548,196.866 
							-60.686,211.736 						"/>
					</g>
					<g>
						<polygon fill="#16BECF" points="-75.548,174.371 -90.412,159.506 -89.678,158.773 -75.548,172.903 -61.417,158.773 
							-60.686,159.506 						"/>
					</g>
				</g>
				<g>
					<g>
						<polygon fill="#16BECF" points="-11.303,212.47 -25.436,198.333 -39.564,212.47 -40.299,211.736 -25.436,196.866 
							-10.569,211.736 						"/>
					</g>
					<g>
						<polygon fill="#16BECF" points="-25.436,174.371 -40.299,159.506 -39.564,158.773 -25.436,172.903 -11.303,158.773 
							-10.569,159.506 						"/>
					</g>
				</g>
				<g>
					<g>
						<polygon fill="#16BECF" points="38.809,212.47 24.676,198.333 10.548,212.47 9.814,211.736 24.676,196.866 39.54,211.736 
													"/>
					</g>
					<g>
						<polygon fill="#16BECF" points="24.676,174.371 9.814,159.506 10.548,158.773 24.676,172.903 38.809,158.773 39.54,159.506 
													"/>
					</g>
				</g>
				<g>
					<g>
						<polygon fill="#16BECF" points="88.922,212.47 74.793,198.333 60.66,212.47 59.927,211.736 74.793,196.866 89.655,211.736 
													"/>
					</g>
					<g>
						<polygon fill="#16BECF" points="74.793,174.371 59.927,159.506 60.66,158.773 74.793,172.903 88.922,158.773 89.655,159.506 
													"/>
					</g>
				</g>
				<g>
					<g>
						<polygon fill="#16BECF" points="139.038,212.47 124.905,198.333 110.772,212.47 110.042,211.736 124.905,196.866 
							139.769,211.736 						"/>
					</g>
					<g>
						<polygon fill="#16BECF" points="124.905,174.371 110.042,159.506 110.772,158.773 124.905,172.903 139.038,158.773 
							139.769,159.506 						"/>
					</g>
				</g>
				<g>
					<g>
						<polygon fill="#16BECF" points="189.146,212.47 175.018,198.333 160.885,212.47 160.151,211.736 175.018,196.866 
							189.884,211.736 						"/>
					</g>
					<g>
						<polygon fill="#16BECF" points="175.018,174.371 160.151,159.506 160.885,158.773 175.018,172.903 189.146,158.773 
							189.884,159.506 						"/>
					</g>
				</g>
				<g>
					<g>
						<polygon fill="#16BECF" points="239.263,212.47 225.13,198.333 211.002,212.47 210.264,211.736 225.13,196.866 
							239.996,211.736 						"/>
					</g>
					<g>
						<polygon fill="#16BECF" points="225.13,174.371 210.264,159.506 211.002,158.773 225.13,172.903 239.263,158.773 
							239.996,159.506 						"/>
					</g>
				</g>
				<g>
					<g>
						<polygon fill="#16BECF" points="289.375,212.47 275.246,198.333 261.114,212.47 260.38,211.736 275.246,196.866 
							290.108,211.736 						"/>
					</g>
					<g>
						<polygon fill="#16BECF" points="275.246,174.371 260.38,159.506 261.114,158.773 275.246,172.903 289.375,158.773 
							290.108,159.506 						"/>
					</g>
				</g>
			</g>
			<g>
				<g>
					<g>
						<polygon fill="#F47A5C" points="-100.988,200.822 -115.847,185.96 -100.988,171.094 -100.254,171.83 -114.383,185.96 
							-100.254,200.09 						"/>
					</g>
					<g>
						<polygon fill="#F47A5C" points="-151.21,200.822 -151.944,200.09 -137.818,185.96 -151.944,171.83 -151.21,171.094 
							-136.347,185.96 						"/>
					</g>
				</g>
				<g>
					<g>
						<polygon fill="#F47A5C" points="-50.496,200.822 -65.358,185.96 -50.496,171.094 -49.765,171.83 -63.894,185.96 
							-49.765,200.09 						"/>
					</g>
					<g>
						<polygon fill="#F47A5C" points="-100.722,200.822 -101.457,200.09 -87.327,185.96 -101.457,171.83 -100.722,171.094 
							-85.859,185.96 						"/>
					</g>
				</g>
				<g>
					<g>
						<polygon fill="#F47A5C" points="-0.384,200.822 -15.246,185.96 -0.384,171.094 0.347,171.83 -13.779,185.96 0.347,200.09 
													"/>
					</g>
					<g>
						<polygon fill="#F47A5C" points="-50.609,200.822 -51.343,200.09 -37.214,185.96 -51.343,171.83 -50.609,171.094 
							-35.747,185.96 						"/>
					</g>
				</g>
				<g>
					<g>
						<polygon fill="#F47A5C" points="49.726,200.822 34.866,185.96 49.726,171.094 50.459,171.83 36.335,185.96 50.459,200.09 
													"/>
					</g>
					<g>
						<polygon fill="#F47A5C" points="-0.497,200.822 -1.228,200.09 12.898,185.96 -1.228,171.83 -0.497,171.094 14.362,185.96 
													"/>
					</g>
				</g>
				<g>
					<g>
						<polygon fill="#F47A5C" points="99.842,200.822 84.982,185.96 99.842,171.094 100.576,171.83 86.447,185.96 100.576,200.09 
													"/>
					</g>
					<g>
						<polygon fill="#F47A5C" points="49.62,200.822 48.882,200.09 63.011,185.96 48.882,171.83 49.62,171.094 64.479,185.96 						
							"/>
					</g>
				</g>
				<g>
					<g>
						<polygon fill="#F47A5C" points="149.955,200.822 135.091,185.96 149.955,171.094 150.692,171.83 136.56,185.96 
							150.692,200.09 						"/>
					</g>
					<g>
						<polygon fill="#F47A5C" points="99.728,200.822 98.998,200.09 113.123,185.96 98.998,171.83 99.728,171.094 114.587,185.96 
													"/>
					</g>
				</g>
				<g>
					<g>
						<polygon fill="#F47A5C" points="200.071,200.822 185.208,185.96 200.071,171.094 200.805,171.83 186.672,185.96 
							200.805,200.09 						"/>
					</g>
					<g>
						<polygon fill="#F47A5C" points="149.845,200.822 149.106,200.09 163.235,185.96 149.106,171.83 149.845,171.094 
							164.704,185.96 						"/>
					</g>
				</g>
				<g>
					<g>
						<polygon fill="#F47A5C" points="250.184,200.822 235.32,185.96 250.184,171.094 250.917,171.83 236.789,185.96 
							250.917,200.09 						"/>
					</g>
					<g>
						<polygon fill="#F47A5C" points="199.957,200.822 199.223,200.09 213.349,185.96 199.223,171.83 199.957,171.094 
							214.82,185.96 						"/>
					</g>
				</g>
				<g>
					<g>
						<polygon fill="#F47A5C" points="300.296,200.822 285.434,185.96 300.296,171.094 301.029,171.83 286.901,185.96 
							301.029,200.09 						"/>
					</g>
					<g>
						<polygon fill="#F47A5C" points="250.069,200.822 249.335,200.09 263.465,185.96 249.335,171.83 250.069,171.094 
							264.93,185.96 						"/>
					</g>
				</g>
			</g>
			<g>
				<g>
					<path fill="#F47A5C" d="M-120.83,185.96c0,2.877-2.329,5.208-5.21,5.208c-2.878,0-5.205-2.331-5.205-5.208
						c0-2.874,2.326-5.204,5.205-5.204C-123.159,180.756-120.83,183.086-120.83,185.96z"/>
				</g>
				<g>
					<path fill="#F47A5C" d="M-70.338,185.96c0,2.877-2.333,5.208-5.21,5.208c-2.878,0-5.207-2.331-5.207-5.208
						c0-2.874,2.329-5.204,5.207-5.204C-72.671,180.756-70.338,183.086-70.338,185.96z"/>
				</g>
				<g>
					<path fill="#F47A5C" d="M-20.226,185.96c0,2.877-2.33,5.208-5.21,5.208c-2.874,0-5.207-2.331-5.207-5.208
						c0-2.874,2.333-5.204,5.207-5.204C-22.555,180.756-20.226,183.086-20.226,185.96z"/>
				</g>
				<g>
					<path fill="#F47A5C" d="M29.887,185.96c0,2.877-2.33,5.208-5.21,5.208c-2.874,0-5.207-2.331-5.207-5.208
						c0-2.874,2.333-5.204,5.207-5.204C27.557,180.756,29.887,183.086,29.887,185.96z"/>
				</g>
				<g>
					<circle fill="#F47A5C" cx="74.793" cy="185.96" r="5.207"/>
				</g>
				<g>
					<circle fill="#F47A5C" cx="124.907" cy="185.96" r="5.208"/>
				</g>
				<g>
					<path fill="#F47A5C" d="M180.228,185.96c0,2.877-2.329,5.208-5.21,5.208c-2.874,0-5.207-2.331-5.207-5.208
						c0-2.874,2.333-5.204,5.207-5.204C177.898,180.756,180.228,183.086,180.228,185.96z"/>
				</g>
				<g>
					<path fill="#F47A5C" d="M230.34,185.96c0,2.877-2.329,5.208-5.21,5.208c-2.877,0-5.203-2.331-5.203-5.208
						c0-2.874,2.326-5.204,5.203-5.204C228.011,180.756,230.34,183.086,230.34,185.96z"/>
				</g>
				<g>
					<circle fill="#F47A5C" cx="275.245" cy="185.96" r="5.209"/>
				</g>
			</g>
		</g>
	</g>
</g>
</svg>
