<?xml version="1.0" encoding="utf-8"?>
<!-- Generator: Adobe Illustrator 16.0.0, SVG Export Plug-In . SVG Version: 6.00 Build 0)  -->
<!DOCTYPE svg PUBLIC "-//W3C//DTD SVG 1.1//EN" "http://www.w3.org/Graphics/SVG/1.1/DTD/svg11.dtd">
<svg version="1.1" id="Layer_1" xmlns="http://www.w3.org/2000/svg" xmlns:xlink="http://www.w3.org/1999/xlink" x="0px" y="0px"
	 width="100px" height="100px" viewBox="0 0 100 100" enable-background="new 0 0 100 100" xml:space="preserve">
<g>
	<defs>
		<rect id="SVGID_1_" y="0" width="100" height="100"/>
	</defs>
	<clipPath id="SVGID_2_">
		<use xlink:href="#SVGID_1_"  overflow="visible"/>
	</clipPath>
	<g clip-path="url(#SVGID_2_)">
		<rect x="-138.475" y="-157.746" fill="#63B5BB" width="462.405" height="386.449"/>
		<polygon fill="#D8D4C7" points="291.232,-114.859 272.663,-104.137 254.09,-114.859 235.52,-104.137 216.947,-114.859 
			198.379,-104.137 179.806,-114.859 161.236,-104.137 142.664,-114.859 124.094,-104.137 105.523,-114.859 86.952,-104.137 
			68.38,-114.859 49.809,-104.137 31.238,-114.859 12.667,-104.137 -5.904,-114.859 -24.474,-104.137 -43.046,-114.859 
			-61.617,-104.137 -80.189,-114.859 -98.759,-104.137 -117.331,-114.859 -135.901,-104.137 -135.901,-82.694 -117.331,-71.972 
			-98.759,-82.694 -80.189,-71.972 -61.617,-82.694 -43.046,-71.972 -24.474,-82.694 -5.904,-71.972 12.667,-82.694 31.238,-71.972 
			49.809,-82.694 68.38,-71.972 86.952,-82.694 105.523,-71.972 124.094,-82.694 142.664,-71.972 161.236,-82.694 179.806,-71.972 
			198.379,-82.694 216.947,-71.972 235.52,-82.694 254.09,-71.972 272.663,-82.694 291.232,-71.972 309.805,-82.694 
			309.805,-104.137 		"/>
		<polygon fill="#D8D4C7" points="323.931,-64.201 309.901,-72.3 291.33,-61.578 272.76,-72.3 254.189,-61.578 235.617,-72.3 
			217.047,-61.578 198.475,-72.3 179.904,-61.578 161.332,-72.3 142.764,-61.578 124.19,-72.3 105.619,-61.578 87.048,-72.3 
			68.479,-61.578 49.906,-72.3 31.336,-61.578 12.765,-72.3 -5.807,-61.578 -24.378,-72.3 -42.948,-61.578 -61.521,-72.3 
			-80.09,-61.578 -98.662,-72.3 -117.232,-61.578 -117.232,-40.135 -98.662,-29.414 -80.09,-40.135 -61.521,-29.414 
			-42.948,-40.135 -24.378,-29.414 -5.807,-40.135 12.765,-29.414 31.336,-40.135 49.906,-29.414 68.479,-40.135 87.048,-29.414 
			105.619,-40.135 124.19,-29.414 142.764,-40.135 161.332,-29.414 179.904,-40.135 198.475,-29.414 217.047,-40.135 
			235.617,-29.414 254.189,-40.135 272.76,-29.414 291.33,-40.135 309.901,-29.414 323.931,-37.513 		"/>
		<polygon fill="#D8D4C7" points="290.772,-29.414 272.203,-18.692 253.63,-29.414 235.061,-18.692 216.489,-29.414 
			197.918,-18.692 179.347,-29.414 160.777,-18.692 142.204,-29.414 123.633,-18.692 105.062,-29.414 86.492,-18.692 67.92,-29.414 
			49.35,-18.692 30.778,-29.414 12.208,-18.692 -6.365,-29.414 -24.935,-18.692 -43.506,-29.414 -62.076,-18.692 -80.648,-29.414 
			-99.219,-18.692 -117.791,-29.414 -136.361,-18.692 -136.361,2.753 -117.791,13.474 -99.219,2.753 -80.648,13.474 -62.076,2.753 
			-43.506,13.474 -24.935,2.753 -6.365,13.474 12.208,2.753 30.778,13.474 49.35,2.753 67.92,13.474 86.492,2.753 105.062,13.474 
			123.633,2.753 142.204,13.474 160.777,2.753 179.347,13.474 197.918,2.753 216.489,13.474 235.061,2.753 253.63,13.474 
			272.203,2.753 290.772,13.474 309.345,2.753 309.345,-18.692 		"/>
		<polygon fill="#D8D4C7" points="323.931,21.51 309.44,13.146 290.87,23.867 272.3,13.146 253.729,23.867 235.156,13.146 
			216.587,23.867 198.015,13.146 179.444,23.867 160.874,13.146 142.303,23.867 123.731,13.146 105.16,23.867 86.589,13.146 
			68.019,23.867 49.447,13.146 30.876,23.867 12.304,13.146 -6.266,23.867 -24.837,13.146 -43.408,23.867 -61.98,13.146 
			-80.55,23.867 -99.123,13.146 -117.692,23.867 -117.692,45.311 -99.123,56.033 -80.55,45.311 -61.98,56.033 -43.408,45.311 
			-24.837,56.033 -6.266,45.311 12.304,56.033 30.876,45.311 49.447,56.033 68.019,45.311 86.589,56.033 105.16,45.311 
			123.731,56.033 142.303,45.311 160.874,56.033 179.444,45.311 198.015,56.033 216.587,45.311 235.156,56.033 253.729,45.311 
			272.3,56.033 290.87,45.311 309.44,56.033 323.931,47.669 		"/>
		<polygon fill="#D8D4C7" points="291.112,56.033 272.542,66.754 253.969,56.033 235.399,66.754 216.828,56.033 198.257,66.754 
			179.686,56.033 161.116,66.754 142.543,56.033 123.974,66.754 105.401,56.033 86.831,66.754 68.26,56.033 49.688,66.754 
			31.117,56.033 12.547,66.754 -6.025,56.033 -24.595,66.754 -43.167,56.033 -61.737,66.754 -80.31,56.033 -98.879,66.754 
			-117.451,56.033 -136.021,66.754 -136.021,88.197 -117.451,98.918 -98.879,88.197 -80.31,98.918 -61.737,88.197 -43.167,98.918 
			-24.595,88.197 -6.025,98.918 12.547,88.197 31.117,98.918 49.688,88.197 68.26,98.918 86.831,88.197 105.401,98.918 
			123.974,88.197 142.543,98.918 161.116,88.197 179.686,98.918 198.257,88.197 216.828,98.918 235.399,88.197 253.969,98.918 
			272.542,88.197 291.112,98.918 309.684,88.197 309.684,66.754 		"/>
		<polygon fill="#D8D4C7" points="323.931,106.76 309.781,98.59 291.209,109.312 272.639,98.59 254.068,109.312 235.496,98.59 
			216.927,109.312 198.354,98.59 179.783,109.312 161.213,98.59 142.642,109.312 124.07,98.59 105.5,109.312 86.928,98.59 
			68.357,109.312 49.786,98.59 31.215,109.312 12.644,98.59 -5.927,109.312 -24.499,98.59 -43.068,109.312 -61.64,98.59 
			-80.211,109.312 -98.783,98.59 -117.353,109.312 -117.353,130.758 -98.783,141.479 -80.211,130.758 -61.64,141.479 
			-43.068,130.758 -24.499,141.479 -5.927,130.758 12.644,141.479 31.215,130.758 49.786,141.479 68.357,130.758 86.928,141.479 
			105.5,130.758 124.07,141.479 142.642,130.758 161.213,141.479 179.783,130.758 198.354,141.479 216.927,130.758 235.496,141.479 
			254.068,130.758 272.639,141.479 291.209,130.758 309.781,141.479 323.931,133.309 		"/>
		<polygon fill="#D8D4C7" points="290.652,141.479 272.082,152.199 253.51,141.479 234.94,152.199 216.367,141.479 197.798,152.199 
			179.227,141.479 160.656,152.199 142.084,141.479 123.514,152.199 104.941,141.479 86.371,152.199 67.799,141.479 49.229,152.199 
			30.657,141.479 12.086,152.199 -6.485,141.479 -25.055,152.199 -43.627,141.479 -62.198,152.199 -80.769,141.479 -99.339,152.199 
			-117.912,141.479 -136.481,152.199 -136.481,173.643 -117.912,184.365 -99.339,173.643 -80.769,184.365 -62.198,173.643 
			-43.627,184.365 -25.055,173.643 -6.485,184.365 12.086,173.643 30.657,184.365 49.229,173.643 67.799,184.365 86.371,173.643 
			104.941,184.365 123.514,173.643 142.084,184.365 160.656,173.643 179.227,184.365 197.798,173.643 216.367,184.365 
			234.94,173.643 253.51,184.365 272.082,173.643 290.652,184.365 309.223,173.643 309.223,152.199 		"/>
		<polygon fill="#D8D4C7" points="323.931,192.471 309.319,184.037 290.75,194.76 272.179,184.037 253.607,194.76 235.036,184.037 
			216.467,194.76 197.894,184.037 179.324,194.76 160.752,184.037 142.182,194.76 123.611,184.037 105.041,194.76 86.468,184.037 
			67.897,194.76 49.326,184.037 30.756,194.76 12.184,184.037 -6.386,194.76 -24.958,184.037 -43.529,194.76 -62.101,184.037 
			-80.67,194.76 -99.242,184.037 -117.813,194.76 -117.813,216.201 -99.242,226.924 -80.67,216.201 -62.101,226.924 
			-43.529,216.201 -24.958,226.924 -6.386,216.201 12.184,226.924 30.756,216.201 49.326,226.924 67.897,216.201 86.468,226.924 
			105.041,216.201 123.611,226.924 142.182,216.201 160.752,226.924 179.324,216.201 197.894,226.924 216.467,216.201 
			235.036,226.924 253.607,216.201 272.179,226.924 290.75,216.201 309.319,226.924 323.931,218.488 		"/>
		<g>
			<polygon fill="#E35A6D" points="298.027,-105.184 304.821,-93.414 298.027,-81.648 284.44,-81.648 277.646,-93.414 
				284.44,-105.184 			"/>
			<polygon fill="#E35A6D" points="260.886,-105.184 267.681,-93.414 260.886,-81.648 247.298,-81.648 240.503,-93.414 
				247.298,-105.184 			"/>
			<polygon fill="#E35A6D" points="223.743,-105.184 230.538,-93.414 223.743,-81.648 210.155,-81.648 203.361,-93.414 
				210.155,-105.184 			"/>
			<polygon fill="#E35A6D" points="186.602,-105.184 193.396,-93.414 186.602,-81.648 173.015,-81.648 166.218,-93.414 
				173.015,-105.184 			"/>
			<polygon fill="#E35A6D" points="0.89,-105.184 7.685,-93.414 0.89,-81.648 -12.698,-81.648 -19.492,-93.414 -12.698,-105.184 			
				"/>
			<polygon fill="#E35A6D" points="-36.252,-105.184 -29.458,-93.414 -36.252,-81.648 -49.839,-81.648 -56.634,-93.414 
				-49.839,-105.184 			"/>
			<polygon fill="#E35A6D" points="-73.394,-105.184 -66.599,-93.414 -73.394,-81.648 -86.981,-81.648 -93.776,-93.414 
				-86.981,-105.184 			"/>
			<polygon fill="#E35A6D" points="-110.536,-105.184 -103.741,-93.414 -110.536,-81.648 -124.124,-81.648 -130.918,-93.414 
				-124.124,-105.184 			"/>
			<polygon fill="#E35A6D" points="149.458,-105.184 156.254,-93.414 149.458,-81.648 135.87,-81.648 129.076,-93.414 
				135.87,-105.184 			"/>
			<polygon fill="#E35A6D" points="112.316,-105.184 119.11,-93.414 112.316,-81.648 98.729,-81.648 91.935,-93.414 
				98.729,-105.184 			"/>
			<polygon fill="#E35A6D" points="75.175,-105.184 81.97,-93.414 75.175,-81.648 61.587,-81.648 54.793,-93.414 61.587,-105.184 
							"/>
			<polygon fill="#E35A6D" points="38.032,-105.184 44.827,-93.414 38.032,-81.648 24.445,-81.648 17.65,-93.414 24.445,-105.184 
							"/>
		</g>
		<g>
			<polygon fill="#E35A6D" points="316.696,-62.625 323.491,-50.854 316.696,-39.089 303.108,-39.089 296.313,-50.854 
				303.108,-62.625 			"/>
			<polygon fill="#E35A6D" points="279.554,-62.625 286.349,-50.854 279.554,-39.089 265.966,-39.089 259.173,-50.854 
				265.966,-62.625 			"/>
			<polygon fill="#E35A6D" points="242.412,-62.625 249.206,-50.854 242.412,-39.089 228.825,-39.089 222.028,-50.854 
				228.825,-62.625 			"/>
			<polygon fill="#E35A6D" points="205.271,-62.625 212.065,-50.854 205.271,-39.089 191.682,-39.089 184.888,-50.854 
				191.682,-62.625 			"/>
			<polygon fill="#E35A6D" points="19.559,-62.625 26.354,-50.854 19.559,-39.089 5.971,-39.089 -0.824,-50.854 5.971,-62.625 			
				"/>
			<polygon fill="#E35A6D" points="-17.583,-62.625 -10.788,-50.854 -17.583,-39.089 -31.171,-39.089 -37.965,-50.854 
				-31.171,-62.625 			"/>
			<polygon fill="#E35A6D" points="-54.726,-62.625 -47.931,-50.854 -54.726,-39.089 -68.313,-39.089 -75.107,-50.854 
				-68.313,-62.625 			"/>
			<polygon fill="#E35A6D" points="-91.868,-62.625 -85.073,-50.854 -91.868,-39.089 -105.455,-39.089 -112.25,-50.854 
				-105.455,-62.625 			"/>
			<polygon fill="#E35A6D" points="168.128,-62.625 174.921,-50.854 168.128,-39.089 154.54,-39.089 147.745,-50.854 
				154.54,-62.625 			"/>
			<polygon fill="#E35A6D" points="130.985,-62.625 137.78,-50.854 130.985,-39.089 117.397,-39.089 110.603,-50.854 
				117.397,-62.625 			"/>
			<polygon fill="#E35A6D" points="93.843,-62.625 100.638,-50.854 93.843,-39.089 80.256,-39.089 73.461,-50.854 80.256,-62.625 
							"/>
			<polygon fill="#E35A6D" points="56.701,-62.625 63.495,-50.854 56.701,-39.089 43.113,-39.089 36.318,-50.854 43.113,-62.625 			
				"/>
		</g>
		<g>
			<polygon fill="#E35A6D" points="297.567,-19.738 304.361,-7.968 297.567,3.797 283.979,3.797 277.185,-7.968 283.979,-19.738 			
				"/>
			<polygon fill="#E35A6D" points="260.425,-19.738 267.22,-7.968 260.425,3.797 246.838,3.797 240.042,-7.968 246.838,-19.738 			
				"/>
			<polygon fill="#E35A6D" points="223.282,-19.738 230.078,-7.968 223.282,3.797 209.695,3.797 202.901,-7.968 209.695,-19.738 			
				"/>
			<polygon fill="#E35A6D" points="186.142,-19.738 192.936,-7.968 186.142,3.797 172.554,3.797 165.76,-7.968 172.554,-19.738 			
				"/>
			<polygon fill="#E35A6D" points="0.43,-19.738 7.226,-7.968 0.43,3.797 -13.157,3.797 -19.952,-7.968 -13.157,-19.738 			"/>
			<polygon fill="#E35A6D" points="-36.712,-19.738 -29.917,-7.968 -36.712,3.797 -50.3,3.797 -57.094,-7.968 -50.3,-19.738 			"/>
			<polygon fill="#E35A6D" points="-73.854,-19.738 -67.06,-7.968 -73.854,3.797 -87.442,3.797 -94.236,-7.968 -87.442,-19.738 			
				"/>
			<polygon fill="#E35A6D" points="-110.996,-19.738 -104.201,-7.968 -110.996,3.797 -124.584,3.797 -131.378,-7.968 
				-124.584,-19.738 			"/>
			<polygon fill="#E35A6D" points="148.999,-19.738 155.794,-7.968 148.999,3.797 135.411,3.797 128.616,-7.968 135.411,-19.738 			
				"/>
			<polygon fill="#E35A6D" points="111.856,-19.738 118.651,-7.968 111.856,3.797 98.269,3.797 91.475,-7.968 98.269,-19.738 			"/>
			<polygon fill="#E35A6D" points="74.715,-19.738 81.51,-7.968 74.715,3.797 61.127,3.797 54.332,-7.968 61.127,-19.738 			"/>
			<polygon fill="#E35A6D" points="37.573,-19.738 44.367,-7.968 37.573,3.797 23.985,3.797 17.19,-7.968 23.985,-19.738 			"/>
		</g>
		<g>
			<polygon fill="#E35A6D" points="316.236,22.82 323.031,34.591 316.236,46.357 302.648,46.357 295.854,34.591 302.648,22.82 			
				"/>
			<polygon fill="#E35A6D" points="279.094,22.82 285.889,34.591 279.094,46.357 265.506,46.357 258.712,34.591 265.506,22.82 			
				"/>
			<polygon fill="#E35A6D" points="241.952,22.82 248.746,34.591 241.952,46.357 228.365,46.357 221.569,34.591 228.365,22.82 			
				"/>
			<polygon fill="#E35A6D" points="204.809,22.82 211.604,34.591 204.809,46.357 191.223,46.357 184.427,34.591 191.223,22.82 			
				"/>
			<polygon fill="#E35A6D" points="19.099,22.82 25.893,34.591 19.099,46.357 5.511,46.357 -1.283,34.591 5.511,22.82 			"/>
			<polygon fill="#E35A6D" points="-18.043,22.82 -11.249,34.591 -18.043,46.357 -31.63,46.357 -38.426,34.591 -31.63,22.82 			"/>
			<polygon fill="#E35A6D" points="-55.185,22.82 -48.39,34.591 -55.185,46.357 -68.773,46.357 -75.567,34.591 -68.773,22.82 			"/>
			<polygon fill="#E35A6D" points="-92.327,22.82 -85.532,34.591 -92.327,46.357 -105.915,46.357 -112.709,34.591 -105.915,22.82 
							"/>
			<polygon fill="#E35A6D" points="167.667,22.82 174.461,34.591 167.667,46.357 154.08,46.357 147.286,34.591 154.08,22.82 			"/>
			<polygon fill="#E35A6D" points="130.526,22.82 137.32,34.591 130.526,46.357 116.938,46.357 110.144,34.591 116.938,22.82 			"/>
			<polygon fill="#E35A6D" points="93.384,22.82 100.179,34.591 93.384,46.357 79.795,46.357 73.001,34.591 79.795,22.82 			"/>
			<polygon fill="#E35A6D" points="56.241,22.82 63.035,34.591 56.241,46.357 42.654,46.357 35.858,34.591 42.654,22.82 			"/>
		</g>
		<g>
			<polygon fill="#E35A6D" points="297.906,65.707 304.7,77.479 297.906,89.244 284.319,89.244 277.525,77.479 284.319,65.707 			
				"/>
			<polygon fill="#E35A6D" points="260.766,65.707 267.56,77.479 260.766,89.244 247.178,89.244 240.381,77.479 247.178,65.707 			
				"/>
			<polygon fill="#E35A6D" points="223.621,65.707 230.418,77.479 223.621,89.244 210.034,89.244 203.24,77.479 210.034,65.707 			
				"/>
			<polygon fill="#E35A6D" points="186.48,65.707 193.274,77.479 186.48,89.244 172.893,89.244 166.098,77.479 172.893,65.707 			
				"/>
			<polygon fill="#E35A6D" points="0.77,65.707 7.564,77.479 0.77,89.244 -12.817,89.244 -19.613,77.479 -12.817,65.707 			"/>
			<polygon fill="#E35A6D" points="-36.373,65.707 -29.578,77.479 -36.373,89.244 -49.96,89.244 -56.755,77.479 -49.96,65.707 			
				"/>
			<polygon fill="#E35A6D" points="-73.514,65.707 -66.72,77.479 -73.514,89.244 -87.103,89.244 -93.897,77.479 -87.103,65.707 			
				"/>
			<polygon fill="#E35A6D" points="-110.657,65.707 -103.861,77.479 -110.657,89.244 -124.245,89.244 -131.04,77.479 
				-124.245,65.707 			"/>
			<polygon fill="#E35A6D" points="149.338,65.707 156.133,77.479 149.338,89.244 135.75,89.244 128.955,77.479 135.75,65.707 			
				"/>
			<polygon fill="#E35A6D" points="112.195,65.707 118.99,77.479 112.195,89.244 98.608,89.244 91.813,77.479 98.608,65.707 			"/>
			<polygon fill="#E35A6D" points="75.054,65.707 81.848,77.479 75.054,89.244 61.467,89.244 54.672,77.479 61.467,65.707 			"/>
			<polygon fill="#E35A6D" points="37.912,65.707 44.707,77.479 37.912,89.244 24.324,89.244 17.53,77.479 24.324,65.707 			"/>
		</g>
		<g>
			<polygon fill="#E35A6D" points="316.576,108.268 323.37,120.035 316.576,131.803 302.987,131.803 296.192,120.035 
				302.987,108.268 			"/>
			<polygon fill="#E35A6D" points="279.434,108.268 286.229,120.035 279.434,131.803 265.845,131.803 259.051,120.035 
				265.845,108.268 			"/>
			<polygon fill="#E35A6D" points="242.291,108.268 249.085,120.035 242.291,131.803 228.704,131.803 221.908,120.035 
				228.704,108.268 			"/>
			<polygon fill="#E35A6D" points="205.148,108.268 211.944,120.035 205.148,131.803 191.562,131.803 184.767,120.035 
				191.562,108.268 			"/>
			<polygon fill="#E35A6D" points="19.438,108.268 26.232,120.035 19.438,131.803 5.851,131.803 -0.944,120.035 5.851,108.268 			
				"/>
			<polygon fill="#E35A6D" points="-17.704,108.268 -10.91,120.035 -17.704,131.803 -31.292,131.803 -38.086,120.035 
				-31.292,108.268 			"/>
			<polygon fill="#E35A6D" points="-54.846,108.268 -48.051,120.035 -54.846,131.803 -68.433,131.803 -75.228,120.035 
				-68.433,108.268 			"/>
			<polygon fill="#E35A6D" points="-91.988,108.268 -85.193,120.035 -91.988,131.803 -105.575,131.803 -112.37,120.035 
				-105.575,108.268 			"/>
			<polygon fill="#E35A6D" points="168.007,108.268 174.802,120.035 168.007,131.803 154.419,131.803 147.625,120.035 
				154.419,108.268 			"/>
			<polygon fill="#E35A6D" points="130.865,108.268 137.659,120.035 130.865,131.803 117.277,131.803 110.482,120.035 
				117.277,108.268 			"/>
			<polygon fill="#E35A6D" points="93.723,108.268 100.518,120.035 93.723,131.803 80.135,131.803 73.34,120.035 80.135,108.268 			
				"/>
			<polygon fill="#E35A6D" points="56.58,108.268 63.375,120.035 56.58,131.803 42.993,131.803 36.198,120.035 42.993,108.268 			
				"/>
		</g>
		<g>
			<polygon fill="#E35A6D" points="297.446,151.154 304.241,162.924 297.446,174.689 283.858,174.689 277.064,162.924 
				283.858,151.154 			"/>
			<polygon fill="#E35A6D" points="260.305,151.154 267.099,162.924 260.305,174.689 246.718,174.689 239.923,162.924 
				246.718,151.154 			"/>
			<polygon fill="#E35A6D" points="223.163,151.154 229.958,162.924 223.163,174.689 209.573,174.689 202.78,162.924 
				209.573,151.154 			"/>
			<polygon fill="#E35A6D" points="186.021,151.154 192.815,162.924 186.021,174.689 172.433,174.689 165.639,162.924 
				172.433,151.154 			"/>
			<polygon fill="#E35A6D" points="0.31,151.154 7.104,162.924 0.31,174.689 -13.278,174.689 -20.073,162.924 -13.278,151.154 			
				"/>
			<polygon fill="#E35A6D" points="-36.833,151.154 -30.038,162.924 -36.833,174.689 -50.42,174.689 -57.215,162.924 
				-50.42,151.154 			"/>
			<polygon fill="#E35A6D" points="-73.975,151.154 -67.18,162.924 -73.975,174.689 -87.562,174.689 -94.357,162.924 
				-87.562,151.154 			"/>
			<polygon fill="#E35A6D" points="-111.117,151.154 -104.322,162.924 -111.117,174.689 -124.705,174.689 -131.499,162.924 
				-124.705,151.154 			"/>
			<polygon fill="#E35A6D" points="148.879,151.154 155.673,162.924 148.879,174.689 135.292,174.689 128.495,162.924 
				135.292,151.154 			"/>
			<polygon fill="#E35A6D" points="111.735,151.154 118.531,162.924 111.735,174.689 98.147,174.689 91.354,162.924 98.147,151.154 
							"/>
			<polygon fill="#E35A6D" points="74.594,151.154 81.389,162.924 74.594,174.689 61.006,174.689 54.211,162.924 61.006,151.154 			
				"/>
			<polygon fill="#E35A6D" points="37.452,151.154 44.247,162.924 37.452,174.689 23.864,174.689 17.07,162.924 23.864,151.154 			
				"/>
		</g>
		<g>
			<polygon fill="#E35A6D" points="316.116,193.713 322.91,205.482 316.116,217.248 302.528,217.248 295.731,205.482 
				302.528,193.713 			"/>
			<polygon fill="#E35A6D" points="278.972,193.713 285.769,205.482 278.972,217.248 265.385,217.248 258.591,205.482 
				265.385,193.713 			"/>
			<polygon fill="#E35A6D" points="241.831,193.713 248.625,205.482 241.831,217.248 228.243,217.248 221.45,205.482 
				228.243,193.713 			"/>
			<polygon fill="#E35A6D" points="204.688,193.713 211.483,205.482 204.688,217.248 191.103,217.248 184.308,205.482 
				191.103,193.713 			"/>
			<polygon fill="#E35A6D" points="18.978,193.713 25.773,205.482 18.978,217.248 5.391,217.248 -1.404,205.482 5.391,193.713 			
				"/>
			<polygon fill="#E35A6D" points="-18.164,193.713 -11.369,205.482 -18.164,217.248 -31.751,217.248 -38.546,205.482 
				-31.751,193.713 			"/>
			<polygon fill="#E35A6D" points="-55.306,193.713 -48.511,205.482 -55.306,217.248 -68.894,217.248 -75.689,205.482 
				-68.894,193.713 			"/>
			<polygon fill="#E35A6D" points="-92.448,193.713 -85.653,205.482 -92.448,217.248 -106.036,217.248 -112.831,205.482 
				-106.036,193.713 			"/>
			<polygon fill="#E35A6D" points="167.546,193.713 174.341,205.482 167.546,217.248 153.959,217.248 147.165,205.482 
				153.959,193.713 			"/>
			<polygon fill="#E35A6D" points="130.405,193.713 137.199,205.482 130.405,217.248 116.817,217.248 110.022,205.482 
				116.817,193.713 			"/>
			<polygon fill="#E35A6D" points="93.263,193.713 100.058,205.482 93.263,217.248 79.675,217.248 72.881,205.482 79.675,193.713 
							"/>
			<polygon fill="#E35A6D" points="56.121,193.713 62.915,205.482 56.121,217.248 42.533,217.248 35.738,205.482 42.533,193.713 			
				"/>
		</g>
		<g>
			<polygon fill="#FFFFFF" points="296.036,-90.641 291.232,-87.868 286.43,-90.641 286.43,-96.188 291.232,-98.962 
				296.036,-96.188 			"/>
			<polygon fill="#FFFFFF" points="258.894,-90.641 254.09,-87.868 249.288,-90.641 249.288,-96.188 254.09,-98.962 
				258.894,-96.188 			"/>
			<polygon fill="#FFFFFF" points="221.753,-90.641 216.947,-87.868 212.146,-90.641 212.146,-96.188 216.947,-98.962 
				221.753,-96.188 			"/>
			<polygon fill="#FFFFFF" points="184.61,-90.641 179.806,-87.868 175.004,-90.641 175.004,-96.188 179.806,-98.962 
				184.61,-96.188 			"/>
			<polygon fill="#FFFFFF" points="-1.101,-90.641 -5.904,-87.868 -10.706,-90.641 -10.706,-96.188 -5.904,-98.962 -1.101,-96.188 
							"/>
			<polygon fill="#FFFFFF" points="-38.243,-90.641 -43.046,-87.868 -47.849,-90.641 -47.849,-96.188 -43.046,-98.962 
				-38.243,-96.188 			"/>
			<polygon fill="#FFFFFF" points="-75.385,-90.641 -80.189,-87.868 -84.991,-90.641 -84.991,-96.188 -80.189,-98.962 
				-75.385,-96.188 			"/>
			<polygon fill="#FFFFFF" points="-112.527,-90.641 -117.331,-87.868 -122.133,-90.641 -122.133,-96.188 -117.331,-98.962 
				-112.527,-96.188 			"/>
			<polygon fill="#FFFFFF" points="147.468,-90.641 142.664,-87.868 137.863,-90.641 137.863,-96.188 142.664,-98.962 
				147.468,-96.188 			"/>
			<polygon fill="#FFFFFF" points="110.327,-90.641 105.523,-87.868 100.721,-90.641 100.721,-96.188 105.523,-98.962 
				110.327,-96.188 			"/>
			<polygon fill="#FFFFFF" points="73.184,-90.641 68.38,-87.868 63.578,-90.641 63.578,-96.188 68.38,-98.962 73.184,-96.188 			
				"/>
			<polygon fill="#FFFFFF" points="36.041,-90.641 31.238,-87.868 26.436,-90.641 26.436,-96.188 31.238,-98.962 36.041,-96.188 			
				"/>
		</g>
		<g>
			<polygon fill="#FFFFFF" points="314.705,-48.082 309.901,-45.309 305.1,-48.082 305.1,-53.629 309.901,-56.403 314.705,-53.629 
							"/>
			<polygon fill="#FFFFFF" points="277.563,-48.082 272.76,-45.309 267.957,-48.082 267.957,-53.629 272.76,-56.403 
				277.563,-53.629 			"/>
			<polygon fill="#FFFFFF" points="240.42,-48.082 235.617,-45.309 230.815,-48.082 230.815,-53.629 235.617,-56.403 
				240.42,-53.629 			"/>
			<polygon fill="#FFFFFF" points="203.279,-48.082 198.475,-45.309 193.673,-48.082 193.673,-53.629 198.475,-56.403 
				203.279,-53.629 			"/>
			<polygon fill="#FFFFFF" points="17.568,-48.082 12.765,-45.309 7.963,-48.082 7.963,-53.629 12.765,-56.403 17.568,-53.629 			
				"/>
			<polygon fill="#FFFFFF" points="-19.574,-48.082 -24.378,-45.309 -29.18,-48.082 -29.18,-53.629 -24.378,-56.403 
				-19.574,-53.629 			"/>
			<polygon fill="#FFFFFF" points="-56.716,-48.082 -61.521,-45.309 -66.322,-48.082 -66.322,-53.629 -61.521,-56.403 
				-56.716,-53.629 			"/>
			<polygon fill="#FFFFFF" points="-93.858,-48.082 -98.662,-45.309 -103.464,-48.082 -103.464,-53.629 -98.662,-56.403 
				-93.858,-53.629 			"/>
			<polygon fill="#FFFFFF" points="166.137,-48.082 161.332,-45.309 156.53,-48.082 156.53,-53.629 161.332,-56.403 
				166.137,-53.629 			"/>
			<polygon fill="#FFFFFF" points="128.994,-48.082 124.19,-45.309 119.389,-48.082 119.389,-53.629 124.19,-56.403 
				128.994,-53.629 			"/>
			<polygon fill="#FFFFFF" points="91.853,-48.082 87.048,-45.309 82.246,-48.082 82.246,-53.629 87.048,-56.403 91.853,-53.629 			
				"/>
			<polygon fill="#FFFFFF" points="54.711,-48.082 49.906,-45.309 45.104,-48.082 45.104,-53.629 49.906,-56.403 54.711,-53.629 			
				"/>
		</g>
		<g>
			<polygon fill="#FFFFFF" points="295.577,-5.196 290.772,-2.423 285.97,-5.196 285.97,-10.743 290.772,-13.516 295.577,-10.743 
							"/>
			<polygon fill="#FFFFFF" points="258.434,-5.196 253.63,-2.423 248.829,-5.196 248.829,-10.743 253.63,-13.516 258.434,-10.743 
							"/>
			<polygon fill="#FFFFFF" points="221.293,-5.196 216.489,-2.423 211.687,-5.196 211.687,-10.743 216.489,-13.516 221.293,-10.743 
							"/>
			<polygon fill="#FFFFFF" points="184.15,-5.196 179.347,-2.423 174.544,-5.196 174.544,-10.743 179.347,-13.516 184.15,-10.743 
							"/>
			<polygon fill="#FFFFFF" points="-1.56,-5.196 -6.365,-2.423 -11.167,-5.196 -11.167,-10.743 -6.365,-13.516 -1.56,-10.743 			"/>
			<polygon fill="#FFFFFF" points="-38.702,-5.196 -43.506,-2.423 -48.309,-5.196 -48.309,-10.743 -43.506,-13.516 -38.702,-10.743 
							"/>
			<polygon fill="#FFFFFF" points="-75.844,-5.196 -80.648,-2.423 -85.45,-5.196 -85.45,-10.743 -80.648,-13.516 -75.844,-10.743 
							"/>
			<polygon fill="#FFFFFF" points="-112.987,-5.196 -117.791,-2.423 -122.593,-5.196 -122.593,-10.743 -117.791,-13.516 
				-112.987,-10.743 			"/>
			<polygon fill="#FFFFFF" points="147.008,-5.196 142.204,-2.423 137.402,-5.196 137.402,-10.743 142.204,-13.516 147.008,-10.743 
							"/>
			<polygon fill="#FFFFFF" points="109.866,-5.196 105.062,-2.423 100.26,-5.196 100.26,-10.743 105.062,-13.516 109.866,-10.743 
							"/>
			<polygon fill="#FFFFFF" points="72.724,-5.196 67.92,-2.423 63.117,-5.196 63.117,-10.743 67.92,-13.516 72.724,-10.743 			"/>
			<polygon fill="#FFFFFF" points="35.582,-5.196 30.778,-2.423 25.975,-5.196 25.975,-10.743 30.778,-13.516 35.582,-10.743 			"/>
		</g>
		<polygon fill="#FFFFFF" points="314.245,37.364 309.44,40.137 304.64,37.364 304.64,31.816 309.44,29.043 314.245,31.816 		"/>
		<polygon fill="#FFFFFF" points="277.104,37.364 272.3,40.137 267.497,37.364 267.497,31.816 272.3,29.043 277.104,31.816 		"/>
		<polygon fill="#FFFFFF" points="239.961,37.364 235.156,40.137 230.354,37.364 230.354,31.816 235.156,29.043 239.961,31.816 		
			"/>
		<polygon fill="#FFFFFF" points="202.818,37.364 198.015,40.137 193.214,37.364 193.214,31.816 198.015,29.043 202.818,31.816 		
			"/>
		<polygon fill="#FFFFFF" points="17.108,37.364 12.304,40.137 7.502,37.364 7.502,31.816 12.304,29.043 17.108,31.816 		"/>
		<polygon fill="#FFFFFF" points="-20.034,37.364 -24.837,40.137 -29.64,37.364 -29.64,31.816 -24.837,29.043 -20.034,31.816 		"/>
		<polygon fill="#FFFFFF" points="-57.176,37.364 -61.98,40.137 -66.782,37.364 -66.782,31.816 -61.98,29.043 -57.176,31.816 		"/>
		<polygon fill="#FFFFFF" points="-94.318,37.364 -99.123,40.137 -103.924,37.364 -103.924,31.816 -99.123,29.043 -94.318,31.816 		
			"/>
		<polygon fill="#FFFFFF" points="165.678,37.364 160.874,40.137 156.071,37.364 156.071,31.816 160.874,29.043 165.678,31.816 		
			"/>
		<polygon fill="#FFFFFF" points="128.533,37.364 123.731,40.137 118.929,37.364 118.929,31.816 123.731,29.043 128.533,31.816 		
			"/>
		<polygon fill="#FFFFFF" points="91.393,37.364 86.589,40.137 81.787,37.364 81.787,31.816 86.589,29.043 91.393,31.816 		"/>
		<polygon fill="#FFFFFF" points="54.25,37.364 49.447,40.137 44.645,37.364 44.645,31.816 49.447,29.043 54.25,31.816 		"/>
		<g>
			<polygon fill="#FFFFFF" points="295.917,80.252 291.112,83.023 286.309,80.252 286.309,74.703 291.112,71.93 295.917,74.703 			
				"/>
			<polygon fill="#FFFFFF" points="258.772,80.252 253.969,83.023 249.168,80.252 249.168,74.703 253.969,71.93 258.772,74.703 			
				"/>
			<polygon fill="#FFFFFF" points="221.632,80.252 216.828,83.023 212.026,80.252 212.026,74.703 216.828,71.93 221.632,74.703 			
				"/>
			<polygon fill="#FFFFFF" points="184.49,80.252 179.686,83.023 174.883,80.252 174.883,74.703 179.686,71.93 184.49,74.703 			"/>
			<polygon fill="#FFFFFF" points="-1.221,80.252 -6.025,83.023 -10.828,80.252 -10.828,74.703 -6.025,71.93 -1.221,74.703 			"/>
			<polygon fill="#FFFFFF" points="-38.363,80.252 -43.167,83.023 -47.969,80.252 -47.969,74.703 -43.167,71.93 -38.363,74.703 			
				"/>
			<polygon fill="#FFFFFF" points="-75.505,80.252 -80.31,83.023 -85.111,80.252 -85.111,74.703 -80.31,71.93 -75.505,74.703 			"/>
			<polygon fill="#FFFFFF" points="-112.648,80.252 -117.451,83.023 -122.253,80.252 -122.253,74.703 -117.451,71.93 
				-112.648,74.703 			"/>
			<polygon fill="#FFFFFF" points="147.347,80.252 142.543,83.023 137.741,80.252 137.741,74.703 142.543,71.93 147.347,74.703 			
				"/>
			<polygon fill="#FFFFFF" points="110.206,80.252 105.401,83.023 100.6,80.252 100.6,74.703 105.401,71.93 110.206,74.703 			"/>
			<polygon fill="#FFFFFF" points="73.062,80.252 68.26,83.023 63.457,80.252 63.457,74.703 68.26,71.93 73.062,74.703 			"/>
			<polygon fill="#FFFFFF" points="35.92,80.252 31.117,83.023 26.315,80.252 26.315,74.703 31.117,71.93 35.92,74.703 			"/>
		</g>
		<g>
			<polygon fill="#FFFFFF" points="314.584,122.811 309.781,125.582 304.979,122.811 304.979,117.262 309.781,114.488 
				314.584,117.262 			"/>
			<polygon fill="#FFFFFF" points="277.442,122.811 272.639,125.582 267.836,122.811 267.836,117.262 272.639,114.488 
				277.442,117.262 			"/>
			<polygon fill="#FFFFFF" points="240.3,122.811 235.496,125.582 230.693,122.811 230.693,117.262 235.496,114.488 240.3,117.262 
							"/>
			<polygon fill="#FFFFFF" points="203.157,122.811 198.354,125.582 193.553,122.811 193.553,117.262 198.354,114.488 
				203.157,117.262 			"/>
			<polygon fill="#FFFFFF" points="17.447,122.811 12.644,125.582 7.841,122.811 7.841,117.262 12.644,114.488 17.447,117.262 			
				"/>
			<polygon fill="#FFFFFF" points="-19.695,122.811 -24.499,125.582 -29.3,122.811 -29.3,117.262 -24.499,114.488 -19.695,117.262 
							"/>
			<polygon fill="#FFFFFF" points="-56.837,122.811 -61.64,125.582 -66.443,122.811 -66.443,117.262 -61.64,114.488 
				-56.837,117.262 			"/>
			<polygon fill="#FFFFFF" points="-93.979,122.811 -98.783,125.582 -103.585,122.811 -103.585,117.262 -98.783,114.488 
				-93.979,117.262 			"/>
			<polygon fill="#FFFFFF" points="166.017,122.811 161.213,125.582 156.41,122.811 156.41,117.262 161.213,114.488 
				166.017,117.262 			"/>
			<polygon fill="#FFFFFF" points="128.874,122.811 124.07,125.582 119.268,122.811 119.268,117.262 124.07,114.488 
				128.874,117.262 			"/>
			<polygon fill="#FFFFFF" points="91.732,122.811 86.928,125.582 82.126,122.811 82.126,117.262 86.928,114.488 91.732,117.262 			
				"/>
			<polygon fill="#FFFFFF" points="54.59,122.811 49.786,125.582 44.983,122.811 44.983,117.262 49.786,114.488 54.59,117.262 			
				"/>
		</g>
		<g>
			<polygon fill="#FFFFFF" points="295.456,165.695 290.652,168.469 285.85,165.695 285.85,160.148 290.652,157.375 
				295.456,160.148 			"/>
			<polygon fill="#FFFFFF" points="258.313,165.695 253.51,168.469 248.707,165.695 248.707,160.148 253.51,157.375 
				258.313,160.148 			"/>
			<polygon fill="#FFFFFF" points="221.171,165.695 216.367,168.469 211.566,165.695 211.566,160.148 216.367,157.375 
				221.171,160.148 			"/>
			<polygon fill="#FFFFFF" points="184.03,165.695 179.227,168.469 174.424,165.695 174.424,160.148 179.227,157.375 
				184.03,160.148 			"/>
			<polygon fill="#FFFFFF" points="-1.681,165.695 -6.485,168.469 -11.287,165.695 -11.287,160.148 -6.485,157.375 -1.681,160.148 
							"/>
			<polygon fill="#FFFFFF" points="-38.823,165.695 -43.627,168.469 -48.429,165.695 -48.429,160.148 -43.627,157.375 
				-38.823,160.148 			"/>
			<polygon fill="#FFFFFF" points="-75.966,165.695 -80.769,168.469 -85.571,165.695 -85.571,160.148 -80.769,157.375 
				-75.966,160.148 			"/>
			<polygon fill="#FFFFFF" points="-113.107,165.695 -117.912,168.469 -122.713,165.695 -122.713,160.148 -117.912,157.375 
				-113.107,160.148 			"/>
			<polygon fill="#FFFFFF" points="146.887,165.695 142.084,168.469 137.281,165.695 137.281,160.148 142.084,157.375 
				146.887,160.148 			"/>
			<polygon fill="#FFFFFF" points="109.745,165.695 104.941,168.469 100.139,165.695 100.139,160.148 104.941,157.375 
				109.745,160.148 			"/>
			<polygon fill="#FFFFFF" points="72.604,165.695 67.799,168.469 62.997,165.695 62.997,160.148 67.799,157.375 72.604,160.148 			
				"/>
			<polygon fill="#FFFFFF" points="35.461,165.695 30.657,168.469 25.855,165.695 25.855,160.148 30.657,157.375 35.461,160.148 			
				"/>
		</g>
		<g>
			<polygon fill="#FFFFFF" points="314.125,208.256 309.319,211.027 304.519,208.256 304.519,202.707 309.319,199.936 
				314.125,202.707 			"/>
			<polygon fill="#FFFFFF" points="276.982,208.256 272.179,211.027 267.377,208.256 267.377,202.707 272.179,199.936 
				276.982,202.707 			"/>
			<polygon fill="#FFFFFF" points="239.841,208.256 235.036,211.027 230.234,208.256 230.234,202.707 235.036,199.936 
				239.841,202.707 			"/>
			<polygon fill="#FFFFFF" points="202.697,208.256 197.894,211.027 193.093,208.256 193.093,202.707 197.894,199.936 
				202.697,202.707 			"/>
			<polygon fill="#FFFFFF" points="16.988,208.256 12.184,211.027 7.381,208.256 7.381,202.707 12.184,199.936 16.988,202.707 			
				"/>
			<polygon fill="#FFFFFF" points="-20.154,208.256 -24.958,211.027 -29.761,208.256 -29.761,202.707 -24.958,199.936 
				-20.154,202.707 			"/>
			<polygon fill="#FFFFFF" points="-57.297,208.256 -62.101,211.027 -66.902,208.256 -66.902,202.707 -62.101,199.936 
				-57.297,202.707 			"/>
			<polygon fill="#FFFFFF" points="-94.439,208.256 -99.242,211.027 -104.044,208.256 -104.044,202.707 -99.242,199.936 
				-94.439,202.707 			"/>
			<polygon fill="#FFFFFF" points="165.557,208.256 160.752,211.027 155.951,208.256 155.951,202.707 160.752,199.936 
				165.557,202.707 			"/>
			<polygon fill="#FFFFFF" points="128.414,208.256 123.611,211.027 118.808,208.256 118.808,202.707 123.611,199.936 
				128.414,202.707 			"/>
			<polygon fill="#FFFFFF" points="91.271,208.256 86.468,211.027 81.666,208.256 81.666,202.707 86.468,199.936 91.271,202.707 			
				"/>
			<polygon fill="#FFFFFF" points="54.129,208.256 49.326,211.027 44.523,208.256 44.523,202.707 49.326,199.936 54.129,202.707 			
				"/>
		</g>
		<polygon fill="#D8D4C7" points="323.931,-113.375 307.931,-104.137 307.931,-82.694 323.931,-73.456 		"/>
		<polygon fill="#D8D4C7" points="323.931,-28.195 307.47,-18.692 307.47,2.753 323.931,12.256 		"/>
		<polygon fill="#D8D4C7" points="323.931,57.445 307.81,66.754 307.81,88.197 323.931,97.504 		"/>
		<polygon fill="#D8D4C7" points="323.931,142.627 307.351,152.199 307.351,173.643 323.931,183.217 		"/>
		<g>
			<polygon fill="#E35A6D" points="323.931,-105.184 319.707,-105.184 312.913,-93.414 319.707,-81.648 323.931,-81.648 			"/>
		</g>
		<g>
			<polygon fill="#E35A6D" points="323.931,-19.738 319.247,-19.738 312.453,-7.968 319.247,3.797 323.931,3.797 			"/>
		</g>
		<g>
			<polygon fill="#E35A6D" points="323.931,65.707 319.586,65.707 312.792,77.479 319.586,89.244 323.931,89.244 			"/>
		</g>
		<g>
			<polygon fill="#E35A6D" points="323.931,151.154 319.127,151.154 312.332,162.924 319.127,174.689 323.931,174.689 			"/>
		</g>
		<g>
			<polygon fill="#FFFFFF" points="323.931,-97.478 321.698,-96.188 321.698,-90.641 323.931,-89.352 			"/>
		</g>
		<polygon fill="#D8D4C7" points="323.931,-149.646 309.901,-157.746 291.33,-147.024 272.76,-157.746 254.189,-147.024 
			235.617,-157.746 217.047,-147.024 198.475,-157.746 179.904,-147.024 161.332,-157.746 142.764,-147.024 124.19,-157.746 
			105.619,-147.024 87.048,-157.746 68.479,-147.024 49.906,-157.746 31.336,-147.024 12.765,-157.746 -5.807,-147.024 
			-24.378,-157.746 -42.948,-147.024 -61.521,-157.746 -80.09,-147.024 -98.662,-157.746 -117.232,-147.024 -117.232,-125.581 
			-98.662,-114.859 -80.09,-125.581 -61.521,-114.859 -42.948,-125.581 -24.378,-114.859 -5.807,-125.581 12.765,-114.859 
			31.336,-125.581 49.906,-114.859 68.479,-125.581 87.048,-114.859 105.619,-125.581 124.19,-114.859 142.764,-125.581 
			161.332,-114.859 179.904,-125.581 198.475,-114.859 217.047,-125.581 235.617,-114.859 254.189,-125.581 272.76,-114.859 
			291.33,-125.581 309.901,-114.859 323.931,-122.958 		"/>
		<g>
			<polygon fill="#E35A6D" points="316.696,-148.071 323.491,-136.3 316.696,-124.534 303.108,-124.534 296.313,-136.3 
				303.108,-148.071 			"/>
			<polygon fill="#E35A6D" points="279.554,-148.071 286.349,-136.3 279.554,-124.534 265.966,-124.534 259.173,-136.3 
				265.966,-148.071 			"/>
			<polygon fill="#E35A6D" points="242.412,-148.071 249.206,-136.3 242.412,-124.534 228.825,-124.534 222.028,-136.3 
				228.825,-148.071 			"/>
			<polygon fill="#E35A6D" points="205.271,-148.071 212.065,-136.3 205.271,-124.534 191.682,-124.534 184.888,-136.3 
				191.682,-148.071 			"/>
			<polygon fill="#E35A6D" points="19.559,-148.071 26.354,-136.3 19.559,-124.534 5.971,-124.534 -0.824,-136.3 5.971,-148.071 			
				"/>
			<polygon fill="#E35A6D" points="-17.583,-148.071 -10.788,-136.3 -17.583,-124.534 -31.171,-124.534 -37.965,-136.3 
				-31.171,-148.071 			"/>
			<polygon fill="#E35A6D" points="-54.726,-148.071 -47.931,-136.3 -54.726,-124.534 -68.313,-124.534 -75.107,-136.3 
				-68.313,-148.071 			"/>
			<polygon fill="#E35A6D" points="-91.868,-148.071 -85.073,-136.3 -91.868,-124.534 -105.455,-124.534 -112.25,-136.3 
				-105.455,-148.071 			"/>
			<polygon fill="#E35A6D" points="168.128,-148.071 174.921,-136.3 168.128,-124.534 154.54,-124.534 147.745,-136.3 
				154.54,-148.071 			"/>
			<polygon fill="#E35A6D" points="130.985,-148.071 137.78,-136.3 130.985,-124.534 117.397,-124.534 110.603,-136.3 
				117.397,-148.071 			"/>
			<polygon fill="#E35A6D" points="93.843,-148.071 100.638,-136.3 93.843,-124.534 80.256,-124.534 73.461,-136.3 80.256,-148.071 
							"/>
			<polygon fill="#E35A6D" points="56.701,-148.071 63.495,-136.3 56.701,-124.534 43.113,-124.534 36.318,-136.3 43.113,-148.071 
							"/>
		</g>
		<g>
			<polygon fill="#FFFFFF" points="314.705,-133.527 309.901,-130.755 305.1,-133.527 305.1,-139.075 309.901,-141.849 
				314.705,-139.075 			"/>
			<polygon fill="#FFFFFF" points="277.563,-133.527 272.76,-130.755 267.957,-133.527 267.957,-139.075 272.76,-141.849 
				277.563,-139.075 			"/>
			<polygon fill="#FFFFFF" points="240.42,-133.527 235.617,-130.755 230.815,-133.527 230.815,-139.075 235.617,-141.849 
				240.42,-139.075 			"/>
			<polygon fill="#FFFFFF" points="203.279,-133.527 198.475,-130.755 193.673,-133.527 193.673,-139.075 198.475,-141.849 
				203.279,-139.075 			"/>
			<polygon fill="#FFFFFF" points="17.568,-133.527 12.765,-130.755 7.963,-133.527 7.963,-139.075 12.765,-141.849 
				17.568,-139.075 			"/>
			<polygon fill="#FFFFFF" points="-19.574,-133.527 -24.378,-130.755 -29.18,-133.527 -29.18,-139.075 -24.378,-141.849 
				-19.574,-139.075 			"/>
			<polygon fill="#FFFFFF" points="-56.716,-133.527 -61.521,-130.755 -66.322,-133.527 -66.322,-139.075 -61.521,-141.849 
				-56.716,-139.075 			"/>
			<polygon fill="#FFFFFF" points="-93.858,-133.527 -98.662,-130.755 -103.464,-133.527 -103.464,-139.075 -98.662,-141.849 
				-93.858,-139.075 			"/>
			<polygon fill="#FFFFFF" points="166.137,-133.527 161.332,-130.755 156.53,-133.527 156.53,-139.075 161.332,-141.849 
				166.137,-139.075 			"/>
			<polygon fill="#FFFFFF" points="128.994,-133.527 124.19,-130.755 119.389,-133.527 119.389,-139.075 124.19,-141.849 
				128.994,-139.075 			"/>
			<polygon fill="#FFFFFF" points="91.853,-133.527 87.048,-130.755 82.246,-133.527 82.246,-139.075 87.048,-141.849 
				91.853,-139.075 			"/>
			<polygon fill="#FFFFFF" points="54.711,-133.527 49.906,-130.755 45.104,-133.527 45.104,-139.075 49.906,-141.849 
				54.711,-139.075 			"/>
		</g>
		<g>
			<polygon fill="#FFFFFF" points="323.931,-12.298 321.239,-10.743 321.239,-5.196 323.931,-3.641 			"/>
		</g>
		<g>
			<polygon fill="#FFFFFF" points="323.931,73.346 321.578,74.703 321.578,80.252 323.931,81.609 			"/>
		</g>
		<g>
			<polygon fill="#FFFFFF" points="323.931,158.525 321.118,160.148 321.118,165.695 323.931,167.318 			"/>
		</g>
	</g>
</g>
</svg>
