<?xml version="1.0" encoding="utf-8"?>
<!-- Generator: Adobe Illustrator 16.0.0, SVG Export Plug-In . SVG Version: 6.00 Build 0)  -->
<!DOCTYPE svg PUBLIC "-//W3C//DTD SVG 1.1//EN" "http://www.w3.org/Graphics/SVG/1.1/DTD/svg11.dtd">
<svg version="1.1" id="Layer_1" xmlns="http://www.w3.org/2000/svg" xmlns:xlink="http://www.w3.org/1999/xlink" x="0px" y="0px"
	 width="39.333px" height="36.333px" viewBox="0 0 39.333 36.333" enable-background="new 0 0 39.333 36.333" xml:space="preserve">
<g>
	<rect x="-3.149" y="-2.785" fill="#FAA75B" width="45.632" height="40.903"/>
	<g>
		<g>
			<path fill="#FFFFFF" d="M21.252,18.167c0,0.862-0.696,1.559-1.557,1.559c-0.864,0-1.561-0.697-1.561-1.559
				c0-0.858,0.696-1.557,1.561-1.557C20.556,16.61,21.252,17.309,21.252,18.167z"/>
		</g>
		<g>
			<g>
				<rect x="18.96" y="10.628" fill="#FFFFFF" width="1.467" height="4.352"/>
			</g>
			<g>
				<rect x="18.96" y="21.35" fill="#FFFFFF" width="1.467" height="4.354"/>
			</g>
			<g>
				
					<rect x="13.009" y="14.937" transform="matrix(0.9057 0.4238 -0.4238 0.9057 8.0725 -4.959)" fill="#FFFFFF" width="4.353" height="1.467"/>
			</g>
			<g>
				
					<rect x="14.452" y="18.191" transform="matrix(0.3411 0.94 -0.94 0.3411 29.153 -0.8532)" fill="#FFFFFF" width="1.466" height="4.357"/>
			</g>
			<g>
				
					<rect x="21.827" y="19.452" transform="matrix(0.9053 0.4249 -0.4249 0.9053 10.8504 -8.2856)" fill="#FFFFFF" width="4.352" height="1.467"/>
			</g>
			<g>
				
					<rect x="23.27" y="13.312" transform="matrix(0.3407 0.9402 -0.9402 0.3407 30.3876 -12.3559)" fill="#FFFFFF" width="1.468" height="4.351"/>
			</g>
		</g>
		<g>
			<g>
				<rect x="19.171" y="-5.268" fill="#BBE4ED" width="1.468" height="13.533"/>
			</g>
			<g>
				<rect x="19.171" y="28.07" fill="#BBE4ED" width="1.468" height="13.531"/>
			</g>
			<g>
				
					<rect x="-0.88" y="9.678" transform="matrix(0.9054 0.4245 -0.4245 0.9054 4.9753 -1.5138)" fill="#BBE4ED" width="13.532" height="1.466"/>
			</g>
			<g>
				
					<rect x="5.15" y="18.249" transform="matrix(0.3412 0.94 -0.94 0.3412 27.3935 10.9518)" fill="#BBE4ED" width="1.467" height="13.538"/>
			</g>
			<g>
				
					<rect x="26.533" y="23.715" transform="matrix(0.9054 0.4246 -0.4246 0.9054 13.5313 -11.8258)" fill="#BBE4ED" width="13.534" height="1.468"/>
			</g>
			<g>
				
					<rect x="32.569" y="3.077" transform="matrix(0.3398 0.9405 -0.9405 0.3398 31.2442 -24.822)" fill="#BBE4ED" width="1.467" height="13.534"/>
			</g>
		</g>
	</g>
</g>
</svg>
