<?xml version="1.0" encoding="utf-8"?>
<!-- Generator: Adobe Illustrator 16.0.0, SVG Export Plug-In . SVG Version: 6.00 Build 0)  -->
<!DOCTYPE svg PUBLIC "-//W3C//DTD SVG 1.1//EN" "http://www.w3.org/Graphics/SVG/1.1/DTD/svg11.dtd">
<svg version="1.1" id="Layer_1" xmlns="http://www.w3.org/2000/svg" xmlns:xlink="http://www.w3.org/1999/xlink" x="0px" y="0px"
	 width="19.917px" height="24.583px" viewBox="0 0 19.917 24.583" enable-background="new 0 0 19.917 24.583" xml:space="preserve">
<g>
	<rect x="-254.053" y="-163.938" fill="#63B5BB" width="289.499" height="219.089"/>
	<polygon fill="#D8D4C7" points="-10.44,-139.624 -20.969,-133.545 -31.498,-139.624 -42.025,-133.545 -52.555,-139.624 
		-63.082,-133.545 -73.611,-139.624 -84.139,-133.545 -94.668,-139.624 -105.195,-133.545 -115.725,-139.624 -126.252,-133.545 
		-136.781,-139.624 -147.31,-133.545 -157.838,-139.624 -168.366,-133.545 -178.895,-139.624 -189.423,-133.545 -199.951,-139.624 
		-210.48,-133.545 -221.009,-139.624 -231.537,-133.545 -242.065,-139.624 -252.594,-133.545 -252.594,-121.389 -242.065,-115.31 
		-231.537,-121.389 -221.009,-115.31 -210.48,-121.389 -199.951,-115.31 -189.423,-121.389 -178.895,-115.31 -168.366,-121.389 
		-157.838,-115.31 -147.31,-121.389 -136.781,-115.31 -126.252,-121.389 -115.725,-115.31 -105.195,-121.389 -94.668,-115.31 
		-84.139,-121.389 -73.611,-115.31 -63.082,-121.389 -52.555,-115.31 -42.025,-121.389 -31.498,-115.31 -20.969,-121.389 
		-10.44,-115.31 0.089,-121.389 0.089,-133.545 	"/>
	<polygon fill="#D8D4C7" points="0.143,-115.496 -10.385,-109.417 -20.914,-115.496 -31.441,-109.417 -41.971,-115.496 
		-52.498,-109.417 -63.027,-115.496 -73.555,-109.417 -84.084,-115.496 -94.611,-109.417 -105.141,-115.496 -115.669,-109.417 
		-126.197,-115.496 -136.726,-109.417 -147.254,-115.496 -157.782,-109.417 -168.311,-115.496 -178.84,-109.417 -189.368,-115.496 
		-199.896,-109.417 -210.426,-115.496 -220.953,-109.417 -231.482,-115.496 -242.01,-109.417 -242.01,-97.261 -231.482,-91.183 
		-220.953,-97.261 -210.426,-91.183 -199.896,-97.261 -189.368,-91.183 -178.84,-97.261 -168.311,-91.183 -157.782,-97.261 
		-147.254,-91.183 -136.726,-97.261 -126.197,-91.183 -115.669,-97.261 -105.141,-91.183 -94.611,-97.261 -84.084,-91.183 
		-73.555,-97.261 -63.027,-91.183 -52.498,-97.261 -41.971,-91.183 -31.441,-97.261 -20.914,-91.183 -10.385,-97.261 0.143,-91.183 
		10.672,-97.261 10.672,-109.417 	"/>
	<polygon fill="#D8D4C7" points="-10.701,-91.183 -21.229,-85.104 -31.758,-91.183 -42.285,-85.104 -52.814,-91.183 
		-63.343,-85.104 -73.871,-91.183 -84.399,-85.104 -94.928,-91.183 -105.457,-85.104 -115.984,-91.183 -126.514,-85.104 
		-137.042,-91.183 -147.57,-85.104 -158.1,-91.183 -168.627,-85.104 -179.156,-91.183 -189.684,-85.104 -200.213,-91.183 
		-210.74,-85.104 -221.27,-91.183 -231.797,-85.104 -242.326,-91.183 -252.854,-85.104 -252.854,-72.946 -242.326,-66.868 
		-231.797,-72.946 -221.27,-66.868 -210.74,-72.946 -200.213,-66.868 -189.684,-72.946 -179.156,-66.868 -168.627,-72.946 
		-158.1,-66.868 -147.57,-72.946 -137.042,-66.868 -126.514,-72.946 -115.984,-66.868 -105.457,-72.946 -94.928,-66.868 
		-84.399,-72.946 -73.871,-66.868 -63.343,-72.946 -52.814,-66.868 -42.285,-72.946 -31.758,-66.868 -21.229,-72.946 
		-10.701,-66.868 -0.172,-72.946 -0.172,-85.104 	"/>
	<polygon fill="#D8D4C7" points="-0.117,-67.055 -10.646,-60.976 -21.174,-67.055 -31.702,-60.976 -42.231,-67.055 -52.76,-60.976 
		-63.288,-67.055 -73.816,-60.976 -84.345,-67.055 -94.873,-60.976 -105.401,-67.055 -115.93,-60.976 -126.459,-67.055 
		-136.986,-60.976 -147.516,-67.055 -158.043,-60.976 -168.572,-67.055 -179.1,-60.976 -189.629,-67.055 -200.156,-60.976 
		-210.686,-67.055 -221.213,-60.976 -231.742,-67.055 -242.271,-60.976 -242.271,-48.819 -231.742,-42.741 -221.213,-48.819 
		-210.686,-42.741 -200.156,-48.819 -189.629,-42.741 -179.1,-48.819 -168.572,-42.741 -158.043,-48.819 -147.516,-42.741 
		-136.986,-48.819 -126.459,-42.741 -115.93,-48.819 -105.401,-42.741 -94.873,-48.819 -84.345,-42.741 -73.816,-48.819 
		-63.288,-42.741 -52.76,-48.819 -42.231,-42.741 -31.702,-48.819 -21.174,-42.741 -10.646,-48.819 -0.117,-42.741 10.412,-48.819 
		10.412,-60.976 	"/>
	<polygon fill="#D8D4C7" points="-10.509,-42.741 -21.037,-36.663 -31.566,-42.741 -42.094,-36.663 -52.623,-42.741 -63.15,-36.663 
		-73.68,-42.741 -84.207,-36.663 -94.736,-42.741 -105.264,-36.663 -115.793,-42.741 -126.32,-36.663 -136.85,-42.741 
		-147.378,-36.663 -157.906,-42.741 -168.435,-36.663 -178.963,-42.741 -189.491,-36.663 -200.021,-42.741 -210.549,-36.663 
		-221.077,-42.741 -231.605,-36.663 -242.134,-42.741 -252.662,-36.663 -252.662,-24.506 -242.134,-18.428 -231.605,-24.506 
		-221.077,-18.428 -210.549,-24.506 -200.021,-18.428 -189.491,-24.506 -178.963,-18.428 -168.435,-24.506 -157.906,-18.428 
		-147.378,-24.506 -136.85,-18.428 -126.32,-24.506 -115.793,-18.428 -105.264,-24.506 -94.736,-18.428 -84.207,-24.506 
		-73.68,-18.428 -63.15,-24.506 -52.623,-18.428 -42.094,-24.506 -31.566,-18.428 -21.037,-24.506 -10.509,-18.428 0.02,-24.506 
		0.02,-36.663 	"/>
	<polygon fill="#D8D4C7" points="0.075,-18.613 -10.453,-12.535 -20.982,-18.613 -31.51,-12.535 -42.039,-18.613 -52.566,-12.535 
		-63.096,-18.613 -73.623,-12.535 -84.152,-18.613 -94.68,-12.535 -105.209,-18.613 -115.737,-12.535 -126.266,-18.613 
		-136.795,-12.535 -147.322,-18.613 -157.852,-12.535 -168.38,-18.613 -178.908,-12.535 -189.437,-18.613 -199.965,-12.535 
		-210.493,-18.613 -221.021,-12.535 -231.551,-18.613 -242.078,-12.535 -242.078,-0.378 -231.551,5.7 -221.021,-0.378 -210.493,5.7 
		-199.965,-0.378 -189.437,5.7 -178.908,-0.378 -168.38,5.7 -157.852,-0.378 -147.322,5.7 -136.795,-0.378 -126.266,5.7 
		-115.737,-0.378 -105.209,5.7 -94.68,-0.378 -84.152,5.7 -73.623,-0.378 -63.096,5.7 -52.566,-0.378 -42.039,5.7 -31.51,-0.378 
		-20.982,5.7 -10.453,-0.378 0.075,5.7 10.604,-0.378 10.604,-12.535 	"/>
	<polygon fill="#D8D4C7" points="-10.77,5.7 -21.297,11.779 -31.826,5.7 -42.354,11.779 -52.883,5.7 -63.41,11.779 -73.939,5.7 
		-84.469,11.779 -94.996,5.7 -105.525,11.779 -116.054,5.7 -126.582,11.779 -137.111,5.7 -147.639,11.779 -158.168,5.7 
		-168.695,11.779 -179.225,5.7 -189.752,11.779 -200.281,5.7 -210.809,11.779 -221.338,5.7 -231.865,11.779 -242.395,5.7 
		-252.922,11.779 -252.922,23.936 -242.395,30.015 -231.865,23.936 -221.338,30.015 -210.809,23.936 -200.281,30.015 
		-189.752,23.936 -179.225,30.015 -168.695,23.936 -158.168,30.015 -147.639,23.936 -137.111,30.015 -126.582,23.936 
		-116.054,30.015 -105.525,23.936 -94.996,30.015 -84.469,23.936 -73.939,30.015 -63.41,23.936 -52.883,30.015 -42.354,23.936 
		-31.826,30.015 -21.297,23.936 -10.77,30.015 -0.24,23.936 -0.24,11.779 	"/>
	<polygon fill="#D8D4C7" points="-0.186,29.828 -10.714,35.907 -21.242,29.828 -31.771,35.907 -42.3,29.828 -52.828,35.907 
		-63.356,29.828 -73.885,35.907 -84.413,29.828 -94.941,35.907 -105.47,29.828 -115.998,35.907 -126.527,29.828 -137.055,35.907 
		-147.584,29.828 -158.111,35.907 -168.641,29.828 -179.168,35.907 -189.697,29.828 -200.225,35.907 -210.754,29.828 
		-221.281,35.907 -231.811,29.828 -242.34,35.907 -242.34,48.063 -231.811,54.142 -221.281,48.063 -210.754,54.142 -200.225,48.063 
		-189.697,54.142 -179.168,48.063 -168.641,54.142 -158.111,48.063 -147.584,54.142 -137.055,48.063 -126.527,54.142 
		-115.998,48.063 -105.47,54.142 -94.941,48.063 -84.413,54.142 -73.885,48.063 -63.356,54.142 -52.828,48.063 -42.3,54.142 
		-31.771,48.063 -21.242,54.142 -10.714,48.063 -0.186,54.142 10.343,48.063 10.343,35.907 	"/>
	<g>
		<polygon fill="#E35A6D" points="-6.588,-134.139 -2.736,-127.466 -6.588,-120.795 -14.291,-120.795 -18.144,-127.466 
			-14.291,-134.139 		"/>
		<polygon fill="#E35A6D" points="-27.645,-134.139 -23.793,-127.466 -27.645,-120.795 -35.348,-120.795 -39.201,-127.466 
			-35.348,-134.139 		"/>
		<polygon fill="#E35A6D" points="-48.702,-134.139 -44.85,-127.466 -48.702,-120.795 -56.405,-120.795 -60.258,-127.466 
			-56.405,-134.139 		"/>
		<polygon fill="#E35A6D" points="-69.759,-134.139 -65.906,-127.466 -69.759,-120.795 -77.462,-120.795 -81.314,-127.466 
			-77.462,-134.139 		"/>
		<polygon fill="#E35A6D" points="-175.043,-134.139 -171.191,-127.466 -175.043,-120.795 -182.746,-120.795 -186.598,-127.466 
			-182.746,-134.139 		"/>
		<polygon fill="#E35A6D" points="-196.1,-134.139 -192.248,-127.466 -196.1,-120.795 -203.803,-120.795 -207.654,-127.466 
			-203.803,-134.139 		"/>
		<polygon fill="#E35A6D" points="-217.156,-134.139 -213.305,-127.466 -217.156,-120.795 -224.859,-120.795 -228.712,-127.466 
			-224.859,-134.139 		"/>
		<polygon fill="#E35A6D" points="-238.213,-134.139 -234.361,-127.466 -238.213,-120.795 -245.916,-120.795 -249.769,-127.466 
			-245.916,-134.139 		"/>
		<polygon fill="#E35A6D" points="-90.816,-134.139 -86.963,-127.466 -90.816,-120.795 -98.52,-120.795 -102.371,-127.466 
			-98.52,-134.139 		"/>
		<polygon fill="#E35A6D" points="-111.873,-134.139 -108.021,-127.466 -111.873,-120.795 -119.576,-120.795 -123.428,-127.466 
			-119.576,-134.139 		"/>
		<polygon fill="#E35A6D" points="-132.93,-134.139 -129.077,-127.466 -132.93,-120.795 -140.633,-120.795 -144.484,-127.466 
			-140.633,-134.139 		"/>
		<polygon fill="#E35A6D" points="-153.986,-134.139 -150.135,-127.466 -153.986,-120.795 -161.689,-120.795 -165.541,-127.466 
			-161.689,-134.139 		"/>
	</g>
	<g>
		<polygon fill="#E35A6D" points="3.996,-110.011 7.848,-103.338 3.996,-96.667 -3.707,-96.667 -7.56,-103.338 -3.707,-110.011 		
			"/>
		<polygon fill="#E35A6D" points="-17.062,-110.011 -13.209,-103.338 -17.062,-96.667 -24.765,-96.667 -28.617,-103.338 
			-24.765,-110.011 		"/>
		<polygon fill="#E35A6D" points="-38.118,-110.011 -34.266,-103.338 -38.118,-96.667 -45.821,-96.667 -49.674,-103.338 
			-45.821,-110.011 		"/>
		<polygon fill="#E35A6D" points="-59.175,-110.011 -55.322,-103.338 -59.175,-96.667 -66.879,-96.667 -70.73,-103.338 
			-66.879,-110.011 		"/>
		<polygon fill="#E35A6D" points="-164.459,-110.011 -160.607,-103.338 -164.459,-96.667 -172.162,-96.667 -176.015,-103.338 
			-172.162,-110.011 		"/>
		<polygon fill="#E35A6D" points="-185.516,-110.011 -181.664,-103.338 -185.516,-96.667 -193.219,-96.667 -197.071,-103.338 
			-193.219,-110.011 		"/>
		<polygon fill="#E35A6D" points="-206.573,-110.011 -202.721,-103.338 -206.573,-96.667 -214.275,-96.667 -218.128,-103.338 
			-214.275,-110.011 		"/>
		<polygon fill="#E35A6D" points="-227.63,-110.011 -223.777,-103.338 -227.63,-96.667 -235.332,-96.667 -239.186,-103.338 
			-235.332,-110.011 		"/>
		<polygon fill="#E35A6D" points="-80.232,-110.011 -76.38,-103.338 -80.232,-96.667 -87.936,-96.667 -91.787,-103.338 
			-87.936,-110.011 		"/>
		<polygon fill="#E35A6D" points="-101.289,-110.011 -97.437,-103.338 -101.289,-96.667 -108.992,-96.667 -112.844,-103.338 
			-108.992,-110.011 		"/>
		<polygon fill="#E35A6D" points="-122.346,-110.011 -118.494,-103.338 -122.346,-96.667 -130.049,-96.667 -133.9,-103.338 
			-130.049,-110.011 		"/>
		<polygon fill="#E35A6D" points="-143.402,-110.011 -139.551,-103.338 -143.402,-96.667 -151.105,-96.667 -154.958,-103.338 
			-151.105,-110.011 		"/>
	</g>
	<g>
		<polygon fill="#E35A6D" points="-6.85,-85.697 -2.997,-79.024 -6.85,-72.354 -14.553,-72.354 -18.404,-79.024 -14.553,-85.697 		
			"/>
		<polygon fill="#E35A6D" points="-27.906,-85.697 -24.054,-79.024 -27.906,-72.354 -35.609,-72.354 -39.461,-79.024 
			-35.609,-85.697 		"/>
		<polygon fill="#E35A6D" points="-48.963,-85.697 -45.111,-79.024 -48.963,-72.354 -56.666,-72.354 -60.518,-79.024 
			-56.666,-85.697 		"/>
		<polygon fill="#E35A6D" points="-70.02,-85.697 -66.168,-79.024 -70.02,-72.354 -77.723,-72.354 -81.574,-79.024 -77.723,-85.697 
					"/>
		<polygon fill="#E35A6D" points="-175.304,-85.697 -171.451,-79.024 -175.304,-72.354 -183.007,-72.354 -186.859,-79.024 
			-183.007,-85.697 		"/>
		<polygon fill="#E35A6D" points="-196.361,-85.697 -192.508,-79.024 -196.361,-72.354 -204.064,-72.354 -207.916,-79.024 
			-204.064,-85.697 		"/>
		<polygon fill="#E35A6D" points="-217.418,-85.697 -213.565,-79.024 -217.418,-72.354 -225.121,-72.354 -228.973,-79.024 
			-225.121,-85.697 		"/>
		<polygon fill="#E35A6D" points="-238.475,-85.697 -234.622,-79.024 -238.475,-72.354 -246.178,-72.354 -250.029,-79.024 
			-246.178,-85.697 		"/>
		<polygon fill="#E35A6D" points="-91.076,-85.697 -87.225,-79.024 -91.076,-72.354 -98.779,-72.354 -102.632,-79.024 
			-98.779,-85.697 		"/>
		<polygon fill="#E35A6D" points="-112.133,-85.697 -108.281,-79.024 -112.133,-72.354 -119.836,-72.354 -123.688,-79.024 
			-119.836,-85.697 		"/>
		<polygon fill="#E35A6D" points="-133.189,-85.697 -129.338,-79.024 -133.189,-72.354 -140.893,-72.354 -144.745,-79.024 
			-140.893,-85.697 		"/>
		<polygon fill="#E35A6D" points="-154.246,-85.697 -150.395,-79.024 -154.246,-72.354 -161.949,-72.354 -165.803,-79.024 
			-161.949,-85.697 		"/>
	</g>
	<g>
		<polygon fill="#E35A6D" points="3.734,-61.569 7.587,-54.896 3.734,-48.226 -3.969,-48.226 -7.82,-54.896 -3.969,-61.569 		"/>
		<polygon fill="#E35A6D" points="-17.322,-61.569 -13.471,-54.896 -17.322,-48.226 -25.025,-48.226 -28.877,-54.896 
			-25.025,-61.569 		"/>
		<polygon fill="#E35A6D" points="-38.379,-61.569 -34.527,-54.896 -38.379,-48.226 -46.082,-48.226 -49.934,-54.896 
			-46.082,-61.569 		"/>
		<polygon fill="#E35A6D" points="-59.436,-61.569 -55.584,-54.896 -59.436,-48.226 -67.139,-48.226 -70.991,-54.896 
			-67.139,-61.569 		"/>
		<polygon fill="#E35A6D" points="-164.721,-61.569 -160.868,-54.896 -164.721,-48.226 -172.424,-48.226 -176.275,-54.896 
			-172.424,-61.569 		"/>
		<polygon fill="#E35A6D" points="-185.777,-61.569 -181.925,-54.896 -185.777,-48.226 -193.48,-48.226 -197.332,-54.896 
			-193.48,-61.569 		"/>
		<polygon fill="#E35A6D" points="-206.834,-61.569 -202.981,-54.896 -206.834,-48.226 -214.537,-48.226 -218.389,-54.896 
			-214.537,-61.569 		"/>
		<polygon fill="#E35A6D" points="-227.891,-61.569 -224.038,-54.896 -227.891,-48.226 -235.594,-48.226 -239.445,-54.896 
			-235.594,-61.569 		"/>
		<polygon fill="#E35A6D" points="-80.492,-61.569 -76.641,-54.896 -80.492,-48.226 -88.195,-48.226 -92.048,-54.896 
			-88.195,-61.569 		"/>
		<polygon fill="#E35A6D" points="-101.549,-61.569 -97.697,-54.896 -101.549,-48.226 -109.252,-48.226 -113.104,-54.896 
			-109.252,-61.569 		"/>
		<polygon fill="#E35A6D" points="-122.605,-61.569 -118.754,-54.896 -122.605,-48.226 -130.31,-48.226 -134.162,-54.896 
			-130.31,-61.569 		"/>
		<polygon fill="#E35A6D" points="-143.663,-61.569 -139.811,-54.896 -143.663,-48.226 -151.366,-48.226 -155.219,-54.896 
			-151.366,-61.569 		"/>
	</g>
	<g>
		<polygon fill="#E35A6D" points="-6.656,-37.256 -2.805,-30.583 -6.656,-23.912 -14.359,-23.912 -18.212,-30.583 -14.359,-37.256 
					"/>
		<polygon fill="#E35A6D" points="-27.713,-37.256 -23.861,-30.583 -27.713,-23.912 -35.416,-23.912 -39.27,-30.583 
			-35.416,-37.256 		"/>
		<polygon fill="#E35A6D" points="-48.771,-37.256 -44.918,-30.583 -48.771,-23.912 -56.474,-23.912 -60.326,-30.583 
			-56.474,-37.256 		"/>
		<polygon fill="#E35A6D" points="-69.827,-37.256 -65.975,-30.583 -69.827,-23.912 -77.531,-23.912 -81.383,-30.583 
			-77.531,-37.256 		"/>
		<polygon fill="#E35A6D" points="-175.111,-37.256 -171.26,-30.583 -175.111,-23.912 -182.814,-23.912 -186.666,-30.583 
			-182.814,-37.256 		"/>
		<polygon fill="#E35A6D" points="-196.168,-37.256 -192.316,-30.583 -196.168,-23.912 -203.871,-23.912 -207.724,-30.583 
			-203.871,-37.256 		"/>
		<polygon fill="#E35A6D" points="-217.225,-37.256 -213.373,-30.583 -217.225,-23.912 -224.928,-23.912 -228.781,-30.583 
			-224.928,-37.256 		"/>
		<polygon fill="#E35A6D" points="-238.281,-37.256 -234.43,-30.583 -238.281,-23.912 -245.985,-23.912 -249.838,-30.583 
			-245.985,-37.256 		"/>
		<polygon fill="#E35A6D" points="-90.885,-37.256 -87.031,-30.583 -90.885,-23.912 -98.588,-23.912 -102.439,-30.583 
			-98.588,-37.256 		"/>
		<polygon fill="#E35A6D" points="-111.941,-37.256 -108.089,-30.583 -111.941,-23.912 -119.645,-23.912 -123.496,-30.583 
			-119.645,-37.256 		"/>
		<polygon fill="#E35A6D" points="-132.998,-37.256 -129.146,-30.583 -132.998,-23.912 -140.701,-23.912 -144.553,-30.583 
			-140.701,-37.256 		"/>
		<polygon fill="#E35A6D" points="-154.055,-37.256 -150.203,-30.583 -154.055,-23.912 -161.758,-23.912 -165.609,-30.583 
			-161.758,-37.256 		"/>
	</g>
	<g>
		<polygon fill="#E35A6D" points="4.053,-14.94 7.904,-8.268 4.053,-1.597 -3.651,-1.597 -7.504,-8.268 -3.651,-14.94 		"/>
		<polygon fill="#E35A6D" points="-17.004,-14.94 -13.152,-8.268 -17.004,-1.597 -24.708,-1.597 -28.561,-8.268 -24.708,-14.94 		
			"/>
		<polygon fill="#E35A6D" points="-38.062,-14.94 -34.209,-8.268 -38.062,-1.597 -45.765,-1.597 -49.617,-8.268 -45.765,-14.94 		
			"/>
		<polygon fill="#E35A6D" points="-59.119,-14.94 -55.267,-8.268 -59.119,-1.597 -66.822,-1.597 -70.674,-8.268 -66.822,-14.94 		
			"/>
		<polygon fill="#E35A6D" points="-164.402,-14.94 -160.551,-8.268 -164.402,-1.597 -172.105,-1.597 -175.958,-8.268 
			-172.105,-14.94 		"/>
		<polygon fill="#E35A6D" points="-185.459,-14.94 -181.607,-8.268 -185.459,-1.597 -193.162,-1.597 -197.015,-8.268 
			-193.162,-14.94 		"/>
		<polygon fill="#E35A6D" points="-206.516,-14.94 -202.664,-8.268 -206.516,-1.597 -214.219,-1.597 -218.071,-8.268 
			-214.219,-14.94 		"/>
		<polygon fill="#E35A6D" points="-227.573,-14.94 -223.721,-8.268 -227.573,-1.597 -235.275,-1.597 -239.129,-8.268 
			-235.275,-14.94 		"/>
		<polygon fill="#E35A6D" points="-80.176,-14.94 -76.323,-8.268 -80.176,-1.597 -87.879,-1.597 -91.73,-8.268 -87.879,-14.94 		"/>
		<polygon fill="#E35A6D" points="-101.232,-14.94 -97.38,-8.268 -101.232,-1.597 -108.936,-1.597 -112.787,-8.268 -108.936,-14.94 
					"/>
		<polygon fill="#E35A6D" points="-122.289,-14.94 -118.438,-8.268 -122.289,-1.597 -129.992,-1.597 -133.844,-8.268 
			-129.992,-14.94 		"/>
		<polygon fill="#E35A6D" points="-143.346,-14.94 -139.494,-8.268 -143.346,-1.597 -151.049,-1.597 -154.9,-8.268 -151.049,-14.94 
					"/>
	</g>
	<g>
		<polygon fill="#E35A6D" points="-6.918,11.186 -3.065,17.858 -6.918,24.529 -14.621,24.529 -18.473,17.858 -14.621,11.186 		"/>
		<polygon fill="#E35A6D" points="-27.975,11.186 -24.123,17.858 -27.975,24.529 -35.678,24.529 -39.529,17.858 -35.678,11.186 		
			"/>
		<polygon fill="#E35A6D" points="-49.031,11.186 -45.18,17.858 -49.031,24.529 -56.734,24.529 -60.586,17.858 -56.734,11.186 		"/>
		<polygon fill="#E35A6D" points="-70.088,11.186 -66.236,17.858 -70.088,24.529 -77.791,24.529 -81.643,17.858 -77.791,11.186 		
			"/>
		<polygon fill="#E35A6D" points="-175.372,11.186 -171.52,17.858 -175.372,24.529 -183.076,24.529 -186.928,17.858 
			-183.076,11.186 		"/>
		<polygon fill="#E35A6D" points="-196.43,11.186 -192.576,17.858 -196.43,24.529 -204.133,24.529 -207.984,17.858 -204.133,11.186 
					"/>
		<polygon fill="#E35A6D" points="-217.486,11.186 -213.634,17.858 -217.486,24.529 -225.189,24.529 -229.041,17.858 
			-225.189,11.186 		"/>
		<polygon fill="#E35A6D" points="-238.543,11.186 -234.691,17.858 -238.543,24.529 -246.246,24.529 -250.098,17.858 
			-246.246,11.186 		"/>
		<polygon fill="#E35A6D" points="-91.145,11.186 -87.293,17.858 -91.145,24.529 -98.848,24.529 -102.7,17.858 -98.848,11.186 		"/>
		<polygon fill="#E35A6D" points="-112.201,11.186 -108.35,17.858 -112.201,24.529 -119.904,24.529 -123.757,17.858 
			-119.904,11.186 		"/>
		<polygon fill="#E35A6D" points="-133.258,11.186 -129.406,17.858 -133.258,24.529 -140.961,24.529 -144.814,17.858 
			-140.961,11.186 		"/>
		<polygon fill="#E35A6D" points="-154.315,11.186 -150.463,17.858 -154.315,24.529 -162.019,24.529 -165.871,17.858 
			-162.019,11.186 		"/>
	</g>
	<g>
		<polygon fill="#E35A6D" points="3.666,35.313 7.519,41.986 3.666,48.657 -4.037,48.657 -7.889,41.986 -4.037,35.313 		"/>
		<polygon fill="#E35A6D" points="-17.391,35.313 -13.539,41.986 -17.391,48.657 -25.094,48.657 -28.945,41.986 -25.094,35.313 		
			"/>
		<polygon fill="#E35A6D" points="-38.447,35.313 -34.596,41.986 -38.447,48.657 -46.15,48.657 -50.002,41.986 -46.15,35.313 		"/>
		<polygon fill="#E35A6D" points="-59.504,35.313 -55.652,41.986 -59.504,48.657 -67.207,48.657 -71.059,41.986 -67.207,35.313 		
			"/>
		<polygon fill="#E35A6D" points="-164.789,35.313 -160.936,41.986 -164.789,48.657 -172.492,48.657 -176.344,41.986 
			-172.492,35.313 		"/>
		<polygon fill="#E35A6D" points="-185.846,35.313 -181.993,41.986 -185.846,48.657 -193.549,48.657 -197.4,41.986 -193.549,35.313 
					"/>
		<polygon fill="#E35A6D" points="-206.902,35.313 -203.05,41.986 -206.902,48.657 -214.605,48.657 -218.457,41.986 
			-214.605,35.313 		"/>
		<polygon fill="#E35A6D" points="-227.959,35.313 -224.107,41.986 -227.959,48.657 -235.662,48.657 -239.514,41.986 
			-235.662,35.313 		"/>
		<polygon fill="#E35A6D" points="-80.561,35.313 -76.709,41.986 -80.561,48.657 -88.264,48.657 -92.117,41.986 -88.264,35.313 		
			"/>
		<polygon fill="#E35A6D" points="-101.617,35.313 -97.766,41.986 -101.617,48.657 -109.321,48.657 -113.174,41.986 
			-109.321,35.313 		"/>
		<polygon fill="#E35A6D" points="-122.674,35.313 -118.822,41.986 -122.674,48.657 -130.378,48.657 -134.23,41.986 
			-130.378,35.313 		"/>
		<polygon fill="#E35A6D" points="-143.731,35.313 -139.879,41.986 -143.731,48.657 -151.435,48.657 -155.287,41.986 
			-151.435,35.313 		"/>
	</g>
	<g>
		<polygon fill="#FFFFFF" points="-7.717,-125.894 -10.44,-124.322 -13.162,-125.894 -13.162,-129.039 -10.44,-130.611 
			-7.717,-129.039 		"/>
		<polygon fill="#FFFFFF" points="-28.773,-125.894 -31.498,-124.322 -34.221,-125.894 -34.221,-129.039 -31.498,-130.611 
			-28.773,-129.039 		"/>
		<polygon fill="#FFFFFF" points="-49.83,-125.894 -52.555,-124.322 -55.277,-125.894 -55.277,-129.039 -52.555,-130.611 
			-49.83,-129.039 		"/>
		<polygon fill="#FFFFFF" points="-70.887,-125.894 -73.611,-124.322 -76.334,-125.894 -76.334,-129.039 -73.611,-130.611 
			-70.887,-129.039 		"/>
		<polygon fill="#FFFFFF" points="-176.172,-125.894 -178.895,-124.322 -181.617,-125.894 -181.617,-129.039 -178.895,-130.611 
			-176.172,-129.039 		"/>
		<polygon fill="#FFFFFF" points="-197.229,-125.894 -199.951,-124.322 -202.674,-125.894 -202.674,-129.039 -199.951,-130.611 
			-197.229,-129.039 		"/>
		<polygon fill="#FFFFFF" points="-218.285,-125.894 -221.009,-124.322 -223.731,-125.894 -223.731,-129.039 -221.009,-130.611 
			-218.285,-129.039 		"/>
		<polygon fill="#FFFFFF" points="-239.342,-125.894 -242.065,-124.322 -244.788,-125.894 -244.788,-129.039 -242.065,-130.611 
			-239.342,-129.039 		"/>
		<polygon fill="#FFFFFF" points="-91.944,-125.894 -94.668,-124.322 -97.391,-125.894 -97.391,-129.039 -94.668,-130.611 
			-91.944,-129.039 		"/>
		<polygon fill="#FFFFFF" points="-113.001,-125.894 -115.725,-124.322 -118.447,-125.894 -118.447,-129.039 -115.725,-130.611 
			-113.001,-129.039 		"/>
		<polygon fill="#FFFFFF" points="-134.059,-125.894 -136.781,-124.322 -139.504,-125.894 -139.504,-129.039 -136.781,-130.611 
			-134.059,-129.039 		"/>
		<polygon fill="#FFFFFF" points="-155.115,-125.894 -157.838,-124.322 -160.561,-125.894 -160.561,-129.039 -157.838,-130.611 
			-155.115,-129.039 		"/>
	</g>
	<g>
		<polygon fill="#FFFFFF" points="2.867,-101.766 0.143,-100.194 -2.579,-101.766 -2.579,-104.911 0.143,-106.483 2.867,-104.911 		
			"/>
		<polygon fill="#FFFFFF" points="-18.189,-101.766 -20.914,-100.194 -23.636,-101.766 -23.636,-104.911 -20.914,-106.483 
			-18.189,-104.911 		"/>
		<polygon fill="#FFFFFF" points="-39.247,-101.766 -41.971,-100.194 -44.693,-101.766 -44.693,-104.911 -41.971,-106.483 
			-39.247,-104.911 		"/>
		<polygon fill="#FFFFFF" points="-60.305,-101.766 -63.027,-100.194 -65.75,-101.766 -65.75,-104.911 -63.027,-106.483 
			-60.305,-104.911 		"/>
		<polygon fill="#FFFFFF" points="-165.588,-101.766 -168.311,-100.194 -171.033,-101.766 -171.033,-104.911 -168.311,-106.483 
			-165.588,-104.911 		"/>
		<polygon fill="#FFFFFF" points="-186.645,-101.766 -189.368,-100.194 -192.091,-101.766 -192.091,-104.911 -189.368,-106.483 
			-186.645,-104.911 		"/>
		<polygon fill="#FFFFFF" points="-207.701,-101.766 -210.426,-100.194 -213.147,-101.766 -213.147,-104.911 -210.426,-106.483 
			-207.701,-104.911 		"/>
		<polygon fill="#FFFFFF" points="-228.758,-101.766 -231.482,-100.194 -234.204,-101.766 -234.204,-104.911 -231.482,-106.483 
			-228.758,-104.911 		"/>
		<polygon fill="#FFFFFF" points="-81.361,-101.766 -84.084,-100.194 -86.807,-101.766 -86.807,-104.911 -84.084,-106.483 
			-81.361,-104.911 		"/>
		<polygon fill="#FFFFFF" points="-102.418,-101.766 -105.141,-100.194 -107.863,-101.766 -107.863,-104.911 -105.141,-106.483 
			-102.418,-104.911 		"/>
		<polygon fill="#FFFFFF" points="-123.475,-101.766 -126.197,-100.194 -128.92,-101.766 -128.92,-104.911 -126.197,-106.483 
			-123.475,-104.911 		"/>
		<polygon fill="#FFFFFF" points="-144.531,-101.766 -147.254,-100.194 -149.977,-101.766 -149.977,-104.911 -147.254,-106.483 
			-144.531,-104.911 		"/>
	</g>
	<g>
		<polygon fill="#FFFFFF" points="-7.978,-77.452 -10.701,-75.88 -13.424,-77.452 -13.424,-80.598 -10.701,-82.17 -7.978,-80.598 		
			"/>
		<polygon fill="#FFFFFF" points="-29.035,-77.452 -31.758,-75.88 -34.48,-77.452 -34.48,-80.598 -31.758,-82.17 -29.035,-80.598 		
			"/>
		<polygon fill="#FFFFFF" points="-50.092,-77.452 -52.814,-75.88 -55.537,-77.452 -55.537,-80.598 -52.814,-82.17 -50.092,-80.598 
					"/>
		<polygon fill="#FFFFFF" points="-71.148,-77.452 -73.871,-75.88 -76.594,-77.452 -76.594,-80.598 -73.871,-82.17 -71.148,-80.598 
					"/>
		<polygon fill="#FFFFFF" points="-176.432,-77.452 -179.156,-75.88 -181.879,-77.452 -181.879,-80.598 -179.156,-82.17 
			-176.432,-80.598 		"/>
		<polygon fill="#FFFFFF" points="-197.488,-77.452 -200.213,-75.88 -202.936,-77.452 -202.936,-80.598 -200.213,-82.17 
			-197.488,-80.598 		"/>
		<polygon fill="#FFFFFF" points="-218.546,-77.452 -221.27,-75.88 -223.992,-77.452 -223.992,-80.598 -221.27,-82.17 
			-218.546,-80.598 		"/>
		<polygon fill="#FFFFFF" points="-239.604,-77.452 -242.326,-75.88 -245.049,-77.452 -245.049,-80.598 -242.326,-82.17 
			-239.604,-80.598 		"/>
		<polygon fill="#FFFFFF" points="-92.205,-77.452 -94.928,-75.88 -97.65,-77.452 -97.65,-80.598 -94.928,-82.17 -92.205,-80.598 		
			"/>
		<polygon fill="#FFFFFF" points="-113.262,-77.452 -115.984,-75.88 -118.707,-77.452 -118.707,-80.598 -115.984,-82.17 
			-113.262,-80.598 		"/>
		<polygon fill="#FFFFFF" points="-134.318,-77.452 -137.042,-75.88 -139.765,-77.452 -139.765,-80.598 -137.042,-82.17 
			-134.318,-80.598 		"/>
		<polygon fill="#FFFFFF" points="-155.375,-77.452 -158.1,-75.88 -160.822,-77.452 -160.822,-80.598 -158.1,-82.17 
			-155.375,-80.598 		"/>
	</g>
	<polygon fill="#FFFFFF" points="2.605,-53.325 -0.117,-51.753 -2.84,-53.325 -2.84,-56.47 -0.117,-58.042 2.605,-56.47 	"/>
	<polygon fill="#FFFFFF" points="-18.451,-53.325 -21.174,-51.753 -23.896,-53.325 -23.896,-56.47 -21.174,-58.042 -18.451,-56.47 	
		"/>
	<polygon fill="#FFFFFF" points="-39.508,-53.325 -42.231,-51.753 -44.953,-53.325 -44.953,-56.47 -42.231,-58.042 -39.508,-56.47 	
		"/>
	<polygon fill="#FFFFFF" points="-60.564,-53.325 -63.288,-51.753 -66.01,-53.325 -66.01,-56.47 -63.288,-58.042 -60.564,-56.47 	
		"/>
	<polygon fill="#FFFFFF" points="-165.849,-53.325 -168.572,-51.753 -171.295,-53.325 -171.295,-56.47 -168.572,-58.042 
		-165.849,-56.47 	"/>
	<polygon fill="#FFFFFF" points="-186.906,-53.325 -189.629,-51.753 -192.352,-53.325 -192.352,-56.47 -189.629,-58.042 
		-186.906,-56.47 	"/>
	<polygon fill="#FFFFFF" points="-207.963,-53.325 -210.686,-51.753 -213.408,-53.325 -213.408,-56.47 -210.686,-58.042 
		-207.963,-56.47 	"/>
	<polygon fill="#FFFFFF" points="-229.02,-53.325 -231.742,-51.753 -234.465,-53.325 -234.465,-56.47 -231.742,-58.042 
		-229.02,-56.47 	"/>
	<polygon fill="#FFFFFF" points="-81.621,-53.325 -84.345,-51.753 -87.066,-53.325 -87.066,-56.47 -84.345,-58.042 -81.621,-56.47 	
		"/>
	<polygon fill="#FFFFFF" points="-102.678,-53.325 -105.401,-51.753 -108.123,-53.325 -108.123,-56.47 -105.401,-58.042 
		-102.678,-56.47 	"/>
	<polygon fill="#FFFFFF" points="-123.734,-53.325 -126.459,-51.753 -129.181,-53.325 -129.181,-56.47 -126.459,-58.042 
		-123.734,-56.47 	"/>
	<polygon fill="#FFFFFF" points="-144.792,-53.325 -147.516,-51.753 -150.238,-53.325 -150.238,-56.47 -147.516,-58.042 
		-144.792,-56.47 	"/>
	<g>
		<polygon fill="#FFFFFF" points="-7.785,-29.011 -10.509,-27.438 -13.231,-29.011 -13.231,-32.156 -10.509,-33.729 -7.785,-32.156 
					"/>
		<polygon fill="#FFFFFF" points="-28.842,-29.011 -31.566,-27.438 -34.288,-29.011 -34.288,-32.156 -31.566,-33.729 
			-28.842,-32.156 		"/>
		<polygon fill="#FFFFFF" points="-49.898,-29.011 -52.623,-27.438 -55.345,-29.011 -55.345,-32.156 -52.623,-33.729 
			-49.898,-32.156 		"/>
		<polygon fill="#FFFFFF" points="-70.955,-29.011 -73.68,-27.438 -76.402,-29.011 -76.402,-32.156 -73.68,-33.729 -70.955,-32.156 
					"/>
		<polygon fill="#FFFFFF" points="-176.24,-29.011 -178.963,-27.438 -181.686,-29.011 -181.686,-32.156 -178.963,-33.729 
			-176.24,-32.156 		"/>
		<polygon fill="#FFFFFF" points="-197.297,-29.011 -200.021,-27.438 -202.742,-29.011 -202.742,-32.156 -200.021,-33.729 
			-197.297,-32.156 		"/>
		<polygon fill="#FFFFFF" points="-218.354,-29.011 -221.077,-27.438 -223.799,-29.011 -223.799,-32.156 -221.077,-33.729 
			-218.354,-32.156 		"/>
		<polygon fill="#FFFFFF" points="-239.41,-29.011 -242.134,-27.438 -244.856,-29.011 -244.856,-32.156 -242.134,-33.729 
			-239.41,-32.156 		"/>
		<polygon fill="#FFFFFF" points="-92.013,-29.011 -94.736,-27.438 -97.459,-29.011 -97.459,-32.156 -94.736,-33.729 
			-92.013,-32.156 		"/>
		<polygon fill="#FFFFFF" points="-113.07,-29.011 -115.793,-27.438 -118.516,-29.011 -118.516,-32.156 -115.793,-33.729 
			-113.07,-32.156 		"/>
		<polygon fill="#FFFFFF" points="-134.127,-29.011 -136.85,-27.438 -139.572,-29.011 -139.572,-32.156 -136.85,-33.729 
			-134.127,-32.156 		"/>
		<polygon fill="#FFFFFF" points="-155.184,-29.011 -157.906,-27.438 -160.629,-29.011 -160.629,-32.156 -157.906,-33.729 
			-155.184,-32.156 		"/>
	</g>
	<g>
		<polygon fill="#FFFFFF" points="2.799,-4.883 0.075,-3.312 -2.647,-4.883 -2.647,-8.028 0.075,-9.601 2.799,-8.028 		"/>
		<polygon fill="#FFFFFF" points="-18.259,-4.883 -20.982,-3.312 -23.705,-4.883 -23.705,-8.028 -20.982,-9.601 -18.259,-8.028 		
			"/>
		<polygon fill="#FFFFFF" points="-39.315,-4.883 -42.039,-3.312 -44.762,-4.883 -44.762,-8.028 -42.039,-9.601 -39.315,-8.028 		
			"/>
		<polygon fill="#FFFFFF" points="-60.372,-4.883 -63.096,-3.312 -65.818,-4.883 -65.818,-8.028 -63.096,-9.601 -60.372,-8.028 		
			"/>
		<polygon fill="#FFFFFF" points="-165.656,-4.883 -168.38,-3.312 -171.102,-4.883 -171.102,-8.028 -168.38,-9.601 -165.656,-8.028 
					"/>
		<polygon fill="#FFFFFF" points="-186.713,-4.883 -189.437,-3.312 -192.158,-4.883 -192.158,-8.028 -189.437,-9.601 
			-186.713,-8.028 		"/>
		<polygon fill="#FFFFFF" points="-207.77,-4.883 -210.493,-3.312 -213.216,-4.883 -213.216,-8.028 -210.493,-9.601 -207.77,-8.028 
					"/>
		<polygon fill="#FFFFFF" points="-228.826,-4.883 -231.551,-3.312 -234.273,-4.883 -234.273,-8.028 -231.551,-9.601 
			-228.826,-8.028 		"/>
		<polygon fill="#FFFFFF" points="-81.429,-4.883 -84.152,-3.312 -86.875,-4.883 -86.875,-8.028 -84.152,-9.601 -81.429,-8.028 		
			"/>
		<polygon fill="#FFFFFF" points="-102.486,-4.883 -105.209,-3.312 -107.932,-4.883 -107.932,-8.028 -105.209,-9.601 
			-102.486,-8.028 		"/>
		<polygon fill="#FFFFFF" points="-123.543,-4.883 -126.266,-3.312 -128.988,-4.883 -128.988,-8.028 -126.266,-9.601 
			-123.543,-8.028 		"/>
		<polygon fill="#FFFFFF" points="-144.6,-4.883 -147.322,-3.312 -150.045,-4.883 -150.045,-8.028 -147.322,-9.601 -144.6,-8.028 		
			"/>
	</g>
	<g>
		<polygon fill="#FFFFFF" points="-8.047,19.431 -10.77,21.002 -13.492,19.431 -13.492,16.285 -10.77,14.714 -8.047,16.285 		"/>
		<polygon fill="#FFFFFF" points="-29.104,19.431 -31.826,21.002 -34.549,19.431 -34.549,16.285 -31.826,14.714 -29.104,16.285 		
			"/>
		<polygon fill="#FFFFFF" points="-50.16,19.431 -52.883,21.002 -55.605,19.431 -55.605,16.285 -52.883,14.714 -50.16,16.285 		"/>
		<polygon fill="#FFFFFF" points="-71.217,19.431 -73.939,21.002 -76.662,19.431 -76.662,16.285 -73.939,14.714 -71.217,16.285 		
			"/>
		<polygon fill="#FFFFFF" points="-176.5,19.431 -179.225,21.002 -181.947,19.431 -181.947,16.285 -179.225,14.714 -176.5,16.285 		
			"/>
		<polygon fill="#FFFFFF" points="-197.558,19.431 -200.281,21.002 -203.004,19.431 -203.004,16.285 -200.281,14.714 
			-197.558,16.285 		"/>
		<polygon fill="#FFFFFF" points="-218.615,19.431 -221.338,21.002 -224.061,19.431 -224.061,16.285 -221.338,14.714 
			-218.615,16.285 		"/>
		<polygon fill="#FFFFFF" points="-239.672,19.431 -242.395,21.002 -245.117,19.431 -245.117,16.285 -242.395,14.714 
			-239.672,16.285 		"/>
		<polygon fill="#FFFFFF" points="-92.273,19.431 -94.996,21.002 -97.719,19.431 -97.719,16.285 -94.996,14.714 -92.273,16.285 		
			"/>
		<polygon fill="#FFFFFF" points="-113.33,19.431 -116.054,21.002 -118.776,19.431 -118.776,16.285 -116.054,14.714 -113.33,16.285 
					"/>
		<polygon fill="#FFFFFF" points="-134.387,19.431 -137.111,21.002 -139.833,19.431 -139.833,16.285 -137.111,14.714 
			-134.387,16.285 		"/>
		<polygon fill="#FFFFFF" points="-155.443,19.431 -158.168,21.002 -160.89,19.431 -160.89,16.285 -158.168,14.714 -155.443,16.285 
					"/>
	</g>
	<g>
		<polygon fill="#FFFFFF" points="2.537,43.559 -0.186,45.13 -2.908,43.559 -2.908,40.413 -0.186,38.841 2.537,40.413 		"/>
		<polygon fill="#FFFFFF" points="-18.52,43.559 -21.242,45.13 -23.965,43.559 -23.965,40.413 -21.242,38.841 -18.52,40.413 		"/>
		<polygon fill="#FFFFFF" points="-39.576,43.559 -42.3,45.13 -45.021,43.559 -45.021,40.413 -42.3,38.841 -39.576,40.413 		"/>
		<polygon fill="#FFFFFF" points="-60.633,43.559 -63.356,45.13 -66.078,43.559 -66.078,40.413 -63.356,38.841 -60.633,40.413 		"/>
		<polygon fill="#FFFFFF" points="-165.917,43.559 -168.641,45.13 -171.363,43.559 -171.363,40.413 -168.641,38.841 
			-165.917,40.413 		"/>
		<polygon fill="#FFFFFF" points="-186.974,43.559 -189.697,45.13 -192.42,43.559 -192.42,40.413 -189.697,38.841 -186.974,40.413 
					"/>
		<polygon fill="#FFFFFF" points="-208.031,43.559 -210.754,45.13 -213.477,43.559 -213.477,40.413 -210.754,38.841 
			-208.031,40.413 		"/>
		<polygon fill="#FFFFFF" points="-229.088,43.559 -231.811,45.13 -234.533,43.559 -234.533,40.413 -231.811,38.841 
			-229.088,40.413 		"/>
		<polygon fill="#FFFFFF" points="-81.689,43.559 -84.413,45.13 -87.135,43.559 -87.135,40.413 -84.413,38.841 -81.689,40.413 		"/>
		<polygon fill="#FFFFFF" points="-102.746,43.559 -105.47,45.13 -108.192,43.559 -108.192,40.413 -105.47,38.841 -102.746,40.413 
					"/>
		<polygon fill="#FFFFFF" points="-123.804,43.559 -126.527,45.13 -129.25,43.559 -129.25,40.413 -126.527,38.841 -123.804,40.413 
					"/>
		<polygon fill="#FFFFFF" points="-144.86,43.559 -147.584,45.13 -150.307,43.559 -150.307,40.413 -147.584,38.841 -144.86,40.413 
					"/>
	</g>
	<polygon fill="#D8D4C7" points="35.446,-136.832 30.611,-139.624 20.083,-133.545 9.555,-139.624 -0.975,-133.545 -0.975,-121.389 
		9.555,-115.31 20.083,-121.389 30.611,-115.31 35.446,-118.102 	"/>
	<polygon fill="#D8D4C7" points="35.446,-112.177 30.666,-109.417 20.138,-115.496 9.609,-109.417 9.609,-97.261 20.138,-91.183 
		30.666,-97.261 35.446,-94.501 	"/>
	<polygon fill="#D8D4C7" points="35.446,-88.24 30.35,-91.183 19.822,-85.104 9.293,-91.183 -1.234,-85.104 -1.234,-72.946 
		9.293,-66.868 19.822,-72.946 30.35,-66.868 35.446,-69.811 	"/>
	<polygon fill="#D8D4C7" points="35.446,-63.886 30.406,-60.976 19.877,-67.055 9.35,-60.976 9.35,-48.819 19.877,-42.741 
		30.406,-48.819 35.446,-45.909 	"/>
	<polygon fill="#D8D4C7" points="35.446,-39.91 30.543,-42.741 20.015,-36.663 9.486,-42.741 -1.043,-36.663 -1.043,-24.506 
		9.486,-18.428 20.015,-24.506 30.543,-18.428 35.446,-21.259 	"/>
	<polygon fill="#D8D4C7" points="35.333,-14.97 30.484,-12.171 19.956,-18.249 9.428,-12.171 9.428,-0.014 19.956,6.064 
		30.484,-0.014 35.333,2.785 	"/>
	<polygon fill="#D8D4C7" points="35.446,8.682 30.281,5.7 19.754,11.779 9.225,5.7 -1.303,11.779 -1.303,23.936 9.225,30.015 
		20.084,25.103 30.281,30.015 35.446,27.032 	"/>
	<polygon fill="#D8D4C7" points="35.446,32.957 30.338,35.907 19.809,29.828 9.28,35.907 9.28,48.063 19.809,54.142 30.338,48.063 
		35.446,51.013 	"/>
	<g>
		<polygon fill="#E35A6D" points="35.446,-132.436 34.463,-134.139 26.76,-134.139 22.908,-127.466 26.76,-120.795 34.463,-120.795 
			35.446,-122.498 		"/>
		<polygon fill="#E35A6D" points="13.406,-134.139 17.258,-127.466 13.406,-120.795 5.703,-120.795 1.852,-127.466 5.703,-134.139 
					"/>
	</g>
	<g>
		<polygon fill="#E35A6D" points="35.446,-106.724 33.492,-103.338 35.446,-99.953 		"/>
		<polygon fill="#E35A6D" points="23.99,-110.011 27.842,-103.338 23.99,-96.667 16.287,-96.667 12.435,-103.338 16.287,-110.011 		
			"/>
	</g>
	<g>
		<polygon fill="#E35A6D" points="35.446,-83.542 34.202,-85.697 26.498,-85.697 22.646,-79.024 26.498,-72.354 34.202,-72.354 
			35.446,-74.509 		"/>
		<polygon fill="#E35A6D" points="13.146,-85.697 16.998,-79.024 13.146,-72.354 5.441,-72.354 1.59,-79.024 5.441,-85.697 		"/>
	</g>
	<g>
		<polygon fill="#E35A6D" points="35.446,-58.734 33.23,-54.896 35.446,-51.06 		"/>
		<polygon fill="#E35A6D" points="23.729,-61.569 27.582,-54.896 23.729,-48.226 16.025,-48.226 12.174,-54.896 16.025,-61.569 		
			"/>
	</g>
	<g>
		<polygon fill="#E35A6D" points="35.446,-35.435 34.395,-37.256 26.691,-37.256 22.839,-30.583 26.691,-23.912 34.395,-23.912 
			35.446,-25.733 		"/>
		<polygon fill="#E35A6D" points="13.338,-37.256 17.189,-30.583 13.338,-23.912 5.635,-23.912 1.782,-30.583 5.635,-37.256 		"/>
	</g>
	<g>
		<polygon fill="#E35A6D" points="35.446,-11.522 33.424,-8.018 35.446,-4.515 		"/>
		<polygon fill="#E35A6D" points="23.922,-14.69 27.773,-8.018 23.922,-1.347 16.219,-1.347 12.366,-8.018 16.219,-14.69 		"/>
	</g>
	<g>
		<polygon fill="#E35A6D" points="35.446,13.459 34.134,11.186 26.431,11.186 22.578,17.858 26.431,24.529 34.134,24.529 
			35.446,22.256 		"/>
		<polygon fill="#E35A6D" points="13.076,11.186 16.929,17.858 13.076,24.529 5.373,24.529 1.521,17.858 5.373,11.186 		"/>
	</g>
	<g>
		<polygon fill="#E35A6D" points="35.446,38.029 33.162,41.986 35.446,45.941 		"/>
		<polygon fill="#E35A6D" points="23.66,35.313 27.513,41.986 23.66,48.657 15.957,48.657 12.105,41.986 15.957,35.313 		"/>
	</g>
	<g>
		<polygon fill="#FFFFFF" points="33.334,-125.894 30.611,-124.322 27.889,-125.894 27.889,-129.039 30.611,-130.611 
			33.334,-129.039 		"/>
		<polygon fill="#FFFFFF" points="12.277,-125.894 9.555,-124.322 6.832,-125.894 6.832,-129.039 9.555,-130.611 12.277,-129.039 		
			"/>
	</g>
	<g>
		<polygon fill="#FFFFFF" points="22.861,-101.766 20.138,-100.194 17.416,-101.766 17.416,-104.911 20.138,-106.483 
			22.861,-104.911 		"/>
	</g>
	<polygon fill="#D8D4C7" points="0.143,-163.938 -10.385,-157.859 -20.914,-163.938 -31.441,-157.859 -41.971,-163.938 
		-52.498,-157.859 -63.027,-163.938 -73.555,-157.859 -84.084,-163.938 -94.611,-157.859 -105.141,-163.938 -115.669,-157.859 
		-126.197,-163.938 -136.726,-157.859 -147.254,-163.938 -157.782,-157.859 -168.311,-163.938 -178.84,-157.859 -189.368,-163.938 
		-199.896,-157.859 -210.426,-163.938 -220.953,-157.859 -231.482,-163.938 -242.01,-157.859 -242.01,-145.702 -231.482,-139.624 
		-220.953,-145.702 -210.426,-139.624 -199.896,-145.702 -189.368,-139.624 -178.84,-145.702 -168.311,-139.624 -157.782,-145.702 
		-147.254,-139.624 -136.726,-145.702 -126.197,-139.624 -115.669,-145.702 -105.141,-139.624 -94.611,-145.702 -84.084,-139.624 
		-73.555,-145.702 -63.027,-139.624 -52.498,-145.702 -41.971,-139.624 -31.441,-145.702 -20.914,-139.624 -10.385,-145.702 
		0.143,-139.624 10.672,-145.702 10.672,-157.859 	"/>
	<g>
		<polygon fill="#E35A6D" points="3.996,-158.452 7.848,-151.779 3.996,-145.109 -3.707,-145.109 -7.56,-151.779 -3.707,-158.452 		
			"/>
		<polygon fill="#E35A6D" points="-17.062,-158.452 -13.209,-151.779 -17.062,-145.109 -24.765,-145.109 -28.617,-151.779 
			-24.765,-158.452 		"/>
		<polygon fill="#E35A6D" points="-38.118,-158.452 -34.266,-151.779 -38.118,-145.109 -45.821,-145.109 -49.674,-151.779 
			-45.821,-158.452 		"/>
		<polygon fill="#E35A6D" points="-59.175,-158.452 -55.322,-151.779 -59.175,-145.109 -66.879,-145.109 -70.73,-151.779 
			-66.879,-158.452 		"/>
		<polygon fill="#E35A6D" points="-164.459,-158.452 -160.607,-151.779 -164.459,-145.109 -172.162,-145.109 -176.015,-151.779 
			-172.162,-158.452 		"/>
		<polygon fill="#E35A6D" points="-185.516,-158.452 -181.664,-151.779 -185.516,-145.109 -193.219,-145.109 -197.071,-151.779 
			-193.219,-158.452 		"/>
		<polygon fill="#E35A6D" points="-206.573,-158.452 -202.721,-151.779 -206.573,-145.109 -214.275,-145.109 -218.128,-151.779 
			-214.275,-158.452 		"/>
		<polygon fill="#E35A6D" points="-227.63,-158.452 -223.777,-151.779 -227.63,-145.109 -235.332,-145.109 -239.186,-151.779 
			-235.332,-158.452 		"/>
		<polygon fill="#E35A6D" points="-80.232,-158.452 -76.38,-151.779 -80.232,-145.109 -87.936,-145.109 -91.787,-151.779 
			-87.936,-158.452 		"/>
		<polygon fill="#E35A6D" points="-101.289,-158.452 -97.437,-151.779 -101.289,-145.109 -108.992,-145.109 -112.844,-151.779 
			-108.992,-158.452 		"/>
		<polygon fill="#E35A6D" points="-122.346,-158.452 -118.494,-151.779 -122.346,-145.109 -130.049,-145.109 -133.9,-151.779 
			-130.049,-158.452 		"/>
		<polygon fill="#E35A6D" points="-143.402,-158.452 -139.551,-151.779 -143.402,-145.109 -151.105,-145.109 -154.958,-151.779 
			-151.105,-158.452 		"/>
	</g>
	<g>
		<polygon fill="#FFFFFF" points="2.867,-150.207 0.143,-148.635 -2.579,-150.207 -2.579,-153.352 0.143,-154.925 2.867,-153.352 		
			"/>
		<polygon fill="#FFFFFF" points="-18.189,-150.207 -20.914,-148.635 -23.636,-150.207 -23.636,-153.352 -20.914,-154.925 
			-18.189,-153.352 		"/>
		<polygon fill="#FFFFFF" points="-39.247,-150.207 -41.971,-148.635 -44.693,-150.207 -44.693,-153.352 -41.971,-154.925 
			-39.247,-153.352 		"/>
		<polygon fill="#FFFFFF" points="-60.305,-150.207 -63.027,-148.635 -65.75,-150.207 -65.75,-153.352 -63.027,-154.925 
			-60.305,-153.352 		"/>
		<polygon fill="#FFFFFF" points="-165.588,-150.207 -168.311,-148.635 -171.033,-150.207 -171.033,-153.352 -168.311,-154.925 
			-165.588,-153.352 		"/>
		<polygon fill="#FFFFFF" points="-186.645,-150.207 -189.368,-148.635 -192.091,-150.207 -192.091,-153.352 -189.368,-154.925 
			-186.645,-153.352 		"/>
		<polygon fill="#FFFFFF" points="-207.701,-150.207 -210.426,-148.635 -213.147,-150.207 -213.147,-153.352 -210.426,-154.925 
			-207.701,-153.352 		"/>
		<polygon fill="#FFFFFF" points="-228.758,-150.207 -231.482,-148.635 -234.204,-150.207 -234.204,-153.352 -231.482,-154.925 
			-228.758,-153.352 		"/>
		<polygon fill="#FFFFFF" points="-81.361,-150.207 -84.084,-148.635 -86.807,-150.207 -86.807,-153.352 -84.084,-154.925 
			-81.361,-153.352 		"/>
		<polygon fill="#FFFFFF" points="-102.418,-150.207 -105.141,-148.635 -107.863,-150.207 -107.863,-153.352 -105.141,-154.925 
			-102.418,-153.352 		"/>
		<polygon fill="#FFFFFF" points="-123.475,-150.207 -126.197,-148.635 -128.92,-150.207 -128.92,-153.352 -126.197,-154.925 
			-123.475,-153.352 		"/>
		<polygon fill="#FFFFFF" points="-144.531,-150.207 -147.254,-148.635 -149.977,-150.207 -149.977,-153.352 -147.254,-154.925 
			-144.531,-153.352 		"/>
	</g>
	<polygon fill="#D8D4C7" points="35.446,-160.619 30.666,-157.859 20.138,-163.938 9.609,-157.859 9.609,-145.702 20.138,-139.624 
		30.666,-145.702 35.446,-142.942 	"/>
	<g>
		<polygon fill="#E35A6D" points="35.446,-155.166 33.492,-151.779 35.446,-148.395 		"/>
		<polygon fill="#E35A6D" points="23.99,-158.452 27.842,-151.779 23.99,-145.109 16.287,-145.109 12.435,-151.779 16.287,-158.452 
					"/>
	</g>
	<g>
		<polygon fill="#FFFFFF" points="22.861,-150.207 20.138,-148.635 17.416,-150.207 17.416,-153.352 20.138,-154.925 
			22.861,-153.352 		"/>
	</g>
	<g>
		<polygon fill="#FFFFFF" points="33.074,-77.452 30.35,-75.88 27.628,-77.452 27.628,-80.598 30.35,-82.17 33.074,-80.598 		"/>
		<polygon fill="#FFFFFF" points="12.017,-77.452 9.293,-75.88 6.57,-77.452 6.57,-80.598 9.293,-82.17 12.017,-80.598 		"/>
	</g>
	<polygon fill="#FFFFFF" points="22.601,-53.325 19.877,-51.753 17.154,-53.325 17.154,-56.47 19.877,-58.042 22.601,-56.47 	"/>
	<g>
		<polygon fill="#FFFFFF" points="33.266,-29.011 30.543,-27.438 27.82,-29.011 27.82,-32.156 30.543,-33.729 33.266,-32.156 		"/>
		<polygon fill="#FFFFFF" points="12.209,-29.011 9.486,-27.438 6.764,-29.011 6.764,-32.156 9.486,-33.729 12.209,-32.156 		"/>
	</g>
	<g>
		<polygon fill="#FFFFFF" points="22.793,-4.883 20.069,-3.312 17.347,-4.883 17.347,-8.028 20.069,-9.601 22.793,-8.028 		"/>
	</g>
	<g>
		<polygon fill="#FFFFFF" points="33.005,19.431 30.281,21.002 27.559,19.431 27.559,16.285 30.281,14.714 33.005,16.285 		"/>
		<polygon fill="#FFFFFF" points="11.948,19.431 9.225,21.002 6.502,19.431 6.502,16.285 9.225,14.714 11.948,16.285 		"/>
	</g>
	<g>
		<polygon fill="#FFFFFF" points="22.531,43.559 19.809,45.13 17.086,43.559 17.086,40.413 19.809,38.841 22.531,40.413 		"/>
	</g>
</g>
<g>
	<g>
		<polyline fill="none" stroke="#BCBEC0" stroke-width="0.75" stroke-miterlimit="10" points="-223.987,-74.849 -232.045,-74.849 
			-226.428,-90.103 -180.797,-90.103 -175.18,-74.849 -184.486,-74.849 		"/>
		<polyline fill="none" stroke="#BCBEC0" stroke-width="0.75" stroke-miterlimit="10" points="-114.486,-74.849 -118.746,-74.849 
			-113.129,-90.103 -67.498,-90.103 -61.881,-74.849 -69.488,-74.849 		"/>
		<polyline fill="none" stroke="#BCBEC0" stroke-width="0.75" stroke-miterlimit="10" points="-180.986,-18.204 -175.697,-18.204 
			-191.503,-4.765 -215.896,-4.765 -231.7,-18.204 -226.486,-18.204 		"/>
		<polyline fill="none" stroke="#BCBEC0" stroke-width="0.75" stroke-miterlimit="10" points="-232.045,-27.181 -232.045,-18.501 
			-245.484,-34.306 -245.484,-58.698 -232.045,-74.503 -232.045,-67.681 		"/>
		<polyline fill="none" stroke="#BCBEC0" stroke-width="0.75" stroke-miterlimit="10" points="-68.986,-18.204 -62.312,-18.204 
			-78.117,-4.765 -102.51,-4.765 -118.314,-18.204 -112.986,-18.204 		"/>
		<polyline fill="none" stroke="#BCBEC0" stroke-width="0.75" stroke-miterlimit="10" points="-10.986,-18.204 -5.619,-18.204 
			-21.424,-4.765 -45.816,-4.765 -61.621,-18.204 		"/>
		<polyline fill="none" stroke="#BCBEC0" stroke-width="0.75" stroke-miterlimit="10" points="-168.986,-131.542 -175.18,-131.542 
			-175.18,-147.463 -118.314,-147.463 -118.314,-131.542 -119.994,-131.542 		"/>
		<polyline fill="none" stroke="#BCBEC0" stroke-width="0.75" stroke-miterlimit="10" points="-169.487,-18.155 -175.353,-18.155 
			-175.353,-27.681 -175.353,-44.681 -175.353,-65.181 -175.353,-74.849 -168.986,-74.849 		"/>
		<polyline fill="none" stroke="#BCBEC0" stroke-width="0.75" stroke-miterlimit="10" points="-125.486,-74.849 -118.66,-74.849 
			-118.66,-65.681 -118.66,-44.181 -118.66,-28.181 -118.66,-18.155 -124.486,-18.155 		"/>
		<polyline fill="none" stroke="#BCBEC0" stroke-width="0.75" stroke-miterlimit="10" points="-124.486,-18.155 -118.66,-18.155 
			-118.66,38.538 -175.353,38.538 -175.353,-18.155 -169.487,-18.155 		"/>
		<polyline fill="none" stroke="#BCBEC0" stroke-width="0.75" stroke-miterlimit="10" points="-175.18,-74.849 -175.18,-131.542 
			-170.986,-131.542 		"/>
		<polyline fill="none" stroke="#BCBEC0" stroke-width="0.75" stroke-miterlimit="10" points="-125.486,-131.542 -118.486,-131.542 
			-118.486,-74.849 		"/>
		<polyline fill="none" stroke="#BCBEC0" stroke-width="0.75" stroke-miterlimit="10" points="-53.986,-18.155 -61.967,-18.155 
			-61.967,-26.681 -61.967,-48.181 -61.967,-67.681 -61.967,-74.849 -50.986,-74.849 -27.986,-74.849 -11.986,-74.849 
			-5.273,-74.849 -5.273,-18.155 		"/>
	</g>
	
		<rect x="-175.094" y="-131.542" fill="none" stroke="#ED1C24" stroke-width="0.5" stroke-miterlimit="10" width="56.693" height="56.693"/>
</g>
</svg>
