<?xml version="1.0" encoding="utf-8"?>
<!-- Generator: Adobe Illustrator 16.0.0, SVG Export Plug-In . SVG Version: 6.00 Build 0)  -->
<!DOCTYPE svg PUBLIC "-//W3C//DTD SVG 1.1//EN" "http://www.w3.org/Graphics/SVG/1.1/DTD/svg11.dtd">
<svg version="1.1" id="Layer_1" xmlns="http://www.w3.org/2000/svg" xmlns:xlink="http://www.w3.org/1999/xlink" x="0px" y="0px"
	 width="54.361px" height="55.458px" viewBox="0 0 54.361 55.458" enable-background="new 0 0 54.361 55.458" xml:space="preserve">
<rect x="-1.629" y="-1.375" fill="#FFFFFF" width="57.832" height="57.832"/>
<g>
	<g>
		<g>
			<path fill="#EBC082" d="M-13.672-27.029c-3.854,0-7.191-2.826-7.855-6.609c-3.044-0.828-5.35-3.402-5.808-6.546
				c-0.622-4.28,2.29-8.276,6.525-9.017c0.827-3.043,3.401-5.35,6.546-5.809c0.385-0.055,0.775-0.084,1.159-0.084
				c3.856,0,7.194,2.826,7.856,6.609c3.044,0.828,5.351,3.402,5.808,6.547c0.624,4.279-2.29,8.275-6.524,9.016
				c-0.829,3.044-3.403,5.35-6.547,5.809C-12.896-27.059-13.287-27.029-13.672-27.029z M-20.617-33.557
				c0.685,3.249,3.596,5.648,6.945,5.648c0.344,0,0.691-0.025,1.033-0.075c2.945-0.429,5.327-2.68,5.931-5.602l0.51-2.478
				l0.315,2.23c3.643-0.762,6.117-4.249,5.574-7.979c-0.43-2.945-2.68-5.328-5.604-5.93l-2.427-0.498l2.181-0.326
				c-0.682-3.25-3.593-5.651-6.946-5.651c-0.343,0-0.69,0.025-1.031,0.075c-2.947,0.431-5.329,2.683-5.931,5.604l-0.511,2.486
				l-0.315-2.239c-3.641,0.762-6.115,4.249-5.573,7.979c0.429,2.943,2.681,5.326,5.602,5.928l2.466,0.508L-20.617-33.557z"/>
		</g>
		<g>
			<path fill="#EBC082" d="M13.515-27.029c-3.854,0-7.191-2.826-7.856-6.609c-3.043-0.828-5.349-3.402-5.809-6.545
				c-0.621-4.281,2.293-8.277,6.525-9.018c0.828-3.043,3.401-5.35,6.547-5.809c0.384-0.055,0.775-0.084,1.16-0.084
				c3.856,0,7.193,2.826,7.856,6.609c3.044,0.828,5.35,3.402,5.808,6.547c0.623,4.279-2.29,8.275-6.526,9.016
				c-0.826,3.045-3.4,5.35-6.545,5.809C14.291-27.059,13.899-27.029,13.515-27.029z M6.569-33.557
				c0.685,3.249,3.595,5.648,6.945,5.648c0.343,0,0.69-0.025,1.033-0.075c2.944-0.429,5.327-2.68,5.929-5.602l0.507-2.46
				l0.319,2.213c3.642-0.762,6.117-4.249,5.573-7.979c-0.428-2.945-2.679-5.328-5.602-5.93l-2.422-0.497l2.177-0.327
				c-0.683-3.25-3.595-5.651-6.947-5.651c-0.344,0-0.691,0.025-1.033,0.075c-2.946,0.431-5.328,2.683-5.929,5.604l-0.512,2.486
				L6.293-48.29c-3.641,0.762-6.115,4.249-5.574,7.979c0.43,2.943,2.682,5.326,5.604,5.928l2.464,0.508L6.569-33.557z"/>
		</g>
		<g>
			<path fill="#EBC082" d="M40.699-27.029c-3.854,0-7.189-2.826-7.854-6.609c-3.042-0.828-5.35-3.401-5.81-6.545
				c-0.621-4.281,2.292-8.277,6.524-9.018c0.828-3.043,3.402-5.35,6.547-5.809c0.385-0.055,0.775-0.084,1.16-0.084
				c3.857,0,7.194,2.826,7.856,6.609c3.044,0.828,5.35,3.402,5.809,6.547c0.622,4.28-2.291,8.275-6.525,9.016
				c-0.828,3.045-3.401,5.35-6.548,5.809C41.475-27.059,41.085-27.029,40.699-27.029z M33.755-33.557
				c0.685,3.249,3.596,5.648,6.944,5.648c0.344,0,0.692-0.025,1.034-0.075c2.945-0.429,5.328-2.68,5.929-5.601l0.508-2.464
				l0.318,2.216c3.642-0.762,6.117-4.249,5.574-7.979c-0.429-2.945-2.681-5.328-5.603-5.93l-2.424-0.498l2.179-0.326
				c-0.682-3.25-3.595-5.651-6.947-5.651c-0.343,0-0.69,0.025-1.033,0.075c-2.945,0.431-5.328,2.683-5.929,5.604l-0.511,2.486
				l-0.315-2.239c-3.642,0.762-6.116,4.249-5.575,7.979c0.431,2.943,2.683,5.326,5.604,5.928l2.463,0.507L33.755-33.557z"/>
		</g>
		<g>
			<path fill="#EBC082" d="M67.887-27.029c-3.856,0-7.192-2.826-7.854-6.609c-3.044-0.828-5.351-3.401-5.811-6.545
				c-0.622-4.281,2.291-8.277,6.524-9.018c0.829-3.043,3.402-5.35,6.548-5.809c0.384-0.055,0.774-0.084,1.159-0.084
				c3.857,0,7.194,2.826,7.856,6.609c3.045,0.828,5.351,3.402,5.809,6.547c0.623,4.279-2.29,8.275-6.524,9.016
				c-0.83,3.044-3.402,5.35-6.548,5.809C68.662-27.059,68.271-27.029,67.887-27.029z M60.942-33.557
				c0.683,3.249,3.593,5.648,6.944,5.648c0.343,0,0.689-0.025,1.033-0.075c2.945-0.429,5.327-2.68,5.929-5.602l0.515-2.495
				l0.312,2.248c3.641-0.764,6.115-4.25,5.572-7.979c-0.428-2.945-2.68-5.329-5.603-5.93l-2.428-0.498l2.182-0.326
				c-0.682-3.25-3.593-5.651-6.946-5.651c-0.343,0-0.689,0.025-1.032,0.075c-2.946,0.431-5.329,2.683-5.93,5.604l-0.515,2.504
				l-0.312-2.257c-3.64,0.763-6.115,4.249-5.574,7.979c0.431,2.943,2.684,5.326,5.604,5.928l2.462,0.507L60.942-33.557z"/>
		</g>
		<g>
			<path fill="#EBC082" d="M95.072-27.029c-3.854,0-7.19-2.826-7.854-6.609c-3.044-0.828-5.351-3.402-5.811-6.545
				c-0.623-4.281,2.292-8.277,6.526-9.018c0.828-3.043,3.4-5.35,6.545-5.809c0.386-0.055,0.776-0.084,1.161-0.084
				c3.857,0,7.193,2.826,7.855,6.609c3.044,0.828,5.351,3.402,5.809,6.547c0.622,4.279-2.29,8.275-6.524,9.016
				c-0.829,3.045-3.402,5.35-6.547,5.809C95.849-27.059,95.457-27.029,95.072-27.029z M88.129-33.557
				c0.682,3.249,3.592,5.648,6.943,5.648c0.343,0,0.691-0.025,1.033-0.075c2.943-0.429,5.327-2.68,5.93-5.602l0.51-2.478l0.315,2.23
				c3.643-0.762,6.117-4.249,5.575-7.979c-0.43-2.945-2.682-5.328-5.603-5.93l-2.422-0.497l2.175-0.327
				c-0.682-3.25-3.594-5.651-6.946-5.651c-0.343,0-0.69,0.025-1.033,0.075c-2.947,0.431-5.328,2.683-5.929,5.604l-0.508,2.471
				l-0.318-2.225c-3.642,0.762-6.116,4.249-5.575,7.98c0.43,2.943,2.683,5.326,5.604,5.928l2.466,0.508L88.129-33.557z"/>
		</g>
		<g>
			<path fill="#EBC082" d="M122.258-27.029c-3.854,0-7.191-2.826-7.854-6.609c-3.044-0.828-5.351-3.401-5.81-6.545
				c-0.623-4.281,2.29-8.277,6.525-9.018c0.826-3.043,3.4-5.35,6.546-5.809c0.383-0.055,0.774-0.084,1.159-0.084
				c3.856,0,7.194,2.826,7.854,6.609c3.047,0.828,5.353,3.401,5.811,6.547c0.622,4.279-2.29,8.275-6.525,9.016
				c-0.829,3.044-3.402,5.35-6.546,5.809C123.035-27.059,122.645-27.029,122.258-27.029z M115.314-33.557
				c0.683,3.249,3.593,5.648,6.943,5.648c0.344,0,0.691-0.025,1.036-0.075c2.941-0.429,5.325-2.68,5.928-5.602l0.513-2.495
				l0.312,2.248c3.643-0.763,6.116-4.25,5.574-7.979c-0.429-2.945-2.68-5.328-5.604-5.93l-2.42-0.497l2.174-0.327
				c-0.682-3.25-3.594-5.651-6.946-5.651c-0.343,0-0.69,0.025-1.031,0.075c-2.947,0.431-5.33,2.683-5.931,5.604l-0.512,2.486
				l-0.315-2.239c-3.64,0.762-6.115,4.249-5.572,7.979c0.429,2.943,2.683,5.326,5.603,5.928l2.463,0.507L115.314-33.557z"/>
		</g>
		<g>
			<path fill="#EBC082" d="M149.443-27.029c-3.854,0-7.19-2.826-7.854-6.609c-3.045-0.828-5.351-3.402-5.811-6.545
				c-0.621-4.281,2.292-8.277,6.526-9.018c0.826-3.043,3.402-5.35,6.547-5.809c0.384-0.055,0.774-0.084,1.158-0.084
				c3.856,0,7.194,2.826,7.855,6.609c3.045,0.828,5.352,3.401,5.81,6.547c0.623,4.279-2.29,8.275-6.523,9.016
				c-0.83,3.044-3.404,5.35-6.548,5.809C150.22-27.059,149.83-27.029,149.443-27.029z M142.499-33.557
				c0.684,3.25,3.594,5.648,6.944,5.648c0.344,0,0.692-0.025,1.035-0.075c2.944-0.429,5.326-2.68,5.928-5.602l0.511-2.478
				l0.315,2.23c3.643-0.762,6.117-4.249,5.574-7.979c-0.43-2.945-2.68-5.328-5.602-5.93l-2.42-0.497l2.172-0.327
				c-0.681-3.25-3.593-5.651-6.946-5.651c-0.343,0-0.69,0.025-1.031,0.075c-2.946,0.431-5.33,2.683-5.931,5.604l-0.516,2.504
				l-0.312-2.257c-3.639,0.763-6.115,4.249-5.572,7.979c0.431,2.943,2.682,5.326,5.604,5.928l2.468,0.508L142.499-33.557z"/>
		</g>
	</g>
	<g>
		<g>
			<path fill="#EBC082" d="M-27.639-9.844c-3.854,0-7.191-2.824-7.854-6.609c-3.043-0.828-5.35-3.4-5.81-6.545
				c-0.621-4.281,2.292-8.276,6.524-9.016c0.829-3.045,3.403-5.352,6.548-5.811c0.384-0.056,0.773-0.084,1.16-0.084
				c3.855,0,7.192,2.826,7.855,6.609c3.043,0.828,5.351,3.402,5.808,6.547c0.624,4.281-2.289,8.275-6.523,9.016
				c-0.829,3.045-3.403,5.35-6.546,5.808C-26.863-9.873-27.253-9.844-27.639-9.844z M-34.582-16.371
				c0.683,3.25,3.594,5.648,6.943,5.648c0.344,0,0.691-0.025,1.034-0.075c2.944-0.429,5.327-2.679,5.929-5.602l0.507-2.46
				l0.319,2.213c3.642-0.762,6.116-4.248,5.574-7.979c-0.429-2.945-2.682-5.328-5.604-5.93l-2.435-0.5l2.188-0.324
				c-0.682-3.25-3.594-5.65-6.945-5.65c-0.344,0-0.691,0.025-1.034,0.074c-2.944,0.432-5.328,2.683-5.929,5.604l-0.515,2.5
				l-0.312-2.253c-3.642,0.762-6.115,4.248-5.573,7.979c0.43,2.944,2.682,5.326,5.604,5.928l2.46,0.506L-34.582-16.371z"/>
		</g>
		<g>
			<path fill="#EBC082" d="M-0.452-9.844c-3.854,0-7.192-2.825-7.855-6.609c-3.044-0.828-5.351-3.401-5.809-6.545
				c-0.622-4.281,2.291-8.276,6.524-9.017c0.828-3.043,3.401-5.351,6.547-5.81c0.384-0.056,0.774-0.084,1.159-0.084
				c3.856,0,7.194,2.826,7.855,6.609c3.046,0.828,5.351,3.402,5.81,6.547c0.623,4.281-2.291,8.275-6.524,9.016
				c-0.829,3.045-3.402,5.35-6.546,5.808C0.323-9.873-0.066-9.844-0.452-9.844z M-7.397-16.371c0.685,3.25,3.595,5.648,6.945,5.648
				c0.344,0,0.69-0.025,1.034-0.075c2.944-0.429,5.327-2.679,5.928-5.602l0.508-2.461l0.318,2.214
				c3.642-0.762,6.117-4.248,5.574-7.979c-0.429-2.945-2.681-5.328-5.603-5.93l-2.429-0.5l2.182-0.324
				c-0.681-3.25-3.592-5.65-6.946-5.65c-0.342,0-0.69,0.025-1.032,0.074c-2.945,0.432-5.329,2.683-5.929,5.604l-0.511,2.484
				l-0.316-2.236c-3.641,0.762-6.116,4.248-5.574,7.979c0.43,2.944,2.682,5.326,5.603,5.928l2.463,0.507L-7.397-16.371z"/>
		</g>
		<g>
			<path fill="#EBC082" d="M26.733-9.844c-3.854,0-7.192-2.824-7.855-6.609c-3.044-0.828-5.351-3.401-5.809-6.545
				c-0.622-4.281,2.292-8.276,6.525-9.016c0.829-3.045,3.401-5.352,6.547-5.811c0.384-0.056,0.774-0.084,1.159-0.084
				c3.857,0,7.194,2.826,7.854,6.609c3.047,0.828,5.352,3.402,5.81,6.547c0.623,4.28-2.29,8.275-6.524,9.016
				c-0.828,3.045-3.401,5.35-6.547,5.808C27.509-9.873,27.118-9.844,26.733-9.844z M19.789-16.371
				c0.683,3.25,3.594,5.648,6.944,5.648c0.343,0,0.692-0.025,1.033-0.075c2.944-0.429,5.329-2.679,5.93-5.602l0.51-2.479
				l0.316,2.232c3.642-0.762,6.116-4.248,5.574-7.979c-0.429-2.945-2.682-5.328-5.603-5.93l-2.431-0.5l2.183-0.324
				c-0.682-3.25-3.593-5.65-6.945-5.65c-0.343,0-0.69,0.025-1.032,0.074c-2.946,0.432-5.329,2.683-5.93,5.604l-0.516,2.5
				l-0.312-2.253c-3.64,0.762-6.115,4.248-5.574,7.979c0.431,2.944,2.683,5.326,5.604,5.928l2.469,0.508L19.789-16.371z"/>
		</g>
		<g>
			<path fill="#EBC082" d="M53.92-9.844c-3.854,0-7.191-2.825-7.854-6.609c-3.045-0.828-5.352-3.401-5.81-6.545
				c-0.622-4.281,2.291-8.276,6.524-9.017c0.828-3.043,3.402-5.351,6.548-5.81c0.384-0.056,0.773-0.084,1.159-0.084
				c3.855,0,7.192,2.826,7.855,6.609c3.044,0.828,5.35,3.402,5.809,6.547c0.622,4.281-2.291,8.275-6.524,9.016
				c-0.829,3.045-3.403,5.35-6.546,5.808C54.696-9.873,54.306-9.844,53.92-9.844z M46.975-16.371
				c0.684,3.25,3.594,5.648,6.945,5.648c0.343,0,0.691-0.025,1.033-0.075c2.945-0.429,5.326-2.679,5.929-5.602l0.507-2.46
				l0.319,2.213c3.642-0.762,6.117-4.248,5.573-7.979c-0.428-2.945-2.681-5.328-5.602-5.93l-2.432-0.5l2.186-0.324
				c-0.683-3.25-3.595-5.65-6.946-5.65c-0.343,0-0.691,0.025-1.032,0.074c-2.946,0.432-5.33,2.683-5.93,5.604l-0.512,2.484
				l-0.314-2.236c-3.642,0.761-6.116,4.248-5.574,7.979c0.43,2.944,2.681,5.327,5.603,5.928l2.463,0.507L46.975-16.371z"/>
		</g>
		<g>
			<path fill="#EBC082" d="M81.104-9.844c-3.854,0-7.189-2.825-7.854-6.609c-3.044-0.828-5.35-3.401-5.809-6.545
				c-0.622-4.281,2.291-8.277,6.525-9.017c0.827-3.043,3.402-5.351,6.545-5.81c0.387-0.056,0.776-0.084,1.161-0.084
				c3.856,0,7.194,2.826,7.855,6.609c3.044,0.828,5.351,3.402,5.81,6.547c0.622,4.28-2.291,8.275-6.525,9.016
				c-0.829,3.045-3.402,5.35-6.546,5.808C81.882-9.873,81.49-9.844,81.104-9.844z M74.159-16.371
				c0.685,3.25,3.596,5.648,6.945,5.648c0.345,0,0.692-0.025,1.034-0.075c2.944-0.429,5.328-2.679,5.93-5.602l0.51-2.478l0.316,2.23
				c3.641-0.762,6.117-4.248,5.574-7.979c-0.43-2.945-2.681-5.328-5.604-5.93l-2.432-0.5l2.187-0.324
				c-0.684-3.25-3.594-5.65-6.946-5.65c-0.343,0-0.69,0.025-1.034,0.074c-2.944,0.432-5.327,2.683-5.928,5.604l-0.507,2.467
				l-0.318-2.219c-3.642,0.76-6.118,4.248-5.575,7.979c0.43,2.944,2.682,5.326,5.603,5.928l2.466,0.508L74.159-16.371z"/>
		</g>
		<g>
			<path fill="#EBC082" d="M108.291-9.844c-3.855,0-7.191-2.824-7.855-6.609c-3.043-0.828-5.349-3.401-5.809-6.545
				c-0.622-4.281,2.292-8.277,6.525-9.017c0.828-3.043,3.402-5.351,6.547-5.81c0.384-0.056,0.773-0.084,1.158-0.084
				c3.857,0,7.195,2.826,7.855,6.609c3.046,0.828,5.352,3.402,5.81,6.547c0.623,4.28-2.29,8.275-6.524,9.016
				c-0.828,3.045-3.402,5.35-6.545,5.808C109.066-9.873,108.677-9.844,108.291-9.844z M101.347-16.371
				c0.684,3.25,3.594,5.648,6.944,5.648c0.344,0,0.691-0.025,1.033-0.075c2.945-0.429,5.327-2.679,5.93-5.602l0.51-2.478l0.316,2.23
				c3.641-0.762,6.116-4.248,5.573-7.979c-0.429-2.945-2.679-5.328-5.602-5.93l-2.431-0.5l2.184-0.324
				c-0.682-3.25-3.594-5.65-6.947-5.65c-0.343,0-0.689,0.025-1.031,0.074c-2.946,0.432-5.33,2.683-5.93,5.604l-0.506,2.468
				l-0.319-2.22c-3.642,0.76-6.116,4.248-5.575,7.979c0.43,2.944,2.683,5.327,5.604,5.928l2.467,0.508L101.347-16.371z"/>
		</g>
		<g>
			<path fill="#EBC082" d="M135.477-9.844c-3.854,0-7.189-2.825-7.854-6.609c-3.045-0.828-5.351-3.401-5.811-6.545
				c-0.621-4.281,2.292-8.277,6.525-9.017c0.829-3.044,3.402-5.351,6.547-5.81c0.384-0.056,0.773-0.084,1.16-0.084
				c3.854,0,7.193,2.826,7.854,6.609c3.045,0.828,5.352,3.402,5.809,6.547c0.624,4.281-2.289,8.275-6.522,9.016
				c-0.83,3.045-3.404,5.35-6.547,5.808C136.253-9.873,135.863-9.844,135.477-9.844z M128.533-16.371
				c0.683,3.25,3.595,5.648,6.943,5.648c0.343,0,0.693-0.025,1.035-0.075c2.943-0.429,5.325-2.679,5.928-5.602l0.508-2.459
				l0.318,2.212c3.642-0.762,6.117-4.248,5.573-7.979c-0.429-2.945-2.68-5.328-5.601-5.93l-2.43-0.5l2.182-0.324
				c-0.681-3.25-3.594-5.65-6.945-5.65c-0.343,0-0.69,0.025-1.033,0.074c-2.945,0.432-5.329,2.683-5.93,5.604l-0.506,2.467
				l-0.319-2.219c-3.642,0.76-6.117,4.248-5.575,7.979c0.431,2.944,2.683,5.326,5.604,5.928l2.463,0.507L128.533-16.371z"/>
		</g>
	</g>
	<g>
		<g>
			<path fill="#EBC082" d="M-13.754,28.034c-3.855,0-7.191-2.825-7.854-6.608c-3.045-0.829-5.35-3.402-5.81-6.546
				c-0.623-4.281,2.291-8.276,6.525-9.016c0.828-3.044,3.401-5.351,6.547-5.81c0.384-0.056,0.773-0.084,1.159-0.084
				c3.856,0,7.194,2.826,7.855,6.609c3.045,0.827,5.352,3.4,5.809,6.547c0.624,4.279-2.29,8.275-6.524,9.015
				c-0.828,3.044-3.402,5.351-6.546,5.808C-12.978,28.006-13.368,28.034-13.754,28.034z M-20.698,21.508
				c0.683,3.249,3.594,5.648,6.944,5.648c0.343,0,0.692-0.025,1.034-0.076c2.944-0.428,5.326-2.679,5.928-5.602l0.507-2.46
				l0.318,2.213c3.643-0.761,6.118-4.249,5.576-7.978c-0.43-2.946-2.682-5.329-5.603-5.93l-2.423-0.498L-6.24,6.5
				c-0.681-3.251-3.593-5.65-6.946-5.65c-0.344,0-0.69,0.025-1.033,0.074c-2.946,0.43-5.328,2.682-5.929,5.604l-0.507,2.468
				l-0.319-2.222c-3.642,0.762-6.116,4.249-5.574,7.98c0.43,2.943,2.682,5.326,5.604,5.928l2.464,0.507L-20.698,21.508z"/>
		</g>
		<g>
			<path fill="#EBC082" d="M13.432,28.034c-3.854,0-7.19-2.825-7.854-6.608c-3.043-0.829-5.351-3.402-5.81-6.546
				c-0.621-4.281,2.291-8.276,6.525-9.016c0.828-3.044,3.402-5.351,6.548-5.81C13.225-0.001,13.614-0.029,14-0.029
				c3.856,0,7.193,2.826,7.855,6.609c3.043,0.828,5.35,3.401,5.808,6.547c0.624,4.279-2.29,8.275-6.523,9.015
				c-0.829,3.044-3.403,5.351-6.548,5.808C14.208,28.006,13.817,28.034,13.432,28.034z M6.488,21.508
				c0.682,3.249,3.593,5.648,6.943,5.648c0.343,0,0.691-0.025,1.035-0.076c2.943-0.428,5.327-2.679,5.928-5.602l0.506-2.461
				l0.319,2.214c3.643-0.761,6.118-4.249,5.574-7.978c-0.429-2.946-2.68-5.329-5.602-5.93l-2.428-0.498L20.945,6.5
				C20.264,3.249,17.351,0.85,14,0.85c-0.343,0-0.691,0.025-1.033,0.074c-2.945,0.43-5.328,2.682-5.93,5.604L6.522,9.029
				L6.211,6.774c-3.642,0.762-6.116,4.249-5.574,7.979c0.431,2.943,2.683,5.326,5.604,5.928l2.465,0.507L6.488,21.508z"/>
		</g>
		<g>
			<path fill="#EBC082" d="M40.617,28.034c-3.854,0-7.189-2.825-7.854-6.608c-3.044-0.828-5.352-3.402-5.81-6.546
				c-0.622-4.28,2.29-8.276,6.525-9.016c0.827-3.044,3.401-5.351,6.546-5.81c0.385-0.056,0.775-0.084,1.16-0.084
				c3.856,0,7.194,2.826,7.855,6.609c3.044,0.827,5.351,3.4,5.81,6.547c0.623,4.279-2.291,8.275-6.526,9.015
				c-0.829,3.044-3.402,5.351-6.546,5.808C41.395,28.006,41.003,28.034,40.617,28.034z M33.674,21.508
				c0.683,3.248,3.594,5.648,6.943,5.648c0.344,0,0.691-0.025,1.035-0.076c2.943-0.428,5.326-2.679,5.929-5.602l0.506-2.46
				l0.318,2.213c3.643-0.761,6.118-4.249,5.576-7.978c-0.43-2.946-2.681-5.328-5.603-5.93l-2.422-0.498L48.132,6.5
				c-0.683-3.251-3.594-5.65-6.946-5.65c-0.343,0-0.69,0.025-1.032,0.074c-2.946,0.43-5.329,2.682-5.931,5.604l-0.515,2.502
				l-0.312-2.255c-3.64,0.762-6.114,4.249-5.572,7.979c0.43,2.943,2.682,5.326,5.603,5.928l2.463,0.507L33.674,21.508z"/>
		</g>
		<g>
			<path fill="#EBC082" d="M67.803,28.034c-3.854,0-7.19-2.825-7.854-6.608c-3.043-0.829-5.35-3.402-5.808-6.546
				c-0.623-4.28,2.291-8.276,6.524-9.016c0.828-3.044,3.402-5.351,6.547-5.81c0.384-0.056,0.774-0.084,1.16-0.084
				c3.856,0,7.192,2.826,7.855,6.609c3.044,0.827,5.351,3.4,5.808,6.547c0.624,4.279-2.289,8.274-6.525,9.015
				c-0.827,3.044-3.4,5.351-6.545,5.808C68.58,28.006,68.189,28.034,67.803,28.034z M60.859,21.508
				c0.684,3.249,3.593,5.648,6.943,5.648c0.345,0,0.692-0.025,1.035-0.076c2.944-0.428,5.326-2.679,5.928-5.602L75.276,19
				l0.315,2.231c3.643-0.762,6.117-4.249,5.574-7.978c-0.428-2.946-2.68-5.328-5.602-5.93l-2.422-0.498L75.318,6.5
				c-0.683-3.251-3.594-5.65-6.946-5.65c-0.345,0-0.691,0.025-1.034,0.074c-2.945,0.43-5.327,2.682-5.928,5.604l-0.512,2.484
				l-0.316-2.238c-3.64,0.763-6.115,4.25-5.573,7.98c0.431,2.943,2.681,5.326,5.604,5.928l2.464,0.507L60.859,21.508z"/>
		</g>
		<g>
			<path fill="#EBC082" d="M94.989,28.034c-3.854,0-7.19-2.825-7.854-6.608c-3.044-0.828-5.351-3.402-5.811-6.546
				c-0.621-4.28,2.292-8.276,6.524-9.016c0.828-3.044,3.402-5.351,6.548-5.81c0.385-0.056,0.774-0.084,1.161-0.084
				c3.855,0,7.192,2.826,7.855,6.609c3.043,0.828,5.35,3.4,5.809,6.547c0.622,4.279-2.291,8.274-6.525,9.014
				c-0.829,3.045-3.403,5.352-6.547,5.809C95.766,28.006,95.375,28.034,94.989,28.034z M88.045,21.508
				c0.683,3.249,3.594,5.648,6.944,5.648c0.343,0,0.691-0.025,1.034-0.076c2.944-0.428,5.327-2.679,5.93-5.602l0.518-2.512
				l0.31,2.264c3.641-0.762,6.114-4.248,5.572-7.977c-0.43-2.946-2.681-5.329-5.604-5.93l-2.427-0.498l2.182-0.326
				c-0.682-3.251-3.594-5.65-6.945-5.65c-0.344,0-0.691,0.025-1.035,0.074c-2.944,0.43-5.328,2.682-5.929,5.604l-0.51,2.486
				l-0.316-2.24c-3.642,0.763-6.114,4.25-5.573,7.98c0.43,2.943,2.681,5.326,5.604,5.928l2.464,0.507L88.045,21.508z"/>
		</g>
		<g>
			<path fill="#EBC082" d="M122.176,28.034c-3.855,0-7.192-2.825-7.854-6.608c-3.044-0.828-5.35-3.402-5.81-6.546
				c-0.622-4.28,2.29-8.276,6.524-9.016c0.828-3.044,3.401-5.351,6.547-5.81c0.385-0.056,0.774-0.084,1.161-0.084
				c3.855,0,7.191,2.826,7.854,6.609c3.045,0.827,5.351,3.4,5.809,6.547c0.624,4.279-2.29,8.274-6.524,9.015
				c-0.828,3.044-3.402,5.351-6.547,5.808C122.951,28.006,122.561,28.034,122.176,28.034z M115.231,21.508
				c0.683,3.248,3.595,5.648,6.944,5.648c0.343,0,0.691-0.025,1.034-0.076c2.944-0.428,5.326-2.679,5.928-5.602l0.512-2.477
				l0.315,2.229c3.642-0.762,6.117-4.249,5.574-7.978c-0.43-2.946-2.681-5.328-5.604-5.93l-2.422-0.498l2.176-0.326
				c-0.683-3.251-3.593-5.65-6.945-5.65c-0.344,0-0.691,0.025-1.034,0.074c-2.946,0.43-5.329,2.682-5.93,5.604l-0.506,2.469
				l-0.318-2.223c-3.644,0.762-6.118,4.249-5.576,7.98c0.431,2.943,2.683,5.326,5.604,5.928l2.464,0.507L115.231,21.508z"/>
		</g>
		<g>
			<path fill="#EBC082" d="M149.361,28.034c-3.854,0-7.192-2.825-7.854-6.608c-3.044-0.829-5.351-3.402-5.809-6.546
				c-0.624-4.28,2.29-8.276,6.524-9.016c0.828-3.044,3.401-5.351,6.546-5.81c0.385-0.056,0.775-0.084,1.16-0.084
				c3.857,0,7.193,2.826,7.855,6.609c3.045,0.827,5.351,3.4,5.809,6.547c0.624,4.279-2.29,8.274-6.523,9.014
				c-0.829,3.045-3.402,5.352-6.548,5.809C150.138,28.006,149.748,28.034,149.361,28.034z M142.417,21.508
				c0.683,3.25,3.595,5.648,6.944,5.648c0.344,0,0.691-0.025,1.034-0.076c2.945-0.428,5.327-2.679,5.929-5.602l0.514-2.494
				l0.314,2.246c3.641-0.762,6.115-4.248,5.572-7.977c-0.429-2.946-2.681-5.328-5.603-5.93L154.7,6.826l2.175-0.326
				c-0.682-3.251-3.594-5.65-6.946-5.65c-0.343,0-0.69,0.025-1.033,0.074c-2.944,0.43-5.328,2.682-5.929,5.604l-0.512,2.484
				l-0.315-2.238c-3.642,0.763-6.115,4.25-5.574,7.98c0.432,2.943,2.683,5.326,5.604,5.928l2.469,0.508L142.417,21.508z"/>
		</g>
	</g>
	<g>
		<g>
			<path fill="#EBC082" d="M-13.754,102.691c-3.855,0-7.191-2.824-7.854-6.608c-3.045-0.828-5.351-3.401-5.81-6.546
				c-0.623-4.281,2.291-8.275,6.525-9.016c0.828-3.044,3.401-5.35,6.547-5.809c0.384-0.057,0.773-0.085,1.159-0.085
				c3.856,0,7.194,2.825,7.855,6.609c3.045,0.828,5.352,3.401,5.809,6.547c0.623,4.28-2.29,8.274-6.524,9.015
				c-0.828,3.045-3.402,5.352-6.546,5.809C-12.978,102.664-13.368,102.691-13.754,102.691z M-20.698,96.164
				c0.683,3.25,3.594,5.649,6.944,5.649c0.343,0,0.692-0.025,1.034-0.075c2.944-0.428,5.326-2.68,5.928-5.602l0.507-2.461
				l0.318,2.213c3.643-0.761,6.118-4.248,5.576-7.979c-0.429-2.945-2.682-5.328-5.603-5.928l-2.438-0.502l2.19-0.324
				c-0.682-3.25-3.594-5.65-6.946-5.65c-0.344,0-0.69,0.025-1.033,0.076c-2.946,0.43-5.328,2.682-5.929,5.603l-0.507,2.468
				l-0.319-2.221c-3.642,0.762-6.116,4.248-5.574,7.979c0.43,2.944,2.682,5.326,5.604,5.929l2.456,0.504L-20.698,96.164z"/>
		</g>
		<g>
			<path fill="#EBC082" d="M13.432,102.691c-3.854,0-7.191-2.824-7.854-6.608c-3.044-0.828-5.351-3.401-5.81-6.546
				c-0.621-4.281,2.291-8.275,6.525-9.016c0.828-3.044,3.402-5.351,6.548-5.809c0.384-0.057,0.773-0.085,1.158-0.085
				c3.856,0,7.194,2.825,7.856,6.609c3.043,0.828,5.35,3.401,5.808,6.547c0.622,4.28-2.29,8.274-6.523,9.015
				c-0.829,3.045-3.403,5.351-6.547,5.809C14.208,102.664,13.818,102.691,13.432,102.691z M6.488,96.164
				c0.682,3.25,3.593,5.649,6.943,5.649c0.344,0,0.691-0.025,1.035-0.075c2.943-0.428,5.327-2.68,5.928-5.602l0.506-2.461
				l0.319,2.213c3.643-0.761,6.118-4.248,5.574-7.979c-0.429-2.945-2.68-5.328-5.602-5.928l-2.443-0.504l2.196-0.322
				c-0.682-3.25-3.595-5.65-6.946-5.65c-0.342,0-0.69,0.025-1.032,0.076c-2.945,0.43-5.328,2.682-5.93,5.604l-0.515,2.5
				l-0.312-2.254c-3.642,0.762-6.116,4.248-5.574,7.98c0.431,2.943,2.683,5.325,5.604,5.928l2.457,0.504L6.488,96.164z"/>
		</g>
		<g>
			<path fill="#EBC082" d="M40.617,102.691c-3.854,0-7.19-2.824-7.854-6.608c-3.044-0.827-5.352-3.401-5.81-6.546
				c-0.622-4.281,2.29-8.275,6.525-9.016c0.827-3.044,3.401-5.351,6.546-5.809c0.385-0.057,0.775-0.085,1.16-0.085
				c3.856,0,7.193,2.825,7.855,6.609c3.044,0.828,5.351,3.401,5.81,6.547c0.622,4.28-2.291,8.274-6.526,9.015
				c-0.829,3.045-3.402,5.351-6.546,5.809C41.395,102.664,41.005,102.691,40.617,102.691z M33.674,96.164
				c0.683,3.25,3.594,5.649,6.943,5.649c0.344,0,0.691-0.025,1.035-0.075c2.943-0.428,5.326-2.68,5.929-5.602l0.506-2.461
				l0.318,2.213c3.643-0.761,6.118-4.248,5.576-7.979c-0.43-2.945-2.681-5.328-5.603-5.928L45.94,81.48l2.19-0.324
				c-0.682-3.25-3.593-5.65-6.945-5.65c-0.343,0-0.69,0.025-1.032,0.076c-2.946,0.43-5.329,2.682-5.931,5.604l-0.515,2.502
				l-0.312-2.256c-3.64,0.762-6.114,4.248-5.572,7.98c0.43,2.943,2.682,5.325,5.603,5.928l2.455,0.504L33.674,96.164z"/>
		</g>
		<g>
			<path fill="#EBC082" d="M67.804,102.691c-3.854,0-7.191-2.824-7.855-6.608c-3.043-0.828-5.35-3.401-5.808-6.546
				c-0.623-4.281,2.291-8.275,6.524-9.016c0.828-3.044,3.402-5.35,6.547-5.809c0.384-0.057,0.774-0.085,1.16-0.085
				c3.856,0,7.192,2.825,7.855,6.609c3.044,0.828,5.351,3.401,5.808,6.547c0.624,4.28-2.29,8.274-6.525,9.015
				c-0.827,3.045-3.4,5.351-6.545,5.809C68.58,102.664,68.189,102.691,67.804,102.691z M60.859,96.164
				c0.684,3.25,3.595,5.649,6.944,5.649c0.344,0,0.691-0.025,1.034-0.075c2.944-0.428,5.326-2.68,5.928-5.602l0.511-2.479
				l0.315,2.23c3.643-0.762,6.117-4.248,5.574-7.979c-0.428-2.945-2.68-5.328-5.602-5.928l-2.438-0.502l2.19-0.324
				c-0.682-3.25-3.593-5.65-6.945-5.65c-0.345,0-0.691,0.025-1.034,0.076c-2.945,0.43-5.327,2.682-5.928,5.604l-0.512,2.484
				l-0.316-2.238c-3.64,0.762-6.115,4.248-5.573,7.98c0.431,2.943,2.681,5.325,5.604,5.928l2.456,0.504L60.859,96.164z"/>
		</g>
		<g>
			<path fill="#EBC082" d="M94.989,102.691c-3.854,0-7.192-2.824-7.854-6.608c-3.044-0.828-5.351-3.401-5.811-6.546
				c-0.621-4.281,2.292-8.275,6.524-9.016c0.828-3.044,3.402-5.35,6.548-5.809c0.385-0.057,0.774-0.085,1.16-0.085
				c3.856,0,7.193,2.825,7.856,6.609c3.043,0.828,5.35,3.401,5.809,6.547c0.622,4.279-2.291,8.274-6.525,9.015
				c-0.829,3.045-3.403,5.352-6.546,5.809C95.766,102.664,95.375,102.691,94.989,102.691z M88.045,96.164
				c0.683,3.25,3.594,5.649,6.944,5.649c0.345,0,0.691-0.025,1.034-0.075c2.944-0.428,5.327-2.68,5.93-5.602l0.518-2.513l0.31,2.265
				c3.641-0.762,6.114-4.249,5.572-7.979c-0.43-2.945-2.681-5.328-5.604-5.928l-2.442-0.503l2.197-0.323
				c-0.684-3.25-3.594-5.65-6.946-5.65c-0.344,0-0.69,0.025-1.034,0.076c-2.944,0.43-5.328,2.682-5.929,5.603l-0.51,2.487
				l-0.316-2.24c-3.642,0.762-6.114,4.248-5.573,7.98c0.43,2.943,2.681,5.325,5.604,5.928l2.456,0.504L88.045,96.164z"/>
		</g>
		<g>
			<path fill="#EBC082" d="M122.176,102.691c-3.855,0-7.192-2.824-7.854-6.608c-3.044-0.827-5.35-3.401-5.81-6.546
				c-0.622-4.281,2.29-8.275,6.524-9.016c0.828-3.045,3.401-5.35,6.547-5.809c0.385-0.057,0.774-0.085,1.159-0.085
				c3.857,0,7.193,2.825,7.856,6.609c3.045,0.828,5.351,3.401,5.809,6.547c0.624,4.28-2.29,8.274-6.524,9.015
				c-0.828,3.045-3.402,5.352-6.547,5.809C122.951,102.664,122.562,102.691,122.176,102.691z M115.231,96.164
				c0.683,3.25,3.595,5.649,6.944,5.649c0.344,0,0.691-0.025,1.034-0.075c2.944-0.428,5.326-2.68,5.928-5.602l0.512-2.477
				l0.315,2.229c3.642-0.762,6.117-4.248,5.574-7.979c-0.43-2.945-2.681-5.328-5.604-5.928l-2.438-0.502l2.191-0.324
				c-0.683-3.25-3.593-5.65-6.947-5.65c-0.343,0-0.689,0.025-1.032,0.076c-2.946,0.43-5.329,2.682-5.93,5.603l-0.506,2.47
				l-0.318-2.223c-3.644,0.762-6.118,4.248-5.576,7.979c0.431,2.944,2.683,5.326,5.604,5.929l2.455,0.504L115.231,96.164z"/>
		</g>
		<g>
			<path fill="#EBC082" d="M149.361,102.691c-3.854,0-7.192-2.824-7.854-6.608c-3.044-0.828-5.351-3.401-5.809-6.546
				c-0.624-4.28,2.29-8.275,6.524-9.016c0.828-3.044,3.401-5.35,6.546-5.809c0.385-0.057,0.774-0.085,1.16-0.085
				c3.856,0,7.193,2.825,7.855,6.609c3.045,0.828,5.351,3.401,5.809,6.547c0.624,4.28-2.29,8.274-6.523,9.015
				c-0.829,3.045-3.402,5.352-6.548,5.809C150.138,102.664,149.748,102.691,149.361,102.691z M142.417,96.164
				c0.683,3.25,3.595,5.649,6.944,5.649c0.344,0,0.691-0.025,1.034-0.075c2.945-0.428,5.327-2.68,5.929-5.602l0.514-2.494
				l0.314,2.246c3.641-0.762,6.115-4.248,5.572-7.979c-0.429-2.945-2.681-5.328-5.603-5.928l-2.438-0.502l2.19-0.324
				c-0.681-3.25-3.593-5.65-6.945-5.65c-0.344,0-0.69,0.025-1.033,0.076c-2.944,0.43-5.328,2.682-5.929,5.604l-0.512,2.484
				l-0.315-2.238c-3.642,0.762-6.115,4.248-5.574,7.979c0.432,2.944,2.683,5.326,5.604,5.929l2.461,0.504L142.417,96.164z"/>
		</g>
	</g>
	<g>
		<g>
			<path fill="#EBC082" d="M-27.721,55.22c-3.854,0-7.191-2.825-7.854-6.608c-3.044-0.828-5.351-3.401-5.811-6.545
				c-0.622-4.281,2.291-8.277,6.524-9.017c0.828-3.044,3.402-5.351,6.547-5.81c0.385-0.057,0.775-0.084,1.16-0.084
				c3.857,0,7.194,2.825,7.856,6.609c3.043,0.828,5.351,3.402,5.81,6.547c0.621,4.279-2.293,8.274-6.526,9.015
				c-0.829,3.044-3.403,5.351-6.546,5.808C-26.945,55.191-27.335,55.22-27.721,55.22z M-34.666,48.691
				c0.684,3.251,3.595,5.65,6.945,5.65c0.344,0,0.69-0.025,1.034-0.076c2.944-0.428,5.327-2.679,5.929-5.601l0.51-2.478l0.316,2.229
				c3.642-0.761,6.116-4.248,5.575-7.978c-0.43-2.946-2.682-5.328-5.604-5.93l-2.439-0.502l2.193-0.322
				c-0.683-3.251-3.594-5.651-6.946-5.651c-0.343,0-0.691,0.026-1.032,0.075c-2.946,0.43-5.329,2.682-5.93,5.604l-0.512,2.483
				l-0.315-2.236c-3.641,0.762-6.115,4.249-5.573,7.979c0.431,2.944,2.683,5.326,5.604,5.927l2.444,0.504L-34.666,48.691z"/>
		</g>
		<g>
			<path fill="#EBC082" d="M-0.535,55.22c-3.854,0-7.191-2.825-7.854-6.608c-3.044-0.828-5.351-3.401-5.81-6.545
				c-0.621-4.281,2.292-8.277,6.525-9.017c0.828-3.044,3.402-5.351,6.546-5.81c0.385-0.057,0.775-0.084,1.161-0.084
				c3.856,0,7.192,2.825,7.855,6.609c3.044,0.828,5.351,3.402,5.809,6.547c0.622,4.279-2.29,8.274-6.525,9.015
				c-0.827,3.044-3.402,5.351-6.546,5.808C0.242,55.191-0.15,55.22-0.535,55.22z M-7.48,48.691c0.684,3.251,3.594,5.65,6.945,5.65
				c0.344,0,0.691-0.025,1.033-0.076c2.946-0.428,5.328-2.679,5.93-5.601l0.51-2.478l0.316,2.23
				c3.643-0.762,6.117-4.249,5.573-7.979c-0.429-2.946-2.68-5.328-5.603-5.93l-2.439-0.502l2.193-0.322
				c-0.682-3.252-3.594-5.651-6.945-5.651c-0.344,0-0.69,0.026-1.033,0.075c-2.947,0.43-5.328,2.682-5.93,5.604l-0.514,2.502
				l-0.313-2.255c-3.64,0.763-6.114,4.249-5.573,7.979c0.43,2.944,2.682,5.326,5.604,5.927l2.449,0.505L-7.48,48.691z"/>
		</g>
		<g>
			<path fill="#EBC082" d="M26.65,55.22c-3.854,0-7.191-2.825-7.854-6.608c-3.042-0.828-5.35-3.401-5.809-6.546
				c-0.622-4.28,2.291-8.276,6.524-9.016c0.828-3.044,3.402-5.351,6.547-5.81c0.384-0.057,0.775-0.084,1.161-0.084
				c3.854,0,7.192,2.825,7.854,6.609c3.045,0.828,5.352,3.402,5.809,6.547c0.623,4.279-2.289,8.275-6.524,9.015
				c-0.828,3.044-3.402,5.351-6.546,5.808C27.428,55.191,27.037,55.22,26.65,55.22z M19.706,48.691
				c0.684,3.251,3.595,5.65,6.944,5.65c0.344,0,0.692-0.025,1.034-0.076c2.945-0.428,5.327-2.679,5.929-5.601l0.507-2.46
				l0.319,2.213c3.642-0.762,6.116-4.248,5.574-7.979c-0.429-2.946-2.68-5.328-5.603-5.93l-2.439-0.502l2.193-0.322
				c-0.683-3.251-3.595-5.651-6.945-5.651c-0.345,0-0.691,0.026-1.034,0.075c-2.945,0.43-5.328,2.682-5.93,5.604l-0.51,2.484
				l-0.315-2.237c-3.642,0.762-6.117,4.249-5.573,7.979c0.428,2.944,2.68,5.326,5.602,5.927l2.446,0.504L19.706,48.691z"/>
		</g>
		<g>
			<path fill="#EBC082" d="M53.837,55.22c-3.854,0-7.191-2.825-7.854-6.608c-3.045-0.828-5.351-3.401-5.809-6.545
				c-0.622-4.281,2.29-8.277,6.524-9.017c0.828-3.044,3.401-5.351,6.547-5.81c0.383-0.057,0.774-0.084,1.159-0.084
				c3.856,0,7.193,2.825,7.855,6.609c3.045,0.828,5.352,3.402,5.809,6.547c0.624,4.28-2.289,8.275-6.523,9.015
				c-0.829,3.044-3.402,5.351-6.547,5.808C54.612,55.191,54.224,55.22,53.837,55.22z M46.893,48.691
				c0.683,3.251,3.594,5.65,6.944,5.65c0.344,0,0.691-0.025,1.034-0.076c2.945-0.428,5.327-2.679,5.929-5.601l0.507-2.46
				l0.318,2.213c3.642-0.762,6.117-4.248,5.575-7.979c-0.43-2.945-2.681-5.328-5.604-5.93l-2.437-0.502l2.189-0.322
				c-0.682-3.252-3.593-5.651-6.945-5.651c-0.343,0-0.69,0.026-1.032,0.075c-2.945,0.43-5.329,2.682-5.93,5.604l-0.511,2.483
				l-0.316-2.236c-3.641,0.762-6.116,4.249-5.573,7.979c0.429,2.944,2.682,5.326,5.603,5.927l2.448,0.505L46.893,48.691z"/>
		</g>
		<g>
			<path fill="#EBC082" d="M81.022,55.22c-3.854,0-7.191-2.825-7.854-6.608c-3.044-0.828-5.35-3.401-5.809-6.545
				c-0.623-4.281,2.291-8.277,6.524-9.017c0.829-3.044,3.401-5.351,6.548-5.81c0.385-0.057,0.773-0.084,1.158-0.084
				c3.857,0,7.195,2.825,7.855,6.609c3.046,0.828,5.352,3.402,5.81,6.547c0.622,4.279-2.29,8.274-6.524,9.015
				c-0.828,3.044-3.402,5.351-6.548,5.808C81.799,55.191,81.409,55.22,81.022,55.22z M74.079,48.691
				c0.683,3.251,3.593,5.65,6.943,5.65c0.343,0,0.69-0.025,1.034-0.076c2.945-0.428,5.327-2.679,5.929-5.601l0.513-2.495
				l0.314,2.247c3.641-0.762,6.115-4.249,5.573-7.978c-0.429-2.946-2.681-5.328-5.603-5.93l-2.441-0.502l2.194-0.322
				c-0.683-3.251-3.593-5.651-6.946-5.651c-0.342,0-0.689,0.026-1.032,0.075c-2.946,0.43-5.329,2.682-5.93,5.604l-0.511,2.484
				l-0.315-2.237c-3.641,0.762-6.116,4.249-5.574,7.979c0.431,2.944,2.683,5.326,5.604,5.927l2.449,0.505L74.079,48.691z"/>
		</g>
		<g>
			<path fill="#EBC082" d="M108.209,55.22c-3.854,0-7.191-2.825-7.854-6.608c-3.044-0.828-5.352-3.401-5.809-6.545
				c-0.623-4.282,2.289-8.277,6.524-9.017c0.827-3.044,3.401-5.351,6.547-5.81c0.384-0.057,0.773-0.084,1.159-0.084
				c3.856,0,7.193,2.825,7.855,6.609c3.044,0.828,5.352,3.402,5.809,6.547c0.624,4.279-2.29,8.274-6.524,9.015
				c-0.829,3.044-3.402,5.351-6.547,5.808C108.985,55.191,108.596,55.22,108.209,55.22z M101.264,48.691
				c0.684,3.251,3.595,5.65,6.945,5.65c0.345,0,0.691-0.025,1.035-0.076c2.943-0.428,5.325-2.679,5.928-5.601l0.509-2.478
				l0.316,2.229c3.643-0.761,6.117-4.248,5.575-7.978c-0.43-2.946-2.681-5.328-5.603-5.93l-2.441-0.502l2.194-0.322
				c-0.684-3.251-3.595-5.651-6.946-5.651c-0.342,0-0.69,0.026-1.032,0.075c-2.947,0.43-5.329,2.682-5.93,5.604l-0.508,2.468
				l-0.318-2.221c-3.642,0.761-6.117,4.248-5.573,7.979c0.429,2.944,2.68,5.326,5.603,5.927l2.445,0.504L101.264,48.691z"/>
		</g>
		<g>
			<path fill="#EBC082" d="M135.395,55.22c-3.854,0-7.19-2.825-7.854-6.608c-3.045-0.828-5.352-3.401-5.809-6.546
				c-0.625-4.28,2.289-8.276,6.523-9.016c0.828-3.044,3.402-5.351,6.547-5.81c0.385-0.057,0.774-0.084,1.16-0.084
				c3.855,0,7.193,2.825,7.855,6.609c3.043,0.828,5.351,3.402,5.809,6.547c0.622,4.279-2.291,8.274-6.525,9.015
				c-0.829,3.044-3.402,5.351-6.546,5.808C136.172,55.191,135.781,55.22,135.395,55.22z M128.449,48.691
				c0.684,3.251,3.595,5.65,6.945,5.65c0.345,0,0.691-0.025,1.035-0.076c2.943-0.428,5.326-2.679,5.929-5.601l0.509-2.476
				l0.316,2.229c3.643-0.762,6.117-4.249,5.574-7.979c-0.43-2.945-2.681-5.328-5.602-5.93l-2.438-0.502l2.19-0.322
				c-0.684-3.252-3.594-5.651-6.945-5.651c-0.344,0-0.69,0.026-1.033,0.075c-2.945,0.43-5.329,2.682-5.93,5.604l-0.504,2.449
				l-0.321-2.202c-3.642,0.761-6.117,4.248-5.574,7.979c0.43,2.944,2.681,5.326,5.603,5.927l2.444,0.504L128.449,48.691z"/>
		</g>
	</g>
</g>
<g>
	<g>
		<g>
			<path fill="#99C7C6" d="M-2.336-41.479c-0.384-2.643-2.392-4.641-4.865-5.148l0.145-0.021c-0.491-3.373-3.623-5.707-6.996-5.217
				c-2.643,0.385-4.641,2.393-5.148,4.865l-0.022-0.145c-3.371,0.492-5.708,3.625-5.217,6.996c0.386,2.643,2.394,4.642,4.866,5.15
				l-0.145,0.021c0.49,3.372,3.623,5.709,6.997,5.218c2.642-0.386,4.64-2.393,5.147-4.865l0.021,0.144
				C-4.179-34.974-1.844-38.105-2.336-41.479z M-17.498-35.301"/>
		</g>
		<g>
			<path fill="#99C7C6" d="M24.851-41.479c-0.386-2.643-2.392-4.641-4.866-5.148l0.146-0.021c-0.491-3.373-3.624-5.707-6.996-5.217
				C10.491-51.48,8.492-49.473,7.984-47l-0.021-0.145c-3.372,0.492-5.71,3.625-5.218,6.996c0.385,2.643,2.393,4.642,4.865,5.15
				l-0.145,0.021c0.492,3.372,3.624,5.709,6.997,5.218c2.641-0.386,4.64-2.393,5.148-4.865l0.021,0.144
				C23.006-34.974,25.342-38.105,24.851-41.479z M9.688-35.301"/>
		</g>
		<g>
			<path fill="#99C7C6" d="M52.035-41.479c-0.384-2.643-2.392-4.641-4.864-5.148l0.146-0.021c-0.491-3.373-3.623-5.707-6.996-5.217
				c-2.643,0.385-4.642,2.393-5.15,4.865l-0.021-0.145c-3.372,0.492-5.709,3.625-5.218,6.996c0.387,2.643,2.394,4.642,4.866,5.15
				l-0.144,0.021c0.49,3.372,3.624,5.709,6.996,5.218c2.643-0.386,4.641-2.393,5.148-4.865l0.021,0.144
				C50.192-34.974,52.528-38.105,52.035-41.479z M36.873-35.301"/>
		</g>
		<g>
			<path fill="#99C7C6" d="M79.223-41.479c-0.386-2.643-2.393-4.641-4.866-5.148l0.146-0.021c-0.492-3.373-3.625-5.707-6.996-5.217
				c-2.643,0.385-4.643,2.393-5.15,4.865l-0.021-0.145c-3.372,0.492-5.709,3.625-5.217,6.996c0.385,2.643,2.392,4.642,4.865,5.15
				l-0.146,0.021c0.492,3.372,3.625,5.709,6.998,5.218c2.641-0.386,4.641-2.393,5.148-4.865l0.021,0.144
				C77.378-34.974,79.713-38.105,79.223-41.479z M64.06-35.301"/>
		</g>
		<g>
			<path fill="#99C7C6" d="M106.407-41.479c-0.384-2.643-2.39-4.641-4.863-5.148l0.144-0.021c-0.492-3.373-3.625-5.707-6.996-5.217
				C92.049-51.48,90.05-49.473,89.543-47l-0.021-0.145c-3.373,0.492-5.709,3.625-5.217,6.996c0.384,2.643,2.392,4.642,4.864,5.15
				l-0.145,0.021c0.491,3.372,3.624,5.709,6.996,5.218c2.643-0.386,4.642-2.393,5.15-4.865l0.021,0.144
				C104.563-34.974,106.898-38.105,106.407-41.479z M91.246-35.301"/>
		</g>
		<g>
			<path fill="#99C7C6" d="M133.594-41.479c-0.384-2.643-2.391-4.641-4.865-5.148l0.145-0.021c-0.491-3.373-3.623-5.707-6.996-5.217
				c-2.642,0.385-4.642,2.393-5.149,4.865l-0.021-0.145c-3.372,0.492-5.708,3.625-5.216,6.996c0.385,2.643,2.393,4.642,4.865,5.15
				l-0.146,0.021c0.491,3.372,3.626,5.709,6.998,5.218c2.642-0.386,4.641-2.393,5.148-4.865l0.021,0.144
				C131.75-34.974,134.085-38.105,133.594-41.479z M118.432-35.301"/>
		</g>
		<g>
			<path fill="#99C7C6" d="M160.78-41.479c-0.385-2.643-2.392-4.641-4.866-5.148l0.146-0.021c-0.491-3.373-3.624-5.707-6.997-5.217
				c-2.643,0.385-4.641,2.393-5.148,4.865l-0.021-0.145c-3.373,0.492-5.708,3.625-5.217,6.996c0.385,2.643,2.392,4.642,4.865,5.15
				l-0.145,0.021c0.491,3.372,3.624,5.709,6.997,5.218c2.641-0.386,4.641-2.393,5.149-4.865l0.02,0.144
				C158.936-34.974,161.271-38.105,160.78-41.479z M145.616-35.301"/>
		</g>
	</g>
	<g>
		<g>
			<path fill="#99C7C6" d="M-16.303-14.292c-0.385-2.644-2.392-4.642-4.865-5.149l0.146-0.021c-0.492-3.373-3.624-5.707-6.996-5.218
				c-2.643,0.386-4.642,2.395-5.149,4.868l-0.021-0.146c-3.372,0.492-5.708,3.625-5.217,6.996c0.385,2.643,2.392,4.642,4.864,5.15
				l-0.144,0.021c0.491,3.371,3.624,5.708,6.997,5.217c2.641-0.385,4.64-2.393,5.147-4.865l0.021,0.144
				C-18.146-7.787-15.811-10.92-16.303-14.292z M-31.465-8.115"/>
		</g>
		<g>
			<path fill="#99C7C6" d="M10.883-14.292c-0.384-2.644-2.391-4.642-4.864-5.149l0.146-0.021c-0.492-3.373-3.625-5.707-6.996-5.218
				c-2.643,0.386-4.643,2.395-5.15,4.868l-0.021-0.146c-3.373,0.492-5.709,3.625-5.218,6.996c0.384,2.643,2.392,4.642,4.865,5.15
				L-6.5-7.791c0.492,3.371,3.624,5.708,6.997,5.217c2.642-0.385,4.642-2.393,5.148-4.865l0.021,0.144
				C9.039-7.787,11.375-10.92,10.883-14.292z M-4.279-8.115"/>
		</g>
		<g>
			<path fill="#99C7C6" d="M38.069-14.292c-0.385-2.644-2.392-4.642-4.865-5.149l0.146-0.021c-0.491-3.373-3.625-5.707-6.996-5.218
				c-2.643,0.386-4.643,2.395-5.149,4.868l-0.022-0.146c-3.372,0.492-5.709,3.625-5.216,6.996c0.385,2.643,2.392,4.642,4.864,5.15
				l-0.145,0.021c0.492,3.371,3.624,5.708,6.998,5.217c2.64-0.385,4.641-2.393,5.149-4.865l0.019,0.144
				C36.226-7.787,38.561-10.92,38.069-14.292z M22.908-8.115"/>
		</g>
		<g>
			<path fill="#99C7C6" d="M65.256-14.292c-0.386-2.644-2.393-4.642-4.865-5.149l0.145-0.021c-0.492-3.373-3.624-5.707-6.997-5.218
				c-2.642,0.386-4.641,2.395-5.148,4.868l-0.021-0.146c-3.372,0.492-5.709,3.625-5.218,6.996c0.386,2.643,2.393,4.642,4.866,5.15
				l-0.146,0.021c0.492,3.371,3.624,5.708,6.997,5.217c2.643-0.385,4.641-2.393,5.149-4.865l0.021,0.144
				C63.413-7.787,65.748-10.92,65.256-14.292z M50.092-8.115"/>
		</g>
		<g>
			<path fill="#99C7C6" d="M92.441-14.292c-0.384-2.644-2.392-4.642-4.865-5.149l0.145-0.021c-0.491-3.373-3.624-5.707-6.996-5.218
				c-2.643,0.386-4.641,2.395-5.15,4.868l-0.021-0.146c-3.372,0.492-5.708,3.625-5.217,6.996c0.384,2.643,2.393,4.642,4.866,5.15
				l-0.146,0.021c0.491,3.371,3.624,5.708,6.997,5.217c2.642-0.385,4.642-2.393,5.148-4.865l0.022,0.144
				C90.598-7.787,92.933-10.92,92.441-14.292z M77.279-8.115"/>
		</g>
		<g>
			<path fill="#99C7C6" d="M119.627-14.292c-0.385-2.644-2.392-4.642-4.865-5.149l0.146-0.021c-0.491-3.373-3.624-5.707-6.997-5.218
				c-2.642,0.386-4.641,2.395-5.148,4.868l-0.022-0.146c-3.372,0.492-5.709,3.625-5.217,6.996c0.385,2.643,2.394,4.642,4.866,5.15
				l-0.146,0.021c0.492,3.371,3.624,5.708,6.998,5.217c2.642-0.385,4.641-2.393,5.147-4.865l0.022,0.144
				C117.783-7.787,120.119-10.92,119.627-14.292z M104.465-8.115"/>
		</g>
		<g>
			<path fill="#99C7C6" d="M146.812-14.292c-0.385-2.644-2.392-4.642-4.865-5.149l0.146-0.021c-0.492-3.373-3.625-5.707-6.998-5.218
				c-2.642,0.386-4.641,2.395-5.149,4.868l-0.02-0.146c-3.373,0.492-5.708,3.625-5.218,6.996c0.385,2.643,2.393,4.642,4.864,5.15
				l-0.144,0.021c0.492,3.371,3.624,5.708,6.996,5.217c2.643-0.385,4.642-2.393,5.149-4.865l0.021,0.144
				C144.969-7.787,147.305-10.92,146.812-14.292z M131.65-8.115"/>
		</g>
	</g>
	<g>
		<g>
			<path fill="#99C7C6" d="M-2.418,13.586c-0.386-2.643-2.392-4.641-4.865-5.149l0.146-0.021c-0.493-3.373-3.626-5.709-6.997-5.219
				c-2.642,0.387-4.641,2.395-5.149,4.867l-0.021-0.145c-3.373,0.492-5.708,3.624-5.217,6.996c0.384,2.643,2.392,4.641,4.864,5.15
				l-0.146,0.021c0.493,3.372,3.626,5.708,6.998,5.218c2.641-0.386,4.641-2.393,5.148-4.866l0.021,0.144
				C-4.262,20.091-1.927,16.959-2.418,13.586z M-17.579,19.764"/>
		</g>
		<g>
			<path fill="#99C7C6" d="M24.769,13.586c-0.386-2.643-2.392-4.641-4.865-5.149l0.146-0.021c-0.493-3.373-3.625-5.709-6.998-5.219
				C10.408,3.584,8.41,5.592,7.902,8.064L7.879,7.92c-3.371,0.492-5.707,3.624-5.215,6.996c0.386,2.643,2.392,4.641,4.864,5.15
				l-0.145,0.021c0.491,3.372,3.625,5.708,6.998,5.218c2.641-0.386,4.64-2.393,5.148-4.866l0.021,0.144
				C22.924,20.091,25.26,16.959,24.769,13.586z M9.605,19.764"/>
		</g>
		<g>
			<path fill="#99C7C6" d="M51.954,13.586c-0.385-2.643-2.392-4.641-4.866-5.149l0.146-0.021c-0.492-3.373-3.624-5.709-6.997-5.219
				c-2.643,0.387-4.64,2.395-5.148,4.867L35.065,7.92c-3.371,0.492-5.707,3.624-5.216,6.996c0.385,2.643,2.393,4.641,4.865,5.15
				l-0.145,0.021c0.492,3.372,3.623,5.708,6.997,5.218c2.642-0.386,4.641-2.393,5.148-4.866l0.021,0.144
				C50.11,20.091,52.445,16.959,51.954,13.586z M36.79,19.764"/>
		</g>
		<g>
			<path fill="#99C7C6" d="M79.14,13.586c-0.384-2.643-2.392-4.641-4.866-5.149l0.146-0.021c-0.491-3.373-3.623-5.709-6.996-5.219
				c-2.642,0.387-4.641,2.395-5.149,4.867L62.253,7.92c-3.374,0.492-5.71,3.624-5.218,6.996c0.387,2.643,2.394,4.641,4.866,5.15
				l-0.146,0.021c0.492,3.372,3.624,5.708,6.998,5.218c2.641-0.386,4.64-2.393,5.148-4.866l0.021,0.144
				C77.295,20.091,79.632,16.959,79.14,13.586z M63.977,19.764"/>
		</g>
		<g>
			<path fill="#99C7C6" d="M106.326,13.586c-0.385-2.643-2.393-4.641-4.867-5.149l0.146-0.021c-0.49-3.373-3.623-5.709-6.996-5.219
				c-2.641,0.387-4.64,2.395-5.149,4.867L89.438,7.92c-3.372,0.492-5.708,3.624-5.217,6.996c0.385,2.643,2.392,4.641,4.864,5.15
				l-0.144,0.021c0.49,3.372,3.624,5.708,6.998,5.218c2.64-0.386,4.639-2.393,5.147-4.866l0.021,0.144
				C104.481,20.091,106.817,16.959,106.326,13.586z M91.163,19.764"/>
		</g>
		<g>
			<path fill="#99C7C6" d="M133.512,13.586c-0.384-2.643-2.393-4.641-4.866-5.149l0.146-0.021c-0.492-3.373-3.623-5.709-6.996-5.219
				c-2.642,0.387-4.642,2.395-5.149,4.867l-0.021-0.145c-3.372,0.492-5.708,3.624-5.216,6.996c0.384,2.643,2.391,4.641,4.863,5.15
				l-0.145,0.021c0.493,3.372,3.625,5.708,6.998,5.218c2.641-0.386,4.642-2.393,5.147-4.866l0.022,0.144
				C131.668,20.091,134.004,16.959,133.512,13.586z M118.349,19.764"/>
		</g>
		<g>
			<path fill="#99C7C6" d="M160.697,13.586c-0.385-2.643-2.392-4.641-4.866-5.149l0.146-0.021c-0.49-3.373-3.624-5.709-6.995-5.219
				c-2.642,0.387-4.642,2.395-5.149,4.867l-0.021-0.145c-3.373,0.492-5.709,3.624-5.217,6.996c0.385,2.643,2.392,4.641,4.865,5.15
				l-0.145,0.021c0.492,3.372,3.623,5.708,6.998,5.218c2.641-0.386,4.639-2.393,5.147-4.866l0.021,0.144
				C158.853,20.091,161.189,16.959,160.697,13.586z M145.535,19.764"/>
		</g>
	</g>
	<g>
		<g>
			<path fill="#99C7C6" d="M-2.418,68.244c-0.386-2.643-2.392-4.641-4.865-5.149l0.146-0.021c-0.493-3.372-3.626-5.708-6.997-5.218
				c-2.642,0.387-4.641,2.394-5.149,4.867l-0.021-0.145c-3.373,0.49-5.708,3.623-5.217,6.996c0.384,2.643,2.392,4.641,4.864,5.149
				l-0.146,0.021c0.493,3.371,3.626,5.708,6.998,5.216c2.641-0.385,4.641-2.393,5.148-4.864l0.021,0.144
				C-4.262,74.748-1.927,71.617-2.418,68.244z M-17.579,74.422"/>
		</g>
		<g>
			<path fill="#99C7C6" d="M24.769,68.244c-0.386-2.643-2.392-4.641-4.865-5.149l0.146-0.021c-0.493-3.372-3.625-5.708-6.998-5.218
				c-2.643,0.387-4.641,2.394-5.148,4.867l-0.023-0.145c-3.371,0.49-5.707,3.623-5.215,6.996c0.386,2.643,2.392,4.641,4.864,5.149
				l-0.145,0.021c0.491,3.371,3.625,5.708,6.998,5.216c2.641-0.385,4.64-2.393,5.148-4.864l0.021,0.144
				C22.924,74.748,25.26,71.617,24.769,68.244z M9.605,74.422"/>
		</g>
		<g>
			<path fill="#99C7C6" d="M51.954,68.244c-0.385-2.643-2.392-4.641-4.866-5.149l0.146-0.021c-0.492-3.372-3.624-5.708-6.997-5.218
				c-2.643,0.387-4.64,2.394-5.148,4.867l-0.022-0.145c-3.371,0.49-5.707,3.623-5.216,6.996c0.385,2.643,2.393,4.641,4.865,5.149
				l-0.145,0.021c0.492,3.371,3.623,5.708,6.997,5.216c2.642-0.385,4.641-2.393,5.148-4.864l0.021,0.144
				C50.11,74.748,52.445,71.617,51.954,68.244z M36.79,74.422"/>
		</g>
		<g>
			<path fill="#99C7C6" d="M79.14,68.244c-0.384-2.643-2.392-4.641-4.866-5.149l0.146-0.021c-0.491-3.372-3.623-5.708-6.996-5.218
				c-2.642,0.387-4.641,2.394-5.149,4.867l-0.021-0.145c-3.374,0.49-5.71,3.623-5.218,6.996c0.387,2.643,2.394,4.641,4.866,5.149
				l-0.146,0.021c0.492,3.371,3.624,5.708,6.998,5.216c2.641-0.385,4.64-2.393,5.148-4.864l0.021,0.144
				C77.295,74.748,79.632,71.617,79.14,68.244z M63.977,74.422"/>
		</g>
		<g>
			<path fill="#99C7C6" d="M106.326,68.244c-0.385-2.643-2.393-4.641-4.867-5.149l0.146-0.021c-0.49-3.372-3.623-5.708-6.996-5.218
				c-2.641,0.387-4.64,2.394-5.149,4.867l-0.021-0.145c-3.372,0.49-5.708,3.623-5.217,6.996c0.385,2.643,2.392,4.641,4.864,5.149
				l-0.144,0.021c0.49,3.371,3.624,5.708,6.998,5.216c2.64-0.385,4.639-2.393,5.147-4.864l0.021,0.144
				C104.481,74.748,106.817,71.617,106.326,68.244z M91.163,74.422"/>
		</g>
		<g>
			<path fill="#99C7C6" d="M133.512,68.244c-0.384-2.643-2.393-4.641-4.866-5.149l0.146-0.021c-0.492-3.372-3.623-5.708-6.996-5.218
				c-2.642,0.387-4.642,2.394-5.149,4.867l-0.021-0.145c-3.372,0.49-5.708,3.623-5.216,6.996c0.384,2.643,2.391,4.641,4.863,5.149
				l-0.145,0.021c0.493,3.371,3.625,5.708,6.998,5.216c2.641-0.385,4.642-2.393,5.147-4.864l0.022,0.144
				C131.668,74.748,134.004,71.617,133.512,68.244z M118.349,74.422"/>
		</g>
		<g>
			<path fill="#99C7C6" d="M160.697,68.244c-0.385-2.643-2.392-4.641-4.866-5.149l0.146-0.021c-0.49-3.372-3.624-5.708-6.995-5.218
				c-2.642,0.387-4.642,2.394-5.149,4.867l-0.021-0.145c-3.373,0.49-5.709,3.623-5.217,6.996c0.385,2.643,2.392,4.641,4.865,5.149
				l-0.145,0.021c0.492,3.371,3.623,5.708,6.998,5.216c2.641-0.385,4.639-2.393,5.147-4.864l0.021,0.144
				C158.853,74.748,161.189,71.617,160.697,68.244z M145.535,74.422"/>
		</g>
	</g>
	<g>
		<g>
			<path fill="#99C7C6" d="M-16.386,40.771c-0.383-2.643-2.392-4.641-4.864-5.148l0.145-0.021c-0.492-3.373-3.624-5.707-6.996-5.219
				c-2.642,0.387-4.642,2.395-5.149,4.868l-0.021-0.146c-3.371,0.492-5.708,3.625-5.216,6.996c0.384,2.643,2.392,4.641,4.865,5.15
				l-0.146,0.02c0.491,3.373,3.626,5.709,6.997,5.219c2.642-0.386,4.641-2.393,5.148-4.866l0.021,0.145
				C-18.229,47.277-15.894,44.145-16.386,40.771z M-31.548,46.949"/>
		</g>
		<g>
			<path fill="#99C7C6" d="M10.802,40.771c-0.385-2.643-2.392-4.641-4.866-5.148l0.146-0.021c-0.491-3.373-3.625-5.707-6.996-5.219
				c-2.644,0.387-4.643,2.395-5.149,4.868l-0.021-0.146c-3.371,0.492-5.709,3.625-5.217,6.996c0.385,2.643,2.392,4.641,4.864,5.15
				l-0.144,0.02c0.491,3.373,3.623,5.709,6.997,5.219c2.641-0.386,4.641-2.393,5.149-4.866l0.021,0.145
				C8.957,47.277,11.292,44.145,10.802,40.771z M-4.361,46.949"/>
		</g>
		<g>
			<path fill="#99C7C6" d="M37.987,40.771c-0.384-2.643-2.392-4.641-4.865-5.148l0.145-0.021c-0.492-3.373-3.624-5.707-6.996-5.219
				c-2.642,0.387-4.641,2.395-5.15,4.868L21.1,35.105c-3.372,0.492-5.708,3.625-5.216,6.996c0.384,2.643,2.392,4.641,4.864,5.15
				l-0.145,0.02c0.492,3.373,3.625,5.709,6.997,5.219c2.642-0.386,4.64-2.393,5.147-4.866l0.022,0.145
				C36.144,47.277,38.479,44.145,37.987,40.771z M22.824,46.949"/>
		</g>
		<g>
			<path fill="#99C7C6" d="M65.174,40.771c-0.386-2.643-2.392-4.641-4.866-5.148l0.146-0.021c-0.492-3.373-3.625-5.707-6.996-5.219
				c-2.642,0.387-4.642,2.395-5.15,4.868l-0.021-0.146c-3.373,0.492-5.709,3.625-5.217,6.996c0.385,2.643,2.391,4.641,4.865,5.15
				l-0.145,0.02c0.491,3.373,3.623,5.709,6.998,5.219c2.641-0.386,4.64-2.393,5.146-4.866l0.021,0.145
				C63.328,47.277,65.666,44.145,65.174,40.771z M50.01,46.949"/>
		</g>
		<g>
			<path fill="#99C7C6" d="M92.359,40.771c-0.385-2.643-2.392-4.641-4.865-5.148l0.145-0.021c-0.49-3.373-3.624-5.707-6.997-5.219
				c-2.642,0.387-4.64,2.395-5.149,4.868l-0.021-0.146c-3.373,0.492-5.708,3.625-5.216,6.996c0.384,2.643,2.391,4.641,4.863,5.15
				l-0.145,0.02c0.492,3.373,3.624,5.709,6.998,5.219c2.641-0.386,4.641-2.393,5.148-4.866l0.021,0.145
				C90.516,47.277,92.852,44.145,92.359,40.771z M77.196,46.949"/>
		</g>
		<g>
			<path fill="#99C7C6" d="M119.545,40.771c-0.385-2.643-2.392-4.641-4.865-5.148l0.145-0.021c-0.492-3.373-3.624-5.707-6.996-5.219
				c-2.643,0.387-4.642,2.395-5.149,4.868l-0.021-0.146c-3.373,0.492-5.709,3.625-5.217,6.996c0.385,2.643,2.392,4.641,4.864,5.15
				l-0.146,0.02c0.494,3.373,3.625,5.709,6.998,5.219c2.642-0.386,4.641-2.393,5.148-4.866l0.021,0.145
				C117.702,47.277,120.037,44.145,119.545,40.771z M104.381,46.949"/>
		</g>
		<g>
			<path fill="#99C7C6" d="M146.73,40.771c-0.384-2.643-2.391-4.641-4.865-5.148l0.145-0.021c-0.491-3.373-3.623-5.707-6.996-5.219
				c-2.642,0.387-4.641,2.395-5.149,4.868l-0.021-0.146c-3.373,0.492-5.709,3.625-5.217,6.996c0.385,2.643,2.392,4.641,4.865,5.15
				l-0.146,0.02c0.492,3.373,3.624,5.709,6.998,5.219c2.642-0.386,4.64-2.393,5.148-4.866l0.021,0.145
				C144.887,47.277,147.223,44.145,146.73,40.771z M131.568,46.949"/>
		</g>
	</g>
</g>
<g>
	<g>
		<g>
			<g>
				<rect x="-13.672" y="-46.344" fill="#FFFFFF" width="0.878" height="3.215"/>
			</g>
			<g>
				<rect x="-13.672" y="-38.879" fill="#FFFFFF" width="0.878" height="3.214"/>
			</g>
		</g>
		<g>
			<g>
				
					<rect x="-10.549" y="-44.499" transform="matrix(0.5145 0.8575 -0.8575 0.5145 -41.6879 -12.1545)" fill="#FFFFFF" width="0.877" height="3.215"/>
			</g>
			<g>
				
					<rect x="-17.812" y="-43.33" transform="matrix(0.9055 0.4243 -0.4243 0.9055 -19.7319 2.823)" fill="#FFFFFF" width="3.215" height="0.879"/>
			</g>
			<g>
				
					<rect x="-16.721" y="-40.767" transform="matrix(0.5143 0.8576 -0.8576 0.5143 -41.4905 -5.0555)" fill="#FFFFFF" width="0.879" height="3.215"/>
			</g>
			<g>
				
					<rect x="-11.795" y="-39.6" transform="matrix(0.9056 0.4242 -0.4242 0.9056 -17.5751 0.6233)" fill="#FFFFFF" width="3.216" height="0.879"/>
			</g>
		</g>
	</g>
	<g>
		<g>
			<g>
				<rect x="13.513" y="-46.344" fill="#FFFFFF" width="0.88" height="3.215"/>
			</g>
			<g>
				<rect x="13.513" y="-38.879" fill="#FFFFFF" width="0.88" height="3.214"/>
			</g>
		</g>
		<g>
			<g>
				
					<rect x="16.638" y="-44.5" transform="matrix(0.5145 0.8575 -0.8575 0.5145 -28.4885 -35.4672)" fill="#FFFFFF" width="0.877" height="3.216"/>
			</g>
			<g>
				
					<rect x="9.375" y="-43.33" transform="matrix(0.9054 0.4245 -0.4245 0.9054 -17.1672 -8.717)" fill="#FFFFFF" width="3.214" height="0.879"/>
			</g>
			<g>
				
					<rect x="10.465" y="-40.767" transform="matrix(0.5143 0.8576 -0.8576 0.5143 -28.2871 -28.37)" fill="#FFFFFF" width="0.879" height="3.216"/>
			</g>
			<g>
				
					<rect x="15.391" y="-39.599" transform="matrix(0.9055 0.4243 -0.4243 0.9055 -15.0112 -10.9138)" fill="#FFFFFF" width="3.215" height="0.879"/>
			</g>
		</g>
	</g>
	<g>
		<g>
			<g>
				<rect x="40.699" y="-46.344" fill="#FFFFFF" width="0.878" height="3.215"/>
			</g>
			<g>
				<rect x="40.699" y="-38.879" fill="#FFFFFF" width="0.878" height="3.214"/>
			</g>
		</g>
		<g>
			<g>
				
					<rect x="43.823" y="-44.5" transform="matrix(0.5153 0.857 -0.857 0.5153 -15.3051 -58.7213)" fill="#FFFFFF" width="0.877" height="3.216"/>
			</g>
			<g>
				
					<rect x="36.56" y="-43.33" transform="matrix(0.9056 0.4242 -0.4242 0.9056 -14.5907 -20.2429)" fill="#FFFFFF" width="3.216" height="0.879"/>
			</g>
			<g>
				
					<rect x="37.651" y="-40.767" transform="matrix(0.5151 0.8571 -0.8571 0.5151 -15.0956 -51.6339)" fill="#FFFFFF" width="0.88" height="3.216"/>
			</g>
			<g>
				
					<rect x="42.577" y="-39.599" transform="matrix(0.9055 0.4243 -0.4243 0.9055 -12.4421 -22.4503)" fill="#FFFFFF" width="3.215" height="0.879"/>
			</g>
		</g>
	</g>
	<g>
		<g>
			<g>
				<rect x="67.886" y="-46.344" fill="#FFFFFF" width="0.878" height="3.215"/>
			</g>
			<g>
				<rect x="67.886" y="-38.879" fill="#FFFFFF" width="0.878" height="3.214"/>
			</g>
		</g>
		<g>
			<g>
				
					<rect x="71.009" y="-44.499" transform="matrix(0.5145 0.8575 -0.8575 0.5145 -2.0913 -82.0896)" fill="#FFFFFF" width="0.877" height="3.215"/>
			</g>
			<g>
				
					<rect x="63.746" y="-43.33" transform="matrix(0.9054 0.4245 -0.4245 0.9054 -12.0261 -31.7954)" fill="#FFFFFF" width="3.214" height="0.879"/>
			</g>
			<g>
				
					<rect x="64.837" y="-40.767" transform="matrix(0.5135 0.8581 -0.8581 0.5135 -1.8464 -75.0626)" fill="#FFFFFF" width="0.879" height="3.216"/>
			</g>
			<g>
				
					<rect x="69.764" y="-39.6" transform="matrix(0.9055 0.4243 -0.4243 0.9055 -9.8729 -33.9869)" fill="#FFFFFF" width="3.215" height="0.879"/>
			</g>
		</g>
	</g>
	<g>
		<g>
			<g>
				<rect x="95.07" y="-46.344" fill="#FFFFFF" width="0.879" height="3.215"/>
			</g>
			<g>
				<rect x="95.07" y="-38.879" fill="#FFFFFF" width="0.879" height="3.214"/>
			</g>
		</g>
		<g>
			<g>
				
					<rect x="98.196" y="-44.5" transform="matrix(0.5153 0.857 -0.857 0.5153 11.0485 -105.3187)" fill="#FFFFFF" width="0.877" height="3.217"/>
			</g>
			<g>
				
					<rect x="90.932" y="-43.33" transform="matrix(0.9054 0.4245 -0.4245 0.9054 -9.4555 -43.3349)" fill="#FFFFFF" width="3.214" height="0.879"/>
			</g>
			<g>
				
					<rect x="92.023" y="-40.766" transform="matrix(0.5135 0.8581 -0.8581 0.5135 11.3792 -98.3904)" fill="#FFFFFF" width="0.879" height="3.213"/>
			</g>
			<g>
				
					<rect x="96.949" y="-39.599" transform="matrix(0.9055 0.4243 -0.4243 0.9055 -7.3038 -45.523)" fill="#FFFFFF" width="3.215" height="0.879"/>
			</g>
		</g>
	</g>
	<g>
		<g>
			<g>
				<rect x="122.258" y="-46.344" fill="#FFFFFF" width="0.877" height="3.215"/>
			</g>
			<g>
				<rect x="122.258" y="-38.879" fill="#FFFFFF" width="0.877" height="3.214"/>
			</g>
		</g>
		<g>
			<g>
				
					<rect x="125.381" y="-44.499" transform="matrix(0.5145 0.8575 -0.8575 0.5145 24.3066 -128.7132)" fill="#FFFFFF" width="0.877" height="3.215"/>
			</g>
			<g>
				
					<rect x="118.118" y="-43.33" transform="matrix(0.9054 0.4245 -0.4245 0.9054 -6.8849 -54.8747)" fill="#FFFFFF" width="3.214" height="0.879"/>
			</g>
			<g>
				
					<rect x="119.208" y="-40.767" transform="matrix(0.5143 0.8576 -0.8576 0.5143 24.5259 -121.6272)" fill="#FFFFFF" width="0.879" height="3.214"/>
			</g>
			<g>
				
					<rect x="124.135" y="-39.599" transform="matrix(0.9055 0.4243 -0.4243 0.9055 -4.7348 -57.0592)" fill="#FFFFFF" width="3.215" height="0.879"/>
			</g>
		</g>
	</g>
	<g>
		<g>
			<g>
				<rect x="149.443" y="-46.344" fill="#FFFFFF" width="0.877" height="3.215"/>
			</g>
			<g>
				<rect x="149.443" y="-38.879" fill="#FFFFFF" width="0.877" height="3.214"/>
			</g>
		</g>
		<g>
			<g>
				
					<rect x="152.567" y="-44.5" transform="matrix(0.5161 0.8565 -0.8565 0.5161 37.2978 -151.805)" fill="#FFFFFF" width="0.878" height="3.217"/>
			</g>
			<g>
				
					<rect x="145.304" y="-43.33" transform="matrix(0.9054 0.4245 -0.4245 0.9054 -4.3143 -66.4142)" fill="#FFFFFF" width="3.214" height="0.879"/>
			</g>
			<g>
				
					<rect x="146.394" y="-40.767" transform="matrix(0.5135 0.8581 -0.8581 0.5135 37.8302 -145.0456)" fill="#FFFFFF" width="0.879" height="3.214"/>
			</g>
			<g>
				
					<rect x="151.321" y="-39.6" transform="matrix(0.9056 0.4242 -0.4242 0.9056 -2.1694 -68.5757)" fill="#FFFFFF" width="3.216" height="0.88"/>
			</g>
		</g>
	</g>
	<g>
		<g>
			<g>
				<rect x="-27.64" y="-19.158" fill="#FFFFFF" width="0.878" height="3.215"/>
			</g>
			<g>
				<rect x="-27.64" y="-11.694" fill="#FFFFFF" width="0.878" height="3.215"/>
			</g>
		</g>
		<g>
			<g>
				
					<rect x="-24.515" y="-17.313" transform="matrix(0.5153 0.857 -0.857 0.5153 -25.1291 13.021)" fill="#FFFFFF" width="0.877" height="3.216"/>
			</g>
			<g>
				
					<rect x="-31.779" y="-16.144" transform="matrix(0.9054 0.4245 -0.4245 0.9054 -9.5192 11.3219)" fill="#FFFFFF" width="3.214" height="0.878"/>
			</g>
			<g>
				
					<rect x="-30.688" y="-13.582" transform="matrix(0.5143 0.8576 -0.8576 0.5143 -24.96 20.1252)" fill="#FFFFFF" width="0.879" height="3.215"/>
			</g>
			<g>
				
					<rect x="-25.763" y="-12.413" transform="matrix(0.9056 0.4242 -0.4242 0.9056 -7.3611 9.1163)" fill="#FFFFFF" width="3.216" height="0.878"/>
			</g>
		</g>
	</g>
	<g>
		<g>
			<g>
				<rect x="-0.453" y="-19.158" fill="#FFFFFF" width="0.878" height="3.215"/>
			</g>
			<g>
				<rect x="-0.453" y="-11.694" fill="#FFFFFF" width="0.878" height="3.215"/>
			</g>
		</g>
		<g>
			<g>
				
					<rect x="2.67" y="-17.313" transform="matrix(0.5153 0.857 -0.857 0.5153 -11.9529 -10.2766)" fill="#FFFFFF" width="0.877" height="3.215"/>
			</g>
			<g>
				
					<rect x="-4.593" y="-16.144" transform="matrix(0.9054 0.4245 -0.4245 0.9054 -6.9486 -0.2176)" fill="#FFFFFF" width="3.214" height="0.879"/>
			</g>
			<g>
				
					<rect x="-3.502" y="-13.583" transform="matrix(0.5151 0.8571 -0.8571 0.5151 -11.7483 -3.181)" fill="#FFFFFF" width="0.88" height="3.217"/>
			</g>
			<g>
				
					<rect x="1.424" y="-12.413" transform="matrix(0.9056 0.4242 -0.4242 0.9056 -4.7934 -2.4173)" fill="#FFFFFF" width="3.216" height="0.878"/>
			</g>
		</g>
	</g>
	<g>
		<g>
			<g>
				<rect x="26.732" y="-19.158" fill="#FFFFFF" width="0.878" height="3.215"/>
			</g>
			<g>
				<rect x="26.732" y="-11.694" fill="#FFFFFF" width="0.878" height="3.215"/>
			</g>
		</g>
		<g>
			<g>
				
					<rect x="29.856" y="-17.313" transform="matrix(0.5145 0.8575 -0.8575 0.5145 1.2409 -33.6028)" fill="#FFFFFF" width="0.877" height="3.215"/>
			</g>
			<g>
				
					<rect x="22.593" y="-16.145" transform="matrix(0.9055 0.4243 -0.4243 0.9055 -4.3774 -11.7537)" fill="#FFFFFF" width="3.215" height="0.879"/>
			</g>
			<g>
				
					<rect x="23.684" y="-13.583" transform="matrix(0.516 0.8566 -0.8566 0.516 1.4193 -26.461)" fill="#FFFFFF" width="0.88" height="3.216"/>
			</g>
			<g>
				
					<rect x="28.61" y="-12.413" transform="matrix(0.9055 0.4243 -0.4243 0.9055 -2.2256 -13.9544)" fill="#FFFFFF" width="3.215" height="0.878"/>
			</g>
		</g>
	</g>
	<g>
		<g>
			<g>
				<rect x="53.918" y="-19.158" fill="#FFFFFF" width="0.879" height="3.215"/>
			</g>
			<g>
				<rect x="53.918" y="-11.694" fill="#FFFFFF" width="0.879" height="3.215"/>
			</g>
		</g>
		<g>
			<g>
				
					<rect x="57.042" y="-17.313" transform="matrix(0.5145 0.8575 -0.8575 0.5145 14.4398 -56.9146)" fill="#FFFFFF" width="0.877" height="3.214"/>
			</g>
			<g>
				
					<rect x="49.78" y="-16.144" transform="matrix(0.9054 0.4245 -0.4245 0.9054 -1.8074 -23.2969)" fill="#FFFFFF" width="3.214" height="0.878"/>
			</g>
			<g>
				
					<rect x="50.87" y="-13.582" transform="matrix(0.5143 0.8576 -0.8576 0.5143 14.6498 -49.8179)" fill="#FFFFFF" width="0.879" height="3.215"/>
			</g>
			<g>
				
					<rect x="55.796" y="-12.413" transform="matrix(0.9056 0.4242 -0.4242 0.9056 0.3418 -25.4836)" fill="#FFFFFF" width="3.216" height="0.878"/>
			</g>
		</g>
	</g>
	<g>
		<g>
			<g>
				<rect x="81.104" y="-19.158" fill="#FFFFFF" width="0.879" height="3.215"/>
			</g>
			<g>
				<rect x="81.104" y="-11.694" fill="#FFFFFF" width="0.879" height="3.215"/>
			</g>
		</g>
		<g>
			<g>
				
					<rect x="84.229" y="-17.313" transform="matrix(0.5161 0.8565 -0.8565 0.5161 27.516 -80.118)" fill="#FFFFFF" width="0.878" height="3.216"/>
			</g>
			<g>
				
					<rect x="76.966" y="-16.144" transform="matrix(0.9054 0.4245 -0.4245 0.9054 0.7632 -34.8364)" fill="#FFFFFF" width="3.214" height="0.879"/>
			</g>
			<g>
				
					<rect x="78.056" y="-13.582" transform="matrix(0.5143 0.8576 -0.8576 0.5143 27.8532 -73.1324)" fill="#FFFFFF" width="0.879" height="3.214"/>
			</g>
			<g>
				
					<rect x="82.982" y="-12.413" transform="matrix(0.9056 0.4242 -0.4242 0.9056 2.9094 -37.0166)" fill="#FFFFFF" width="3.216" height="0.878"/>
			</g>
		</g>
	</g>
	<g>
		<g>
			<g>
				<rect x="108.289" y="-19.158" fill="#FFFFFF" width="0.879" height="3.215"/>
			</g>
			<g>
				<rect x="108.289" y="-11.694" fill="#FFFFFF" width="0.879" height="3.215"/>
			</g>
		</g>
		<g>
			<g>
				
					<rect x="111.414" y="-17.314" transform="matrix(0.5153 0.857 -0.857 0.5153 40.7539 -103.4705)" fill="#FFFFFF" width="0.877" height="3.216"/>
			</g>
			<g>
				
					<rect x="104.152" y="-16.145" transform="matrix(0.9055 0.4243 -0.4243 0.9055 3.3299 -46.3629)" fill="#FFFFFF" width="3.215" height="0.879"/>
			</g>
			<g>
				
					<rect x="105.242" y="-13.582" transform="matrix(0.5143 0.8576 -0.8576 0.5143 41.0566 -96.4469)" fill="#FFFFFF" width="0.879" height="3.215"/>
			</g>
			<g>
				
					<rect x="110.167" y="-12.413" transform="matrix(0.9055 0.4243 -0.4243 0.9055 5.4816 -48.563)" fill="#FFFFFF" width="3.215" height="0.877"/>
			</g>
		</g>
	</g>
	<g>
		<g>
			<g>
				<rect x="135.476" y="-19.158" fill="#FFFFFF" width="0.879" height="3.215"/>
			</g>
			<g>
				<rect x="135.476" y="-11.694" fill="#FFFFFF" width="0.879" height="3.215"/>
			</g>
		</g>
		<g>
			<g>
				
					<rect x="138.599" y="-17.313" transform="matrix(0.5153 0.857 -0.857 0.5153 53.9299 -126.7677)" fill="#FFFFFF" width="0.877" height="3.215"/>
			</g>
			<g>
				
					<rect x="131.337" y="-16.144" transform="matrix(0.9054 0.4245 -0.4245 0.9054 5.9043 -57.915)" fill="#FFFFFF" width="3.214" height="0.879"/>
			</g>
			<g>
				
					<rect x="132.428" y="-13.582" transform="matrix(0.5135 0.8581 -0.8581 0.5135 54.3628 -119.8363)" fill="#FFFFFF" width="0.879" height="3.215"/>
			</g>
			<g>
				
					<rect x="137.354" y="-12.412" transform="matrix(0.9055 0.4243 -0.4243 0.9055 8.051 -60.0996)" fill="#FFFFFF" width="3.215" height="0.877"/>
			</g>
		</g>
	</g>
	<g>
		<g>
			<g>
				<rect x="-13.755" y="8.721" fill="#FFFFFF" width="0.878" height="3.215"/>
			</g>
			<g>
				<rect x="-13.755" y="16.184" fill="#FFFFFF" width="0.878" height="3.215"/>
			</g>
		</g>
		<g>
			<g>
				
					<rect x="-10.632" y="10.565" transform="matrix(0.514 0.8578 -0.8578 0.514 5.488 14.6593)" fill="#FFFFFF" width="0.878" height="3.216"/>
			</g>
			<g>
				
					<rect x="-17.894" y="11.734" transform="matrix(0.9056 0.4241 -0.4241 0.9056 3.6253 8.0561)" fill="#FFFFFF" width="3.215" height="0.878"/>
			</g>
			<g>
				
					<rect x="-16.803" y="14.296" transform="matrix(0.5148 0.8573 -0.8573 0.5148 5.6943 21.745)" fill="#FFFFFF" width="0.878" height="3.216"/>
			</g>
			<g>
				
					<rect x="-11.877" y="15.465" transform="matrix(0.9054 0.4246 -0.4246 0.9054 5.7812 5.8652)" fill="#FFFFFF" width="3.215" height="0.879"/>
			</g>
		</g>
	</g>
	<g>
		<g>
			<g>
				<rect x="13.432" y="8.721" fill="#FFFFFF" width="0.878" height="3.215"/>
			</g>
			<g>
				<rect x="13.432" y="16.184" fill="#FFFFFF" width="0.878" height="3.215"/>
			</g>
		</g>
		<g>
			<g>
				
					<rect x="16.555" y="10.565" transform="matrix(0.5156 0.8568 -0.8568 0.5156 18.6611 -8.6646)" fill="#FFFFFF" width="0.879" height="3.216"/>
			</g>
			<g>
				
					<rect x="9.292" y="11.734" transform="matrix(0.9056 0.4241 -0.4241 0.9056 6.1912 -3.4733)" fill="#FFFFFF" width="3.215" height="0.878"/>
			</g>
			<g>
				
					<rect x="10.383" y="14.296" transform="matrix(0.5148 0.8573 -0.8573 0.5148 18.8846 -1.562)" fill="#FFFFFF" width="0.878" height="3.216"/>
			</g>
			<g>
				
					<rect x="15.308" y="15.465" transform="matrix(0.9054 0.4246 -0.4246 0.9054 8.3535 -5.6777)" fill="#FFFFFF" width="3.215" height="0.878"/>
			</g>
		</g>
	</g>
	<g>
		<g>
			<g>
				<rect x="40.617" y="8.721" fill="#FFFFFF" width="0.879" height="3.215"/>
			</g>
			<g>
				<rect x="40.617" y="16.184" fill="#FFFFFF" width="0.879" height="3.215"/>
			</g>
		</g>
		<g>
			<g>
				
					<rect x="43.741" y="10.565" transform="matrix(0.5148 0.8573 -0.8573 0.5148 31.8707 -31.9691)" fill="#FFFFFF" width="0.878" height="3.216"/>
			</g>
			<g>
				
					<rect x="36.478" y="11.734" transform="matrix(0.9056 0.4242 -0.4242 0.9056 8.7606 -15.0067)" fill="#FFFFFF" width="3.214" height="0.878"/>
			</g>
			<g>
				
					<rect x="37.568" y="14.296" transform="matrix(0.5148 0.8573 -0.8573 0.5148 32.0742 -24.8676)" fill="#FFFFFF" width="0.878" height="3.215"/>
			</g>
			<g>
				
					<rect x="42.495" y="15.465" transform="matrix(0.9054 0.4245 -0.4245 0.9054 10.9216 -17.2169)" fill="#FFFFFF" width="3.216" height="0.878"/>
			</g>
		</g>
	</g>
	<g>
		<g>
			<g>
				<rect x="67.802" y="8.721" fill="#FFFFFF" width="0.88" height="3.215"/>
			</g>
			<g>
				<rect x="67.802" y="16.184" fill="#FFFFFF" width="0.88" height="3.215"/>
			</g>
		</g>
		<g>
			<g>
				
					<rect x="70.927" y="10.565" transform="matrix(0.5148 0.8573 -0.8573 0.5148 45.061 -55.276)" fill="#FFFFFF" width="0.878" height="3.216"/>
			</g>
			<g>
				
					<rect x="63.664" y="11.734" transform="matrix(0.9056 0.4241 -0.4241 0.9056 11.3231 -26.5327)" fill="#FFFFFF" width="3.215" height="0.878"/>
			</g>
			<g>
				
					<rect x="64.754" y="14.296" transform="matrix(0.514 0.8578 -0.8578 0.514 45.3253 -48.1931)" fill="#FFFFFF" width="0.878" height="3.215"/>
			</g>
			<g>
				
					<rect x="69.681" y="15.465" transform="matrix(0.9053 0.4247 -0.4247 0.9053 13.5038 -28.7714)" fill="#FFFFFF" width="3.214" height="0.878"/>
			</g>
		</g>
	</g>
	<g>
		<g>
			<g>
				<rect x="94.989" y="8.721" fill="#FFFFFF" width="0.878" height="3.215"/>
			</g>
			<g>
				<rect x="94.989" y="16.184" fill="#FFFFFF" width="0.878" height="3.215"/>
			</g>
		</g>
		<g>
			<g>
				
					<rect x="98.113" y="10.565" transform="matrix(0.5148 0.8573 -0.8573 0.5148 58.2508 -78.5821)" fill="#FFFFFF" width="0.878" height="3.216"/>
			</g>
			<g>
				
					<rect x="90.849" y="11.734" transform="matrix(0.9057 0.424 -0.424 0.9057 13.8825 -38.0519)" fill="#FFFFFF" width="3.215" height="0.878"/>
			</g>
			<g>
				
					<rect x="91.941" y="14.296" transform="matrix(0.5148 0.8573 -0.8573 0.5148 58.4545 -71.481)" fill="#FFFFFF" width="0.878" height="3.216"/>
			</g>
			<g>
				
					<rect x="96.865" y="15.466" transform="matrix(0.9054 0.4246 -0.4246 0.9054 16.0702 -40.3066)" fill="#FFFFFF" width="3.215" height="0.877"/>
			</g>
		</g>
	</g>
	<g>
		<g>
			<g>
				<rect x="122.175" y="8.721" fill="#FFFFFF" width="0.878" height="3.215"/>
			</g>
			<g>
				<rect x="122.175" y="16.184" fill="#FFFFFF" width="0.878" height="3.215"/>
			</g>
		</g>
		<g>
			<g>
				
					<rect x="125.299" y="10.565" transform="matrix(0.5148 0.8573 -0.8573 0.5148 71.4409 -101.8886)" fill="#FFFFFF" width="0.878" height="3.216"/>
			</g>
			<g>
				
					<rect x="118.035" y="11.734" transform="matrix(0.9057 0.424 -0.424 0.9057 16.4469 -49.5781)" fill="#FFFFFF" width="3.215" height="0.878"/>
			</g>
			<g>
				
					<rect x="119.127" y="14.296" transform="matrix(0.5156 0.8568 -0.8568 0.5156 71.5391 -94.7418)" fill="#FFFFFF" width="0.879" height="3.216"/>
			</g>
			<g>
				
					<rect x="124.052" y="15.465" transform="matrix(0.9054 0.4246 -0.4246 0.9054 18.6426 -51.8501)" fill="#FFFFFF" width="3.215" height="0.878"/>
			</g>
		</g>
	</g>
	<g>
		<g>
			<g>
				<rect x="149.36" y="8.721" fill="#FFFFFF" width="0.879" height="3.215"/>
			</g>
			<g>
				<rect x="149.36" y="16.184" fill="#FFFFFF" width="0.879" height="3.215"/>
			</g>
		</g>
		<g>
			<g>
				
					<rect x="152.484" y="10.565" transform="matrix(0.5156 0.8568 -0.8568 0.5156 84.5001 -125.13)" fill="#FFFFFF" width="0.879" height="3.216"/>
			</g>
			<g>
				
					<rect x="145.221" y="11.734" transform="matrix(0.9057 0.424 -0.424 0.9057 19.0114 -61.1045)" fill="#FFFFFF" width="3.215" height="0.878"/>
			</g>
			<g>
				
					<rect x="146.313" y="14.296" transform="matrix(0.514 0.8578 -0.8578 0.514 84.9624 -118.153)" fill="#FFFFFF" width="0.878" height="3.215"/>
			</g>
			<g>
				
					<rect x="151.238" y="15.465" transform="matrix(0.9054 0.4245 -0.4245 0.9054 21.2047 -63.3763)" fill="#FFFFFF" width="3.216" height="0.878"/>
			</g>
		</g>
	</g>
	<g>
		<g>
			<g>
				<rect x="-13.755" y="63.379" fill="#FFFFFF" width="0.878" height="3.214"/>
			</g>
			<g>
				<rect x="-13.755" y="70.842" fill="#FFFFFF" width="0.878" height="3.215"/>
			</g>
		</g>
		<g>
			<g>
				
					<rect x="-10.632" y="65.224" transform="matrix(0.5135 0.8581 -0.8581 0.5135 52.3878 41.2586)" fill="#FFFFFF" width="0.879" height="3.215"/>
			</g>
			<g>
				
					<rect x="-17.894" y="66.392" transform="matrix(0.9055 0.4243 -0.4243 0.9055 26.8203 13.2268)" fill="#FFFFFF" width="3.215" height="0.878"/>
			</g>
			<g>
				
					<rect x="-16.803" y="68.954" transform="matrix(0.5148 0.8573 -0.8573 0.5148 52.5526 48.2639)" fill="#FFFFFF" width="0.878" height="3.216"/>
			</g>
			<g>
				
					<rect x="-11.877" y="70.122" transform="matrix(0.9056 0.4241 -0.4241 0.9056 28.9558 11.0154)" fill="#FFFFFF" width="3.215" height="0.878"/>
			</g>
		</g>
	</g>
	<g>
		<g>
			<g>
				<rect x="13.432" y="63.379" fill="#FFFFFF" width="0.878" height="3.214"/>
			</g>
			<g>
				<rect x="13.432" y="70.842" fill="#FFFFFF" width="0.878" height="3.215"/>
			</g>
		</g>
		<g>
			<g>
				
					<rect x="16.554" y="65.223" transform="matrix(0.5151 0.8571 -0.8571 0.5151 65.5206 17.8374)" fill="#FFFFFF" width="0.88" height="3.216"/>
			</g>
			<g>
				
					<rect x="9.291" y="66.392" transform="matrix(0.9055 0.4243 -0.4243 0.9055 29.3894 1.6906)" fill="#FFFFFF" width="3.215" height="0.878"/>
			</g>
			<g>
				
					<rect x="10.383" y="68.954" transform="matrix(0.5148 0.8573 -0.8573 0.5148 65.7429 24.957)" fill="#FFFFFF" width="0.878" height="3.216"/>
			</g>
			<g>
				
					<rect x="15.309" y="70.123" transform="matrix(0.9056 0.4241 -0.4241 0.9056 31.5217 -0.5142)" fill="#FFFFFF" width="3.215" height="0.878"/>
			</g>
		</g>
	</g>
	<g>
		<g>
			<g>
				<rect x="40.617" y="63.379" fill="#FFFFFF" width="0.879" height="3.214"/>
			</g>
			<g>
				<rect x="40.617" y="70.842" fill="#FFFFFF" width="0.879" height="3.215"/>
			</g>
		</g>
		<g>
			<g>
				
					<rect x="43.74" y="65.224" transform="matrix(0.5143 0.8576 -0.8576 0.5143 78.7703 -5.4304)" fill="#FFFFFF" width="0.879" height="3.215"/>
			</g>
			<g>
				
					<rect x="36.478" y="66.392" transform="matrix(0.9054 0.4245 -0.4245 0.9054 31.9684 -9.8465)" fill="#FFFFFF" width="3.214" height="0.878"/>
			</g>
			<g>
				
					<rect x="37.568" y="68.954" transform="matrix(0.5148 0.8573 -0.8573 0.5148 78.9324 1.6513)" fill="#FFFFFF" width="0.878" height="3.215"/>
			</g>
			<g>
				
					<rect x="42.495" y="70.123" transform="matrix(0.9057 0.424 -0.424 0.9057 34.0771 -12.0429)" fill="#FFFFFF" width="3.215" height="0.878"/>
			</g>
		</g>
	</g>
	<g>
		<g>
			<g>
				<rect x="67.802" y="63.379" fill="#FFFFFF" width="0.88" height="3.214"/>
			</g>
			<g>
				<rect x="67.802" y="70.842" fill="#FFFFFF" width="0.88" height="3.215"/>
			</g>
		</g>
		<g>
			<g>
				
					<rect x="70.927" y="65.224" transform="matrix(0.5143 0.8576 -0.8576 0.5143 91.974 -28.7453)" fill="#FFFFFF" width="0.879" height="3.215"/>
			</g>
			<g>
				
					<rect x="63.664" y="66.392" transform="matrix(0.9055 0.4243 -0.4243 0.9055 34.5276 -21.3823)" fill="#FFFFFF" width="3.215" height="0.878"/>
			</g>
			<g>
				
					<rect x="64.754" y="68.954" transform="matrix(0.514 0.8578 -0.8578 0.514 92.2104 -21.6295)" fill="#FFFFFF" width="0.878" height="3.215"/>
			</g>
			<g>
				
					<rect x="69.681" y="70.122" transform="matrix(0.9057 0.424 -0.424 0.9057 36.6415 -23.5693)" fill="#FFFFFF" width="3.215" height="0.878"/>
			</g>
		</g>
	</g>
	<g>
		<g>
			<g>
				<rect x="94.989" y="63.379" fill="#FFFFFF" width="0.878" height="3.214"/>
			</g>
			<g>
				<rect x="94.989" y="70.842" fill="#FFFFFF" width="0.878" height="3.215"/>
			</g>
		</g>
		<g>
			<g>
				
					<rect x="98.112" y="65.224" transform="matrix(0.5143 0.8576 -0.8576 0.5143 105.1771 -52.0594)" fill="#FFFFFF" width="0.879" height="3.215"/>
			</g>
			<g>
				
					<rect x="90.849" y="66.392" transform="matrix(0.9056 0.4242 -0.4242 0.9056 37.0839 -32.9113)" fill="#FFFFFF" width="3.216" height="0.878"/>
			</g>
			<g>
				
					<rect x="91.941" y="68.954" transform="matrix(0.5148 0.8573 -0.8573 0.5148 105.3128 -44.9621)" fill="#FFFFFF" width="0.878" height="3.216"/>
			</g>
			<g>
				
					<rect x="96.866" y="70.123" transform="matrix(0.9056 0.4241 -0.4241 0.9056 39.2194 -35.1025)" fill="#FFFFFF" width="3.215" height="0.877"/>
			</g>
		</g>
	</g>
	<g>
		<g>
			<g>
				<rect x="122.175" y="63.379" fill="#FFFFFF" width="0.878" height="3.214"/>
			</g>
			<g>
				<rect x="122.175" y="70.842" fill="#FFFFFF" width="0.878" height="3.215"/>
			</g>
		</g>
		<g>
			<g>
				
					<rect x="125.298" y="65.223" transform="matrix(0.5143 0.8576 -0.8576 0.5143 118.3805 -75.3739)" fill="#FFFFFF" width="0.879" height="3.216"/>
			</g>
			<g>
				
					<rect x="118.035" y="66.392" transform="matrix(0.9056 0.4242 -0.4242 0.9056 39.6514 -44.4443)" fill="#FFFFFF" width="3.216" height="0.878"/>
			</g>
			<g>
				
					<rect x="119.127" y="68.954" transform="matrix(0.5156 0.8568 -0.8568 0.5156 118.3706 -68.2675)" fill="#FFFFFF" width="0.879" height="3.216"/>
			</g>
			<g>
				
					<rect x="124.053" y="70.123" transform="matrix(0.9056 0.4241 -0.4241 0.9056 41.7854 -46.6325)" fill="#FFFFFF" width="3.215" height="0.878"/>
			</g>
		</g>
	</g>
	<g>
		<g>
			<rect x="149.36" y="63.379" fill="#FFFFFF" width="0.879" height="3.214"/>
		</g>
		<g>
			<rect x="149.36" y="70.842" fill="#FFFFFF" width="0.879" height="3.215"/>
		</g>
	</g>
	<g>
		<g>
			
				<rect x="152.484" y="65.223" transform="matrix(0.5151 0.8571 -0.8571 0.5151 131.4263 -98.668)" fill="#FFFFFF" width="0.88" height="3.216"/>
		</g>
		<g>
			
				<rect x="145.221" y="66.392" transform="matrix(0.9056 0.4242 -0.4242 0.9056 42.2191 -55.9774)" fill="#FFFFFF" width="3.216" height="0.878"/>
		</g>
		<g>
			
				<rect x="146.313" y="68.954" transform="matrix(0.514 0.8578 -0.8578 0.514 131.8475 -91.5894)" fill="#FFFFFF" width="0.878" height="3.215"/>
		</g>
		<g>
			
				<rect x="151.238" y="70.123" transform="matrix(0.9057 0.424 -0.424 0.9057 44.3348 -58.1481)" fill="#FFFFFF" width="3.215" height="0.878"/>
		</g>
	</g>
	<g>
		<g>
			<g>
				<rect x="-27.722" y="35.906" fill="#FFFFFF" width="0.879" height="3.215"/>
			</g>
			<g>
				<rect x="-27.722" y="43.369" fill="#FFFFFF" width="0.879" height="3.216"/>
			</g>
		</g>
		<g>
			<g>
				
					<rect x="-24.599" y="37.751" transform="matrix(0.514 0.8578 -0.8578 0.514 22.0197 39.8518)" fill="#FFFFFF" width="0.878" height="3.216"/>
			</g>
			<g>
				
					<rect x="-31.86" y="38.919" transform="matrix(0.9054 0.4245 -0.4245 0.9054 13.8457 16.5629)" fill="#FFFFFF" width="3.214" height="0.879"/>
			</g>
			<g>
				
					<rect x="-30.77" y="41.481" transform="matrix(0.5156 0.8568 -0.8568 0.5156 22.2283 46.8582)" fill="#FFFFFF" width="0.879" height="3.216"/>
			</g>
			<g>
				
					<rect x="-25.844" y="42.65" transform="matrix(0.9056 0.4241 -0.4241 0.9056 15.9868 14.3456)" fill="#FFFFFF" width="3.215" height="0.879"/>
			</g>
		</g>
	</g>
	<g>
		<g>
			<g>
				<rect x="-0.535" y="35.906" fill="#FFFFFF" width="0.879" height="3.215"/>
			</g>
			<g>
				<rect x="-0.535" y="43.369" fill="#FFFFFF" width="0.879" height="3.216"/>
			</g>
		</g>
		<g>
			<g>
				
					<rect x="2.588" y="37.751" transform="matrix(0.5148 0.8573 -0.8573 0.5148 35.2106 16.5005)" fill="#FFFFFF" width="0.878" height="3.216"/>
			</g>
			<g>
				
					<rect x="-4.675" y="38.919" transform="matrix(0.9054 0.4245 -0.4245 0.9054 16.4162 5.0238)" fill="#FFFFFF" width="3.214" height="0.879"/>
			</g>
			<g>
				
					<rect x="-3.584" y="41.482" transform="matrix(0.514 0.8578 -0.8578 0.514 35.433 23.639)" fill="#FFFFFF" width="0.878" height="3.214"/>
			</g>
			<g>
				
					<rect x="1.342" y="42.651" transform="matrix(0.9056 0.4242 -0.4242 0.9056 18.5579 2.8185)" fill="#FFFFFF" width="3.214" height="0.879"/>
			</g>
		</g>
	</g>
	<g>
		<g>
			<g>
				<rect x="26.649" y="35.906" fill="#FFFFFF" width="0.878" height="3.215"/>
			</g>
			<g>
				<rect x="26.649" y="43.369" fill="#FFFFFF" width="0.878" height="3.216"/>
			</g>
		</g>
		<g>
			<g>
				
					<rect x="29.775" y="37.751" transform="matrix(0.5148 0.8573 -0.8573 0.5148 48.4009 -6.8064)" fill="#FFFFFF" width="0.878" height="3.216"/>
			</g>
			<g>
				
					<rect x="22.512" y="38.919" transform="matrix(0.9054 0.4245 -0.4245 0.9054 18.9868 -6.516)" fill="#FFFFFF" width="3.214" height="0.879"/>
			</g>
			<g>
				
					<rect x="23.602" y="41.482" transform="matrix(0.514 0.8578 -0.8578 0.514 48.6451 0.3196)" fill="#FFFFFF" width="0.878" height="3.214"/>
			</g>
			<g>
				
					<rect x="28.528" y="42.65" transform="matrix(0.9056 0.4242 -0.4242 0.9056 21.1253 -8.7145)" fill="#FFFFFF" width="3.214" height="0.879"/>
			</g>
		</g>
	</g>
	<g>
		<g>
			<g>
				<rect x="53.837" y="35.906" fill="#FFFFFF" width="0.877" height="3.215"/>
			</g>
			<g>
				<rect x="53.837" y="43.369" fill="#FFFFFF" width="0.877" height="3.216"/>
			</g>
		</g>
		<g>
			<g>
				
					<rect x="56.96" y="37.751" transform="matrix(0.5148 0.8573 -0.8573 0.5148 61.5905 -30.1121)" fill="#FFFFFF" width="0.878" height="3.215"/>
			</g>
			<g>
				
					<rect x="49.697" y="38.919" transform="matrix(0.9054 0.4245 -0.4245 0.9054 21.5573 -18.0551)" fill="#FFFFFF" width="3.214" height="0.879"/>
			</g>
			<g>
				
					<rect x="50.788" y="41.482" transform="matrix(0.514 0.8578 -0.8578 0.514 61.8574 -23.0003)" fill="#FFFFFF" width="0.878" height="3.215"/>
			</g>
			<g>
				
					<rect x="55.714" y="42.65" transform="matrix(0.9057 0.424 -0.424 0.9057 23.6764 -20.2386)" fill="#FFFFFF" width="3.215" height="0.88"/>
			</g>
		</g>
	</g>
	<g>
		<g>
			<g>
				<rect x="81.022" y="35.906" fill="#FFFFFF" width="0.877" height="3.215"/>
			</g>
			<g>
				<rect x="81.022" y="43.369" fill="#FFFFFF" width="0.877" height="3.216"/>
			</g>
		</g>
		<g>
			<g>
				
					<rect x="84.146" y="37.751" transform="matrix(0.514 0.8578 -0.8578 0.514 74.8688 -53.4275)" fill="#FFFFFF" width="0.878" height="3.216"/>
			</g>
			<g>
				
					<rect x="76.882" y="38.919" transform="matrix(0.9056 0.4242 -0.4242 0.9056 24.1102 -29.5808)" fill="#FFFFFF" width="3.216" height="0.879"/>
			</g>
			<g>
				
					<rect x="77.974" y="41.481" transform="matrix(0.5156 0.8568 -0.8568 0.5156 74.8997 -46.3144)" fill="#FFFFFF" width="0.879" height="3.216"/>
			</g>
			<g>
				
					<rect x="82.9" y="42.65" transform="matrix(0.9056 0.4241 -0.4241 0.9056 26.2505 -31.7725)" fill="#FFFFFF" width="3.215" height="0.88"/>
			</g>
		</g>
	</g>
	<g>
		<g>
			<g>
				<rect x="108.207" y="35.906" fill="#FFFFFF" width="0.879" height="3.215"/>
			</g>
			<g>
				<rect x="108.207" y="43.369" fill="#FFFFFF" width="0.879" height="3.216"/>
			</g>
		</g>
		<g>
			<g>
				
					<rect x="111.332" y="37.751" transform="matrix(0.514 0.8578 -0.8578 0.514 88.0811 -76.7473)" fill="#FFFFFF" width="0.878" height="3.215"/>
			</g>
			<g>
				
					<rect x="104.068" y="38.919" transform="matrix(0.9056 0.4242 -0.4242 0.9056 26.6778 -41.114)" fill="#FFFFFF" width="3.216" height="0.879"/>
			</g>
			<g>
				
					<rect x="105.159" y="41.482" transform="matrix(0.5148 0.8573 -0.8573 0.5148 88.1742 -69.623)" fill="#FFFFFF" width="0.878" height="3.215"/>
			</g>
			<g>
				
					<rect x="110.086" y="42.65" transform="matrix(0.9057 0.424 -0.424 0.9057 28.8054 -43.2916)" fill="#FFFFFF" width="3.215" height="0.879"/>
			</g>
		</g>
	</g>
	<g>
		<g>
			<g>
				<rect x="135.395" y="35.906" fill="#FFFFFF" width="0.877" height="3.215"/>
			</g>
			<g>
				<rect x="135.395" y="43.369" fill="#FFFFFF" width="0.877" height="3.216"/>
			</g>
		</g>
		<g>
			<g>
				
					<rect x="138.517" y="37.751" transform="matrix(0.5148 0.8573 -0.8573 0.5148 101.1604 -100.0312)" fill="#FFFFFF" width="0.878" height="3.215"/>
			</g>
			<g>
				
					<rect x="131.255" y="38.919" transform="matrix(0.9055 0.4243 -0.4243 0.9055 29.2573 -52.6605)" fill="#FFFFFF" width="3.215" height="0.879"/>
			</g>
			<g>
				
					<rect x="132.346" y="41.481" transform="matrix(0.5148 0.8573 -0.8573 0.5148 101.3647 -92.9303)" fill="#FFFFFF" width="0.878" height="3.216"/>
			</g>
			<g>
				
					<rect x="137.271" y="42.65" transform="matrix(0.9057 0.424 -0.424 0.9057 31.3697 -54.8176)" fill="#FFFFFF" width="3.215" height="0.88"/>
			</g>
		</g>
	</g>
</g>
</svg>
