<?xml version="1.0" encoding="utf-8"?>
<!-- Generator: Adobe Illustrator 16.0.0, SVG Export Plug-In . SVG Version: 6.00 Build 0)  -->
<!DOCTYPE svg PUBLIC "-//W3C//DTD SVG 1.1//EN" "http://www.w3.org/Graphics/SVG/1.1/DTD/svg11.dtd">
<svg version="1.1" id="Layer_1" xmlns="http://www.w3.org/2000/svg" xmlns:xlink="http://www.w3.org/1999/xlink" x="0px" y="0px"
	 width="60px" height="60px" viewBox="0 0 60 60" enable-background="new 0 0 60 60" xml:space="preserve">
<g>
	<path fill="#FFFFFF" d="M38.653,21.152c-0.098-0.273-0.212-0.779-0.467-1.199c-0.084-0.139-0.648-0.185-0.795-0.053
		c-0.564,0.511-0.638,1.794-0.277,2.422c0.175,0.307,0.337,0.674,0.339,1.016c0.021,4.513,0.019,9.025,0.005,13.539
		c-0.001,0.293-0.083,0.623-0.233,0.872c-0.446,0.738-0.456,1.899,0.126,2.49c0.143,0.146,0.72,0.145,0.813,0.012
		c0.496-0.711,0.646-1.498,0.271-2.346c-0.17-0.386-0.345-0.812-0.348-1.221c-0.026-3.777-0.041-7.555,0-11.33
		c0.012-1.143-0.344-2.359,0.49-3.402C38.677,21.829,38.619,21.581,38.653,21.152 M35.505,21.379
		c-0.16-0.458-0.287-0.989-0.545-1.447c-0.069-0.124-0.698-0.142-0.787-0.013c-0.488,0.706-0.684,1.484-0.305,2.34
		c0.17,0.382,0.336,0.809,0.338,1.217c0.024,4.312,0.029,8.627-0.002,12.939c-0.004,0.532-0.354,1.063-0.354,1.595
		c0.004,0.759,0.17,1.521,0.324,2.269c0.009,0.043,0.779,0.024,0.793-0.046c0.151-0.752,0.291-1.521,0.288-2.285
		c-0.002-0.5-0.349-0.997-0.356-1.498c-0.039-2.523-0.096-5.052,0.004-7.571C35.001,26.401,34.372,23.864,35.505,21.379
		 M30.771,30.88h-0.008c0-2.177,0.006-4.354-0.002-6.528c-0.005-1.313-0.583-2.3-1.814-2.776c-0.594-0.229-0.774-0.547-0.709-1.134
		c0.082-0.729-0.313-1.188-0.995-1.291c-0.686-0.103-1.399-0.147-2.086-0.08c-0.83,0.083-1.308,0.552-1.269,1.487
		c0.012,0.297-0.219,0.782-0.461,0.879c-1.527,0.616-2.083,1.776-2.08,3.328c0.008,4.064-0.002,8.13,0.004,12.194
		c0.003,2.083,1.07,3.507,3.122,3.869c1.047,0.185,2.183,0.176,3.229-0.013c2.023-0.363,3.049-1.726,3.064-3.791
		C30.783,34.977,30.771,32.928,30.771,30.88"/>
	<path fill="#404041" d="M22.286,36.597c-0.169,1.88,0.459,2.979,2.136,3.314c1.091,0.217,2.3,0.211,3.389-0.015
		c1.608-0.331,2.267-1.532,2.083-3.296C27.38,37.261,24.861,37.277,22.286,36.597 M29.897,27.602c0-1.307,0.126-2.567-0.057-3.781
		c-0.082-0.546-0.713-1.103-1.232-1.447c-0.236-0.158-0.835,0.123-1.219,0.31c-1.013,0.494-1.94,0.429-2.897-0.171
		c-0.276-0.173-0.761-0.216-1.067-0.099c-0.739,0.281-1.166,0.882-1.188,1.699c-0.027,0.991-0.062,1.984-0.003,2.973
		c0.013,0.235,0.353,0.602,0.594,0.649C25.197,28.207,27.565,28.197,29.897,27.602 M30.771,30.88c0,2.048,0.013,4.097-0.004,6.145
		c-0.016,2.065-1.041,3.428-3.064,3.791c-1.047,0.188-2.183,0.197-3.229,0.013c-2.052-0.362-3.119-1.786-3.122-3.869
		c-0.006-4.064,0.004-8.13-0.004-12.194c-0.003-1.552,0.553-2.712,2.08-3.328c0.242-0.097,0.473-0.582,0.461-0.879
		c-0.039-0.936,0.438-1.404,1.269-1.487c0.687-0.067,1.4-0.022,2.086,0.08c0.682,0.103,1.077,0.562,0.995,1.291
		c-0.065,0.587,0.115,0.904,0.709,1.134c1.231,0.477,1.81,1.463,1.814,2.776c0.008,2.175,0.002,4.352,0.002,6.528H30.771z"/>
	<path fill="#404041" d="M35.505,21.379c-1.133,2.485-0.504,5.022-0.602,7.5c-0.1,2.52-0.043,5.047-0.004,7.57
		c0.008,0.501,0.354,0.998,0.356,1.499c0.002,0.763-0.137,1.531-0.288,2.284c-0.014,0.07-0.784,0.088-0.793,0.046
		c-0.154-0.748-0.32-1.51-0.324-2.269c-0.001-0.531,0.35-1.062,0.354-1.595c0.031-4.312,0.026-8.627,0.002-12.939
		c-0.002-0.408-0.168-0.834-0.338-1.217c-0.379-0.855-0.184-1.634,0.305-2.34c0.089-0.129,0.718-0.111,0.787,0.013
		C35.217,20.39,35.345,20.921,35.505,21.379"/>
	<path fill="#404041" d="M38.653,21.153c-0.034,0.427,0.022,0.676-0.076,0.799c-0.834,1.043-0.479,2.26-0.49,3.402
		c-0.041,3.775-0.026,7.553,0,11.33c0.003,0.408,0.178,0.835,0.348,1.22c0.375,0.848,0.226,1.636-0.271,2.346
		c-0.094,0.134-0.671,0.135-0.814-0.011c-0.581-0.591-0.571-1.752-0.125-2.49c0.15-0.249,0.232-0.579,0.233-0.872
		c0.014-4.514,0.017-9.026-0.005-13.539c-0.003-0.341-0.164-0.709-0.339-1.016c-0.36-0.628-0.287-1.911,0.277-2.421
		c0.146-0.133,0.711-0.087,0.795,0.052C38.441,20.373,38.556,20.88,38.653,21.153"/>
	<path fill="#FFFFFF" d="M29.897,27.602c-2.332,0.596-4.7,0.605-7.07,0.133c-0.241-0.048-0.581-0.415-0.594-0.649
		c-0.059-0.988-0.023-1.982,0.003-2.973c0.022-0.816,0.449-1.419,1.188-1.699c0.307-0.117,0.791-0.074,1.067,0.098
		c0.957,0.601,1.885,0.665,2.898,0.172c0.383-0.187,0.981-0.467,1.218-0.31c0.52,0.345,1.15,0.901,1.232,1.448
		C30.023,25.034,29.897,26.295,29.897,27.602"/>
	<path fill="#FFFFFF" d="M22.286,36.597c2.575,0.681,5.094,0.664,7.607,0.004c0.184,1.764-0.475,2.965-2.083,3.296
		c-1.089,0.226-2.298,0.231-3.389,0.014C22.745,39.575,22.117,38.477,22.286,36.597"/>
</g>
<g>
	<g>
		<text transform="matrix(1 0 0 1 572.1807 2106.2158)"><tspan x="0" y="0" fill="#6D6E70" font-family="'NotoSansJP-Regular'" font-size="2.9116">有效防治脫髮 </tspan><tspan x="0" y="4.575" fill="#6D6E70" font-family="'NotoSansJP-Regular'" font-size="2.9116">THE TREATMENT OF HAIR LOSS</tspan></text>
	</g>
</g>
<g>
	<text transform="matrix(1 0 0 1 572.1807 2088.752)"><tspan x="0" y="0" fill="#6D6E70" font-family="'NotoSansJP-Regular'" font-size="2.9116">護髪水 </tspan><tspan x="0" y="4.575" fill="#6D6E70" font-family="'NotoSansJP-Regular'" font-size="2.9116">HAIR CONDITIONER </tspan></text>
</g>
<g>
	<g>
		<rect x="557.884" y="2087.42" fill="#FFFFFF" width="5.186" height="8.459"/>
		<path fill="#404041" d="M563.277,2096.087h-5.602v-8.875h5.602V2096.087z M558.092,2095.671h4.77v-8.043h-4.77V2095.671z"/>
	</g>
	<g>
		<rect x="559.402" y="2085.981" fill="#FFFFFF" width="1.853" height="1.445"/>
		<path fill="#404041" d="M561.463,2087.635h-2.269v-1.861h2.269V2087.635z M559.61,2087.219h1.437v-1.029h-1.437V2087.219z"/>
	</g>
	<g>
		<rect x="559.825" y="2084.469" fill="#FFFFFF" width="1.006" height="1.513"/>
		<path fill="#404041" d="M561.039,2086.189h-1.421v-1.929h1.421V2086.189z M560.034,2085.773h0.589v-1.097h-0.589V2085.773z"/>
	</g>
	<g>
		<line fill="#FFFFFF" x1="561.716" y1="2084.469" x2="557.399" y2="2084.469"/>
		<rect x="557.399" y="2084.261" fill="#404041" width="4.316" height="0.416"/>
	</g>
</g>
<g>
	<polyline fill="#FFFFFF" stroke="#404041" stroke-miterlimit="10" points="559.516,2101.675 559.516,2103.449 557.333,2105.632 
		563.251,2105.632 561.151,2103.531 561.151,2101.675 	"/>
	<circle fill="#404041" cx="557.587" cy="2106.883" r="0.236"/>
	<circle fill="#404041" cx="559.391" cy="2106.883" r="0.236"/>
	<circle fill="#404041" cx="561.193" cy="2106.883" r="0.236"/>
	<circle fill="#404041" cx="562.997" cy="2106.883" r="0.236"/>
	<circle fill="#404041" cx="557.194" cy="2108.316" r="0.236"/>
	<circle fill="#404041" cx="559.328" cy="2108.316" r="0.236"/>
	<circle fill="#404041" cx="561.462" cy="2108.316" r="0.236"/>
	<circle fill="#404041" cx="563.596" cy="2108.316" r="0.236"/>
	<circle fill="#404041" cx="556.712" cy="2109.739" r="0.236"/>
	<circle fill="#404041" cx="564.078" cy="2109.739" r="0.236"/>
	<circle fill="#404041" cx="556.085" cy="2111.639" r="0.236"/>
	<circle fill="#404041" cx="558.06" cy="2111.639" r="0.236"/>
	<circle fill="#404041" cx="562.76" cy="2111.639" r="0.236"/>
	<circle fill="#404041" cx="564.572" cy="2111.639" r="0.236"/>
	<path fill="#FFFFFF" stroke="#404041" stroke-miterlimit="10" d="M557.517,2115.137l0.548-1.719c0-0.28,0.348-0.508,0.776-0.508
		h2.902c0.429,0,0.776,0.228,0.776,0.508l0.548,1.719"/>
	<circle fill="#FFFFFF" stroke="#404041" stroke-miterlimit="10" cx="560.352" cy="2110.664" r="1.631"/>
</g>
</svg>
