<?xml version="1.0" encoding="utf-8"?>
<!-- Generator: Adobe Illustrator 16.0.0, SVG Export Plug-In . SVG Version: 6.00 Build 0)  -->
<!DOCTYPE svg PUBLIC "-//W3C//DTD SVG 1.1//EN" "http://www.w3.org/Graphics/SVG/1.1/DTD/svg11.dtd">
<svg version="1.1" id="Layer_1" xmlns="http://www.w3.org/2000/svg" xmlns:xlink="http://www.w3.org/1999/xlink" x="0px" y="0px"
	 width="60px" height="60px" viewBox="0 0 60 60" enable-background="new 0 0 60 60" xml:space="preserve">
<g>
	<g>
		<text transform="matrix(1 0 0 1 572.1807 2106.2158)"><tspan x="0" y="0" fill="#6D6E70" font-family="'NotoSansJP-Regular'" font-size="2.9116">有效防治脫髮 </tspan><tspan x="0" y="4.575" fill="#6D6E70" font-family="'NotoSansJP-Regular'" font-size="2.9116">THE TREATMENT OF HAIR LOSS</tspan></text>
	</g>
</g>
<g>
	<text transform="matrix(1 0 0 1 572.1807 2088.752)"><tspan x="0" y="0" fill="#6D6E70" font-family="'NotoSansJP-Regular'" font-size="2.9116">護髪水 </tspan><tspan x="0" y="4.575" fill="#6D6E70" font-family="'NotoSansJP-Regular'" font-size="2.9116">HAIR CONDITIONER </tspan></text>
</g>
<g>
	<g>
		<rect x="557.884" y="2087.42" fill="#FFFFFF" width="5.186" height="8.459"/>
		<path fill="#404041" d="M563.277,2096.087h-5.602v-8.875h5.602V2096.087z M558.092,2095.671h4.77v-8.043h-4.77V2095.671z"/>
	</g>
	<g>
		<rect x="559.402" y="2085.981" fill="#FFFFFF" width="1.853" height="1.445"/>
		<path fill="#404041" d="M561.463,2087.635h-2.269v-1.861h2.269V2087.635z M559.61,2087.219h1.437v-1.029h-1.437V2087.219z"/>
	</g>
	<g>
		<rect x="559.825" y="2084.469" fill="#FFFFFF" width="1.006" height="1.513"/>
		<path fill="#404041" d="M561.039,2086.189h-1.421v-1.929h1.421V2086.189z M560.034,2085.773h0.589v-1.097h-0.589V2085.773z"/>
	</g>
	<g>
		<line fill="#FFFFFF" x1="561.716" y1="2084.469" x2="557.399" y2="2084.469"/>
		<rect x="557.399" y="2084.261" fill="#404041" width="4.316" height="0.416"/>
	</g>
</g>
<g>
	<polyline fill="#FFFFFF" stroke="#404041" stroke-miterlimit="10" points="559.516,2101.675 559.516,2103.449 557.333,2105.632 
		563.251,2105.632 561.151,2103.531 561.151,2101.675 	"/>
	<circle fill="#404041" cx="557.587" cy="2106.883" r="0.236"/>
	<circle fill="#404041" cx="559.391" cy="2106.883" r="0.236"/>
	<circle fill="#404041" cx="561.193" cy="2106.883" r="0.236"/>
	<circle fill="#404041" cx="562.997" cy="2106.883" r="0.236"/>
	<circle fill="#404041" cx="557.194" cy="2108.316" r="0.236"/>
	<circle fill="#404041" cx="559.328" cy="2108.316" r="0.236"/>
	<circle fill="#404041" cx="561.462" cy="2108.316" r="0.236"/>
	<circle fill="#404041" cx="563.596" cy="2108.316" r="0.236"/>
	<circle fill="#404041" cx="556.712" cy="2109.739" r="0.236"/>
	<circle fill="#404041" cx="564.078" cy="2109.739" r="0.236"/>
	<circle fill="#404041" cx="556.085" cy="2111.639" r="0.236"/>
	<circle fill="#404041" cx="558.06" cy="2111.639" r="0.236"/>
	<circle fill="#404041" cx="562.76" cy="2111.639" r="0.236"/>
	<circle fill="#404041" cx="564.572" cy="2111.639" r="0.236"/>
	<path fill="#FFFFFF" stroke="#404041" stroke-miterlimit="10" d="M557.517,2115.137l0.548-1.719c0-0.28,0.348-0.508,0.776-0.508
		h2.902c0.429,0,0.776,0.228,0.776,0.508l0.548,1.719"/>
	<circle fill="#FFFFFF" stroke="#404041" stroke-miterlimit="10" cx="560.352" cy="2110.664" r="1.631"/>
</g>
<g>
	<g>
		<rect x="24.494" y="29.083" fill="#404041" width="1" height="9.936"/>
	</g>
	<g>
		<path fill="#404041" d="M19.53,29.125l-0.993-0.042c0-1.075,2.109-1.717,3.367-2.003l0.111-0.025l0.111,0.025
			c1.258,0.286,3.367,0.928,3.367,2.003h-1c-0.12-0.23-1.287-0.718-2.479-1.002C20.824,28.367,19.656,28.855,19.53,29.125z"/>
	</g>
	<g>
		<path fill="#404041" d="M22.016,31.113l-0.111-0.025c-1.258-0.287-3.367-0.928-3.367-2.004h1c0-0.022-0.005-0.038-0.007-0.042
			c0.126,0.271,1.294,0.76,2.485,1.045c1.191-0.285,2.359-0.773,2.485-1.045l0.993,0.042c0,1.076-2.109,1.717-3.367,2.004
			L22.016,31.113z"/>
	</g>
	<g>
		<path fill="#404041" d="M25.854,29.125l-0.993-0.042c0-1.075,2.108-1.717,3.365-2.003l0.111-0.025l0.111,0.025
			c1.258,0.286,3.367,0.928,3.367,2.003h-1c-0.12-0.23-1.287-0.718-2.479-1.002C27.147,28.367,25.98,28.855,25.854,29.125z"/>
	</g>
	<g>
		<path fill="#404041" d="M28.338,31.113l-0.111-0.025c-1.257-0.287-3.365-0.928-3.365-2.004h1c0-0.021-0.005-0.037-0.007-0.042
			c0.126,0.272,1.293,0.761,2.483,1.045c1.191-0.285,2.359-0.773,2.485-1.045l0.993,0.042c0,1.076-2.109,1.717-3.367,2.004
			L28.338,31.113z"/>
	</g>
	<g>
		<rect x="34.738" y="22.509" fill="#404041" width="1" height="16.51"/>
	</g>
	<g>
		<path fill="#404041" d="M29.774,22.551l-0.993-0.042c0-1.075,2.109-1.717,3.367-2.003l0.111-0.025l0.111,0.025
			c1.258,0.286,3.367,0.928,3.367,2.003h-1c-0.12-0.23-1.287-0.718-2.479-1.002C31.068,21.792,29.9,22.281,29.774,22.551z"/>
	</g>
	<g>
		<path fill="#404041" d="M32.26,24.539l-0.111-0.025c-1.258-0.286-3.367-0.928-3.367-2.004h1c0-0.022-0.005-0.038-0.007-0.042
			c0.126,0.271,1.294,0.76,2.485,1.045c1.191-0.285,2.359-0.773,2.485-1.045l0.993,0.042c0,1.076-2.109,1.718-3.367,2.004
			L32.26,24.539z"/>
	</g>
	<g>
		<path fill="#404041" d="M36.099,22.551l-0.993-0.042c0-1.075,2.108-1.717,3.365-2.003l0.111-0.025l0.111,0.025
			c1.258,0.286,3.367,0.928,3.367,2.003h-1c-0.12-0.23-1.287-0.718-2.479-1.002C37.392,21.792,36.225,22.281,36.099,22.551z"/>
	</g>
	<g>
		<path fill="#404041" d="M38.582,24.539l-0.111-0.025c-1.257-0.286-3.365-0.928-3.365-2.004h1c0-0.021-0.005-0.037-0.007-0.042
			c0.126,0.272,1.293,0.761,2.483,1.045c1.191-0.285,2.359-0.773,2.485-1.045l0.993,0.042c0,1.076-2.109,1.718-3.367,2.004
			L38.582,24.539z"/>
	</g>
	<g>
		<rect x="17.389" y="38.52" fill="#404041" width="25.223" height="1"/>
	</g>
</g>
</svg>
