<?xml version="1.0" encoding="utf-8"?>
<!-- Generator: Adobe Illustrator 16.0.0, SVG Export Plug-In . SVG Version: 6.00 Build 0)  -->
<!DOCTYPE svg PUBLIC "-//W3C//DTD SVG 1.1//EN" "http://www.w3.org/Graphics/SVG/1.1/DTD/svg11.dtd">
<svg version="1.1" id="Layer_1" xmlns="http://www.w3.org/2000/svg" xmlns:xlink="http://www.w3.org/1999/xlink" x="0px" y="0px"
	 width="60px" height="60px" viewBox="0 0 60 60" enable-background="new 0 0 60 60" xml:space="preserve">
<g>
	<g>
		<text transform="matrix(1 0 0 1 572.1807 2106.2158)"><tspan x="0" y="0" fill="#6D6E70" font-family="'NotoSansJP-Regular'" font-size="2.9116">有效防治脫髮 </tspan><tspan x="0" y="4.575" fill="#6D6E70" font-family="'NotoSansJP-Regular'" font-size="2.9116">THE TREATMENT OF HAIR LOSS</tspan></text>
	</g>
</g>
<g>
	<text transform="matrix(1 0 0 1 572.1807 2088.752)"><tspan x="0" y="0" fill="#6D6E70" font-family="'NotoSansJP-Regular'" font-size="2.9116">護髪水 </tspan><tspan x="0" y="4.575" fill="#6D6E70" font-family="'NotoSansJP-Regular'" font-size="2.9116">HAIR CONDITIONER </tspan></text>
</g>
<g>
	<g>
		<rect x="557.884" y="2087.42" fill="#FFFFFF" width="5.186" height="8.459"/>
		<path fill="#404041" d="M563.277,2096.087h-5.602v-8.875h5.602V2096.087z M558.092,2095.671h4.77v-8.043h-4.77V2095.671z"/>
	</g>
	<g>
		<rect x="559.402" y="2085.981" fill="#FFFFFF" width="1.853" height="1.445"/>
		<path fill="#404041" d="M561.463,2087.635h-2.269v-1.861h2.269V2087.635z M559.61,2087.219h1.437v-1.029h-1.437V2087.219z"/>
	</g>
	<g>
		<rect x="559.825" y="2084.469" fill="#FFFFFF" width="1.006" height="1.513"/>
		<path fill="#404041" d="M561.039,2086.189h-1.421v-1.929h1.421V2086.189z M560.034,2085.773h0.589v-1.097h-0.589V2085.773z"/>
	</g>
	<g>
		<line fill="#FFFFFF" x1="561.716" y1="2084.469" x2="557.399" y2="2084.469"/>
		<rect x="557.399" y="2084.261" fill="#404041" width="4.316" height="0.416"/>
	</g>
</g>
<g>
	<polyline fill="#FFFFFF" stroke="#404041" stroke-miterlimit="10" points="559.516,2101.675 559.516,2103.449 557.333,2105.632 
		563.251,2105.632 561.151,2103.531 561.151,2101.675 	"/>
	<circle fill="#404041" cx="557.587" cy="2106.883" r="0.236"/>
	<circle fill="#404041" cx="559.391" cy="2106.883" r="0.236"/>
	<circle fill="#404041" cx="561.193" cy="2106.883" r="0.236"/>
	<circle fill="#404041" cx="562.997" cy="2106.883" r="0.236"/>
	<circle fill="#404041" cx="557.194" cy="2108.316" r="0.236"/>
	<circle fill="#404041" cx="559.328" cy="2108.316" r="0.236"/>
	<circle fill="#404041" cx="561.462" cy="2108.316" r="0.236"/>
	<circle fill="#404041" cx="563.596" cy="2108.316" r="0.236"/>
	<circle fill="#404041" cx="556.712" cy="2109.739" r="0.236"/>
	<circle fill="#404041" cx="564.078" cy="2109.739" r="0.236"/>
	<circle fill="#404041" cx="556.085" cy="2111.639" r="0.236"/>
	<circle fill="#404041" cx="558.06" cy="2111.639" r="0.236"/>
	<circle fill="#404041" cx="562.76" cy="2111.639" r="0.236"/>
	<circle fill="#404041" cx="564.572" cy="2111.639" r="0.236"/>
	<path fill="#FFFFFF" stroke="#404041" stroke-miterlimit="10" d="M557.517,2115.137l0.548-1.719c0-0.28,0.348-0.508,0.776-0.508
		h2.902c0.429,0,0.776,0.228,0.776,0.508l0.548,1.719"/>
	<circle fill="#FFFFFF" stroke="#404041" stroke-miterlimit="10" cx="560.352" cy="2110.664" r="1.631"/>
</g>
<g id="rice_sack-2pt">
	<path d="M39.565,38.032c0.545,1.038,1.143,0.934,1.922,0.804l0,0l0,0l0,0l0,0c0.025,0,0.025,0,0.051,0
		c0.129-0.052,0.207-0.207,0.156-0.337c-0.053-0.104-0.078-0.233-0.105-0.312c-0.154-0.519-0.311-0.882-0.984-1.038
		c0.648-1.219,1.012-4.307,1.09-6.642l0,0l0,0c0-0.026,0-0.052,0-0.078c0,0,0,0,0-0.026c0-2.62-0.391-6.278-1.09-7.55
		c0.727-0.155,0.984-0.519,1.09-1.401c0-0.025,0-0.025,0-0.052s0-0.026,0-0.052s0-0.025-0.027-0.052
		c0-0.026-0.025-0.026-0.025-0.052l-0.025-0.026c-0.027,0-0.027-0.025-0.053-0.025s-0.025,0-0.051-0.026
		c-0.025,0-0.025-0.025-0.053-0.025c-0.752-0.131-1.479-0.104-1.945,0.804c-1.35-0.545-4.463-0.804-9.523-0.804
		c-4.307,0-8.303,0.467-9.885,1.115c-0.129-0.805-0.805-0.986-1.479-1.09l0,0l0,0c-0.025,0-0.025,0-0.053,0
		c-0.025,0-0.025,0-0.051,0c-0.027,0-0.027,0.026-0.053,0.026s-0.025,0.025-0.051,0.025c-0.027,0-0.027,0.026-0.027,0.026
		l-0.025,0.025c0,0.026-0.025,0.026-0.025,0.053c0,0.025,0,0.025-0.027,0.051l0,0l0,0c-0.025,0.183-0.025,0.363-0.025,0.52
		c0,0.545,0.131,1.038,0.752,1.297c-0.439,1.401-0.727,3.166-0.727,5.864l0,0v0.025c0,0.052,0,0.078,0,0.104
		c0,0.025,0,0.025,0,0.025v0.26c0,0.233,0,0.493,0.027,0.727c0.051,2.88,0.311,5.138,0.752,6.59
		c-0.623,0.26-0.779,0.779-0.779,1.376c0,0.155,0,0.311,0.027,0.467l0,0l0,0c0,0.025,0,0.025,0.025,0.025
		c0,0.026,0,0.026,0.025,0.053c0,0.025,0.027,0.025,0.027,0.025c0,0.026,0.025,0.026,0.025,0.026s0.025,0.025,0.051,0.025
		c0.027,0,0.027,0.026,0.053,0.026s0.025,0,0.053,0c0.025,0,0.025,0,0.051,0l0,0l0,0c0.701-0.104,1.375-0.312,1.479-1.09
		c1.584,0.648,5.58,1.115,9.887,1.115C35.077,38.836,38.218,38.577,39.565,38.032z M20.028,37.098L20.028,37.098
		c-0.025,0-0.025-0.025-0.025-0.025l0,0l0,0c-0.025-0.026-0.053-0.026-0.104-0.026c-0.156,0-0.26,0.104-0.26,0.233
		c0,0.026,0,0.052,0.025,0.078c0.027,0.545-0.129,0.753-0.777,0.908c-0.027-0.675,0.154-0.96,0.648-1.063l0,0l0,0l0.025-0.026
		c0.025,0,0.025-0.026,0.053-0.026c0.025,0,0.025-0.025,0.025-0.025s0.025-0.026,0.025-0.052c0-0.026,0-0.026,0.027-0.052
		c0-0.026,0-0.026,0.025-0.053c0-0.025,0-0.025,0-0.052c0-0.025,0-0.025,0-0.052c0,0,0,0,0-0.025l0,0
		c-0.467-1.376-0.752-3.685-0.805-6.669c0-0.233,0-0.467,0-0.7v-0.26c0-0.025,0-0.025,0-0.078c0-0.025,0-0.025,0.025-0.052
		c0.053-2.776,0.285-4.566,0.779-5.941l0,0c0,0,0,0,0-0.026c0-0.025,0-0.051,0-0.051v-0.026c0-0.025,0-0.052-0.025-0.078l0,0
		c-0.027-0.025-0.027-0.052-0.053-0.077l0,0c-0.025-0.026-0.053-0.026-0.078-0.026c0,0,0,0-0.025,0l0,0c0,0,0,0-0.025,0
		c-0.494-0.13-0.65-0.363-0.623-1.063c0.623,0.13,0.805,0.337,0.805,0.856c0,0.025-0.027,0.052-0.027,0.104
		c0,0.13,0.078,0.207,0.182,0.233c0.025,0,0.025,0,0.053,0.026h0.025h0.025c0.027,0,0.027,0,0.053,0s0.025,0,0.053-0.026h0.025
		c0.986-0.597,5.008-1.22,9.988-1.22c6.514,0,8.77,0.468,9.523,0.856l0,0c0,0,0,0,0.025,0h0.025c0.027,0,0.027,0,0.053,0
		s0.025,0,0.051,0c0.027,0,0.027,0,0.053,0s0.025-0.025,0.051-0.025c0.027,0,0.027-0.026,0.053-0.026c0,0,0.025-0.026,0.025-0.052
		l0.027-0.026c0,0,0,0,0-0.026c0,0,0,0,0-0.025c0.258-0.675,0.621-0.83,1.219-0.752c-0.104,0.597-0.285,0.7-1.064,0.777
		c-0.025,0-0.025,0-0.051,0.026h-0.025c-0.105,0.026-0.156,0.13-0.156,0.233v0.026c0,0.052,0.025,0.104,0.051,0.13
		c0,0.025,0.027,0.025,0.027,0.025l0,0c0.025,0,0.025,0.026,0.051,0.026c0.391,0.181,1.168,3.477,1.168,7.472
		c0,0.026,0,0.078,0,0.104l0,0c0,0.025,0,0.025,0,0.052c-0.129,3.736-0.83,6.356-1.168,6.538c-0.025,0-0.051,0.026-0.051,0.052l0,0
		c-0.027,0.026-0.053,0.053-0.053,0.078v0.026c0,0.025-0.025,0.052-0.025,0.077c0,0,0,0,0,0.026c0,0,0.025,0,0.025,0.026l0,0l0,0
		c0,0.025,0,0.077,0.025,0.104l0,0c0,0,0,0.025,0.027,0.025c0,0.026,0.025,0.026,0.025,0.053l0.025,0.025
		c0.027,0,0.027,0.026,0.053,0.026s0.025,0,0.051,0h0.027c0.803,0.052,0.855,0.233,0.986,0.727c0,0.025,0,0.052,0.025,0.052
		c-0.598,0.104-0.83,0.025-1.193-0.778l0,0l0,0c0-0.026-0.027-0.026-0.027-0.026c0-0.025-0.025-0.025-0.025-0.025
		c-0.025,0-0.025-0.026-0.053-0.026c-0.025,0-0.025-0.026-0.051-0.026s-0.025,0-0.053,0c-0.025,0-0.025,0-0.051,0s-0.025,0-0.053,0
		c-0.025,0-0.025,0-0.051,0l0,0l0,0c-0.754,0.39-3.01,0.856-9.523,0.856C25.036,38.317,21.04,37.694,20.028,37.098z"/>
</g>
</svg>
