<?xml version="1.0" encoding="utf-8"?>
<!-- Generator: Adobe Illustrator 16.0.0, SVG Export Plug-In . SVG Version: 6.00 Build 0)  -->
<!DOCTYPE svg PUBLIC "-//W3C//DTD SVG 1.1//EN" "http://www.w3.org/Graphics/SVG/1.1/DTD/svg11.dtd">
<svg version="1.1" id="Layer_1" xmlns="http://www.w3.org/2000/svg" xmlns:xlink="http://www.w3.org/1999/xlink" x="0px" y="0px"
	 width="60px" height="60px" viewBox="0 0 60 60" enable-background="new 0 0 60 60" xml:space="preserve">
<g>
	<g>
		<text transform="matrix(1 0 0 1 572.1807 2106.2158)"><tspan x="0" y="0" fill="#6D6E70" font-family="'NotoSansJP-Regular'" font-size="2.9116">有效防治脫髮 </tspan><tspan x="0" y="4.575" fill="#6D6E70" font-family="'NotoSansJP-Regular'" font-size="2.9116">THE TREATMENT OF HAIR LOSS</tspan></text>
	</g>
</g>
<g>
	<text transform="matrix(1 0 0 1 572.1807 2088.752)"><tspan x="0" y="0" fill="#6D6E70" font-family="'NotoSansJP-Regular'" font-size="2.9116">護髪水 </tspan><tspan x="0" y="4.575" fill="#6D6E70" font-family="'NotoSansJP-Regular'" font-size="2.9116">HAIR CONDITIONER </tspan></text>
</g>
<g>
	<g>
		<rect x="557.884" y="2087.42" fill="#FFFFFF" width="5.186" height="8.459"/>
		<path fill="#404041" d="M563.277,2096.087h-5.602v-8.875h5.602V2096.087z M558.092,2095.671h4.77v-8.043h-4.77V2095.671z"/>
	</g>
	<g>
		<rect x="559.402" y="2085.981" fill="#FFFFFF" width="1.853" height="1.445"/>
		<path fill="#404041" d="M561.463,2087.635h-2.269v-1.861h2.269V2087.635z M559.61,2087.219h1.437v-1.029h-1.437V2087.219z"/>
	</g>
	<g>
		<rect x="559.825" y="2084.469" fill="#FFFFFF" width="1.006" height="1.513"/>
		<path fill="#404041" d="M561.039,2086.189h-1.421v-1.929h1.421V2086.189z M560.034,2085.773h0.589v-1.097h-0.589V2085.773z"/>
	</g>
	<g>
		<line fill="#FFFFFF" x1="561.716" y1="2084.469" x2="557.399" y2="2084.469"/>
		<rect x="557.399" y="2084.261" fill="#404041" width="4.316" height="0.416"/>
	</g>
</g>
<g>
	<polyline fill="#FFFFFF" stroke="#404041" stroke-miterlimit="10" points="559.516,2101.675 559.516,2103.449 557.333,2105.632 
		563.251,2105.632 561.151,2103.531 561.151,2101.675 	"/>
	<circle fill="#404041" cx="557.587" cy="2106.883" r="0.236"/>
	<circle fill="#404041" cx="559.391" cy="2106.883" r="0.236"/>
	<circle fill="#404041" cx="561.193" cy="2106.883" r="0.236"/>
	<circle fill="#404041" cx="562.997" cy="2106.883" r="0.236"/>
	<circle fill="#404041" cx="557.194" cy="2108.316" r="0.236"/>
	<circle fill="#404041" cx="559.328" cy="2108.316" r="0.236"/>
	<circle fill="#404041" cx="561.462" cy="2108.316" r="0.236"/>
	<circle fill="#404041" cx="563.596" cy="2108.316" r="0.236"/>
	<circle fill="#404041" cx="556.712" cy="2109.739" r="0.236"/>
	<circle fill="#404041" cx="564.078" cy="2109.739" r="0.236"/>
	<circle fill="#404041" cx="556.085" cy="2111.639" r="0.236"/>
	<circle fill="#404041" cx="558.06" cy="2111.639" r="0.236"/>
	<circle fill="#404041" cx="562.76" cy="2111.639" r="0.236"/>
	<circle fill="#404041" cx="564.572" cy="2111.639" r="0.236"/>
	<path fill="#FFFFFF" stroke="#404041" stroke-miterlimit="10" d="M557.517,2115.137l0.548-1.719c0-0.28,0.348-0.508,0.776-0.508
		h2.902c0.429,0,0.776,0.228,0.776,0.508l0.548,1.719"/>
	<circle fill="#FFFFFF" stroke="#404041" stroke-miterlimit="10" cx="560.352" cy="2110.664" r="1.631"/>
</g>
<g>
	<g>
		<g>
			<path fill="#404041" d="M30,42.496c-6.727,0-12.198-5.605-12.198-12.496c0-6.891,5.472-12.497,12.198-12.497
				c6.726,0,12.198,5.606,12.198,12.497C42.198,36.891,36.726,42.496,30,42.496z M30,18.217c-6.333,0-11.485,5.285-11.485,11.783
				c0,6.498,5.152,11.783,11.485,11.783S41.485,36.498,41.485,30C41.485,23.502,36.333,18.217,30,18.217z M30,37.516
				c-0.612,0-3.668-0.057-3.668-1.17s3.056-1.17,3.668-1.17s3.667,0.057,3.667,1.17S30.612,37.516,30,37.516z M27.107,36.346
				c0.293,0.186,1.287,0.457,2.893,0.457c1.604,0,2.599-0.271,2.892-0.457c-0.293-0.186-1.286-0.457-2.892-0.457
				S27.4,36.16,27.107,36.346z M33.925,28.664c-1.828,0-3.771-0.606-3.771-1.729c0-1.136,1.897-1.729,3.771-1.729
				c1.875,0,3.772,0.593,3.772,1.729C37.697,28.057,35.754,28.664,33.925,28.664z M33.925,25.919c-1.866,0-3.058,0.602-3.058,1.016
				c0,0.413,1.191,1.015,3.058,1.015c1.867,0,3.059-0.602,3.059-1.015C36.983,26.521,35.792,25.919,33.925,25.919z M25.026,28.664
				c-1.828,0-3.771-0.606-3.771-1.729c0-1.136,1.897-1.729,3.771-1.729c1.875,0,3.772,0.593,3.772,1.729
				C28.799,28.057,26.855,28.664,25.026,28.664z M25.026,25.919c-1.866,0-3.058,0.602-3.058,1.016c0,0.413,1.191,1.015,3.058,1.015
				c1.867,0,3.059-0.602,3.059-1.015C28.085,26.521,26.894,25.919,25.026,25.919z"/>
		</g>
	</g>
</g>
</svg>
