<?xml version="1.0" encoding="utf-8"?>
<!-- Generator: Adobe Illustrator 16.0.0, SVG Export Plug-In . SVG Version: 6.00 Build 0)  -->
<!DOCTYPE svg PUBLIC "-//W3C//DTD SVG 1.1//EN" "http://www.w3.org/Graphics/SVG/1.1/DTD/svg11.dtd">
<svg version="1.1" id="Layer_1" xmlns="http://www.w3.org/2000/svg" xmlns:xlink="http://www.w3.org/1999/xlink" x="0px" y="0px"
	 width="60px" height="60px" viewBox="0 0 60 60" enable-background="new 0 0 60 60" xml:space="preserve">
<g>
	<g>
		<text transform="matrix(1 0 0 1 572.1807 2106.2158)"><tspan x="0" y="0" fill="#6D6E70" font-family="'NotoSansJP-Regular'" font-size="2.9116">有效防治脫髮 </tspan><tspan x="0" y="4.575" fill="#6D6E70" font-family="'NotoSansJP-Regular'" font-size="2.9116">THE TREATMENT OF HAIR LOSS</tspan></text>
	</g>
</g>
<g>
	<text transform="matrix(1 0 0 1 572.1807 2088.752)"><tspan x="0" y="0" fill="#6D6E70" font-family="'NotoSansJP-Regular'" font-size="2.9116">護髪水 </tspan><tspan x="0" y="4.575" fill="#6D6E70" font-family="'NotoSansJP-Regular'" font-size="2.9116">HAIR CONDITIONER </tspan></text>
</g>
<g>
	<g>
		<rect x="557.884" y="2087.42" fill="#FFFFFF" width="5.186" height="8.459"/>
		<path fill="#404041" d="M563.277,2096.087h-5.602v-8.875h5.602V2096.087z M558.092,2095.671h4.77v-8.043h-4.77V2095.671z"/>
	</g>
	<g>
		<rect x="559.402" y="2085.981" fill="#FFFFFF" width="1.853" height="1.445"/>
		<path fill="#404041" d="M561.463,2087.635h-2.269v-1.861h2.269V2087.635z M559.61,2087.219h1.437v-1.029h-1.437V2087.219z"/>
	</g>
	<g>
		<rect x="559.825" y="2084.469" fill="#FFFFFF" width="1.006" height="1.513"/>
		<path fill="#404041" d="M561.039,2086.189h-1.421v-1.929h1.421V2086.189z M560.034,2085.773h0.589v-1.097h-0.589V2085.773z"/>
	</g>
	<g>
		<line fill="#FFFFFF" x1="561.716" y1="2084.469" x2="557.399" y2="2084.469"/>
		<rect x="557.399" y="2084.261" fill="#404041" width="4.316" height="0.416"/>
	</g>
</g>
<g>
	<polyline fill="#FFFFFF" stroke="#404041" stroke-miterlimit="10" points="559.516,2101.675 559.516,2103.449 557.333,2105.632 
		563.251,2105.632 561.151,2103.531 561.151,2101.675 	"/>
	<circle fill="#404041" cx="557.587" cy="2106.883" r="0.236"/>
	<circle fill="#404041" cx="559.391" cy="2106.883" r="0.236"/>
	<circle fill="#404041" cx="561.193" cy="2106.883" r="0.236"/>
	<circle fill="#404041" cx="562.997" cy="2106.883" r="0.236"/>
	<circle fill="#404041" cx="557.194" cy="2108.316" r="0.236"/>
	<circle fill="#404041" cx="559.328" cy="2108.316" r="0.236"/>
	<circle fill="#404041" cx="561.462" cy="2108.316" r="0.236"/>
	<circle fill="#404041" cx="563.596" cy="2108.316" r="0.236"/>
	<circle fill="#404041" cx="556.712" cy="2109.739" r="0.236"/>
	<circle fill="#404041" cx="564.078" cy="2109.739" r="0.236"/>
	<circle fill="#404041" cx="556.085" cy="2111.639" r="0.236"/>
	<circle fill="#404041" cx="558.06" cy="2111.639" r="0.236"/>
	<circle fill="#404041" cx="562.76" cy="2111.639" r="0.236"/>
	<circle fill="#404041" cx="564.572" cy="2111.639" r="0.236"/>
	<path fill="#FFFFFF" stroke="#404041" stroke-miterlimit="10" d="M557.517,2115.137l0.548-1.719c0-0.28,0.348-0.508,0.776-0.508
		h2.902c0.429,0,0.776,0.228,0.776,0.508l0.548,1.719"/>
	<circle fill="#FFFFFF" stroke="#404041" stroke-miterlimit="10" cx="560.352" cy="2110.664" r="1.631"/>
</g>
<g>
	<g>
		<g>
			<path fill="#404041" d="M28.195,41.819c-1.234,0-2.421-0.148-3.483-0.446c-0.783-0.219-2.238-0.732-3.168-1.711
				c-2.319-2.444-1.486-4.599-0.816-6.331c0.102-0.26,0.201-0.518,0.289-0.773c0.887-2.555,1.752-5.22,2.588-7.797
				c0.381-1.173,0.762-2.344,1.145-3.508l0.949,0.312c-0.383,1.163-0.762,2.333-1.143,3.505c-0.838,2.581-1.705,5.251-2.594,7.815
				c-0.093,0.267-0.196,0.535-0.301,0.807c-0.656,1.695-1.275,3.296,0.609,5.28c0.792,0.835,2.16,1.283,2.711,1.438
				c2.048,0.573,4.613,0.544,7.039-0.081c2.096-0.538,4.324-2.162,4.264-4.458c-0.067-2.597-1.271-4.98-2.545-7.505
				c-1.133-2.243-2.305-4.564-2.619-7.07l0.992-0.125c0.293,2.335,1.425,4.577,2.52,6.745c1.268,2.512,2.579,5.108,2.652,7.93
				c0.074,2.842-2.547,4.818-5.014,5.452C30.923,41.645,29.532,41.819,28.195,41.819z"/>
		</g>
		<g>
			<polygon fill="#404041" points="32.2,21.638 31.2,21.638 31.2,19.181 25.724,19.181 25.724,21.638 24.724,21.638 24.724,18.181 
				32.2,18.181 			"/>
		</g>
		<g>
			<path fill="#404041" d="M38.02,27.566c-0.59,0-1.253-0.188-1.73-0.493c-0.976-0.622-4.004-4.478-4.347-4.915l-0.664-0.849
				l1.078,0.041c0.716,0.028,7.012,0.36,7.557,3.412c0.168,0.942,0.043,1.672-0.373,2.169C39.192,27.347,38.667,27.566,38.02,27.566
				z M33.444,22.442c1.25,1.553,2.863,3.457,3.382,3.787c0.263,0.168,0.734,0.337,1.193,0.337c0.237,0,0.562-0.048,0.754-0.277
				c0.214-0.255,0.268-0.722,0.155-1.351C38.647,23.368,35.468,22.676,33.444,22.442z"/>
		</g>
		<g>
			<path fill="none" stroke="#404041" stroke-miterlimit="10" d="M32.337,39.833"/>
		</g>
		<g>
			<rect x="25.7" y="20.909" fill="#404041" width="0.963" height="1"/>
		</g>
		<g>
			<rect x="27.003" y="20.909" fill="#404041" width="1.25" height="1"/>
		</g>
		<g>
			<rect x="28.78" y="20.909" fill="#404041" width="1.25" height="1"/>
		</g>
		<g>
			<rect x="30.56" y="20.909" fill="#404041" width="1.25" height="1"/>
		</g>
	</g>
</g>
</svg>
