<?xml version="1.0" encoding="utf-8"?>
<!-- Generator: Adobe Illustrator 16.0.0, SVG Export Plug-In . SVG Version: 6.00 Build 0)  -->
<!DOCTYPE svg PUBLIC "-//W3C//DTD SVG 1.1//EN" "http://www.w3.org/Graphics/SVG/1.1/DTD/svg11.dtd">
<svg version="1.1" id="Layer_1" xmlns="http://www.w3.org/2000/svg" xmlns:xlink="http://www.w3.org/1999/xlink" x="0px" y="0px"
	 width="60px" height="60px" viewBox="0 0 60 60" enable-background="new 0 0 60 60" xml:space="preserve">
<g>
	<g>
		<text transform="matrix(1 0 0 1 572.1807 2106.2158)"><tspan x="0" y="0" fill="#6D6E70" font-family="'NotoSansJP-Regular'" font-size="2.9116">有效防治脫髮 </tspan><tspan x="0" y="4.575" fill="#6D6E70" font-family="'NotoSansJP-Regular'" font-size="2.9116">THE TREATMENT OF HAIR LOSS</tspan></text>
	</g>
</g>
<g>
	<text transform="matrix(1 0 0 1 572.1807 2088.752)"><tspan x="0" y="0" fill="#6D6E70" font-family="'NotoSansJP-Regular'" font-size="2.9116">護髪水 </tspan><tspan x="0" y="4.575" fill="#6D6E70" font-family="'NotoSansJP-Regular'" font-size="2.9116">HAIR CONDITIONER </tspan></text>
</g>
<g>
	<g>
		<rect x="557.884" y="2087.42" fill="#FFFFFF" width="5.186" height="8.459"/>
		<path fill="#404041" d="M563.277,2096.087h-5.602v-8.875h5.602V2096.087z M558.092,2095.671h4.77v-8.043h-4.77V2095.671z"/>
	</g>
	<g>
		<rect x="559.402" y="2085.981" fill="#FFFFFF" width="1.853" height="1.445"/>
		<path fill="#404041" d="M561.463,2087.635h-2.269v-1.861h2.269V2087.635z M559.61,2087.219h1.437v-1.029h-1.437V2087.219z"/>
	</g>
	<g>
		<rect x="559.825" y="2084.469" fill="#FFFFFF" width="1.006" height="1.513"/>
		<path fill="#404041" d="M561.039,2086.189h-1.421v-1.929h1.421V2086.189z M560.034,2085.773h0.589v-1.097h-0.589V2085.773z"/>
	</g>
	<g>
		<line fill="#FFFFFF" x1="561.716" y1="2084.469" x2="557.399" y2="2084.469"/>
		<rect x="557.399" y="2084.261" fill="#404041" width="4.316" height="0.416"/>
	</g>
</g>
<g>
	<polyline fill="#FFFFFF" stroke="#404041" stroke-miterlimit="10" points="559.516,2101.675 559.516,2103.449 557.333,2105.632 
		563.251,2105.632 561.151,2103.531 561.151,2101.675 	"/>
	<circle fill="#404041" cx="557.587" cy="2106.883" r="0.236"/>
	<circle fill="#404041" cx="559.391" cy="2106.883" r="0.236"/>
	<circle fill="#404041" cx="561.193" cy="2106.883" r="0.236"/>
	<circle fill="#404041" cx="562.997" cy="2106.883" r="0.236"/>
	<circle fill="#404041" cx="557.194" cy="2108.316" r="0.236"/>
	<circle fill="#404041" cx="559.328" cy="2108.316" r="0.236"/>
	<circle fill="#404041" cx="561.462" cy="2108.316" r="0.236"/>
	<circle fill="#404041" cx="563.596" cy="2108.316" r="0.236"/>
	<circle fill="#404041" cx="556.712" cy="2109.739" r="0.236"/>
	<circle fill="#404041" cx="564.078" cy="2109.739" r="0.236"/>
	<circle fill="#404041" cx="556.085" cy="2111.639" r="0.236"/>
	<circle fill="#404041" cx="558.06" cy="2111.639" r="0.236"/>
	<circle fill="#404041" cx="562.76" cy="2111.639" r="0.236"/>
	<circle fill="#404041" cx="564.572" cy="2111.639" r="0.236"/>
	<path fill="#FFFFFF" stroke="#404041" stroke-miterlimit="10" d="M557.517,2115.137l0.548-1.719c0-0.28,0.348-0.508,0.776-0.508
		h2.902c0.429,0,0.776,0.228,0.776,0.508l0.548,1.719"/>
	<circle fill="#FFFFFF" stroke="#404041" stroke-miterlimit="10" cx="560.352" cy="2110.664" r="1.631"/>
</g>
<g>
	<g>
		<path fill="#404041" d="M36.081,23.987H36.07c-2.008-0.006-3.582-1.584-3.584-3.592c-0.002-1.977,1.605-3.6,3.583-3.615
			c0.985,0,1.892,0.379,2.575,1.07c0.687,0.693,1.059,1.611,1.049,2.582C39.672,22.427,38.084,23.987,36.081,23.987z M36.092,17.78
			c-1.443,0.012-2.607,1.186-2.605,2.615c0.001,1.449,1.138,2.588,2.587,2.592l0.008,0.5v-0.5c1.474,0,2.597-1.102,2.612-2.564
			c0.008-0.703-0.262-1.367-0.76-1.869C37.439,18.054,36.785,17.78,36.092,17.78z"/>
	</g>
	<g>
		<path fill="#404041" d="M25.685,26.188c-0.166,0-0.333-0.012-0.503-0.039c-0.759-0.121-1.462-0.572-1.929-1.236
			c-0.479-0.684-0.668-1.529-0.517-2.318c0.309-1.633,1.973-2.725,3.614-2.355l0.364,0.084l0.023,0.373
			c0.064,1.025,0.494,1.615,1.395,1.912c0.369,0.121,0.623,0.6,0.594,0.93C28.591,25.026,27.255,26.188,25.685,26.188z
			 M25.673,21.163c-0.954,0-1.776,0.68-1.954,1.617c-0.102,0.527,0.027,1.096,0.353,1.559c0.312,0.445,0.774,0.744,1.269,0.822
			c1.166,0.188,2.24-0.594,2.382-1.637c-1.104-0.398-1.754-1.189-1.938-2.359C25.747,21.163,25.709,21.163,25.673,21.163z"/>
	</g>
	<g>
		<path fill="#404041" d="M30.047,21.073l-0.32-0.352c-0.633-0.691-1.271-0.895-2.105-0.67l-0.17,0.021
			c-0.371,0-0.769-0.305-0.906-0.588c-0.625-1.225-0.195-2.74,1.005-3.52c1.103-0.719,2.792-0.451,3.643,0.57
			c0.903,1.086,0.855,2.664-0.112,3.668c-0.134,0.141-0.287,0.264-0.46,0.4L30.047,21.073z M28.227,18.966
			c0.703,0,1.329,0.246,1.902,0.752c0.084-0.066,0.16-0.133,0.23-0.205c0.624-0.65,0.65-1.631,0.064-2.336
			c-0.539-0.648-1.633-0.824-2.329-0.371c-0.769,0.498-1.051,1.459-0.655,2.232l0,0c0.002,0,0.016,0.01,0.032,0.02
			C27.734,18.997,27.986,18.966,28.227,18.966z"/>
	</g>
	<g>
		<path fill="#404041" d="M28.23,23.677h-0.003c-0.614,0-1.22-0.26-1.659-0.715c-0.433-0.445-0.67-1.045-0.649-1.643
			c0.038-1.232,1.077-2.234,2.314-2.234c0.628,0.006,1.218,0.266,1.649,0.709c0.426,0.438,0.666,1.023,0.658,1.605
			C30.525,22.655,29.489,23.677,28.23,23.677z M28.252,20.085c-0.723,0-1.312,0.568-1.334,1.266
			c-0.011,0.33,0.123,0.664,0.369,0.916c0.252,0.262,0.595,0.41,0.94,0.41v0.5l0.003-0.5c0.702,0,1.302-0.59,1.311-1.291
			c0.004-0.32-0.133-0.645-0.374-0.895C28.918,20.237,28.585,20.089,28.252,20.085L28.252,20.085z"/>
	</g>
	<g>
		<path fill="#404041" d="M37.305,44.438H22.693c-1.705,0-3.092-1.387-3.092-3.092v-5.299c0-1.705,1.387-3.092,3.092-3.092h14.611
			c1.706,0,3.094,1.387,3.094,3.092v5.299C40.398,43.052,39.011,44.438,37.305,44.438z M22.693,33.956
			c-1.153,0-2.092,0.938-2.092,2.092v5.299c0,1.154,0.938,2.092,2.092,2.092h14.611c1.154,0,2.094-0.938,2.094-2.092v-5.299
			c0-1.154-0.939-2.092-2.094-2.092H22.693z"/>
	</g>
	<g>
		<path fill="#FFFFFF" d="M39.898,38.233c0,1.607-1.035,2.91-2.314,2.91h-15.17c-1.277,0-2.312-1.303-2.312-2.91v-6.996
			c0-1.605,1.035-2.908,2.312-2.908h15.17c1.279,0,2.314,1.303,2.314,2.908V38.233z"/>
		<path fill="#404041" d="M37.584,41.644h-15.17c-1.551,0-2.812-1.529-2.812-3.41v-6.996c0-1.879,1.262-3.408,2.812-3.408h15.17
			c1.551,0,2.814,1.529,2.814,3.408v6.996C40.398,40.114,39.135,41.644,37.584,41.644z M22.414,28.829c-1,0-1.812,1.08-1.812,2.408
			v6.996c0,1.328,0.812,2.41,1.812,2.41h15.17c1,0,1.814-1.082,1.814-2.41v-6.996c0-1.328-0.814-2.408-1.814-2.408H22.414z"/>
	</g>
</g>
</svg>
