<?xml version="1.0" encoding="utf-8"?>
<!-- Generator: Adobe Illustrator 16.0.0, SVG Export Plug-In . SVG Version: 6.00 Build 0)  -->
<!DOCTYPE svg PUBLIC "-//W3C//DTD SVG 1.1//EN" "http://www.w3.org/Graphics/SVG/1.1/DTD/svg11.dtd">
<svg version="1.1" id="Layer_1" xmlns="http://www.w3.org/2000/svg" xmlns:xlink="http://www.w3.org/1999/xlink" x="0px" y="0px"
	 width="100px" height="100px" viewBox="0 0 100 100" enable-background="new 0 0 100 100" xml:space="preserve">
<g>
	<g id="Paint_1_">
	</g>
	<g id="Time">
	</g>
	<g id="Peg">
	</g>
	<g id="Peg_2">
	</g>
	<g id="Spray">
	</g>
	<g id="Service">
	</g>
	<g id="Green_Tea">
	</g>
	<g>
		<g>
			<g>
				<path fill="#58595B" d="M22.262,46.045c2.028-14.219,14.25-25.198,29.021-25.198c14.773,0,26.997,10.979,29.024,25.198h1.188
					c-2.038-14.873-14.783-26.379-30.211-26.379c-15.425,0-28.173,11.506-30.212,26.379L22.262,46.045L22.262,46.045z"/>
			</g>
			<g>
				<path fill="#58595B" d="M51.283,79.571c-15.414,0-28.067-11.95-29.245-27.068h-1.183c1.181,15.77,14.362,28.248,30.428,28.248
					c16.067,0,29.251-12.478,30.43-28.248H80.53C79.353,67.621,66.701,79.571,51.283,79.571z"/>
			</g>
		</g>
	</g>
	<g>
		<g>
			<g>
				<path fill="#6D6E70" d="M51.685,60.584l-13.718-13.72l13.718-13.72l13.719,13.72L51.685,60.584z M39.263,46.864l12.421,12.422
					l12.421-12.422L51.685,34.443L39.263,46.864z"/>
			</g>
		</g>
		<g>
			<g>
				<rect x="51.226" y="33.793" fill="#6D6E70" width="0.919" height="37.012"/>
			</g>
		</g>
		<g>
			<g>
				
					<rect x="43.415" y="43.022" transform="matrix(-0.7071 -0.7071 0.7071 -0.7071 51.542 108.3084)" fill="#6D6E70" width="9.574" height="0.915"/>
			</g>
		</g>
		<g>
			<g>
				
					<rect x="54.515" y="38.694" transform="matrix(-0.7047 -0.7095 0.7095 -0.7047 62.864 113.1236)" fill="#6D6E70" width="0.916" height="9.572"/>
			</g>
		</g>
		<g>
			<g>
				
					<rect x="39.219" y="48.432" transform="matrix(-0.7071 -0.7071 0.7071 -0.7071 44.7503 116.3189)" fill="#6D6E70" width="14.492" height="0.918"/>
			</g>
		</g>
		<g>
			<g>
				
					<rect x="56.254" y="41.645" transform="matrix(-0.7055 -0.7087 0.7087 -0.7055 62.0753 123.5763)" fill="#6D6E70" width="0.918" height="14.492"/>
			</g>
		</g>
	</g>
	<g>
		<path fill="#58595B" d="M78.382,54.194"/>
	</g>
	<g>
		<polygon fill="#58595B" points="83.119,56.252 80.945,52.833 78.771,56.251 77.993,55.756 80.945,51.115 83.896,55.755 		"/>
	</g>
	<g>
		<polygon fill="#58595B" points="21.416,47.709 19.321,42.624 20.174,42.272 21.715,46.017 24.454,43.034 25.133,43.658 		"/>
	</g>
</g>
</svg>
