<?xml version="1.0" standalone="no"?>
<!DOCTYPE svg PUBLIC "-//W3C//DTD SVG 1.1//EN" "http://www.w3.org/Graphics/SVG/1.1/DTD/svg11.dtd" >
<svg xmlns="http://www.w3.org/2000/svg">
<metadata>
Created by FontPrep 20130207 at Sat Apr 11 03:26:37 2015
 By Dicky
Copyright (c) Laurenz Brunner. www.lineto.com, 2004. All rights reserved.
</metadata>
<defs>
<font id="ae05ff48a0f16a99523b1f8725269aec" horiz-adv-x='1024' >
  <font-face 
    font-family="Akkurat-Light"
    font-weight="400"
    font-stretch="normal"
    units-per-em="2048"
    panose-1="2 0 5 3 3 0 0 2 0 4"
    ascent="1638"
    descent="-410"
    x-height="1024"
    cap-height="1452"
    bbox="-37 -575 2214 1921"
    underline-thickness="92"
    underline-position="-145"
    unicode-range="U+0020-FB02"
  />
<missing-glyph horiz-adv-x="1204" 
d="M870 152v1124h-536v-1124h536zM180 1430h844v-1430h-844v1430z" />
    <glyph glyph-name=".notdef" horiz-adv-x="1204" 
d="M870 152v1124h-536v-1124h536zM180 1430h844v-1430h-844v1430z" />
    <glyph glyph-name=".null" horiz-adv-x="0" 
 />
    <glyph glyph-name="nonmarkingreturn" horiz-adv-x="440" 
 />
    <glyph glyph-name="space" unicode=" " horiz-adv-x="440" 
 />
    <glyph glyph-name="exclam" unicode="!" horiz-adv-x="628" 
d="M266 0v156h156v-156h-156zM279 1452h127v-397l-29 -590h-70l-28 590v397z" />
    <glyph glyph-name="quotedbl" unicode="&#x22;" horiz-adv-x="897" 
d="M197 1452h125v-254l-31 -311h-66l-28 311v254zM506 1452h125v-254l-31 -311h-65l-29 311v254z" />
    <glyph glyph-name="numbersign" unicode="#" horiz-adv-x="1566" 
d="M594 926l-62 -428h443l61 428h-442zM1339 498v-92h-286l-58 -406h-90l58 406h-443l-57 -406h-92l57 406h-258v92h272l60 428h-264v92h278l57 405h91l-58 -405h443l57 405h92l-57 -405h266v-92h-281l-59 -428h272z" />
    <glyph glyph-name="dollar" unicode="$" 
d="M969 412q0 121 -69 186.5t-191 81.5l-84 10v-590q155 12 249 101q95 90 95 211zM211 1068q0 -221 248 -251l82 -10v547q-148 -9 -239 -87q-91 -79 -91 -199zM625 -180h-84v186q-324 19 -398.5 194t-74.5 269h102q0 -152 102 -256t269 -113v600l-92 13q-148 17 -244 107
t-96 243q1 154 125 264q124 111 307 121v190h84v-192q274 -30 346.5 -183t77.5 -243h-103q-8 130 -98 229q-77 81 -223 101v-553l96 -13q164 -20 257 -116t93 -257t-115 -270q-123 -123 -331 -135v-186z" />
    <glyph glyph-name="percent" unicode="%" horiz-adv-x="1894" 
d="M668 1133q0 95 -54.5 174t-164.5 79q-164 0 -191 -114.5t-27 -208.5t54.5 -174t165.5 -80q163 0 190 114.5t27 209.5zM1598.5 560.5q-52.5 80.5 -164.5 80.5q-111 0 -165.5 -80t-54.5 -244t80 -209t138 -45t100.5 23t80.5 80.5t38 185.5t-52.5 208.5zM694 842
q-92 -125 -245.5 -125t-243.5 125q-66 95 -66 255.5t66 256.5q92 125 246 125t243 -125q68 -97 68 -256t-68 -256zM446 -25l-71 56l1059 1442l73 -52zM1190 96q-68 97 -68 256t68 256q92 125 246 125t241 -125q68 -97 68 -255t-68 -257q-92 -125 -243.5 -125t-243.5 125z
" />
    <glyph glyph-name="ampersand" unicode="&#x26;" horiz-adv-x="1472" 
d="M289 389q0 -145 96 -230t224 -85q229 0 370 176l-416 467l-114 -68q-74 -43 -117 -112.5t-43 -147.5zM881 1157q0 104 -71 166.5t-174 62.5t-173 -63.5t-70 -162.5t86 -199l107 -123l166 102q129 81 129 217zM1112 725v88h254v-92h-156q0 -316 -104 -467l227 -254h-131
l-151 172q-170 -201 -437 -201q-181 0 -305.5 113t-124.5 297q0 111 52.5 199t146.5 143l115 68l-107 118q-100 111 -100 248t97 230.5t244 93.5q148 0 248.5 -89t100.5 -235q0 -195 -178 -299l-152 -90l385 -436q76 135 76 393z" />
    <glyph glyph-name="quotesingle" unicode="'" horiz-adv-x="493" 
d="M184 1452h125v-254l-30 -311h-66l-29 311v254z" />
    <glyph glyph-name="parenleft" unicode="(" horiz-adv-x="595" 
d="M244 1161q90 251 248 424l63 -49q-152 -195 -228.5 -408t-76.5 -466.5t76.5 -466.5t228.5 -408l-63 -49q-158 173 -248 424.5t-90 499.5t90 499z" />
    <glyph glyph-name="parenright" unicode=")" horiz-adv-x="595" 
d="M353.5 166q-88.5 -248 -249.5 -428l-63 49q152 195 228.5 408t76.5 466.5t-76.5 466.5t-228.5 408l63 49q161 -180 249.5 -427.5t88.5 -495.5t-88.5 -496z" />
    <glyph glyph-name="asterisk" unicode="*" horiz-adv-x="1093" 
d="M610 983l221 -293l-77 -57l-209 305l-209 -305l-78 57l225 293l-354 107l29 92l350 -123l-10 368h96l-8 -368l348 123l31 -92z" />
    <glyph glyph-name="plus" unicode="+" horiz-adv-x="1398" 
d="M748 573v-563h-97v563h-501v93h501v526h97v-526h501v-93h-501z" />
    <glyph glyph-name="comma" unicode="," horiz-adv-x="550" 
d="M371 -2q0 -176 -156 -250l-35 57q66 35 90.5 77t24.5 118h-113v184h189v-186z" />
    <glyph glyph-name="hyphen" unicode="-" horiz-adv-x="886" 
d="M154 571v95h579v-95h-579z" />
    <glyph glyph-name="period" unicode="." horiz-adv-x="540" 
d="M180 0v184h180v-184h-180z" />
    <glyph glyph-name="slash" unicode="/" horiz-adv-x="811" 
d="M145 -27h-94l641 1506h94z" />
    <glyph glyph-name="zero" unicode="0" 
d="M897 1128q-37 226 -243 226t-292 -82q-116 -111 -124.5 -300.5t-8.5 -315t23.5 -272.5t109.5 -230q86 -82 219.5 -82t219.5 82q119 114 126 301.5t7 317t-37 355.5zM1002.5 339q-35.5 -159 -132.5 -251q-120 -115 -288.5 -115t-288.5 115q-145 140 -156.5 340.5
t-11.5 350t35 307t144 261.5q109 105 277.5 105t288.5 -115q145 -140 156.5 -340t11.5 -349.5t-35.5 -308.5z" />
    <glyph glyph-name="one" unicode="1" 
d="M600 0v1296l-354 -260v115l364 272h92v-1423h-102z" />
    <glyph glyph-name="two" unicode="2" 
d="M203 0v111l569 710q43 53 79 128t36 141q0 125 -79.5 194.5t-213.5 69.5q-133 0 -209 -91.5t-76 -232.5h-108q0 187 110 304.5t288 117.5t284 -96.5t106 -260.5t-139 -333l-533 -664h711v-98h-825z" />
    <glyph glyph-name="three" unicode="3" 
d="M999 360q0 -76 -34.5 -150.5t-128.5 -155.5t-284 -81q-189 0 -307 122t-122 319h104q0 -147 87 -244.5t242 -97.5t246 80.5t91 230.5t-91 229.5t-245 79.5h-76v99h76q139 0 222 71.5t83 205.5t-86.5 210t-222.5 76q-135 0 -224 -88t-91 -234h-107q4 189 125 304.5
t299 115.5q179 0 296.5 -102.5t117.5 -272.5q0 -117 -57.5 -209t-174.5 -127q121 -34 191.5 -133.5t70.5 -247.5z" />
    <glyph glyph-name="four" unicode="4" 
d="M887 326v-326h-105v326h-671v112l579 985h117l-586 -995h561v440h105v-440h198v-102h-198z" />
    <glyph glyph-name="five" unicode="5" 
d="M289 762q97 158 334 158q201 0 309 -132t108 -341.5t-111.5 -342.5t-316.5 -133t-327.5 124.5t-126.5 316.5h104q4 -152 95 -247t252 -95t244 104.5t83 271.5q0 262 -118 319.5t-205 57.5t-169 -37.5t-131 -117.5h-127l33 755h774v-96h-676z" />
    <glyph glyph-name="six" unicode="6" 
d="M856.5 721q-85.5 108 -250.5 108q-127 0 -226 -95q-100 -95 -100 -265t85 -283.5t246 -113.5t246 109t85 270.5t-85.5 269.5zM927.5 111.5q-119.5 -138.5 -321.5 -138.5q-119 0 -204 53.5t-128 114.5q-77 109 -103 256.5t-26 273.5q0 243 32.5 393.5t123.5 252.5
q125 135 301 135t289 -102.5t121 -268.5h-107q-8 123 -87 198t-215 75t-224 -97q-113 -123 -120 -308t-7 -249q43 98 137.5 161t206.5 63t195 -35t169.5 -130.5t86.5 -302.5q0 -206 -119.5 -344.5z" />
    <glyph glyph-name="seven" unicode="7" 
d="M113 1325v98h888v-108l-612 -1315h-110l618 1325h-784z" />
    <glyph glyph-name="eight" unicode="8" 
d="M924 381q0 76 -27 135t-73 99t-109.5 61.5t-135 21.5t-134 -21.5t-108.5 -61.5t-71.5 -99t-25.5 -135t26.5 -134.5t72.5 -98t109.5 -60t135 -20.5t134 20.5t108.5 60t72 98t26 134.5zM891 1076q0 133 -88.5 208.5t-222.5 75.5t-221 -74.5t-87 -209.5t86.5 -211.5
t262 -76.5t223 109.5t47.5 178.5zM1030 356q0 -78 -37 -152.5t-98 -125.5t-143 -78t-220.5 -27t-268.5 108t-130 294q0 121 68.5 224.5t183.5 143.5q-100 39 -159.5 131.5t-59.5 190.5t32.5 169t89 119t133.5 73.5t208.5 25.5t249.5 -100.5t118 -278.5q0 -106 -59 -198.5
t-160 -131.5q115 -40 183.5 -143.5t68.5 -243.5z" />
    <glyph glyph-name="nine" unicode="9" 
d="M559 596q127 0 226 96q100 96 100 266t-86 283t-245 113t-245 -108.5t-86 -270t85 -270.5t251 -109zM988.5 351.5q-27.5 -151.5 -116.5 -251.5q-117 -127 -294 -127t-294.5 101.5t-125.5 269.5h106q8 -123 89 -197.5t216 -74.5q219 0 276.5 158t60.5 276.5t3 183.5v35
q-43 -98 -135 -160.5t-204 -62.5q-216 0 -333.5 129.5t-117.5 337.5t119 345.5t321 137.5q119 0 206 -52t130 -114t66.5 -128t39 -159t15.5 -294q0 -202 -27.5 -353.5z" />
    <glyph glyph-name="colon" unicode=":" horiz-adv-x="591" 
d="M225 0v176h170v-176h-170zM225 848v176h170v-176h-170z" />
    <glyph glyph-name="semicolon" unicode=";" horiz-adv-x="591" 
d="M408 -2q0 -166 -150 -238l-33 56q63 35 87 73.5t24 110.5h-109v176h181v-178zM233 848v176h170v-176h-170z" />
    <glyph glyph-name="less" unicode="&#x3c;" horiz-adv-x="999" 
d="M784 -47l-671 670l669 669l62 -63l-606 -606l608 -609z" />
    <glyph glyph-name="equal" unicode="=" horiz-adv-x="1419" 
d="M231 279v94h957v-94h-957zM231 764v94h957v-94h-957z" />
    <glyph glyph-name="greater" unicode="&#x3e;" horiz-adv-x="999" 
d="M215 -47l-61 61l608 609l-606 606l61 63l670 -669z" />
    <glyph glyph-name="question" unicode="?" horiz-adv-x="999" 
d="M420 0v160h162v-160h-162zM553 426h-107q0 157 47.5 239.5t188.5 177.5t141 261q0 129 -82.5 202.5t-228.5 73.5t-231.5 -84t-85.5 -241h-113q0 197 124 313.5t317 116.5t311 -121q104 -113 104 -248t-60.5 -222t-161.5 -153t-132 -125t-31 -190z" />
    <glyph glyph-name="at" unicode="@" horiz-adv-x="1912" 
d="M1138.5 871q-53.5 77 -172.5 77q-118 0 -191 -110.5t-73 -238.5t58 -206t178 -78t187 111t67 239q0 129 -53.5 206zM1272 459q0 -146 118 -146q64 0 118.5 40t107.5 142t53 265q0 299 -185 461.5t-474 162.5q-337 0 -537.5 -212t-200.5 -545q0 -147 49.5 -278.5
t139.5 -227.5t216 -152.5t277 -56.5q283 0 519 100v-96q-133 -57 -257 -77.5t-283 -20.5t-302.5 62.5t-244.5 172t-157.5 257t-56.5 326.5t59.5 335.5t229.5 332t549 175.5q324 0 539.5 -189.5t215.5 -509.5q0 -214 -70.5 -333t-144.5 -170.5t-160 -51.5t-137 45t-63 117
q-36 -69 -111.5 -113.5t-154.5 -44.5q-150 0 -235 104t-85 269t102.5 299.5t278.5 134.5q72 0 134.5 -33.5t90.5 -101.5l27 117h76l-41 -541v-18z" />
    <glyph glyph-name="A" unicode="A" horiz-adv-x="1245" 
d="M618 1305l-309 -822h625zM1120 0l-147 383h-703l-143 -383h-111l551 1452h105l557 -1452h-109z" />
    <glyph glyph-name="B" unicode="B" horiz-adv-x="1351" 
d="M1124 407q0 169 -106 234.5t-283 65.5h-407v-607h407q389 0 389 307zM990.5 1290q-101.5 62 -255.5 62h-407v-543h407q171 0 264 60t93 210q0 149 -101.5 211zM1233 420q0 -213 -133 -320q-78 -63 -172 -81.5t-193 -18.5h-514v1452h514q318 0 391.5 -137t73.5 -237
t-53 -193.5t-178 -128.5q135 -33 199.5 -131.5t64.5 -204.5z" />
    <glyph glyph-name="C" unicode="C" horiz-adv-x="1275" 
d="M674 -27q-106 0 -207 40.5t-169 108.5t-102 140t-50.5 148.5t-21.5 157.5t-5 215.5t44 342t224 280.5t287 73q212 0 355 -134t159 -337h-111q-12 160 -122.5 263t-287.5 103t-300 -125q-122 -127 -130 -291.5t-8 -283.5t26.5 -250.5t113.5 -220.5q121 -125 298 -125
t287.5 103t122.5 263h111q-16 -203 -159 -337t-355 -134z" />
    <glyph glyph-name="D" unicode="D" horiz-adv-x="1363" 
d="M960.5 1283q-176.5 65 -258.5 65h-374v-1244h374q176 0 295 114t129.5 279t10.5 443t-176.5 343zM1069 143q-150 -143 -367 -143h-481v1452h481q219 0 370 -146q150 -146 161.5 -324.5t11.5 -422t-176 -416.5z" />
    <glyph glyph-name="E" unicode="E" horiz-adv-x="1261" 
d="M221 0v1452h930v-102h-821v-533h723v-102h-723v-613h821v-102h-930z" />
    <glyph glyph-name="F" unicode="F" horiz-adv-x="1191" 
d="M328 1350v-562h723v-102h-723v-686h-107v1452h909v-102h-802z" />
    <glyph glyph-name="G" unicode="G" horiz-adv-x="1388" 
d="M668 -27q-92 0 -190 43.5t-162 105.5t-100 134t-55.5 149.5t-26.5 159.5t-7 218.5t39 284t145 253.5q70 68 168.5 113t212.5 45q223 0 366 -121.5t161 -310.5h-109q-10 123 -105 225q-94 102 -290.5 102t-319.5 -119q-89 -86 -123 -222.5t-34 -255.5q0 -213 32.5 -354
t126.5 -233q119 -113 297 -112q88 0 165 30t123 80q80 86 105 194.5t25 264.5h-428v105h537v-752h-80l-23 223q-86 -175 -222 -212.5t-228 -37.5z" />
    <glyph glyph-name="H" unicode="H" horiz-adv-x="1466" 
d="M1139 0v713h-811v-713h-107v1452h107v-635h811v635h106v-1452h-106z" />
    <glyph glyph-name="I" unicode="I" horiz-adv-x="550" 
d="M221 0v1452h109v-1452h-109z" />
    <glyph glyph-name="J" unicode="J" horiz-adv-x="1036" 
d="M842 408q0 -201 -109 -318q-113 -117 -283 -117t-282 103q-133 119 -137 364h108q0 -194 103 -293q74 -69 208 -69t209 81q76 81 76 247v1046h107v-1044z" />
    <glyph glyph-name="K" unicode="K" horiz-adv-x="1341" 
d="M330 0h-109v1452h109v-895l798 895h132l-482 -543l531 -909h-121l-481 829l-377 -426v-403z" />
    <glyph glyph-name="L" unicode="L" horiz-adv-x="1118" 
d="M221 0v1452h107v-1352h753v-100h-860z" />
    <glyph glyph-name="M" unicode="M" horiz-adv-x="1806" 
d="M1481 0v1298l-531 -1278h-94l-530 1268v-1288h-105v1452h150l536 -1290l527 1290h151v-1452h-104z" />
    <glyph glyph-name="N" unicode="N" horiz-adv-x="1511" 
d="M328 0h-107v1452h121l844 -1284v1284h104v-1452h-121l-841 1286v-1286z" />
    <glyph glyph-name="O" unicode="O" horiz-adv-x="1347" 
d="M939 1307q-179 67 -311.5 67t-257.5 -120t-133 -291.5t-8 -236.5q0 -172 36 -356t179.5 -238t275 -54t257.5 121t133.5 291.5t7.5 293.5q0 456 -179 523zM1011 69q-218 -96 -388 -96t-326 151t-167 338t-11 327t50 341t218 275t338 74t325 -151q156 -151 167.5 -337
t11.5 -506t-218 -416z" />
    <glyph glyph-name="P" unicode="P" horiz-adv-x="1265" 
d="M1098 1062q0 124 -100.5 206t-272.5 82h-397v-652h397q260 0 316.5 120t56.5 244zM1208 975q0 -160 -131.5 -269.5t-351.5 -109.5h-397v-596h-107v1452h504q337 0 410 -158.5t73 -318.5z" />
    <glyph glyph-name="Q" unicode="Q" horiz-adv-x="1347" 
d="M939 1307q-179 67 -311.5 67t-257.5 -120t-133 -291.5t-8 -236.5q0 -172 36 -356t179.5 -238t229.5 -54q137 0 244 72l-218 276l74 59l215 -272q115 130 122 291.5t7 281.5q0 454 -179 521zM337 1383q218 96 388 96t325 -151q156 -151 167.5 -337t11.5 -323t-34.5 -284
t-139.5 -255q122 -157 137 -176l-74 -59l-137 174q-135 -95 -307 -95q-221 0 -377 151t-167 338t-11 506t218 415z" />
    <glyph glyph-name="R" unicode="R" horiz-adv-x="1343" 
d="M1130 1034.5q0 155.5 -99 236.5t-279 81h-424v-635h424q180 0 279 81t99 236.5zM1241 1034q0 -143 -82 -247.5t-219 -141.5l295 -645h-117l-284 618h-506v-618h-107v1452h531q235 0 362 -113t127 -305z" />
    <glyph glyph-name="S" unicode="S" horiz-adv-x="1273" 
d="M319 195q119 -119 328 -119t322 108q86 82 86 209q0 166 -108.5 220.5t-174.5 62.5l-270 35q-251 32 -304 157t-53 213q0 151 127 271q142 127 359 127q117 0 224.5 -44.5t161.5 -106.5q105 -122 118 -261h-109q-16 109 -80 184q-47 59 -131 92t-173 33
q-259 0 -322.5 -113.5t-63.5 -182.5q0 -121 71 -182t185 -75l274 -35q168 -20 273.5 -131t105.5 -269q0 -159 -114 -273q-146 -142 -412 -142q-360 0 -444 180.5t-93 264.5h111q15 -125 106 -223z" />
    <glyph glyph-name="T" unicode="T" horiz-adv-x="1091" 
d="M598 1350v-1350h-106v1350h-461v102h1030v-102h-463z" />
    <glyph glyph-name="U" unicode="U" horiz-adv-x="1419" 
d="M1225 532q0 -248 -132 -403.5t-385 -155.5t-383 155.5t-130 403.5v920h106v-922q0 -314 150.5 -384t306 -70t258 126t102.5 328v922h107v-920z" />
    <glyph glyph-name="V" unicode="V" horiz-adv-x="1173" 
d="M637 0h-100l-521 1452h113l461 -1298l454 1298h113z" />
    <glyph glyph-name="W" unicode="W" horiz-adv-x="1765" 
d="M1380 0h-116l-383 1272l-383 -1272h-113l-305 1452h100l273 -1298l383 1276h96l385 -1276l268 1298h101z" />
    <glyph glyph-name="X" unicode="X" horiz-adv-x="1171" 
d="M1004 0l-420 649l-422 -649h-115l477 735l-475 717h117l422 -635l422 635h114l-477 -717l477 -735h-120z" />
    <glyph glyph-name="Y" unicode="Y" horiz-adv-x="1116" 
d="M610 0h-104v575l-502 877h115l442 -772l443 772h108l-502 -877v-575z" />
    <glyph glyph-name="Z" unicode="Z" horiz-adv-x="1265" 
d="M102 0v115l924 1237h-909v100h1032v-115l-926 -1237h936v-100h-1057z" />
    <glyph glyph-name="bracketleft" unicode="[" horiz-adv-x="657" 
d="M225 -236v1797h361v-84h-271v-1629h271v-84h-361z" />
    <glyph glyph-name="backslash" unicode="\" horiz-adv-x="813" 
d="M666 -27l-641 1506h96l641 -1506h-96z" />
    <glyph glyph-name="bracketright" unicode="]" horiz-adv-x="657" 
d="M72 -236v84h270v1629h-270v84h360v-1797h-360z" />
    <glyph glyph-name="asciicircum" unicode="^" horiz-adv-x="1050" 
d="M795 829l-269 547l-270 -547h-113l328 650h113l323 -650h-112z" />
    <glyph glyph-name="underscore" unicode="_" horiz-adv-x="1085" 
d="M68 -88v88h950v-88h-950z" />
    <glyph glyph-name="grave" unicode="`" horiz-adv-x="497" 
d="M385 1147l-344 203l55 90l324 -238z" />
    <glyph glyph-name="a" unicode="a" horiz-adv-x="1148" 
d="M223 280q0 -102 73 -157t176 -55q188 0 278 120.5t90 284.5v53l-367 -22q-115 -8 -182.5 -65t-67.5 -159zM1001 -6q-161 0 -161 201q-38 -105 -142.5 -163.5t-202.5 -58.5q-177 0 -276.5 85t-99.5 227q0 141 95 220t249 89l377 27v100q0 127 -77 180t-197 53t-201.5 -55
t-90.5 -170h-102q12 151 120.5 236.5t285.5 85.5t263 -83.5t93.5 -167t7.5 -134.5v-467q0 -53 13.5 -82t66.5 -29q18 0 29 2v-90q-27 -6 -50 -6z" />
    <glyph glyph-name="b" unicode="b" horiz-adv-x="1196" 
d="M846 145q135 118 135 354t-115 361q-90 90 -220 90t-208 -73t-106.5 -162t-28.5 -199q0 -233 131 -360q86 -82 208 -82q123 0 204 71zM1085 507q0 -130 -54 -284.5t-175.5 -202t-191.5 -47.5q-125 0 -221 56t-138 151l-12 -180h-90v1479h102v-627q40 87 135.5 143
t196.5 56q176 0 289 -107q159 -151 159 -437z" />
    <glyph glyph-name="c" unicode="c" horiz-adv-x="1048" 
d="M115 584q0 203 132 335t303 132t277.5 -95.5t126.5 -250.5h-106q-16 106 -94 175.5t-206 69.5t-207 -80t-100.5 -169t-21.5 -189t21.5 -191t97.5 -169t208 -78t208.5 72.5t95.5 177.5h108q-21 -153 -131.5 -252t-279.5 -99q-168 0 -289 121q-80 80 -111.5 183.5
t-31.5 306.5z" />
    <glyph glyph-name="d" unicode="d" horiz-adv-x="1196" 
d="M762 156q131 127 131 362t-129 352q-84 80 -214 80t-220 -90q-115 -129 -115 -361t135 -354q79 -71 202 -71q124 0 210 82zM291 60q-180 159 -180 446t159 438q111 107 281 107q169 0 244 -78t96 -121v627h102v-1479h-90l-12 180q-40 -93 -136.5 -150t-231.5 -57
q-134 1 -232 87z" />
    <glyph glyph-name="e" unicode="e" horiz-adv-x="1103" 
d="M219 582h678q-4 154 -93.5 263t-241.5 109q-155 0 -249 -109t-94 -263zM864 92q-119 -119 -306 -119t-315 150t-128 381t100 368q131 178 339 178t327.5 -145.5t119.5 -349.5l-2 -68h-782q4 -183 101 -299t244 -116q146 0 233 90q59 59 77 145h107q-19 -123 -115 -215z
" />
    <glyph glyph-name="f" unicode="f" horiz-adv-x="718" 
d="M567 1399q-195 0 -194 -199v-176h321v-94h-321v-930h-103v930h-204v94h204v180q0 121 74.5 204t214.5 83q82 0 156 -12v-93q-101 13 -148 13z" />
    <glyph glyph-name="g" unicode="g" horiz-adv-x="1091" 
d="M950 -153q0 75 -49 126q-72 76 -248 76h-270q-66 -16 -118 -68.5t-52 -135.5t49 -131t130.5 -67.5t149.5 -19.5t140.5 5t170 50t97.5 165zM829 692.5q0 61.5 -22.5 110.5t-60 84t-90 53t-112 18t-111.5 -18t-90 -53t-59.5 -84t-21.5 -110.5t21.5 -111t59.5 -83t90 -51
t111.5 -17.5t112 17.5t90 51t60 83t22.5 111zM850 922q82 -95 82 -243t-111.5 -244.5t-275.5 -96.5q-115 0 -205 47q-41 -16 -71.5 -48t-30.5 -74q0 -73 71 -101q49 -17 137 -17h224q205 0 301 -100q82 -83 82 -197t-72 -187q-124 -126 -399 -126t-394 119q-71 71 -71 184
q0 74 41 139.5t112 100.5q-53 16 -91 65.5t-38 102.5q0 123 123 194q-102 102 -102 258t108.5 254.5t258.5 98.5q151 0 255 -70q20 66 79 102.5t128 36.5l39 -4v-88l-39 4q-55 0 -93 -28.5t-48 -81.5z" />
    <glyph glyph-name="h" unicode="h" horiz-adv-x="1193" 
d="M909 0v670q0 135 -61.5 209.5t-202.5 74.5q-177 0 -258.5 -127.5t-81.5 -314.5v-512h-102v1479h102v-643q39 97 139 156t207 59q178 0 269.5 -100.5t91.5 -274.5v-676h-103z" />
    <glyph glyph-name="i" unicode="i" horiz-adv-x="532" 
d="M213 0v1024h109v-1024h-109zM195 1309v143h143v-143h-143z" />
    <glyph glyph-name="j" unicode="j" horiz-adv-x="581" 
d="M96 -328q92 0 131 52.5t39 148.5v1151h103v-1155q0 -210 -96.5 -251.5t-170.5 -41.5t-139 14v95q101 -13 133 -13zM244 1309v143h141v-143h-141z" />
    <glyph glyph-name="k" unicode="k" horiz-adv-x="1097" 
d="M307 0h-104v1479h104v-1078l576 623h129l-363 -395l412 -629h-125l-361 547l-268 -293v-254z" />
    <glyph glyph-name="l" unicode="l" horiz-adv-x="571" 
d="M401 -12q-204 0 -204 217v1274h102v-1270q0 -53 20.5 -88t86.5 -35h32q33 0 56 4v-90q-48 -12 -93 -12z" />
    <glyph glyph-name="m" unicode="m" horiz-adv-x="1792" 
d="M1507 0v670q0 133 -55 208.5t-176 75.5t-188 -63q-127 -121 -127 -311v-580h-105v670q0 133 -56.5 208.5t-177.5 75.5t-192 -68q-125 -117 -125 -374v-512h-102v1024h90l12 -176q41 88 121 145.5t202 57.5t201.5 -60.5t110.5 -161.5q41 96 122.5 159t189.5 63
q192 0 275 -102t83 -273v-676h-103z" />
    <glyph glyph-name="n" unicode="n" horiz-adv-x="1193" 
d="M909 0v670q0 135 -61.5 207.5t-202.5 72.5q-175 0 -257.5 -125.5t-82.5 -312.5v-512h-102v1024h90l12 -186q38 94 138.5 153.5t207.5 59.5q178 0 269.5 -100.5t91.5 -274.5v-676h-103z" />
    <glyph glyph-name="o" unicode="o" horiz-adv-x="1118" 
d="M899 512q0 100 -22.5 188t-78.5 144t-110.5 81t-159 25t-184.5 -81t-102.5 -169t-22.5 -188t22.5 -188t78.5 -144t110.5 -81t159 -25t184.5 81t102.5 169t22.5 188zM1004 459q0 -323 -174.5 -404.5t-310.5 -81.5t-259 123q-80 80 -112.5 182.5t-32.5 233.5t32.5 233.5
t98.5 168.5q136 136 312.5 136.5t299.5 -122.5q146 -146 146 -469z" />
    <glyph glyph-name="p" unicode="p" horiz-adv-x="1196" 
d="M866 164q115 129 115 362t-135 353q-79 71 -202 71t-202 -75q-139 -133 -139 -369t129 -352q84 -80 214 -80t220 90zM1085 517q0 -286 -159 -437q-111 -107 -281 -107q-169 0 -244 78t-96 121v-582h-102v1434h90l12 -180q40 93 136.5 150t194.5 57q170 0 282 -97
q86 -76 126.5 -191.5t40.5 -245.5z" />
    <glyph glyph-name="q" unicode="q" horiz-adv-x="1196" 
d="M764 154q129 118 129 353q0 234 -131 361q-86 82 -208 82t-199 -67q-140 -122 -140 -358t115 -361q90 -90 220 -90t214 80zM891 -410v582q-40 -87 -135.5 -143t-196.5 -56q-176 0 -289 107q-159 151 -159 439t168 435q110 97 276 97t240.5 -80t95.5 -127l12 180h90v-1434
h-102z" />
    <glyph glyph-name="r" unicode="r" horiz-adv-x="780" 
d="M305 492v-492h-102v1024h90l12 -207q35 106 126 161.5t178 55.5t122 -6v-102q-42 10 -119 10t-192 -72t-115 -372z" />
    <glyph glyph-name="s" unicode="s" horiz-adv-x="1048" 
d="M280 166q97 -94 257 -94t237 75q55 55 55 129t-48 125.5t-140 63.5l-199 27q-159 20 -224 95q-64 75 -64 153q0 137 88 214q105 97 294 97q190 0 295 -121q74 -87 78 -189h-102q-12 78 -49 121q-79 92 -236 92q-120 0 -192 -52t-72 -127t41 -120t158 -61l194 -27
q137 -19 210 -101t73 -186t-62 -174q-117 -132 -337 -133q-219 0 -338 131q-79 89 -86 207h104q9 -90 65 -145z" />
    <glyph glyph-name="t" unicode="t" horiz-adv-x="757" 
d="M254 285v645h-205v94h205v283l102 24v-307h318v-94h-318v-641q0 -100 27 -138t59.5 -53.5t92.5 -15.5t153 18v-90q-103 -24 -170 -24q-143 0 -203.5 83t-60.5 216z" />
    <glyph glyph-name="u" unicode="u" horiz-adv-x="1193" 
d="M543 -25q-178 0 -269.5 100.5t-91.5 274.5v676h103v-670q0 -135 61.5 -207.5t202.5 -72.5q176 0 258 124.5t82 313.5v512h102v-1024h-90l-12 186q-72 -152 -182.5 -182.5t-163.5 -30.5z" />
    <glyph glyph-name="v" unicode="v" horiz-adv-x="956" 
d="M539 0h-105l-405 1024h116l344 -879l330 879h109z" />
    <glyph glyph-name="w" unicode="w" horiz-adv-x="1527" 
d="M1186 0h-123l-301 877l-299 -877h-121l-254 1024h98l222 -901l303 887h108l301 -879l223 893h97z" />
    <glyph glyph-name="x" unicode="x" horiz-adv-x="966" 
d="M799 0l-316 457l-317 -457h-121l369 530l-363 506h123l311 -438l314 438h119l-365 -506l369 -530h-123z" />
    <glyph glyph-name="y" unicode="y" horiz-adv-x="980" 
d="M205 -336q119 0 182 152l66 168l-420 1040h110l359 -909l344 909h110l-475 -1243q-82 -209 -276 -209q-90 0 -129 18v86q59 -12 129 -12z" />
    <glyph glyph-name="z" unicode="z" horiz-adv-x="1007" 
d="M125 0v115l655 813h-655v96h766v-113l-655 -813h661v-98h-772z" />
    <glyph glyph-name="braceleft" unicode="{" horiz-adv-x="718" 
d="M625 -238q-141 0 -216 76t-75 217v367q0 80 -60.5 131.5t-150.5 60.5v97q141 14 176 80.5t35 109.5v367q0 141 74.5 217t216.5 76h53v-86h-53q-106 0 -151.5 -51.5t-45.5 -155.5v-367q0 -88 -55.5 -151.5t-136.5 -85.5q82 -23 137 -88.5t55 -153.5v-367q0 -104 45 -155.5
t152 -51.5h53v-86h-53z" />
    <glyph glyph-name="bar" unicode="|" horiz-adv-x="528" 
d="M221 -236v1795h86v-1795h-86z" />
    <glyph glyph-name="braceright" unicode="}" horiz-adv-x="718" 
d="M385 422v-367q0 -141 -74.5 -217t-216.5 -76h-53v86h53q106 0 151.5 51.5t45.5 155.5v367q0 88 55 153.5t137 88.5q-82 23 -137 86t-55 151v367q0 104 -45 155.5t-152 51.5h-53v86h53q141 0 216 -76t75 -217v-367q0 -82 61.5 -131.5t149.5 -58.5v-97
q-140 -14 -175.5 -81.5t-35.5 -110.5z" />
    <glyph glyph-name="asciitilde" unicode="~" horiz-adv-x="1269" 
d="M1100 637q-132 -127 -250 -127q-70 0 -120 19.5t-140 61.5t-156 42q-99 0 -198 -94l-66 75q130 125 252 125q100 0 220 -58q121 -58 208 -58t184 88z" />
    <glyph glyph-name="Zcaron" horiz-adv-x="1265" 
d="M418 1884l227 -268l225 268l64 -55l-256 -293h-68l-256 293zM102 0v115l924 1237h-909v100h1032v-115l-926 -1237h936v-100h-1057z" />
    <glyph glyph-name="Zcaron" unicode="&#x17d;" horiz-adv-x="1265" 
d="M418 1884l227 -268l225 268l64 -55l-256 -293h-68l-256 293zM102 0v115l924 1237h-909v100h1032v-115l-926 -1237h936v-100h-1057z" />
    <glyph glyph-name="zcaron" horiz-adv-x="1007" 
d="M543 1135h-62l-229 264l57 49l205 -240l203 240l55 -49zM125 0v115l655 813h-655v96h766v-113l-655 -813h661v-98h-772z" />
    <glyph glyph-name="zcaron" unicode="&#x17e;" horiz-adv-x="1007" 
d="M543 1135h-62l-229 264l57 49l205 -240l203 240l55 -49zM125 0v115l655 813h-655v96h766v-113l-655 -813h661v-98h-772z" />
    <glyph glyph-name="uni00A0" unicode="&#xa0;" horiz-adv-x="440" 
 />
    <glyph glyph-name="exclamdown" unicode="&#xa1;" horiz-adv-x="628" 
d="M219 -418v398l29 589h69l29 -589v-398h-127zM207 879v155h155v-155h-155z" />
    <glyph glyph-name="cent" unicode="&#xa2;" 
d="M281 714.5q0 -100.5 19 -190.5t87 -161t182 -82v870q-110 -12 -180 -85t-89 -162t-19 -189.5zM653 0h-84v180q-150 15 -254 119q-80 80 -109.5 183.5t-29.5 307t121 324.5q121 122 272 137v201h84v-201q150 -12 245 -111t110 -257h-107q-10 106 -75.5 181t-172.5 87v-870
q111 12 176.5 90t75.5 182h107q-12 -151 -109.5 -257t-249.5 -118v-178z" />
    <glyph glyph-name="sterling" unicode="&#xa3;" horiz-adv-x="1183" 
d="M377 291q0 -142 -96 -187v-4h497q117 0 169 64.5t57 154.5h96q-4 -156 -92 -237.5t-230 -81.5h-669v113q165 13 165 188v412h-170v92h170v237q0 204 106 308t279 104t269 -109.5t96 -259.5h-98q0 117 -70.5 196t-204.5 79q-221 0 -247.5 -129t-26.5 -193v-233h373v-92
h-373v-422z" />
    <glyph glyph-name="currency" unicode="&#xa4;" 
d="M1055 518q0 76 -27 143.5t-74 118.5t-112.5 81t-143 30t-143.5 -30t-113 -81t-73.5 -118.5t-26.5 -143.5t26.5 -144.5t73.5 -119.5t113 -81t143.5 -30t143 30t112.5 81t74 119.5t27 144.5zM246 516q0 180 106 307l-157 138l81 81l138 -159q121 100 284.5 100t284.5 -100
l135 159l82 -81l-158 -138q109 -130 109 -307t-113 -309l162 -144l-82 -79l-141 163q-122 -96 -282 -96t-277 96l-142 -163l-81 79l163 144q-112 129 -112 309z" />
    <glyph glyph-name="yen" unicode="&#xa5;" 
d="M1012 649v-82h-385l-2 -4v-207h387v-84h-387v-272h-103v272h-344v84h344v207l-2 4h-342v82h295l-442 774h112l435 -757l432 757h106l-442 -774h338z" />
    <glyph glyph-name="brokenbar" unicode="&#xa6;" horiz-adv-x="540" 
d="M221 -102v651h98v-651h-98zM221 897v657h98v-657h-98z" />
    <glyph glyph-name="section" unicode="&#xa7;" horiz-adv-x="1116" 
d="M881 304q0 62 -19.5 108.5t-73.5 93.5l-399 350q-66 -35 -104.5 -89t-38.5 -117t19.5 -108.5t72.5 -92.5l399 -351q66 35 105 89.5t39 116.5zM977 317q0 -80 -43 -155.5t-131 -126.5q96 -105 96 -227t-96 -216t-246 -94t-248 99t-98 264h106q0 -127 68 -197t172 -70
t171 60t67 138q0 79 -27 124t-74 86l-422 369q-122 105 -122 266q0 80 43 155.5t131 127.5q-96 104 -96 225t91 215q100 96 250 96t248 -99t98 -259h-106q0 122 -68 192t-172 70q-105 0 -171 -59t-66 -138q0 -80 26.5 -125t73.5 -86l422 -368q123 -106 123 -267z" />
    <glyph glyph-name="dieresis" unicode="&#xa8;" horiz-adv-x="595" 
d="M47 1276v129h123v-129h-123zM424 1276v129h125v-129h-125z" />
    <glyph glyph-name="copyright" unicode="&#xa9;" horiz-adv-x="1802" 
d="M642.5 1016q95.5 117 270.5 117q132 0 224 -79.5t104 -222.5h-104q-8 94 -69.5 148.5t-143.5 54.5t-130.5 -24.5t-80 -66.5t-46 -99.5t-14.5 -159.5t64.5 -188t195.5 -86q92 0 153.5 54t70.5 148h104q-12 -142 -104 -221.5t-238 -79.5q-78 0 -146.5 33t-137 115
t-68.5 261t95.5 296zM1554 724q0 138 -50 260t-138 213t-208 143.5t-257 52.5t-257 -52.5t-208 -143.5t-138 -213t-50 -260t50 -259t138 -211t208 -142.5t257 -52.5t257 52.5t208 142.5t138 211t50 259zM1653 724q0 -157 -58.5 -294t-161 -240.5t-239.5 -163t-294 -59.5
t-293 59.5t-296.5 221.5t-160.5 477q0 156 58 294t160.5 241.5t238.5 163t293 59.5t294 -59.5t239.5 -163t161 -241.5t58.5 -295z" />
    <glyph glyph-name="ordfeminine" unicode="&#xaa;" horiz-adv-x="1003" 
d="M231 864q0 -78 54.5 -118.5t133.5 -40.5q138 0 205.5 90t67.5 219v35l-280 -17q-86 -4 -133.5 -47t-47.5 -121zM774 803q0 -84 46 -84q26 0 36 2v-72q-16 -4 -17 -4h-22q-72 0 -97.5 42t-27.5 101q-29 -66 -103.5 -112.5t-150.5 -46.5q-139 0 -215 64t-76 173
q0 108 71 169t188 69l286 20v74q0 176 -205 176q-92 0 -151.5 -43t-65.5 -129h-82q8 121 90 185.5t217 64.5t202 -65t72 -128t5 -102v-354z" />
    <glyph glyph-name="guillemotleft" unicode="&#xab;" horiz-adv-x="1073" 
d="M444 147l-331 449l331 448l68 -51l-279 -397l279 -395zM870 147l-331 449l331 448l70 -51l-281 -397l281 -395z" />
    <glyph glyph-name="logicalnot" unicode="&#xac;" horiz-adv-x="1269" 
d="M983 244v327h-854v95h950v-422h-96z" />
    <glyph glyph-name="uni00AD" unicode="&#xad;" horiz-adv-x="886" 
d="M154 571v95h579v-95h-579z" />
    <glyph glyph-name="registered" unicode="&#xae;" horiz-adv-x="1802" 
d="M1104 880.5q0 57.5 -39 105.5t-131 48h-184v-307h182q92 0 132 48t40 105.5zM1202 866q0 -62 -39 -125t-116 -92l147 -321h-111l-135 301h-198v-301h-97v805h281q130 0 199 -74t69 -193zM1554 724q0 138 -50 260t-138 213t-208 143.5t-257 52.5t-257 -52.5t-208 -143.5
t-138 -213t-50 -260t50 -259t138 -211t208 -142.5t257 -52.5t257 52.5t208 142.5t138 211t50 259zM1653 724q0 -157 -58.5 -294t-161 -240.5t-239.5 -163t-294 -59.5t-293 59.5t-296.5 221.5t-160.5 477q0 156 58 294t160.5 241.5t238.5 163t293 59.5t294 -59.5t239.5 -163
t161 -241.5t58.5 -295z" />
    <glyph glyph-name="macron" unicode="&#xaf;" horiz-adv-x="606" 
d="M35 1262v96h536v-96h-536z" />
    <glyph glyph-name="degree" unicode="&#xb0;" horiz-adv-x="976" 
d="M663.5 1318q-69.5 73 -173.5 73t-175 -72.5t-71 -178.5t71.5 -177.5t174.5 -71.5t173 72t70 177t-69.5 178zM827 1140.5q0 -69.5 -26.5 -132t-72.5 -108.5t-107.5 -72.5t-131 -26.5t-132 26.5t-108.5 72.5t-72.5 108.5t-26.5 132t26.5 132t72.5 108.5t108.5 73t132 27
t131 -27t107.5 -73t72.5 -108.5t26.5 -132z" />
    <glyph glyph-name="plusminus" unicode="&#xb1;" horiz-adv-x="1167" 
d="M150 0v90h868v-90h-868zM633 721v-404h-96v404h-387v90h387v391h96v-391h385v-90h-385z" />
    <glyph glyph-name="twosuperior" unicode="&#xb2;" horiz-adv-x="841" 
d="M160 719v76l319 292q37 35 63.5 72t26.5 93t-45.5 90t-119.5 34t-114 -49t-40 -121h-100q0 110 71.5 185t184.5 75t187.5 -58t74.5 -151q0 -94 -48.5 -151t-103.5 -109l-209 -190h385v-88h-532z" />
    <glyph glyph-name="threesuperior" unicode="&#xb3;" horiz-adv-x="860" 
d="M711 913q0 -74 -37 -125q-71 -98 -242 -98q-109 0 -191.5 68.5t-90.5 189.5h94q6 -84 56 -128t116 -44q202 0 201 98.5t-40.5 134t-117.5 35.5h-62v86h62q72 0 105.5 32t33.5 86t-35 87q-45 47 -127 47t-130 -41t-52 -122h-96q10 119 87 183t203 64t197 -82
q51 -60 51 -121t-28.5 -110t-81.5 -66q125 -44 125 -174z" />
    <glyph glyph-name="acute" unicode="&#xb4;" horiz-adv-x="497" 
d="M106 1157l-34 55l323 238l58 -90z" />
    <glyph glyph-name="mu" unicode="&#xb5;" horiz-adv-x="1214" 
d="M563 -27q-173 0 -258 101v-484h-102v1434h102v-670q0 -135 61.5 -207.5t202.5 -72.5q179 0 259.5 125t80.5 313v512h103v-1024h-90l-13 186q-70 -148 -181.5 -180.5t-164.5 -32.5z" />
    <glyph glyph-name="paragraph" unicode="&#xb6;" horiz-adv-x="1380" 
d="M1001 1352v-1608h-100v1608h-285v-1608h-100v977q-151 0 -256.5 107t-105.5 256t105 257.5t257 108.5h690v-98h-205z" />
    <glyph glyph-name="periodcentered" unicode="&#xb7;" horiz-adv-x="581" 
d="M184 522v185h181v-185h-181z" />
    <glyph glyph-name="cedilla" unicode="&#xb8;" horiz-adv-x="356" 
d="M164 -446l-109 51l148 276h96z" />
    <glyph glyph-name="onesuperior" unicode="&#xb9;" horiz-adv-x="636" 
d="M330 707v630l-201 -151v110l205 156h92v-745h-96z" />
    <glyph glyph-name="ordmasculine" unicode="&#xba;" horiz-adv-x="1003" 
d="M756 1038.5q0 75.5 -14.5 143.5t-55.5 110q-76 79 -184.5 78.5t-171.5 -67.5q-53 -53 -66.5 -121t-13.5 -143.5t13 -143.5t67 -121q61 -66 172 -66t168 60q57 59 71.5 127t14.5 143.5zM502 627q-138 0 -237 99t-99 354t132 312.5t237 57.5t205 -100t100 -312.5
t-100 -311.5t-238 -99z" />
    <glyph glyph-name="guillemotright" unicode="&#xbb;" horiz-adv-x="1073" 
d="M203 147l-70 54l281 395l-281 397l70 51l329 -448zM629 147l-70 54l281 395l-281 397l70 51l332 -448z" />
    <glyph glyph-name="onequarter" unicode="&#xbc;" horiz-adv-x="1738" 
d="M412 707v630l-201 -151v110l205 156h92v-745h-96zM387 -25l-72 56l1059 1442l74 -52zM1458 166v-166h-96v166h-381v100l322 494h110l-334 -504h283v170h96v-170h131v-90h-131z" />
    <glyph glyph-name="onehalf" unicode="&#xbd;" horiz-adv-x="1882" 
d="M401 707v630l-200 -151v110l205 156h92v-745h-97zM381 -25l-72 56l1059 1442l74 -52zM1118 0v76l320 295q35 35 63.5 72t28.5 93t-46 88.5t-120 32.5t-115 -49t-41 -121h-98q0 108 72 185.5t184 77.5t187 -58t75 -152t-47 -151t-104 -108l-211 -191h385v-90h-533z" />
    <glyph glyph-name="threequarters" unicode="&#xbe;" horiz-adv-x="1824" 
d="M717 913q0 -74 -37 -125q-71 -98 -242 -98q-109 0 -191.5 68.5t-90.5 189.5h94q6 -84 56 -128t116 -44q202 0 201.5 98.5t-40.5 134t-118 35.5h-62v86h62q72 0 105.5 32t33.5 86t-35 87q-45 47 -127 47t-130 -41t-52 -122h-96q10 119 87 183t203 64t197 -82
q51 -60 51 -121t-28.5 -110t-81.5 -66q125 -44 125 -174zM479 -25l-71 56l1058 1442l74 -52zM1544 166v-166h-96v166h-381v100l322 494h110l-334 -504h283v170h96v-170h131v-90h-131z" />
    <glyph glyph-name="questiondown" unicode="&#xbf;" horiz-adv-x="999" 
d="M918 -23q0 -193 -124 -311.5t-319 -118.5t-304 116q-110 116 -110 252t60.5 222.5t135.5 134.5t107.5 78.5t57 78t24.5 177.5h107q0 -156 -46.5 -237.5t-182.5 -175.5q-147 -98 -148 -265q0 -129 83 -202.5t229 -73.5t231.5 84t85.5 241h113zM418 872v160h162v-160h-162z
" />
    <glyph glyph-name="Agrave" unicode="&#xc0;" horiz-adv-x="1245" 
d="M754 1614l-344 203l55 90l323 -238zM618 1305l-309 -822h625zM1120 0l-147 383h-703l-143 -383h-111l551 1452h105l557 -1452h-109z" />
    <glyph glyph-name="Aacute" unicode="&#xc1;" horiz-adv-x="1245" 
d="M449 1573l-35 55l323 238l58 -90zM618 1305l-309 -822h625zM1120 0l-147 383h-703l-143 -383h-111l551 1452h105l557 -1452h-109z" />
    <glyph glyph-name="Acircumflex" unicode="&#xc2;" horiz-adv-x="1245" 
d="M840 1563l-228 268l-225 -268l-63 55l256 293h67l256 -293zM618 1305l-309 -822h625zM1120 0l-147 383h-703l-143 -383h-111l551 1452h105l557 -1452h-109z" />
    <glyph glyph-name="Atilde" unicode="&#xc3;" horiz-adv-x="1245" 
d="M905 1716q-96 -86 -168 -86q-63 0 -146 44t-137.5 44t-109.5 -51l-47 53q39 35 79 61.5t87 26.5t82 -13t66.5 -30.5t62.5 -31t78 -13.5t102 49zM618 1305l-309 -822h625zM1120 0l-147 383h-703l-143 -383h-111l551 1452h105l557 -1452h-109z" />
    <glyph glyph-name="Adieresis" unicode="&#xc4;" horiz-adv-x="1245" 
d="M741 1624v129h123v-129h-123zM365 1624v129h122v-129h-122zM618 1305l-309 -822h625zM1120 0l-147 383h-703l-143 -383h-111l551 1452h105l557 -1452h-109z" />
    <glyph glyph-name="Aring" unicode="&#xc5;" horiz-adv-x="1245" 
d="M618 1305l-309 -822h625zM770 1601.5q0 61.5 -40 106.5t-107.5 45t-107.5 -45t-40 -106.5t40 -105.5t107.5 -44t107.5 44t40 105.5zM393 1613q0 87 60.5 150.5t169 63.5t169 -63.5t60.5 -151.5t-44 -145.5t-112 -80.5l533 -1386h-109l-147 383h-703l-143 -383h-111
l527 1389q-66 23 -108 80t-42 144z" />
    <glyph glyph-name="AE" unicode="&#xc6;" horiz-adv-x="1816" 
d="M889 1354h-182l-371 -850h553v850zM889 0v406h-598l-176 -406h-115l643 1452h1063v-98h-713v-529h611v-100h-611v-625h713v-100h-817z" />
    <glyph glyph-name="Ccedilla" unicode="&#xc7;" horiz-adv-x="1275" 
d="M608 -426l-108 51l147 277h96zM674 -27q-106 0 -207 40.5t-169 108.5t-102 140t-50.5 148.5t-21.5 157.5t-5 215.5t44 342t224 280.5t287 73q212 0 355 -134t159 -337h-111q-12 160 -122.5 263t-287.5 103t-300 -125q-122 -127 -130 -291.5t-8 -283.5t26.5 -250.5
t113.5 -220.5q121 -125 298 -125t287.5 103t122.5 263h111q-16 -203 -159 -337t-355 -134z" />
    <glyph glyph-name="Egrave" unicode="&#xc8;" horiz-adv-x="1261" 
d="M821 1575l-344 203l55 90l324 -238zM221 0v1452h930v-102h-821v-533h723v-102h-723v-613h821v-102h-930z" />
    <glyph glyph-name="Eacute" unicode="&#xc9;" horiz-adv-x="1261" 
d="M520 1573l-35 55l324 238l57 -90zM221 0v1452h930v-102h-821v-533h723v-102h-723v-613h821v-102h-930z" />
    <glyph glyph-name="Ecircumflex" unicode="&#xca;" horiz-adv-x="1261" 
d="M899 1573l-227 268l-226 -268l-63 55l256 293h68l256 -293zM221 0v1452h930v-102h-821v-533h723v-102h-723v-613h821v-102h-930z" />
    <glyph glyph-name="Edieresis" unicode="&#xcb;" horiz-adv-x="1261" 
d="M799 1665v129h123v-129h-123zM422 1665v129h123v-129h-123zM221 0v1452h930v-102h-821v-533h723v-102h-723v-613h821v-102h-930z" />
    <glyph glyph-name="Igrave" unicode="&#xcc;" horiz-adv-x="550" 
d="M412 1565l-344 202l55 91l323 -238zM221 0v1452h109v-1452h-109z" />
    <glyph glyph-name="Iacute" unicode="&#xcd;" horiz-adv-x="550" 
d="M117 1573l-35 55l324 238l57 -90zM221 0v1452h109v-1452h-109z" />
    <glyph glyph-name="Icircumflex" unicode="&#xce;" horiz-adv-x="550" 
d="M506 1563l-227 268l-226 -268l-63 55l256 293h67l256 -293zM221 0v1452h109v-1452h-109z" />
    <glyph glyph-name="Idieresis" unicode="&#xcf;" horiz-adv-x="550" 
d="M352 1669v129h123v-129h-123zM70 1669v129h123v-129h-123zM221 0v1452h109v-1452h-109z" />
    <glyph glyph-name="Eth" unicode="&#xd0;" horiz-adv-x="1394" 
d="M991 1283q-176 65 -258 65h-375v-551h349v-86h-349v-607h375q176 0 296 115t129 279t9 442t-176 343zM1100 143q-150 -143 -367 -143h-481v711h-156v86h156v655h481q217 0 369 -146t163 -324.5t11 -422t-176 -416.5z" />
    <glyph glyph-name="Ntilde" unicode="&#xd1;" horiz-adv-x="1511" 
d="M1065 1663q-96 -86 -168 -86q-63 0 -147.5 44t-137 44t-108.5 -51l-47 53q39 35 78 61.5t87 26.5t82.5 -13t66.5 -30.5t62.5 -31t77.5 -13.5t103 49zM328 0h-107v1452h121l844 -1284v1284h104v-1452h-121l-841 1286v-1286z" />
    <glyph glyph-name="Ograve" unicode="&#xd2;" horiz-adv-x="1347" 
d="M817 1575l-344 203l55 90l324 -238zM939 1307q-179 67 -311.5 67t-257.5 -120t-133 -291.5t-8 -236.5q0 -172 36 -356t179.5 -238t275 -54t257.5 121t133.5 291.5t7.5 293.5q0 456 -179 523zM1011 69q-218 -96 -388 -96t-326 151t-167 338t-11 327t50 341t218 275t338 74
t325 -151q156 -151 167.5 -337t11.5 -506t-218 -416z" />
    <glyph glyph-name="Oacute" unicode="&#xd3;" horiz-adv-x="1347" 
d="M506 1583l-35 55l324 238l57 -90zM939 1307q-179 67 -311.5 67t-257.5 -120t-133 -291.5t-8 -236.5q0 -172 36 -356t179.5 -238t275 -54t257.5 121t133.5 291.5t7.5 293.5q0 456 -179 523zM1011 69q-218 -96 -388 -96t-326 151t-167 338t-11 327t50 341t218 275t338 74
t325 -151q156 -151 167.5 -337t11.5 -506t-218 -416z" />
    <glyph glyph-name="Ocircumflex" unicode="&#xd4;" horiz-adv-x="1347" 
d="M887 1563l-228 268l-225 -268l-63 55l256 293h67l256 -293zM939 1307q-179 67 -311.5 67t-257.5 -120t-133 -291.5t-8 -236.5q0 -172 36 -356t179.5 -238t275 -54t257.5 121t133.5 291.5t7.5 293.5q0 456 -179 523zM1011 69q-218 -96 -388 -96t-326 151t-167 338t-11 327
t50 341t218 275t338 74t325 -151q156 -151 167.5 -337t11.5 -506t-218 -416z" />
    <glyph glyph-name="Otilde" unicode="&#xd5;" horiz-adv-x="1347" 
d="M961 1714q-97 -86 -169 -86q-64 0 -146.5 44t-137 44t-109.5 -51l-47 53q39 35 79 61.5t87 26.5t82 -13t66.5 -30.5t62.5 -31t79 -13.5t101 49zM939 1307q-179 67 -311.5 67t-257.5 -120t-133 -291.5t-8 -236.5q0 -172 36 -356t179.5 -238t275 -54t257.5 121t133.5 291.5
t7.5 293.5q0 456 -179 523zM1011 69q-218 -96 -388 -96t-326 151t-167 338t-11 327t50 341t218 275t338 74t325 -151q156 -151 167.5 -337t11.5 -506t-218 -416z" />
    <glyph glyph-name="Odieresis" unicode="&#xd6;" horiz-adv-x="1347" 
d="M788 1628v129h123v-129h-123zM412 1628v129h123v-129h-123zM939 1307q-179 67 -311.5 67t-257.5 -120t-133 -291.5t-8 -236.5q0 -172 36 -356t179.5 -238t275 -54t257.5 121t133.5 291.5t7.5 293.5q0 456 -179 523zM1011 69q-218 -96 -388 -96t-326 151t-167 338t-11 327
t50 341t218 275t338 74t325 -151q156 -151 167.5 -337t11.5 -506t-218 -416z" />
    <glyph glyph-name="multiply" unicode="&#xd7;" horiz-adv-x="1382" 
d="M1169 66l-479 479l-477 -479l-63 63l479 479l-479 477l63 64l477 -477l479 477l64 -64l-479 -477l479 -479z" />
    <glyph glyph-name="Oslash" unicode="&#xd8;" horiz-adv-x="1347" 
d="M692 1374q-196 0 -322 -120q-125 -120 -133 -291.5t-8 -236.5q0 -174 26.5 -309t123.5 -227l6 -6l506 1135q-95 55 -199 55zM1091.5 1036q-26.5 130 -126.5 230l-508 -1133q89 -55 196 -55q198 0 316 112q135 130 142 300.5t7 293.5q0 122 -26.5 252zM1179 322
q-50 -201 -218 -275t-297 -74t-250 64l-80 -178l-80 35l86 192q-10 10 -75 61.5t-105.5 213.5t-40.5 303t11.5 327t167.5 337t390 151q133 0 246 -66l72 160l79 -37l-77 -172q20 -16 60 -54t76 -111t60.5 -171.5t24.5 -301.5t-50 -404z" />
    <glyph glyph-name="Ugrave" unicode="&#xd9;" horiz-adv-x="1419" 
d="M821 1565l-344 202l55 91l324 -238zM1225 532q0 -248 -132 -403.5t-385 -155.5t-383 155.5t-130 403.5v920h106v-922q0 -314 150.5 -384t306 -70t258 126t102.5 328v922h107v-920z" />
    <glyph glyph-name="Uacute" unicode="&#xda;" horiz-adv-x="1419" 
d="M555 1573l-35 55l324 238l57 -90zM1225 532q0 -248 -132 -403.5t-385 -155.5t-383 155.5t-130 403.5v920h106v-922q0 -314 150.5 -384t306 -70t258 126t102.5 328v922h107v-920z" />
    <glyph glyph-name="Ucircumflex" unicode="&#xdb;" horiz-adv-x="1419" 
d="M928 1563l-228 268l-225 -268l-63 55l256 293h67l256 -293zM1225 532q0 -248 -132 -403.5t-385 -155.5t-383 155.5t-130 403.5v920h106v-922q0 -314 150.5 -384t306 -70t258 126t102.5 328v922h107v-920z" />
    <glyph glyph-name="Udieresis" unicode="&#xdc;" horiz-adv-x="1419" 
d="M836 1626v129h122v-129h-122zM459 1626v129h123v-129h-123zM1225 532q0 -248 -132 -403.5t-385 -155.5t-383 155.5t-130 403.5v920h106v-922q0 -314 150.5 -384t306 -70t258 126t102.5 328v922h107v-920z" />
    <glyph glyph-name="Yacute" unicode="&#xdd;" horiz-adv-x="1116" 
d="M410 1552l-35 56l323 237l58 -90zM610 0h-104v575l-502 877h115l442 -772l443 772h108l-502 -877v-575z" />
    <glyph glyph-name="Thorn" unicode="&#xde;" horiz-adv-x="1224" 
d="M1057 776.5q0 123.5 -99.5 205t-269.5 81.5h-360v-649h360q260 0 314.5 119.5t54.5 243zM1167 688.5q0 -161.5 -129.5 -270.5t-349.5 -109h-360v-309h-107v1452h107v-285h360q338 0 408.5 -158.5t70.5 -320z" />
    <glyph glyph-name="germandbls" unicode="&#xdf;" horiz-adv-x="1214" 
d="M668 88q148 0 248 89t100 250t-102.5 243t-262.5 82h-82v100h82q137 0 200.5 74.5t63.5 193.5t-82.5 191.5t-212.5 72.5q-131 0 -204.5 -90t-73.5 -235v-1059h-102v926h-183v98h183v35q0 188 103.5 306t280.5 118t287.5 -102t110.5 -261q0 -158 -69.5 -224.5
t-114.5 -80.5q133 -35 209.5 -141.5t76.5 -227.5q0 -216 -129.5 -337t-330.5 -121q-76 0 -152 12v98q93 -10 156 -10z" />
    <glyph glyph-name="agrave" unicode="&#xe0;" horiz-adv-x="1148" 
d="M719 1163l-344 203l55 90l324 -237zM223 280q0 -102 73 -157t176 -55q188 0 278 120.5t90 284.5v53l-367 -22q-115 -8 -182.5 -65t-67.5 -159zM1001 -6q-161 0 -161 201q-38 -105 -142.5 -163.5t-202.5 -58.5q-177 0 -276.5 85t-99.5 227q0 141 95 220t249 89l377 27v100
q0 127 -77 180t-197 53t-201.5 -55t-90.5 -170h-102q12 151 120.5 236.5t285.5 85.5t263 -83.5t93.5 -167t7.5 -134.5v-467q0 -53 13.5 -82t66.5 -29q18 0 29 2v-90q-27 -6 -50 -6z" />
    <glyph glyph-name="aacute" unicode="&#xe1;" horiz-adv-x="1148" 
d="M403 1165l-34 56l323 237l58 -90zM223 280q0 -102 73 -157t176 -55q188 0 278 120.5t90 284.5v53l-367 -22q-115 -8 -182.5 -65t-67.5 -159zM1001 -6q-161 0 -161 201q-38 -105 -142.5 -163.5t-202.5 -58.5q-177 0 -276.5 85t-99.5 227q0 141 95 220t249 89l377 27v100
q0 127 -77 180t-197 53t-201.5 -55t-90.5 -170h-102q12 151 120.5 236.5t285.5 85.5t263 -83.5t93.5 -167t7.5 -134.5v-467q0 -53 13.5 -82t66.5 -29q18 0 29 2v-90q-27 -6 -50 -6z" />
    <glyph glyph-name="acircumflex" unicode="&#xe2;" horiz-adv-x="1148" 
d="M799 1151l-228 268l-225 -268l-63 55l256 293h67l256 -293zM223 280q0 -102 73 -157t176 -55q188 0 278 120.5t90 284.5v53l-367 -22q-115 -8 -182.5 -65t-67.5 -159zM1001 -6q-161 0 -161 201q-38 -105 -142.5 -163.5t-202.5 -58.5q-177 0 -276.5 85t-99.5 227
q0 141 95 220t249 89l377 27v100q0 127 -77 180t-197 53t-201.5 -55t-90.5 -170h-102q12 151 120.5 236.5t285.5 85.5t263 -83.5t93.5 -167t7.5 -134.5v-467q0 -53 13.5 -82t66.5 -29q18 0 29 2v-90q-27 -6 -50 -6z" />
    <glyph glyph-name="atilde" unicode="&#xe3;" horiz-adv-x="1148" 
d="M262 1327q89 84 160 84q45 0 77.5 -13.5t63.5 -28.5t60.5 -28.5t72.5 -13.5t99 49l49 -53q-90 -80 -155 -80t-121 27.5t-87.5 41t-74.5 13.5t-97 -47zM223 280q0 -102 73 -157t176 -55q188 0 278 120.5t90 284.5v53l-367 -22q-115 -8 -182.5 -65t-67.5 -159zM1001 -6
q-161 0 -161 201q-38 -105 -142.5 -163.5t-202.5 -58.5q-177 0 -276.5 85t-99.5 227q0 141 95 220t249 89l377 27v100q0 127 -77 180t-197 53t-201.5 -55t-90.5 -170h-102q12 151 120.5 236.5t285.5 85.5t263 -83.5t93.5 -167t7.5 -134.5v-467q0 -53 13.5 -82t66.5 -29
q18 0 29 2v-90q-27 -6 -50 -6z" />
    <glyph glyph-name="adieresis" unicode="&#xe4;" horiz-adv-x="1148" 
d="M700 1276v129h123v-129h-123zM324 1276v129h122v-129h-122zM223 280q0 -102 73 -157t176 -55q188 0 278 120.5t90 284.5v53l-367 -22q-115 -8 -182.5 -65t-67.5 -159zM1001 -6q-161 0 -161 201q-38 -105 -142.5 -163.5t-202.5 -58.5q-177 0 -276.5 85t-99.5 227
q0 141 95 220t249 89l377 27v100q0 127 -77 180t-197 53t-201.5 -55t-90.5 -170h-102q12 151 120.5 236.5t285.5 85.5t263 -83.5t93.5 -167t7.5 -134.5v-467q0 -53 13.5 -82t66.5 -29q18 0 29 2v-90q-27 -6 -50 -6z" />
    <glyph glyph-name="aring" unicode="&#xe5;" horiz-adv-x="1148" 
d="M702 1372.5q0 59.5 -36.5 101.5t-102 42t-103.5 -42t-38 -101.5t38 -101.5t103.5 -42t102 42t36.5 101.5zM782 1370q0 -94 -63.5 -153.5t-155.5 -59.5t-155.5 59.5t-63.5 153.5t57.5 155.5t162 61.5t161.5 -61.5t57 -155.5zM223 280q0 -102 73 -157t176 -55
q188 0 278 120.5t90 284.5v53l-367 -22q-115 -8 -182.5 -65t-67.5 -159zM1001 -6q-161 0 -161 201q-38 -105 -142.5 -163.5t-202.5 -58.5q-177 0 -276.5 85t-99.5 227q0 141 95 220t249 89l377 27v100q0 127 -77 180t-197 53t-201.5 -55t-90.5 -170h-102q12 151 120.5 236.5
t285.5 85.5t263 -83.5t93.5 -167t7.5 -134.5v-467q0 -53 13.5 -82t66.5 -29q18 0 29 2v-90q-27 -6 -50 -6z" />
    <glyph glyph-name="ae" unicode="&#xe6;" horiz-adv-x="1744" 
d="M809 494h-338q-111 0 -180.5 -57.5t-69.5 -155.5t70.5 -151.5t166.5 -53.5q171 0 261 103t90 259v56zM918 588h620q-4 189 -106 289q-81 77 -219 77t-216.5 -101t-78.5 -265zM1642 528v-34h-729v-48q0 -162 83 -270t241 -108q234 0 281 239h104q-27 -154 -127.5 -244
t-252.5 -90q-276 0 -382 260q-47 -123 -150.5 -188t-247.5 -65t-243.5 83.5t-99.5 216.5q0 134 97.5 221t248.5 87h344v133q0 111 -69.5 172t-191.5 61t-198 -58t-84 -173h-102q10 154 111.5 241t269.5 87q105 0 175.5 -34t108 -69t58.5 -84q107 187 342 187q167 0 270 -103
q143 -136 143 -420z" />
    <glyph glyph-name="ccedilla" unicode="&#xe7;" horiz-adv-x="1048" 
d="M514 -438l-113 53l154 287h98zM115 584q0 203 132 335t303 132t277.5 -95.5t126.5 -250.5h-106q-16 106 -94 175.5t-206 69.5t-207 -80t-100.5 -169t-21.5 -189t21.5 -191t97.5 -169t208 -78t208.5 72.5t95.5 177.5h108q-21 -153 -131.5 -252t-279.5 -99q-168 0 -289 121
q-80 80 -111.5 183.5t-31.5 306.5z" />
    <glyph glyph-name="egrave" unicode="&#xe8;" horiz-adv-x="1103" 
d="M719 1167l-344 203l55 90l324 -237zM219 582h678q-4 154 -93.5 263t-241.5 109q-155 0 -249 -109t-94 -263zM864 92q-119 -119 -306 -119t-315 150t-128 381t100 368q131 178 339 178t327.5 -145.5t119.5 -349.5l-2 -68h-782q4 -183 101 -299t244 -116q146 0 233 90
q59 59 77 145h107q-19 -123 -115 -215z" />
    <glyph glyph-name="eacute" unicode="&#xe9;" horiz-adv-x="1103" 
d="M412 1161l-35 56l323 237l58 -90zM219 582h678q-4 154 -93.5 263t-241.5 109q-155 0 -249 -109t-94 -263zM864 92q-119 -119 -306 -119t-315 150t-128 381t100 368q131 178 339 178t327.5 -145.5t119.5 -349.5l-2 -68h-782q4 -183 101 -299t244 -116q146 0 233 90
q59 59 77 145h107q-19 -123 -115 -215z" />
    <glyph glyph-name="ecircumflex" unicode="&#xea;" horiz-adv-x="1103" 
d="M795 1151l-228 268l-225 -268l-63 55l256 293h67l256 -293zM219 582h678q-4 154 -93.5 263t-241.5 109q-155 0 -249 -109t-94 -263zM864 92q-119 -119 -306 -119t-315 150t-128 381t100 368q131 178 339 178t327.5 -145.5t119.5 -349.5l-2 -68h-782q4 -183 101 -299
t244 -116q146 0 233 90q59 59 77 145h107q-19 -123 -115 -215z" />
    <glyph glyph-name="edieresis" unicode="&#xeb;" horiz-adv-x="1103" 
d="M694 1276v129h123v-129h-123zM317 1276v129h123v-129h-123zM219 582h678q-4 154 -93.5 263t-241.5 109q-155 0 -249 -109t-94 -263zM864 92q-119 -119 -306 -119t-315 150t-128 381t100 368q131 178 339 178t327.5 -145.5t119.5 -349.5l-2 -68h-782q4 -183 101 -299
t244 -116q146 0 233 90q59 59 77 145h107q-19 -123 -115 -215z" />
    <glyph glyph-name="igrave" unicode="&#xec;" horiz-adv-x="532" 
d="M393 1225l-344 202l55 91l324 -238zM213 0v1024h106v-1024h-106z" />
    <glyph glyph-name="iacute" unicode="&#xed;" horiz-adv-x="532" 
d="M123 1225l-35 55l324 238l57 -91zM213 0v1024h106v-1024h-106z" />
    <glyph glyph-name="icircumflex" unicode="&#xee;" horiz-adv-x="532" 
d="M492 1200l-228 268l-225 -268l-64 55l256 293h68l256 -293zM213 0v1024h106v-1024h-106z" />
    <glyph glyph-name="idieresis" unicode="&#xef;" horiz-adv-x="532" 
d="M348 1325v129h123v-129h-123zM51 1325v129h123v-129h-123zM213 0v1024h106v-1024h-106z" />
    <glyph glyph-name="eth" unicode="&#xf0;" horiz-adv-x="1110" 
d="M891 512q0 100 -19.5 189.5t-75.5 145.5t-111.5 79.5t-162 23.5t-185.5 -80t-98.5 -169t-19.5 -189t19.5 -191t95.5 -169t221 -78t221 79t95.5 169t19.5 190zM995 541q0 -160 -29.5 -263.5t-95.5 -169.5q-134 -134 -314.5 -134.5t-301.5 120.5q-80 80 -109.5 183.5
t-29.5 308.5t130 335t310 130q75 0 154 -27l-115 201h-256v82h209l-98 172h116l97 -172h206v-82h-159l227 -404v-2q59 -118 59 -278z" />
    <glyph glyph-name="ntilde" unicode="&#xf1;" horiz-adv-x="1193" 
d="M305 1333q89 84 160 84q58 0 115 -28.5t86.5 -42t72.5 -13.5t99 49l49 -53q-90 -80 -156 -80t-121 28t-86.5 41t-76 13t-95.5 -47zM909 0v670q0 135 -61.5 207.5t-202.5 72.5q-175 0 -257.5 -125.5t-82.5 -312.5v-512h-102v1024h90l12 -186q38 94 138.5 153.5t207.5 59.5
q178 0 269.5 -100.5t91.5 -274.5v-676h-103z" />
    <glyph glyph-name="ograve" unicode="&#xf2;" horiz-adv-x="1118" 
d="M705 1161l-345 203l56 90l323 -237zM899 512q0 100 -22.5 188t-78.5 144t-110.5 81t-159 25t-184.5 -81t-102.5 -169t-22.5 -188t22.5 -188t78.5 -144t110.5 -81t159 -25t184.5 81t102.5 169t22.5 188zM1004 459q0 -323 -174.5 -404.5t-310.5 -81.5t-259 123
q-80 80 -112.5 182.5t-32.5 233.5t32.5 233.5t98.5 168.5q136 136 312.5 136.5t299.5 -122.5q146 -146 146 -469z" />
    <glyph glyph-name="oacute" unicode="&#xf3;" horiz-adv-x="1118" 
d="M418 1163l-35 56l324 237l57 -90zM899 512q0 100 -22.5 188t-78.5 144t-110.5 81t-159 25t-184.5 -81t-102.5 -169t-22.5 -188t22.5 -188t78.5 -144t110.5 -81t159 -25t184.5 81t102.5 169t22.5 188zM1004 459q0 -323 -174.5 -404.5t-310.5 -81.5t-259 123
q-80 80 -112.5 182.5t-32.5 233.5t32.5 233.5t98.5 168.5q136 136 312.5 136.5t299.5 -122.5q146 -146 146 -469z" />
    <glyph glyph-name="ocircumflex" unicode="&#xf4;" horiz-adv-x="1118" 
d="M788 1151l-227 268l-225 -268l-64 55l256 293h68l256 -293zM899 512q0 100 -22.5 188t-78.5 144t-110.5 81t-159 25t-184.5 -81t-102.5 -169t-22.5 -188t22.5 -188t78.5 -144t110.5 -81t159 -25t184.5 81t102.5 169t22.5 188zM1004 459q0 -323 -174.5 -404.5
t-310.5 -81.5t-259 123q-80 80 -112.5 182.5t-32.5 233.5t32.5 233.5t98.5 168.5q136 136 312.5 136.5t299.5 -122.5q146 -146 146 -469z" />
    <glyph glyph-name="otilde" unicode="&#xf5;" horiz-adv-x="1118" 
d="M270 1348q89 84 160 84q58 0 140.5 -42t130.5 -42t102 49l49 -54q-89 -79 -155 -79q-67 0 -122 27.5t-86.5 41t-75 13.5t-96.5 -48zM899 512q0 100 -22.5 188t-78.5 144t-110.5 81t-159 25t-184.5 -81t-102.5 -169t-22.5 -188t22.5 -188t78.5 -144t110.5 -81t159 -25
t184.5 81t102.5 169t22.5 188zM1004 459q0 -323 -174.5 -404.5t-310.5 -81.5t-259 123q-80 80 -112.5 182.5t-32.5 233.5t32.5 233.5t98.5 168.5q136 136 312.5 136.5t299.5 -122.5q146 -146 146 -469z" />
    <glyph glyph-name="odieresis" unicode="&#xf6;" horiz-adv-x="1118" 
d="M686 1276v129h123v-129h-123zM309 1276v129h123v-129h-123zM899 512q0 100 -22.5 188t-78.5 144t-110.5 81t-159 25t-184.5 -81t-102.5 -169t-22.5 -188t22.5 -188t78.5 -144t110.5 -81t159 -25t184.5 81t102.5 169t22.5 188zM1004 459q0 -323 -174.5 -404.5
t-310.5 -81.5t-259 123q-80 80 -112.5 182.5t-32.5 233.5t32.5 233.5t98.5 168.5q136 136 312.5 136.5t299.5 -122.5q146 -146 146 -469z" />
    <glyph glyph-name="divide" unicode="&#xf7;" horiz-adv-x="1337" 
d="M582 100v170h161v-170h-161zM170 567v95h997v-95h-997zM582 967v172h161v-172h-161z" />
    <glyph glyph-name="oslash" unicode="&#xf8;" horiz-adv-x="1118" 
d="M565 950q-141 0 -221 -81t-102.5 -169t-22.5 -188t22.5 -188t92.5 -160q6 -6 12 -12.5t14 -12.5l351 776q-66 35 -146 35zM899 512q0 100 -21.5 188t-99.5 166l-348 -768q55 -25 159.5 -24.5t184.5 81.5t102.5 169t22.5 188zM1004 475.5q0 -339.5 -174.5 -421
t-267.5 -81.5t-173 35l-74 -166l-73 33l77 172q-27 17 -59 49q-80 80 -112.5 182.5t-32.5 303.5t134 335t310 134q106 0 193 -45l75 170l76 -33l-82 -182q183 -146 183 -485.5z" />
    <glyph glyph-name="ugrave" unicode="&#xf9;" horiz-adv-x="1193" 
d="M725 1161l-344 203l55 90l324 -237zM543 -25q-178 0 -269.5 100.5t-91.5 274.5v676h103v-670q0 -135 61.5 -207.5t202.5 -72.5q176 0 258 124.5t82 313.5v512h102v-1024h-90l-12 186q-72 -152 -182.5 -182.5t-163.5 -30.5z" />
    <glyph glyph-name="uacute" unicode="&#xfa;" horiz-adv-x="1193" 
d="M451 1161l-35 56l323 237l58 -90zM543 -25q-178 0 -269.5 100.5t-91.5 274.5v676h103v-670q0 -135 61.5 -207.5t202.5 -72.5q176 0 258 124.5t82 313.5v512h102v-1024h-90l-12 186q-72 -152 -182.5 -182.5t-163.5 -30.5z" />
    <glyph glyph-name="ucircumflex" unicode="&#xfb;" horiz-adv-x="1193" 
d="M799 1151l-228 268l-225 -268l-63 55l256 293h67l256 -293zM543 -25q-178 0 -269.5 100.5t-91.5 274.5v676h103v-670q0 -135 61.5 -207.5t202.5 -72.5q176 0 258 124.5t82 313.5v512h102v-1024h-90l-12 186q-72 -152 -182.5 -182.5t-163.5 -30.5z" />
    <glyph glyph-name="udieresis" unicode="&#xfc;" horiz-adv-x="1193" 
d="M709 1276v129h122v-129h-122zM332 1276v129h123v-129h-123zM543 -25q-178 0 -269.5 100.5t-91.5 274.5v676h103v-670q0 -135 61.5 -207.5t202.5 -72.5q176 0 258 124.5t82 313.5v512h102v-1024h-90l-12 186q-72 -152 -182.5 -182.5t-163.5 -30.5z" />
    <glyph glyph-name="yacute" unicode="&#xfd;" horiz-adv-x="980" 
d="M358 1141l-34 55l323 238l58 -91zM205 -336q119 0 182 152l66 168l-420 1040h110l359 -909l344 909h110l-475 -1243q-82 -209 -276 -209q-90 0 -129 18v86q59 -12 129 -12z" />
    <glyph glyph-name="thorn" unicode="&#xfe;" horiz-adv-x="1189" 
d="M658 950q-193 0 -272 -124t-79 -312q0 -299 120 -369.5t202 -70.5q139 0 214 75q134 134 134 364t-125 353q-84 84 -194 84zM307 -412h-104v1889h104v-625q47 98 139.5 148.5t190.5 50.5q171 0 291 -113q151 -151 151 -426t-151 -426q-117 -113 -285 -113
q-104 0 -196.5 50.5t-139.5 148.5v-584z" />
    <glyph glyph-name="ydieresis" unicode="&#xff;" horiz-adv-x="980" 
d="M623 1276v129h122v-129h-122zM246 1276v129h123v-129h-123zM205 -336q119 0 182 152l66 168l-420 1040h110l359 -909l344 909h110l-475 -1243q-82 -209 -276 -209q-90 0 -129 18v86q59 -12 129 -12z" />
    <glyph glyph-name="dotlessi" unicode="&#x131;" horiz-adv-x="532" 
d="M213 0v1024h106v-1024h-106z" />
    <glyph glyph-name="Lslash" unicode="&#x141;" horiz-adv-x="1153" 
d="M256 0v641l-147 -92l-46 74l193 118v711h106v-643l320 197l45 -74l-365 -225v-607h754v-100h-860z" />
    <glyph glyph-name="lslash" unicode="&#x142;" horiz-adv-x="651" 
d="M449 -12q-205 0 -205 217v563l-135 -84l-46 74l181 112v609h102v-545l193 119l45 -74l-238 -148v-622q0 -53 20.5 -88t86.5 -35h33q32 0 55 4v-90q-48 -12 -92 -12z" />
    <glyph glyph-name="OE" unicode="&#x152;" horiz-adv-x="2150" 
d="M1110 741q0 186 -47.5 409.5t-311.5 223.5t-380 -112q-88 -82 -115 -208.5t-27 -312.5v-28q0 -186 26.5 -313.5t115.5 -209.5q116 -112 298 -112t300 112q88 85 114.5 211t26.5 312v28zM1110 0v205q-23 -44 -77 -97t-149.5 -94t-268 -41t-325.5 149t-162 338t-9 331
t44.5 341t216 273t361 74t274.5 -104.5t95 -127.5v205h930v-102h-821v-533h723v-102h-723v-613h821v-102h-930z" />
    <glyph glyph-name="oe" unicode="&#x153;" horiz-adv-x="1867" 
d="M891 512q0 100 -19.5 189.5t-75.5 145.5t-111.5 79.5t-162 23.5t-185.5 -80t-98.5 -169t-19.5 -189t19.5 -191t95.5 -169t221 -78t221 79t95.5 169t19.5 190zM995 582h666q-2 158 -90 265t-236 107q-196 0 -268 -137t-72 -235zM1341 -27q-262 0 -393 258
q-62 -153 -179.5 -205.5t-255.5 -52.5t-259 121q-80 80 -109.5 183.5t-29.5 234.5t29.5 234.5t95.5 169.5q134 134 314.5 134.5t301.5 -120.5q59 -59 90 -131q10 18 20.5 37.5t22.5 35.5q131 178 350 178t340 -184q86 -130 86 -311l-2 -68h-768l-2 -26q9 -174 103 -281
q91 -108 236 -108q196 0 246 94t60 141h107q-19 -128 -117 -221q-113 -113 -287 -113z" />
    <glyph glyph-name="Scaron" unicode="&#x160;" horiz-adv-x="1273" 
d="M414 1894l227 -268l225 268l64 -55l-256 -293h-68l-256 293zM319 195q119 -119 328 -119t322 108q86 82 86 209q0 166 -108.5 220.5t-174.5 62.5l-270 35q-251 32 -304 157t-53 213q0 151 127 271q142 127 359 127q117 0 224.5 -44.5t161.5 -106.5q105 -122 118 -261
h-109q-16 109 -80 184q-47 59 -131 92t-173 33q-259 0 -322.5 -113.5t-63.5 -182.5q0 -121 71 -182t185 -75l274 -35q168 -20 273.5 -131t105.5 -269q0 -159 -114 -273q-146 -142 -412 -142q-360 0 -444 180.5t-93 264.5h111q15 -125 106 -223z" />
    <glyph glyph-name="scaron" unicode="&#x161;" horiz-adv-x="1048" 
d="M553 1137h-61l-230 264l57 49l205 -240l203 240l55 -49zM280 166q97 -94 257 -94t237 75q55 55 55 129t-48 125.5t-140 63.5l-199 27q-159 20 -224 95q-64 75 -64 153q0 137 88 214q105 97 294 97q190 0 295 -121q74 -87 78 -189h-102q-12 78 -49 121q-79 92 -236 92
q-120 0 -192 -52t-72 -127t41 -120t158 -61l194 -27q137 -19 210 -101t73 -186t-62 -174q-117 -132 -337 -133q-219 0 -338 131q-79 89 -86 207h104q9 -90 65 -145z" />
    <glyph glyph-name="Ydieresis" unicode="&#x178;" horiz-adv-x="1116" 
d="M684 1636v129h123v-129h-123zM307 1636v129h123v-129h-123zM610 0h-104v575l-502 877h115l442 -772l443 772h108l-502 -877v-575z" />
    <glyph glyph-name="florin" unicode="&#x192;" horiz-adv-x="1081" 
d="M840 1372q-137 0 -172 -182l-66 -318h309v-92h-327l-70 -346h-2l-86 -426q-29 -141 -100.5 -199.5t-175.5 -58.5q-61 0 -117 8v95q56 -7 124 -7q136 0 173 181l153 753h-229v92h250l67 334q29 141 101.5 199.5t177.5 58.5q45 0 117 -10v-96q-59 14 -127 14z" />
    <glyph glyph-name="circumflex" unicode="&#x2c6;" horiz-adv-x="727" 
d="M590 1151l-228 268l-225 -268l-63 55l256 293h67l256 -293z" />
    <glyph glyph-name="caron" unicode="&#x2c7;" horiz-adv-x="722" 
d="M395 1550h-67l-256 293l63 55l227 -268l226 268l63 -55z" />
    <glyph glyph-name="breve" unicode="&#x2d8;" horiz-adv-x="743" 
d="M373 1159q-129 0 -209 80t-90 213h88q10 -98 64.5 -153.5t146.5 -55.5t146 55.5t65 153.5h88q-10 -133 -90 -213t-209 -80z" />
    <glyph glyph-name="dotaccent" unicode="&#x2d9;" horiz-adv-x="563" 
d="M211 1309v143h141v-143h-141z" />
    <glyph glyph-name="ring" unicode="&#x2da;" horiz-adv-x="450" 
d="M365 1372.5q0 59.5 -37 101.5t-102.5 42t-103.5 -42t-38 -101.5t38 -101.5t103.5 -42t102.5 42t37 101.5zM444 1370q0 -94 -63.5 -153.5t-155.5 -59.5t-155.5 59.5t-63.5 153.5t57.5 155.5t162 61.5t161.5 -61.5t57 -155.5z" />
    <glyph glyph-name="ogonek" unicode="&#x2db;" horiz-adv-x="356" 
d="M190 -446l-133 327h95l147 -276z" />
    <glyph glyph-name="tilde" unicode="&#x2dc;" horiz-adv-x="737" 
d="M78 1335q89 84 160 84q58 0 115 -28.5t86.5 -42t74.5 -13.5t96 47l49 -51q-37 -33 -75.5 -57.5t-83.5 -24.5q-58 0 -140.5 42t-134 42t-100.5 -47z" />
    <glyph glyph-name="hungarumlaut" unicode="&#x2dd;" horiz-adv-x="940" 
d="M117 1151l-37 55l326 250l61 -92zM553 1151l-37 55l326 250l61 -92z" />
    <glyph glyph-name="uni03A9" unicode="&#x3a9;" horiz-adv-x="1802" 
d="M1130 846q0 55 -38.5 102t-128.5 47h-181v-301h179q90 0 129.5 48.5t39.5 103.5zM1155 668q-70 -70 -194 -70h-179v-293h-96v787h277q123 0 192.5 -71.5t69.5 -177t-70 -175.5zM1554 724q0 138 -50 260t-138 213t-208 143.5t-257 52.5t-257 -52.5t-208 -143.5t-138 -213
t-50 -260t50 -259t138 -211t208 -142.5t257 -52.5t257 52.5t208 142.5t138 211t50 259zM1653 724q0 -157 -58.5 -294t-161 -240.5t-239.5 -163t-294 -59.5t-293 59.5t-296.5 221.5t-160.5 477q0 156 58 294t160.5 241.5t238.5 163t293 59.5t294 -59.5t239.5 -163t161 -241.5
t58.5 -295z" />
    <glyph glyph-name="pi" unicode="&#x3c0;" horiz-adv-x="1312" 
d="M1063 -10q-96 0 -152.5 51t-56.5 168v723h-438v-932h-99v932h-167v92h972v-92h-164v-719q0 -53 20.5 -90t86.5 -37h33q32 0 55 4v-88q-48 -12 -90 -12z" />
    <glyph glyph-name="endash" unicode="&#x2013;" horiz-adv-x="1257" 
d="M154 571v95h950v-95h-950z" />
    <glyph glyph-name="emdash" unicode="&#x2014;" horiz-adv-x="2246" 
d="M154 571v95h1939v-95h-1939z" />
    <glyph glyph-name="quoteleft" unicode="&#x2018;" horiz-adv-x="477" 
d="M219 1221h113v-185h-189v187q0 176 156 250l35 -58q-66 -35 -90.5 -77t-24.5 -117z" />
    <glyph glyph-name="quoteright" unicode="&#x2019;" horiz-adv-x="436" 
d="M324 1266q0 -176 -156 -250l-35 57q66 35 90.5 77t24.5 118h-113v184h189v-186z" />
    <glyph glyph-name="quotesinglbase" unicode="&#x201a;" horiz-adv-x="497" 
d="M344 -2q0 -176 -156 -250l-34 57q66 35 90 77t24 118h-112v184h188v-186z" />
    <glyph glyph-name="quotedblleft" unicode="&#x201c;" horiz-adv-x="790" 
d="M219 1237h113v-184h-189v186q0 176 156 250l35 -57q-66 -35 -90.5 -77t-24.5 -118zM553 1237h113v-184h-189v186q0 176 156 250l35 -57q-66 -35 -90.5 -77t-24.5 -118z" />
    <glyph glyph-name="quotedblright" unicode="&#x201d;" horiz-adv-x="770" 
d="M324 1266q0 -176 -156 -250l-35 57q66 35 90.5 77t24.5 118h-113v184h189v-186zM657 1266q0 -176 -155 -250l-35 57q66 35 90.5 77t24.5 118h-113v184h188v-186z" />
    <glyph glyph-name="quotedblbase" unicode="&#x201e;" horiz-adv-x="821" 
d="M334 -2q0 -176 -156 -250l-35 57q66 35 90.5 77t24.5 118h-113v184h189v-186zM668 -2q0 -176 -156 -250l-35 57q66 35 90.5 77t24.5 118h-113v184h189v-186z" />
    <glyph glyph-name="dagger" unicode="&#x2020;" horiz-adv-x="1161" 
d="M631 934v-1190h-99v1190h-403v90h403v428h99v-428h401v-90h-401z" />
    <glyph glyph-name="daggerdbl" unicode="&#x2021;" horiz-adv-x="1161" 
d="M631 172v-428h-99v428h-401v90h401v672h-403v90h403v428h99v-428h401v-90h-401v-672h403v-90h-403z" />
    <glyph glyph-name="bullet" unicode="&#x2022;" horiz-adv-x="872" 
d="M672 598q0 -49 -18.5 -92t-50.5 -75t-75 -50.5t-92 -18.5t-92 18.5t-74.5 50.5t-50 75t-18.5 92t18.5 92t50 75t74.5 50.5t92 18.5t92 -18.5t75 -50.5t50.5 -75t18.5 -92z" />
    <glyph glyph-name="ellipsis" unicode="&#x2026;" horiz-adv-x="1757" 
d="M205 0v182h176v-182h-176zM791 0v182h176v-182h-176zM1376 0v182h176v-182h-176z" />
    <glyph glyph-name="perthousand" unicode="&#x2030;" horiz-adv-x="2332" 
d="M1407 344q0 57 -11.5 108.5t-37 89.5t-65.5 59.5t-95 21.5t-95 -21.5t-65.5 -59.5t-37 -89.5t-11.5 -108.5t11.5 -108.5t37 -89t65.5 -59t95 -21.5t95 21.5t65.5 59t37 89t11.5 108.5zM651 1108q0 57 -12 108.5t-38 89t-65.5 59t-95 21.5t-95.5 -21.5t-65.5 -59t-37 -89
t-11.5 -108.5t12.5 -108.5t38 -89.5t65.5 -59.5t95.5 -21.5t95.5 21.5t65.5 59.5t36.5 89.5t11 108.5zM2122 344q0 57 -11.5 108.5t-37 89.5t-65.5 59.5t-95 21.5t-95 -21.5t-66 -59.5t-37 -89.5t-11 -108.5t11 -108.5t37 -89t66 -59t95 -21.5t95 21.5t65.5 59t37 89
t11.5 108.5zM895 344q0 150 66 250q83 119 237.5 119t237.5 -119q63 -95 63 -248.5t-63 -251.5q-83 -119 -238.5 -119t-229.5 109q-73 110 -73 260zM330 -25l-72 56l1059 1442l74 -52zM205 858q-66 100 -66 249t66 249q84 121 236.5 121t236.5 -121q65 -98 65 -249t-65 -249
q-84 -121 -236.5 -121t-236.5 121zM2214 344q0 -150 -66 -250q-83 -119 -236.5 -119t-236.5 119q-65 98 -65 250t65 250q83 119 236.5 119t236.5 -119q66 -100 66 -250z" />
    <glyph glyph-name="guilsinglleft" unicode="&#x2039;" horiz-adv-x="645" 
d="M444 147l-331 449l331 448l68 -51l-279 -397l279 -395z" />
    <glyph glyph-name="guilsinglright" unicode="&#x203a;" horiz-adv-x="645" 
d="M203 147l-70 54l281 395l-281 397l70 51l329 -448z" />
    <glyph glyph-name="fraction" unicode="&#x2044;" horiz-adv-x="1206" 
d="M115 -25l-72 56l1059 1442l74 -52z" />
    <glyph glyph-name="Euro" unicode="&#x20ac;" horiz-adv-x="1214" 
d="M80 526v86h164q-2 25 -2 32v75q0 69 2 94h-164v86h172q27 242 179 398q153 155 370 155t362 -98l-39 -86q-128 86 -317 86t-318 -140q-101 -113 -127 -315h592l-39 -86h-559q-2 -27 -2 -33v-74q0 -69 2 -94h482l-39 -86h-437q23 -199 127 -315q127 -139 318 -139t317 86
l39 -86q-146 -99 -344 -99q-239 0 -395 160q-135 138 -172 393h-172z" />
    <glyph glyph-name="trademark" unicode="&#x2122;" horiz-adv-x="1691" 
d="M377 1370v-741h-86v741h-236v84h557v-84h-235zM1436 629v723l-252 -705h-60l-252 705v-723h-84v825h130l237 -668l236 668h131v-825h-86z" />
    <glyph glyph-name="Omega" unicode="&#x2126;" horiz-adv-x="1802" 
d="M1130 846q0 55 -38.5 102t-128.5 47h-181v-301h179q90 0 129.5 48.5t39.5 103.5zM1155 668q-70 -70 -194 -70h-179v-293h-96v787h277q123 0 192.5 -71.5t69.5 -177t-70 -175.5zM1554 724q0 138 -50 260t-138 213t-208 143.5t-257 52.5t-257 -52.5t-208 -143.5t-138 -213
t-50 -260t50 -259t138 -211t208 -142.5t257 -52.5t257 52.5t208 142.5t138 211t50 259zM1653 724q0 -157 -58.5 -294t-161 -240.5t-239.5 -163t-294 -59.5t-293 59.5t-296.5 221.5t-160.5 477q0 156 58 294t160.5 241.5t238.5 163t293 59.5t294 -59.5t239.5 -163t161 -241.5
t58.5 -295z" />
    <glyph glyph-name="partialdiff" unicode="&#x2202;" 
d="M250 0v98h334v1198l-355 -260v115l365 272h92v-1325h334v-98h-770z" />
    <glyph glyph-name="Delta" unicode="&#x2206;" horiz-adv-x="1443" 
d="M1161 496v798l-999 -999l-68 67l1004 1002h-781v88h930v-956h-86z" />
    <glyph glyph-name="product" unicode="&#x220f;" horiz-adv-x="1839" 
d="M164 -575v38h1511v-38h-1511zM164 -188v38h1511v-38h-1511zM164 201v39h1511v-39h-1511zM164 588v39h1511v-39h-1511zM164 977v39h1511v-39h-1511zM164 1364v39h1511v-39h-1511zM164 1753v39h1511v-39h-1511z" />
    <glyph glyph-name="summation" unicode="&#x2211;" horiz-adv-x="1896" 
d="M164 -147v450h82v-364h1407v364h80v-450h-1569z" />
    <glyph glyph-name="minus" unicode="&#x2212;" horiz-adv-x="1290" 
d="M139 571v95h951v-95h-951z" />
    <glyph glyph-name="radical" unicode="&#x221a;" horiz-adv-x="1392" 
d="M1413 1704v-90h-237l-543 -1630h-105l-354 1017h111l297 -872l518 1575h313z" />
    <glyph glyph-name="infinity" unicode="&#x221e;" horiz-adv-x="1474" 
d="M969 705h-318q-146 0 -245 -85t-99 -229q0 -143 99.5 -221t255.5 -78h307v613zM677 1360q-152 0 -247.5 -75t-95.5 -211q0 -137 87 -208t230 -71h318v243h102v-243h232v-90h-232v-613h232v-94h-650q-194 0 -322 102t-128 295q0 119 65.5 213t180.5 144q-104 39 -162 127
t-58 189q0 190 125.5 289t298.5 99q96 0 174 -20v-93q-78 17 -150 17z" />
    <glyph glyph-name="integral" unicode="&#x222b;" horiz-adv-x="1443" 
d="M283 496h-86v956h929v-88h-780l1004 -1002l-68 -67l-999 999v-798z" />
    <glyph glyph-name="approxequal" unicode="&#x2248;" horiz-adv-x="1312" 
d="M435 350q-63 0 -103.5 -25.5t-89.5 -72.5l-72 72q59 61 119.5 98t134.5 37t131 -19.5t110.5 -44t104 -44t110.5 -19.5t100 22.5t91 69.5l72 -72q-129 -133 -256 -133q-74 0 -127 20.5t-105.5 45t-104.5 45t-115 20.5zM887 657q-74 0 -127 20.5t-105.5 46.5t-104.5 46.5
t-115 20.5t-103.5 -26t-89.5 -73l-72 72q59 61 119.5 98t134.5 37t131 -20.5t110.5 -44t104 -44t110.5 -20.5t100 23.5t91 70.5l72 -71q-59 -61 -120.5 -98.5t-135.5 -37.5z" />
    <glyph glyph-name="notequal" unicode="&#x2260;" horiz-adv-x="1419" 
d="M231 279v94h263l262 391h-525v94h588l148 219l67 -45l-116 -174h270v-94h-334l-262 -391h596v-94h-660l-149 -224l-68 45l119 179h-199z" />
    <glyph glyph-name="lessequal" unicode="&#x2264;" horiz-adv-x="1724" 
d="M1630 670v-92h-1384l567 -564l-61 -61l-672 670l670 669l61 -61l-565 -561h1384z" />
    <glyph glyph-name="greaterequal" unicode="&#x2265;" horiz-adv-x="1724" 
d="M94 578v92h1385l-566 561l62 61l670 -669l-672 -670l-62 61l568 564h-1385z" />
    <glyph glyph-name="lozenge" unicode="&#x25ca;" 
d="M539 72q176 0 262 82q119 114 126 301.5t7 331.5t-27 264l-624 -770q80 -209 256 -209zM621.5 1354q-173.5 0 -259.5 -82q-116 -111 -124.5 -300.5t-8.5 -325.5t25 -265l625 770q-84 203 -257.5 203zM1002.5 339q-35.5 -159 -132.5 -251q-120 -115 -288.5 -115
t-288.5 115q-145 140 -156.5 340.5t-11.5 350t35 307t144 261.5q109 105 277.5 105t288.5 -115q145 -140 156.5 -340t11.5 -349.5t-35.5 -308.5z" />
    <glyph glyph-name="fi" unicode="&#xfb01;" horiz-adv-x="1269" 
d="M948 0v1024h109v-1024h-109zM930 1309v143h143v-143h-143zM567 1399q-195 0 -194 -199v-176h321v-94h-321v-930h-103v930h-204v94h204v180q0 121 74.5 204t214.5 83q82 0 156 -12v-93q-101 13 -148 13z" />
    <glyph glyph-name="fl" unicode="&#xfb02;" horiz-adv-x="1300" 
d="M1130 -12q-204 0 -204 217v1274h102v-1270q0 -53 20.5 -88t86.5 -35h33q32 0 55 4v-90q-48 -12 -93 -12zM567 1399q-195 0 -194 -199v-176h321v-94h-321v-930h-103v930h-204v94h204v180q0 121 74.5 204t214.5 83q82 0 156 -12v-93q-101 13 -148 13z" />
    </font>
</defs>
</svg>
