<?xml version="1.0" encoding="utf-8"?>
<!-- Generator: Adobe Illustrator 16.0.0, SVG Export Plug-In . SVG Version: 6.00 Build 0)  -->
<!DOCTYPE svg PUBLIC "-//W3C//DTD SVG 1.1//EN" "http://www.w3.org/Graphics/SVG/1.1/DTD/svg11.dtd">
<svg version="1.1" id="Слой_1" xmlns="http://www.w3.org/2000/svg" xmlns:xlink="http://www.w3.org/1999/xlink" x="0px" y="0px"
	 width="100px" height="100px" viewBox="0 0 100 100" enable-background="new 0 0 100 100" xml:space="preserve">
<path d="M24.481,40.185h0.889v37.038c0,0.518,0.444,0.963,0.963,0.963h50c0.518,0,0.963-0.445,0.963-0.963V40.185h0.963
	c0.518,0,0.963-0.444,0.963-0.963v-7.407c0-0.519-0.445-0.963-0.963-0.963H63.444c0.444-0.445,0.741-0.889,1.037-1.482
	c0.963-1.852,0.815-4.074-0.296-5.852s-3.037-2.815-5.111-2.815c-3.408,0-6.445,2-7.852,4.889c-1.408-2.889-4.445-4.889-7.852-4.889
	c-2.074,0-4,1.037-5.111,2.889c-1.111,1.777-1.185,4-0.296,5.852c0.296,0.519,0.667,1.037,1.037,1.481H24.481
	c-0.519,0-0.963,0.444-0.963,0.963v7.408C23.519,39.741,23.963,40.185,24.481,40.185z M25.371,35.593v-2.815h18.074h6.963v5.556
	H25.371V35.593z M77.223,35.593v2.741H52.26v-5.556h6.963h18V35.593z M27.222,40.185h23.185v36.149H27.222V40.185z M52.26,40.185
	h23.185v36.149H52.26V40.185z M59.148,22.63c1.407,0,2.74,0.74,3.555,2c0.741,1.259,0.815,2.74,0.223,4.074
	C62.186,30.111,60.777,31,59.223,31H52.26v-1.407C52.26,25.741,55.297,22.63,59.148,22.63z M39.667,28.63
	c-0.667-1.333-0.592-2.815,0.148-4.074s2.074-2,3.556-2c3.852,0,6.963,3.111,6.963,6.963v1.407h-6.963
	C41.815,30.926,40.407,30.037,39.667,28.63z"/>
</svg>
