<?xml version="1.0" encoding="utf-8"?>
<!-- Generator: Adobe Illustrator 16.0.0, SVG Export Plug-In . SVG Version: 6.00 Build 0)  -->
<!DOCTYPE svg PUBLIC "-//W3C//DTD SVG 1.1//EN" "http://www.w3.org/Graphics/SVG/1.1/DTD/svg11.dtd">
<svg version="1.1" id="Layer_1" xmlns="http://www.w3.org/2000/svg" xmlns:xlink="http://www.w3.org/1999/xlink" x="0px" y="0px"
	 width="100px" height="100px" viewBox="0 0 100 100" enable-background="new 0 0 100 100" xml:space="preserve">
<g>
	<g id="Paint_1_">
	</g>
	<g id="Time">
	</g>
	<g id="Peg">
	</g>
	<g id="Peg_2">
	</g>
	<g id="Spray">
	</g>
	<g id="Service">
	</g>
	<g id="Green_Tea">
	</g>
	<g>
		<g>
			<g>
				<path fill="#58595B" d="M16.808,45.271c2.405-16.861,16.898-29.88,34.415-29.88c17.518,0,32.013,13.019,34.418,29.881h1.409
					C84.633,27.635,69.519,13.99,51.225,13.99c-18.291,0-33.408,13.645-35.826,31.282H16.808z"/>
			</g>
			<g>
				<path fill="#58595B" d="M51.223,85.027c-18.278,0-33.283-14.169-34.68-32.098H15.14c1.4,18.7,17.031,33.498,36.083,33.498
					c19.053,0,34.686-14.797,36.083-33.498h-1.401C84.508,70.858,69.506,85.027,51.223,85.027z"/>
			</g>
		</g>
	</g>
	<g>
		<g>
			<g>
				<path fill="#6D6E70" d="M51.699,62.512l-16.268-16.27l16.268-16.269l16.268,16.269L51.699,62.512z M36.969,46.242l14.73,14.731
					l14.729-14.731L51.699,31.513L36.969,46.242z"/>
			</g>
		</g>
		<g>
			<g>
				<rect x="51.154" y="30.743" fill="#6D6E70" width="1.09" height="43.89"/>
			</g>
		</g>
		<g>
			<g>
				
					<rect x="41.891" y="41.687" transform="matrix(0.7071 0.7071 -0.7071 0.7071 43.795 -21.2665)" fill="#6D6E70" width="11.353" height="1.086"/>
			</g>
		</g>
		<g>
			<g>
				
					<rect x="55.053" y="36.555" transform="matrix(0.7051 0.7091 -0.7091 0.7051 46.3426 -26.9707)" fill="#6D6E70" width="1.087" height="11.35"/>
			</g>
		</g>
		<g>
			<g>
				
					<rect x="36.913" y="48.103" transform="matrix(0.7071 0.7071 -0.7071 0.7071 47.7311 -17.9293)" fill="#6D6E70" width="17.186" height="1.089"/>
			</g>
		</g>
		<g>
			<g>
				
					<rect x="57.118" y="40.055" transform="matrix(0.7053 0.7089 -0.7089 0.7053 51.4784 -26.5412)" fill="#6D6E70" width="1.088" height="17.185"/>
			</g>
		</g>
	</g>
	<g>
		<path fill="#58595B" d="M83.357,54.935"/>
	</g>
	<g>
		<polygon fill="#58595B" points="88.974,57.375 86.397,53.321 83.818,57.374 82.896,56.786 86.397,51.284 89.896,56.785 		"/>
	</g>
	<g>
		<polygon fill="#58595B" points="15.805,47.245 13.321,41.214 14.332,40.797 16.16,45.238 19.408,41.701 20.213,42.441 		"/>
	</g>
</g>
</svg>
