<?xml version="1.0" encoding="utf-8"?>
<!-- Generator: Adobe Illustrator 16.0.0, SVG Export Plug-In . SVG Version: 6.00 Build 0)  -->
<!DOCTYPE svg PUBLIC "-//W3C//DTD SVG 1.1//EN" "http://www.w3.org/Graphics/SVG/1.1/DTD/svg11.dtd">
<svg version="1.1" id="Слой_1" xmlns="http://www.w3.org/2000/svg" xmlns:xlink="http://www.w3.org/1999/xlink" x="0px" y="0px"
	 width="100px" height="100px" viewBox="0 0 100 100" enable-background="new 0 0 100 100" xml:space="preserve">
<g>
	<g>
		<g>
			<path fill="#58595B" d="M22.321,85.174h-2.723v-0.852h6.477v0.852h-2.732v8.079h-1.021L22.321,85.174L22.321,85.174z"/>
		</g>
		<g>
			<path fill="#58595B" d="M28.918,84.322h5.091v0.852h-4.08v2.941h3.428v0.857H29.93V92.4h4.208v0.853h-5.22V84.322z"/>
		</g>
		<g>
			<path fill="#58595B" d="M41.338,90.436h-3.33l-0.918,2.817h-1.014l3.051-8.931h1.114l3.062,8.931h-1.075L41.338,90.436z
				 M41.087,89.639l-0.47-1.451c-0.338-1.013-0.623-1.979-0.929-3.024h-0.045c-0.291,1.062-0.587,2.013-0.913,3.024l-0.469,1.451
				H41.087z"/>
		</g>
		<g>
			<rect x="45.812" y="84.322" fill="#58595B" width="0.917" height="8.931"/>
		</g>
		<g>
			<rect x="52.221" y="84.322" fill="#58595B" width="0.92" height="8.931"/>
		</g>
		<g>
			<path fill="#58595B" d="M60.921,90.436h-3.338l-0.912,2.817h-1.014l3.055-8.931h1.106l3.068,8.931h-1.074L60.921,90.436z
				 M60.664,89.639l-0.465-1.451c-0.342-1.013-0.622-1.979-0.93-3.024h-0.045c-0.299,1.062-0.593,2.013-0.916,3.024l-0.468,1.451
				H60.664z"/>
		</g>
		<g>
			<path fill="#58595B" d="M65.396,84.322h2.195c2.744,0,4.176,1.617,4.176,4.428c0,2.807-1.432,4.503-4.14,4.503h-2.231V84.322z
				 M67.506,92.425c2.174,0,3.221-1.393,3.221-3.675c0-2.284-1.047-3.6-3.221-3.6h-1.097v7.273L67.506,92.425L67.506,92.425z"/>
		</g>
		<g>
			<path fill="#58595B" d="M74.951,84.322h5.088v0.852h-4.074v2.941h3.426v0.857h-3.426V92.4h4.21v0.853h-5.224V84.322z"/>
		</g>
		<g>
			<path fill="#58595B" d="M52.234,84.324c-0.493,0.826-1.396,1.265-2.714,1.265c-1.32,0-2.259-0.438-2.761-1.265h-0.906
				c0.512,1.406,1.783,2.169,3.667,2.169c1.871,0,3.104-0.757,3.6-2.169H52.234z"/>
		</g>
	</g>
	<g>
		<g>
			<rect x="39.845" y="43.593" fill="#59595B" stroke="#58595B" stroke-miterlimit="10" width="19.094" height="1.294"/>
		</g>
		<g>
			<rect x="48.746" y="44.403" fill="#59595B" stroke="#58595B" stroke-miterlimit="10" width="1.294" height="15.666"/>
		</g>
	</g>
	<g>
		<rect x="58.062" y="21.463" fill="#59595B" stroke="#58595B" stroke-miterlimit="10" width="1.295" height="9.654"/>
	</g>
	<g>
		<rect x="38.952" y="21.463" fill="#59595B" stroke="#58595B" stroke-miterlimit="10" width="1.296" height="9.654"/>
	</g>
	<g>
		<rect x="33.848" y="25.644" fill="#59595B" stroke="#58595B" stroke-miterlimit="10" width="11.503" height="1.294"/>
	</g>
	<g>
		<rect x="52.964" y="25.644" fill="#59595B" stroke="#58595B" stroke-miterlimit="10" width="11.503" height="1.294"/>
	</g>
	<g>
		<polygon fill="#59595B" stroke="#58595B" stroke-miterlimit="10" points="33.036,46.262 32.202,45.268 49.328,30.999 
			66.384,45.201 65.557,46.193 49.328,32.682 		"/>
	</g>
	<g>
		
			<rect x="39.722" y="46.643" transform="matrix(-0.7073 -0.7069 0.7069 -0.7073 31.8635 118.0444)" fill="#59595B" stroke="#58595B" stroke-miterlimit="10" width="1.297" height="11.565"/>
	</g>
	<g>
		
			<rect x="53.835" y="52.183" transform="matrix(-0.707 -0.7072 0.7072 -0.707 63.4306 131.9377)" fill="#59595B" stroke="#58595B" stroke-miterlimit="10" width="10.425" height="1.291"/>
	</g>
	<g>
		<path fill="#59595B" stroke="#58595B" stroke-miterlimit="10" d="M49.295,74.739c-18.47,0-33.5-15.028-33.5-33.498
			c0-18.47,15.03-33.498,33.5-33.498c18.473,0,33.5,15.028,33.5,33.498C82.795,59.711,67.768,74.739,49.295,74.739z M49.295,9.04
			c-17.755,0-32.202,14.447-32.202,32.202c0,17.759,14.447,32.201,32.202,32.201c17.757,0,32.202-14.442,32.202-32.201
			C81.497,23.487,67.052,9.04,49.295,9.04z"/>
	</g>
</g>
</svg>
