<?xml version="1.0" encoding="utf-8"?>
<!-- Generator: Adobe Illustrator 16.0.0, SVG Export Plug-In . SVG Version: 6.00 Build 0)  -->
<!DOCTYPE svg PUBLIC "-//W3C//DTD SVG 1.1//EN" "http://www.w3.org/Graphics/SVG/1.1/DTD/svg11.dtd">
<svg version="1.1" id="Layer_1" xmlns="http://www.w3.org/2000/svg" xmlns:xlink="http://www.w3.org/1999/xlink" x="0px" y="0px"
	 width="512px" height="512px" viewBox="0 0 512 512" enable-background="new 0 0 512 512" xml:space="preserve">
<g id="_x23_020201ff">
	<path d="M223.22,51.227c16.066-15.298,38.918-20.465,60.478-21.109c22.799-0.205,45.589-0.081,68.388-0.072
		c0.09,24.054,0.098,48.111-0.009,72.161c-14.734-0.023-29.479,0.036-44.212-0.023c-9.345-0.582-18.938,6.5-20.638,15.762
		c-0.224,16.093-0.08,32.195-0.069,48.289c21.607,0.089,43.22-0.027,64.829,0.054c-1.582,23.281-4.473,46.456-7.858,69.541
		c-19.088,0.18-38.188-0.018-57.272,0.102c-0.17,68.665,0.09,177.329-0.136,245.995c-28.352,0.113-56.721-0.057-85.072,0.08
		c-0.537-68.677,0.044-177.386-0.295-246.066c-13.832-0.146-27.672,0.099-41.503-0.116c0.053-23.085,0.018-46.169,0.026-69.246
		c13.822-0.169,27.654,0.036,41.477-0.098c0.42-22.442-0.421-44.91,0.438-67.333C203.175,81.385,209.943,63.493,223.22,51.227z"/>
</g>
</svg>
