<?xml version="1.0" encoding="utf-8"?>
<!-- Generator: Adobe Illustrator 16.0.0, SVG Export Plug-In . SVG Version: 6.00 Build 0)  -->
<!DOCTYPE svg PUBLIC "-//W3C//DTD SVG 1.1//EN" "http://www.w3.org/Graphics/SVG/1.1/DTD/svg11.dtd">
<svg version="1.1" id="Layer_1" xmlns="http://www.w3.org/2000/svg" xmlns:xlink="http://www.w3.org/1999/xlink" x="0px" y="0px"
	 width="60px" height="60px" viewBox="0 0 60 60" enable-background="new 0 0 60 60" xml:space="preserve">
<g>
	<path fill="#282828" d="M136.763-64.546h0.705v-3.394l6-6l-6.353-6.352l-6.352,6.352l5.999,6V-64.546z M137.468-74.359l2.293-2.293
		l1.264,1.264l-3.557,3.558V-74.359z M137.468-75.355v-3.59l1.795,1.794L137.468-75.355z M136.763-75.367l-1.788-1.79l1.788-1.789
		V-75.367z M136.763-74.371v2.522l-3.548-3.547l1.262-1.263L136.763-74.371z M137.468-68.935v-1.899l4.055-4.056l0.95,0.95
		L137.468-68.935z M131.759-73.94l0.958-0.958l4.046,4.045v1.917L131.759-73.94z"/>
	<path fill="#282828" d="M117.635-73.94l5.999,6v3.394h0.704v-3.394l6.002-6l-6.354-6.352L117.635-73.94z M123.634-74.372v2.524
		l-3.549-3.548l1.262-1.263L123.634-74.372z M121.845-77.156l1.789-1.789v3.577L121.845-77.156z M124.338-74.358l2.293-2.294
		l1.265,1.264l-3.558,3.558V-74.358z M124.338-75.355v-3.59l1.795,1.794L124.338-75.355z M118.63-73.94l0.957-0.958l4.047,4.046
		v1.917L118.63-73.94z M124.338-68.935v-1.899l4.056-4.056l0.95,0.95L124.338-68.935z"/>
	<path fill="#282828" d="M104.571-73.94l6,6v3.394h0.704v-3.394l5.999-6l-6.352-6.352L104.571-73.94z M110.571-74.372v2.524
		l-3.549-3.548l1.262-1.262L110.571-74.372z M108.782-77.156l1.789-1.789v3.577L108.782-77.156z M111.275-74.358l2.292-2.294
		l1.265,1.265l-3.557,3.557V-74.358z M111.275-75.355v-3.59l1.794,1.795L111.275-75.355z M105.566-73.94l0.958-0.958l4.047,4.046
		v1.917L105.566-73.94z M111.275-68.935v-1.899l4.055-4.055l0.95,0.949L111.275-68.935z"/>
	<path fill="#282828" d="M137.115-63.492l-6.352,6.352l5.999,6v3.394h0.705v-3.394l6-6L137.115-63.492z M137.468-62.145l1.795,1.794
		l-1.795,1.795V-62.145z M136.763-58.568l-1.788-1.789l1.788-1.789V-58.568z M136.763-57.572v2.523l-3.548-3.548l1.262-1.262
		L136.763-57.572z M137.468-57.56l2.293-2.292l1.264,1.264l-3.557,3.558V-57.56z M131.759-57.141l0.958-0.958l4.046,4.046v1.917
		L131.759-57.141z M137.468-54.034l4.055-4.057l0.95,0.95l-5.005,5.005V-54.034z"/>
	<path fill="#282828" d="M123.986-63.492l-6.352,6.352l5.999,6v3.394h0.704v-3.394l6.002-6L123.986-63.492z M124.338-62.145
		l1.795,1.794l-1.795,1.795V-62.145z M123.634-58.569l-1.789-1.788l1.789-1.789V-58.569z M123.634-57.573v2.525l-3.549-3.548
		l1.262-1.262L123.634-57.573z M124.338-57.559l2.293-2.294l1.265,1.264l-3.558,3.558V-57.559z M118.63-57.141l0.957-0.958
		l4.047,4.046v1.916L118.63-57.141z M124.338-54.035l4.056-4.056l0.95,0.95l-5.006,5.005V-54.035z"/>
	<path fill="#282828" d="M110.923-63.492l-6.352,6.352l6,6v3.394h0.704v-3.394l5.999-6L110.923-63.492z M111.275-62.145l1.795,1.794
		l-1.795,1.795V-62.145z M110.571-58.569l-1.789-1.788l1.789-1.789V-58.569z M110.571-57.573v2.524l-3.549-3.548l1.262-1.262
		L110.571-57.573z M111.275-57.559l2.293-2.294l1.264,1.264l-3.557,3.558V-57.559z M105.566-57.141l0.958-0.958l4.047,4.046v1.917
		L105.566-57.141z M111.275-54.034l4.055-4.056l0.95,0.95l-5.005,5.005V-54.034z"/>
</g>
<g>
	<path fill="#282828" d="M29.701-72.121c5.258,0,9.223-1.675,9.223-3.898c0-2.223-3.965-3.898-9.223-3.898
		c-5.257,0-9.222,1.675-9.222,3.898C20.479-73.796,24.443-72.121,29.701-72.121z M29.701-79.027c4.91,0,8.332,1.585,8.332,3.007
		c0,1.423-3.422,3.008-8.332,3.008c-4.91,0-8.331-1.585-8.331-3.008C21.37-77.442,24.791-79.027,29.701-79.027z"/>
	<path fill="#282828" d="M41.197-64.479v-0.784c0.098,0.004,0.206,0.008,0.323,0.008c0.79,0,1.982-0.154,2.923-0.941
		c0.921-0.77,1.388-1.955,1.388-3.525c0-1.114-0.364-2.012-1.083-2.667c-1.103-1.004-2.741-1.144-3.551-1.146v-1.406v-1.363H41.16
		c-0.382-3.003-5.291-5.307-11.506-5.307c-6.473,0-11.543,2.496-11.543,5.682v11.353c-3.977,2.023-6.437,5.005-6.437,7.847
		c0,5.679,8.22,10.299,18.324,10.299c10.105,0,18.327-4.62,18.327-10.299C48.326-59.883,45.923-62.488,41.197-64.479z
		 M41.197-72.642c0.681,0.002,2.071,0.112,2.95,0.914c0.534,0.485,0.792,1.142,0.792,2.007c0,1.291-0.357,2.246-1.063,2.838
		c-0.87,0.73-2.08,0.763-2.679,0.725V-72.642z M29.654-80.718c5.774,0,10.652,2.194,10.652,4.791c0,2.597-4.878,4.791-10.652,4.791
		s-10.652-2.194-10.652-4.791C19.002-78.524,23.88-80.718,29.654-80.718z M19.002-73.699c1.728,2.047,5.795,3.453,10.652,3.453
		s8.924-1.406,10.652-3.453v10.011c0,6.078-3.647,9.032-11.149,9.032c-7.45,0-10.154-5.102-10.154-8.531V-73.699z M29.999-47.321
		c-9.613,0-17.433-4.22-17.433-9.407c0-2.413,2.105-4.99,5.545-6.846v0.386c0,3.787,2.941,9.423,11.045,9.423
		c7.917,0,11.96-3.283,12.034-9.749c4.142,1.815,6.244,4.095,6.244,6.786C47.434-51.541,39.612-47.321,29.999-47.321z"/>
</g>
<g>
	<path fill="#282828" d="M15.943,26.907l-0.653-0.652l-1.414,1.414c1.141-8.028,8.158-14.193,16.359-14.193
		c8.266,0,15.31,6.169,16.384,14.351l0.915-0.12c-1.134-8.64-8.571-15.154-17.299-15.154c-8.762,0-16.243,6.667-17.312,15.291
		l-1.587-1.588l-0.653,0.652l2.63,2.631L15.943,26.907z"/>
	<path fill="#282828" d="M49.316,34.566l-2.63-2.629l-2.63,2.63l0.653,0.652l1.611-1.61c-1.67,7.534-8.295,12.915-16.114,12.915
		c-8.046,0-14.892-5.743-16.277-13.656l-0.91,0.159c1.462,8.356,8.691,14.421,17.187,14.421c8.263,0,15.276-5.687,17.032-13.653
		l1.425,1.425L49.316,34.566z"/>
	<path fill="#282828" d="M30.657,42.358V37.23l8.988-8.987l-9.45-9.45l-9.45,9.45l8.988,8.987v5.128H30.657z M30.657,27.584
		l3.513-3.511l1.994,1.994l-5.507,5.507V27.584z M30.657,26.278v-5.718l2.86,2.859L30.657,26.278z M29.733,26.26l-2.85-2.85
		l2.85-2.85V26.26z M29.733,27.566v3.983l-5.495-5.495l1.992-1.991L29.733,27.566z M30.657,35.925V32.88l6.16-6.16l1.523,1.523
		L30.657,35.925z M22.051,28.243l1.534-1.535l6.148,6.147v3.069L22.051,28.243z"/>
</g>
<path fill="#282828" d="M127.89,20.279c1.936-0.601,3.355-1.58,4.314-2.453c1.644-1.498,2.327-2.988,2.354-3.052l-0.821-0.37
	c-0.092,0.202-2.121,4.479-7.658,5.368l2.499-2.495c0.037-0.035,0.901-0.861,0.92-2.031c0.011-0.723-0.295-1.401-0.911-2.019
	c-1.482-1.479-3.48-0.482-4.568,0.436c-1.09-0.918-3.085-1.912-4.563-0.436c-0.617,0.617-0.924,1.296-0.913,2.019
	c0.019,1.17,0.886,1.997,0.913,2.022l2.568,2.564c-5.584-0.866-7.628-5.174-7.721-5.378l-0.821,0.372
	c0.028,0.062,0.712,1.554,2.354,3.05c0.935,0.852,2.309,1.799,4.166,2.402h-9.606v27.247h27.248V20.279H127.89z M123.569,46.625
	h-12.273V31.8h12.273V46.625z M123.569,21.646v9.251h-12.273V21.18h12.077l0.063,0.063l0.062-0.063h0.071V21.646z M123.569,19.976
	c-0.045-0.001-0.089-0.004-0.134-0.007l-3.353-3.347c-0.007-0.006-0.631-0.612-0.64-1.396c-0.005-0.468,0.214-0.925,0.648-1.359
	c1.228-1.228,2.982,0.16,3.478,0.603V19.976z M124.472,14.465c0.495-0.44,2.248-1.828,3.478-0.6c0.436,0.435,0.652,0.893,0.647,1.36
	c-0.009,0.785-0.632,1.391-0.646,1.405l-3.288,3.283c-0.064,0.003-0.127,0.007-0.19,0.009V14.465z M124.021,14.272l0.002-0.002
	l0.001,0.002H124.021z M136.742,46.625h-12.271V31.8h12.271V46.625z M136.742,30.897h-12.271v-9.251V21.18h0.071l0.062,0.063
	l0.063-0.063h12.073V30.897z"/>
</svg>
